<?xml version="1.0" encoding="utf-8" standalone="no"?>
<!-- Generated by Therion 6.0.3 (2021-10-03) -->
<!DOCTYPE svg PUBLIC "-//W3C//DTD SVG 1.1//EN" "http://www.w3.org/Graphics/SVG/1.1/DTD/svg11.dtd">
<svg width="5.246cm" height="1.5cm" viewBox="-1610 -940 100 10" xmlns="http://www.w3.org/2000/svg" xmlns:xlink="http://www.w3.org/1999/xlink">
<defs>
<g id="F_aaaaaaa_renders/out.svg">
<path fill="none" stroke="#000000" stroke-width="0.600" d="M87.619 10.598C86.534 9.764 85.475 8.991 84.440 8.275" />
<path fill="none" stroke="#000000" stroke-width="0.600" d="M81.617 6.422C81.129 6.120 80.646 5.831 80.169 5.554" />
<path fill="none" stroke="#000000" stroke-width="0.600" d="M77.194 3.960C75.951 3.350 74.748 2.830 73.582 2.394" />
<path fill="none" stroke="#000000" stroke-width="0.600" d="M70.366 1.372C69.810 1.227 69.262 1.102 68.722 0.996" />
<path fill="none" stroke="#000000" stroke-width="0.600" d="M65.376 0.555C64.016 0.467 62.708 0.497 61.442 0.624" />
<path fill="none" stroke="#000000" stroke-width="0.600" d="M58.117 1.195C57.568 1.328 57.026 1.478 56.491 1.643" />
<path fill="none" stroke="#000000" stroke-width="0.600" d="M53.326 2.816C52.121 3.334 50.944 3.916 49.784 4.538" />
<path fill="none" stroke="#000000" stroke-width="0.600" d="M46.848 6.203C46.364 6.490 45.882 6.780 45.400 7.072" />
<path fill="none" stroke="#000000" stroke-width="0.600" d="M42.515 8.826C41.389 9.507 40.258 10.176 39.113 10.810" />
<path fill="none" stroke="#000000" stroke-width="0.600" d="M36.111 12.355C35.602 12.595 35.089 12.825 34.570 13.042" />
<path fill="none" stroke="#000000" stroke-width="0.600" d="M31.393 14.182C30.150 14.550 28.871 14.833 27.546 15.009" />
<path fill="none" stroke="#000000" stroke-width="0.600" d="M24.179 15.213C23.626 15.207 23.064 15.182 22.494 15.135" />
<path fill="none" stroke="#000000" stroke-width="0.600" d="M19.155 14.638C17.936 14.376 16.677 14.020 15.371 13.557" />
<path fill="none" stroke="#000000" stroke-width="0.600" d="M12.245 12.284C11.745 12.054 11.238 11.809 10.725 11.549" />
<path fill="none" stroke="#000000" stroke-width="0.600" d="M7.769 9.919C6.692 9.279 5.587 8.573 4.451 7.797" />
<path fill="none" stroke="#000000" stroke-width="0.600" d="M1.709 5.828C1.266 5.496 0.820 5.154 0.369 4.801" />
</g>
<g id="G_aaaaaaa_renders/out.svg">
</g>
<g id="B_aaaaaaa_renders/out.svg">
</g>
<g id="I_aaaaaaa_renders/out.svg">
</g>
<g id="E_aaaaaaa_renders/out.svg">
</g>
<g id="X_aaaaaaa_renders/out.svg">
</g>
<clipPath id="clip_viewBox">
<path d="M-1635.856 899.694L-1491.163 899.694L-1491.163 972.387L-1635.856 972.387z" />
</clipPath>
</defs>
<g transform="scale(1,-1)" fill="#000000" stroke="#000000" stroke-linecap="round" stroke-linejoin="round" stroke-miterlimit="10" fill-rule="evenodd" clip-rule="evenodd" clip-path="url(#clip_viewBox)">
<use x="-1607.510" y="928.040" xlink:href="#F_aaaaaaa_renders/out.svg" />
</g>
</svg>
