<?xml version="1.0" encoding="utf-8" standalone="no"?>
<!-- Generated by Therion 6.0.3 (2021-10-03) -->
<!DOCTYPE svg PUBLIC "-//W3C//DTD SVG 1.1//EN" "http://www.w3.org/Graphics/SVG/1.1/DTD/svg11.dtd">
<svg width="5.246cm" height="1.5cm" viewBox="-1610 -940 100 10" xmlns="http://www.w3.org/2000/svg" xmlns:xlink="http://www.w3.org/1999/xlink">
<defs>
<g id="F_aaaaaaa_renders/out.svg">
<path fill="#000000" stroke="none" d="M90.950 15.640C89.957 14.848 88.987 14.106 88.036 13.411L91.613 11.592Z" />
<path fill="#000000" stroke="none" d="M88.036 13.411C87.008 12.659 86.005 11.963 85.024 11.319L88.512 9.332Z" />
<path fill="#000000" stroke="none" d="M85.023 11.319C83.956 10.618 82.915 9.979 81.900 9.399L85.269 7.213Z" />
<path fill="#000000" stroke="none" d="M81.899 9.399C80.786 8.763 79.704 8.198 78.651 7.698L81.861 5.278Z" />
<path fill="#000000" stroke="none" d="M78.651 7.698C77.490 7.147 76.364 6.676 75.270 6.279L78.263 3.586Z" />
<path fill="#000000" stroke="none" d="M75.270 6.279C74.062 5.840 72.893 5.490 71.759 5.221L74.458 2.221Z" />
<path fill="#000000" stroke="none" d="M71.759 5.221C70.513 4.926 69.310 4.728 68.144 4.616L70.448 1.289Z" />
<path fill="#000000" stroke="none" d="M68.144 4.616C66.881 4.495 65.662 4.475 64.481 4.542L66.290 0.910Z" />
<path fill="#000000" stroke="none" d="M64.482 4.542C63.231 4.613 62.022 4.781 60.849 5.029L62.101 1.160Z" />
<path fill="#000000" stroke="none" d="M60.848 5.029C59.639 5.285 58.467 5.625 57.323 6.031L58.034 2.023Z" />
<path fill="#000000" stroke="none" d="M57.323 6.031C56.169 6.442 55.044 6.919 53.940 7.444L54.199 3.384Z" />
<path fill="#000000" stroke="none" d="M53.940 7.444C52.838 7.968 51.757 8.540 50.688 9.140L50.624 5.078Z" />
<path fill="#000000" stroke="none" d="M50.689 9.140C49.624 9.737 48.572 10.363 47.524 10.997L47.275 6.951Z" />
<path fill="#000000" stroke="none" d="M47.524 10.996C46.479 11.629 45.437 12.270 44.391 12.901L44.089 8.872Z" />
<path fill="#000000" stroke="none" d="M44.391 12.901C43.342 13.534 42.288 14.156 41.222 14.749L40.998 10.731Z" />
<path fill="#000000" stroke="none" d="M41.222 14.749C40.151 15.345 39.066 15.910 37.960 16.426L37.948 12.421Z" />
<path fill="#000000" stroke="none" d="M37.960 16.426C36.852 16.943 35.723 17.410 34.564 17.808L34.895 13.839Z" />
<path fill="#000000" stroke="none" d="M34.564 17.808C33.417 18.201 32.241 18.527 31.027 18.765L31.819 14.887Z" />
<path fill="#000000" stroke="none" d="M31.027 18.765C29.852 18.996 28.641 19.146 27.388 19.196L28.714 15.486Z" />
<path fill="#000000" stroke="none" d="M27.388 19.196C26.207 19.243 24.988 19.203 23.726 19.060L25.589 15.598Z" />
<path fill="#000000" stroke="none" d="M23.726 19.060C22.563 18.929 21.363 18.711 20.121 18.396L22.456 15.231Z" />
<path fill="#000000" stroke="none" d="M20.121 18.396C18.993 18.109 17.829 17.741 16.627 17.285L19.340 14.426Z" />
<path fill="#000000" stroke="none" d="M16.627 17.285C15.540 16.871 14.421 16.385 13.267 15.820L16.264 13.247Z" />
<path fill="#000000" stroke="none" d="M13.267 15.819C12.220 15.306 11.145 14.727 10.039 14.079L13.246 11.759Z" />
<path fill="#000000" stroke="none" d="M10.039 14.079C9.030 13.487 7.997 12.837 6.936 12.125L10.299 10.023Z" />
<path fill="#000000" stroke="none" d="M6.936 12.125C5.961 11.471 4.964 10.764 3.942 10.003L7.425 8.089Z" />
<path fill="#000000" stroke="none" d="M3.942 10.003C2.999 9.300 2.035 8.549 1.050 7.750L4.619 5.992Z" />
<path fill="none" stroke="#000000" stroke-width="0.600" d="M90.950 15.640C46.610 -19.730 45.390 43.730 1.050 7.750" />
</g>
<g id="G_aaaaaaa_renders/out.svg">
</g>
<g id="B_aaaaaaa_renders/out.svg">
</g>
<g id="I_aaaaaaa_renders/out.svg">
</g>
<g id="E_aaaaaaa_renders/out.svg">
</g>
<g id="X_aaaaaaa_renders/out.svg">
</g>
<clipPath id="clip_viewBox">
<path d="M-1637.856 895.694L-1489.163 895.694L-1489.163 972.387L-1637.856 972.387z" />
</clipPath>
</defs>
<g transform="scale(1,-1)" fill="#000000" stroke="#000000" stroke-linecap="round" stroke-linejoin="round" stroke-miterlimit="10" fill-rule="evenodd" clip-rule="evenodd" clip-path="url(#clip_viewBox)">
<use x="-1609.510" y="924.040" xlink:href="#F_aaaaaaa_renders/out.svg" />
</g>
</svg>
