<?xml version="1.0" encoding="utf-8" standalone="no"?>
<!-- Generated by Therion 6.0.3 (2021-10-03) -->
<!DOCTYPE svg PUBLIC "-//W3C//DTD SVG 1.1//EN" "http://www.w3.org/Graphics/SVG/1.1/DTD/svg11.dtd">
<svg width="5.246cm" height="1.5cm" viewBox="-1610 -940 100 10" xmlns="http://www.w3.org/2000/svg" xmlns:xlink="http://www.w3.org/1999/xlink">
<defs>
<g id="F_aaaaaaa_renders/out.svg">
<path fill="none" stroke="#000000" stroke-width="0.420" d="M91.289 11.378L90.128 10.477" />
<path fill="none" stroke="#000000" stroke-width="0.420" d="M89.854 13.302L88.725 12.424" />
<path fill="none" stroke="#000000" stroke-width="0.420" d="M89.346 9.887L88.157 9.017" />
<path fill="none" stroke="#000000" stroke-width="0.420" d="M87.965 11.850L86.813 11.006" />
<path fill="none" stroke="#000000" stroke-width="0.420" d="M87.356 8.451L86.138 7.618" />
<path fill="none" stroke="#000000" stroke-width="0.420" d="M86.039 10.457L84.862 9.651" />
<path fill="none" stroke="#000000" stroke-width="0.420" d="M85.316 7.078L84.066 6.290" />
<path fill="none" stroke="#000000" stroke-width="0.420" d="M84.072 9.130L82.871 8.371" />
<path fill="none" stroke="#000000" stroke-width="0.420" d="M83.222 5.781L81.935 5.043" />
<path fill="none" stroke="#000000" stroke-width="0.420" d="M82.063 7.882L80.834 7.175" />
<path fill="none" stroke="#000000" stroke-width="0.420" d="M81.066 4.570L79.742 3.893" />
<path fill="none" stroke="#000000" stroke-width="0.420" d="M80.007 6.724L78.750 6.079" />
<path fill="none" stroke="#000000" stroke-width="0.420" d="M78.846 3.464L77.483 2.860" />
<path fill="none" stroke="#000000" stroke-width="0.420" d="M77.903 5.672L76.620 5.100" />
<path fill="none" stroke="#000000" stroke-width="0.420" d="M76.559 2.484L75.153 1.965" />
<path fill="none" stroke="#000000" stroke-width="0.420" d="M75.754 4.745L74.441 4.257" />
<path fill="none" stroke="#000000" stroke-width="0.420" d="M74.203 1.651L72.757 1.234" />
<path fill="none" stroke="#000000" stroke-width="0.420" d="M73.558 3.963L72.220 3.574" />
<path fill="none" stroke="#000000" stroke-width="0.420" d="M71.780 0.995L70.299 0.697" />
<path fill="none" stroke="#000000" stroke-width="0.420" d="M71.320 3.350L69.960 3.073" />
<path fill="none" stroke="#000000" stroke-width="0.420" d="M69.302 0.543L67.794 0.382" />
<path fill="none" stroke="#000000" stroke-width="0.420" d="M69.049 2.930L67.675 2.779" />
<path fill="none" stroke="#000000" stroke-width="0.420" d="M66.784 0.323L65.265 0.311" />
<path fill="none" stroke="#000000" stroke-width="0.420" d="M66.757 2.723L65.378 2.708" />
<path fill="none" stroke="#000000" stroke-width="0.420" d="M64.253 0.354L62.740 0.496" />
<path fill="none" stroke="#000000" stroke-width="0.420" d="M64.460 2.745L63.085 2.871" />
<path fill="none" stroke="#000000" stroke-width="0.420" d="M61.739 0.641L60.252 0.931" />
<path fill="none" stroke="#000000" stroke-width="0.420" d="M62.175 3.001L60.817 3.264" />
<path fill="none" stroke="#000000" stroke-width="0.420" d="M59.272 1.171L57.825 1.595" />
<path fill="none" stroke="#000000" stroke-width="0.420" d="M59.918 3.483L58.585 3.872" />
<path fill="none" stroke="#000000" stroke-width="0.420" d="M56.876 1.917L55.475 2.453" />
<path fill="none" stroke="#000000" stroke-width="0.420" d="M57.705 4.169L56.398 4.669" />
<path fill="none" stroke="#000000" stroke-width="0.420" d="M54.557 2.842L53.205 3.466" />
<path fill="none" stroke="#000000" stroke-width="0.420" d="M55.535 5.034L54.256 5.623" />
<path fill="none" stroke="#000000" stroke-width="0.420" d="M52.318 3.905L51.008 4.593" />
<path fill="none" stroke="#000000" stroke-width="0.420" d="M53.411 6.042L52.154 6.702" />
<path fill="none" stroke="#000000" stroke-width="0.420" d="M50.148 5.067L48.874 5.796" />
<path fill="none" stroke="#000000" stroke-width="0.420" d="M51.322 7.160L50.081 7.870" />
<path fill="none" stroke="#000000" stroke-width="0.420" d="M48.033 6.291L46.782 7.043" />
<path fill="none" stroke="#000000" stroke-width="0.420" d="M49.257 8.356L48.022 9.098" />
<path fill="none" stroke="#000000" stroke-width="0.420" d="M45.954 7.546L44.717 8.300" />
<path fill="none" stroke="#000000" stroke-width="0.420" d="M47.199 9.598L45.961 10.353" />
<path fill="none" stroke="#000000" stroke-width="0.420" d="M43.894 8.799L42.660 9.538" />
<path fill="none" stroke="#000000" stroke-width="0.420" d="M45.132 10.856L43.880 11.605" />
<path fill="none" stroke="#000000" stroke-width="0.420" d="M41.835 10.021L40.593 10.726" />
<path fill="none" stroke="#000000" stroke-width="0.420" d="M43.037 12.098L41.758 12.824" />
<path fill="none" stroke="#000000" stroke-width="0.420" d="M39.760 11.180L38.500 11.832" />
<path fill="none" stroke="#000000" stroke-width="0.420" d="M40.895 13.295L39.580 13.976" />
<path fill="none" stroke="#000000" stroke-width="0.420" d="M37.653 12.244L36.370 12.824" />
<path fill="none" stroke="#000000" stroke-width="0.420" d="M38.689 14.409L37.331 15.023" />
<path fill="none" stroke="#000000" stroke-width="0.420" d="M35.506 13.180L34.196 13.666" />
<path fill="none" stroke="#000000" stroke-width="0.420" d="M36.408 15.404L35.002 15.926" />
<path fill="none" stroke="#000000" stroke-width="0.420" d="M33.313 13.953L31.975 14.325" />
<path fill="none" stroke="#000000" stroke-width="0.420" d="M34.047 16.238L32.592 16.645" />
<path fill="none" stroke="#000000" stroke-width="0.420" d="M31.076 14.531L29.715 14.774" />
<path fill="none" stroke="#000000" stroke-width="0.420" d="M31.609 16.871L30.116 17.140" />
<path fill="none" stroke="#000000" stroke-width="0.420" d="M28.803 14.890L27.429 14.993" />
<path fill="none" stroke="#000000" stroke-width="0.420" d="M29.113 17.270L27.597 17.388" />
<path fill="none" stroke="#000000" stroke-width="0.420" d="M26.510 15.015L25.132 14.977" />
<path fill="none" stroke="#000000" stroke-width="0.420" d="M26.584 17.414L25.065 17.376" />
<path fill="none" stroke="#000000" stroke-width="0.420" d="M24.215 14.906L22.844 14.732" />
<path fill="none" stroke="#000000" stroke-width="0.420" d="M24.055 17.301L22.551 17.114" />
<path fill="none" stroke="#000000" stroke-width="0.420" d="M21.934 14.573L20.578 14.274" />
<path fill="none" stroke="#000000" stroke-width="0.420" d="M21.557 16.943L20.080 16.622" />
<path fill="none" stroke="#000000" stroke-width="0.420" d="M19.683 14.036L18.349 13.625" />
<path fill="none" stroke="#000000" stroke-width="0.420" d="M19.109 16.367L17.669 15.927" />
<path fill="none" stroke="#000000" stroke-width="0.420" d="M17.470 13.318L16.165 12.812" />
<path fill="none" stroke="#000000" stroke-width="0.420" d="M16.724 15.600L15.328 15.061" />
<path fill="none" stroke="#000000" stroke-width="0.420" d="M15.303 12.445L14.027 11.855" />
<path fill="none" stroke="#000000" stroke-width="0.420" d="M14.409 14.672L13.055 14.050" />
<path fill="none" stroke="#000000" stroke-width="0.420" d="M13.184 11.437L11.936 10.776" />
<path fill="none" stroke="#000000" stroke-width="0.420" d="M12.165 13.610L10.850 12.917" />
<path fill="none" stroke="#000000" stroke-width="0.420" d="M11.114 10.315L9.892 9.594" />
<path fill="none" stroke="#000000" stroke-width="0.420" d="M9.987 12.435L8.709 11.682" />
<path fill="none" stroke="#000000" stroke-width="0.420" d="M9.088 9.095L7.897 8.324" />
<path fill="none" stroke="#000000" stroke-width="0.420" d="M7.870 11.163L6.630 10.363" />
<path fill="none" stroke="#000000" stroke-width="0.420" d="M7.109 7.793L5.941 6.977" />
<path fill="none" stroke="#000000" stroke-width="0.420" d="M5.813 9.813L4.603 8.969" />
<path fill="none" stroke="#000000" stroke-width="0.420" d="M5.172 6.420L4.029 5.566" />
<path fill="none" stroke="#000000" stroke-width="0.420" d="M3.808 8.395L2.629 7.516" />
<path fill="none" stroke="#000000" stroke-width="0.420" d="M3.272 4.984L2.150 4.097" />
<path fill="none" stroke="#000000" stroke-width="0.420" d="M1.851 6.918L0.699 6.008" />
</g>
<g id="G_aaaaaaa_renders/out.svg">
</g>
<g id="B_aaaaaaa_renders/out.svg">
</g>
<g id="I_aaaaaaa_renders/out.svg">
</g>
<g id="E_aaaaaaa_renders/out.svg">
</g>
<g id="X_aaaaaaa_renders/out.svg">
</g>
<clipPath id="clip_viewBox">
<path d="M-1637.856 898.694L-1489.163 898.694L-1489.163 973.387L-1637.856 973.387z" />
</clipPath>
</defs>
<g transform="scale(1,-1)" fill="#000000" stroke="#000000" stroke-linecap="round" stroke-linejoin="round" stroke-miterlimit="10" fill-rule="evenodd" clip-rule="evenodd" clip-path="url(#clip_viewBox)">
<use x="-1609.510" y="927.040" xlink:href="#F_aaaaaaa_renders/out.svg" />
</g>
</svg>
