<?xml version="1.0" encoding="utf-8" standalone="no"?>
<!-- Generated by Therion 6.0.3 (2021-10-03) -->
<!DOCTYPE svg PUBLIC "-//W3C//DTD SVG 1.1//EN" "http://www.w3.org/Graphics/SVG/1.1/DTD/svg11.dtd">
<svg width="5.104cm" height="2.635cm" viewBox="-1635.856 -972.387 144.693 74.693" xmlns="http://www.w3.org/2000/svg" xmlns:xlink="http://www.w3.org/1999/xlink">
<defs>
<g id="F_aaaaaaa_renders/out.svg">
<path fill="none" stroke="#000000" stroke-width="0.600" d="M87.387 12.420C85.707 11.139 84.090 10.002 82.531 8.999" />
<path fill="none" stroke="#000000" stroke-width="0.600" d="M84.993 10.661L86.321 8.662" />
<path fill="none" stroke="#000000" stroke-width="0.600" d="M79.132 6.969C77.253 5.937 75.463 5.108 73.751 4.457" />
<path fill="none" stroke="#000000" stroke-width="0.600" d="M76.484 5.619L77.433 3.415" />
<path fill="none" stroke="#000000" stroke-width="0.600" d="M69.974 3.273C67.904 2.765 65.951 2.527 64.094 2.506" />
<path fill="none" stroke="#000000" stroke-width="0.600" d="M67.056 2.720L67.299 0.333" />
<path fill="none" stroke="#000000" stroke-width="0.600" d="M60.147 2.790C58.148 3.103 56.254 3.654 54.430 4.364" />
<path fill="none" stroke="#000000" stroke-width="0.600" d="M57.246 3.421L56.571 1.118" />
<path fill="none" stroke="#000000" stroke-width="0.600" d="M50.821 5.995C49.062 6.891 47.350 7.893 45.650 8.921" />
<path fill="none" stroke="#000000" stroke-width="0.600" d="M48.210 7.411L47.020 5.326" />
<path fill="none" stroke="#000000" stroke-width="0.600" d="M42.264 10.978C40.561 12.003 38.846 12.999 37.082 13.883" />
<path fill="none" stroke="#000000" stroke-width="0.600" d="M39.701 12.480L38.520 10.391" />
<path fill="none" stroke="#000000" stroke-width="0.600" d="M33.462 15.484C31.632 16.176 29.731 16.703 27.724 16.985" />
<path fill="none" stroke="#000000" stroke-width="0.600" d="M30.636 16.394L29.988 14.083" />
<path fill="none" stroke="#000000" stroke-width="0.600" d="M23.774 17.205C21.921 17.153 19.973 16.882 17.908 16.341" />
<path fill="none" stroke="#000000" stroke-width="0.600" d="M20.817 16.941L21.099 14.558" />
<path fill="none" stroke="#000000" stroke-width="0.600" d="M14.148 15.098C12.447 14.424 10.668 13.572 8.802 12.518" />
<path fill="none" stroke="#000000" stroke-width="0.600" d="M11.431 13.899L12.409 11.707" />
<path fill="none" stroke="#000000" stroke-width="0.600" d="M5.424 10.449C3.875 9.430 2.269 8.278 0.601 6.982" />
<path fill="none" stroke="#000000" stroke-width="0.600" d="M2.978 8.762L4.326 6.776" />
</g>
<g id="G_aaaaaaa_renders/out.svg">
</g>
<g id="B_aaaaaaa_renders/out.svg">
</g>
<g id="I_aaaaaaa_renders/out.svg">
</g>
<g id="E_aaaaaaa_renders/out.svg">
</g>
<g id="X_aaaaaaa_renders/out.svg">
</g>
<clipPath id="clip_viewBox">
<path d="M-1635.856 897.694L-1491.163 897.694L-1491.163 972.387L-1635.856 972.387z" />
</clipPath>
</defs>
<g transform="scale(1,-1)" fill="#000000" stroke="#000000" stroke-linecap="round" stroke-linejoin="round" stroke-miterlimit="10" fill-rule="evenodd" clip-rule="evenodd" clip-path="url(#clip_viewBox)">
<use x="-1607.510" y="926.040" xlink:href="#F_aaaaaaa_renders/out.svg" />
</g>
</svg>
