<?xml version="1.0" encoding="utf-8" standalone="no"?>
<!-- Generated by Therion 6.0.3 (2021-10-03) -->
<!DOCTYPE svg PUBLIC "-//W3C//DTD SVG 1.1//EN" "http://www.w3.org/Graphics/SVG/1.1/DTD/svg11.dtd">
<svg width="5.175cm" height="2.741cm" viewBox="-1636.856 -974.387 146.693 77.693" xmlns="http://www.w3.org/2000/svg" xmlns:xlink="http://www.w3.org/1999/xlink">
<defs>
<g id="F_aaaaaaa_renders/out.svg">
<path fill="none" stroke="#000000" stroke-width="0.600" d="M86.657 10.662L87.321 9.662" />
<path fill="none" stroke="#000000" stroke-width="0.600" d="M85.322 8.334L89.320 10.990" />
<path fill="none" stroke="#000000" stroke-width="0.600" d="M85.329 12.661L84.665 13.661" />
<path fill="none" stroke="#000000" stroke-width="0.600" d="M82.666 12.333L86.664 14.988" />
<path fill="none" stroke="#000000" stroke-width="0.600" d="M77.958 5.517L78.433 4.415" />
<path fill="none" stroke="#000000" stroke-width="0.600" d="M76.228 3.466L80.637 5.363" />
<path fill="none" stroke="#000000" stroke-width="0.600" d="M77.010 7.722L76.536 8.824" />
<path fill="none" stroke="#000000" stroke-width="0.600" d="M74.331 7.875L78.740 9.772" />
<path fill="none" stroke="#000000" stroke-width="0.600" d="M68.177 2.526L68.299 1.333" />
<path fill="none" stroke="#000000" stroke-width="0.600" d="M65.911 1.090L70.686 1.575" />
<path fill="none" stroke="#000000" stroke-width="0.600" d="M67.935 4.914L67.814 6.108" />
<path fill="none" stroke="#000000" stroke-width="0.600" d="M65.426 5.866L70.202 6.350" />
<path fill="none" stroke="#000000" stroke-width="0.600" d="M57.909 3.270L57.571 2.118" />
<path fill="none" stroke="#000000" stroke-width="0.600" d="M55.268 2.794L59.874 1.443" />
<path fill="none" stroke="#000000" stroke-width="0.600" d="M58.584 5.573L58.922 6.724" />
<path fill="none" stroke="#000000" stroke-width="0.600" d="M56.619 7.400L61.225 6.049" />
<path fill="none" stroke="#000000" stroke-width="0.600" d="M48.615 7.368L48.020 6.326" />
<path fill="none" stroke="#000000" stroke-width="0.600" d="M45.936 7.516L50.105 5.137" />
<path fill="none" stroke="#000000" stroke-width="0.600" d="M49.805 9.453L50.399 10.495" />
<path fill="none" stroke="#000000" stroke-width="0.600" d="M48.315 11.685L52.484 9.306" />
<path fill="none" stroke="#000000" stroke-width="0.600" d="M40.110 12.436L39.520 11.391" />
<path fill="none" stroke="#000000" stroke-width="0.600" d="M37.431 12.573L41.608 10.210" />
<path fill="none" stroke="#000000" stroke-width="0.600" d="M41.292 14.525L41.883 15.569" />
<path fill="none" stroke="#000000" stroke-width="0.600" d="M39.794 16.751L43.972 14.387" />
<path fill="none" stroke="#000000" stroke-width="0.600" d="M31.312 16.239L30.988 15.083" />
<path fill="none" stroke="#000000" stroke-width="0.600" d="M28.677 15.731L33.299 14.436" />
<path fill="none" stroke="#000000" stroke-width="0.600" d="M31.959 18.550L32.283 19.705" />
<path fill="none" stroke="#000000" stroke-width="0.600" d="M29.972 20.353L34.594 19.058" />
<path fill="none" stroke="#000000" stroke-width="0.600" d="M21.958 16.749L22.099 15.558" />
<path fill="none" stroke="#000000" stroke-width="0.600" d="M19.715 15.276L24.482 15.839" />
<path fill="none" stroke="#000000" stroke-width="0.600" d="M21.676 19.133L21.535 20.325" />
<path fill="none" stroke="#000000" stroke-width="0.600" d="M19.152 20.043L23.919 20.606" />
<path fill="none" stroke="#000000" stroke-width="0.600" d="M12.920 13.803L13.409 12.707" />
<path fill="none" stroke="#000000" stroke-width="0.600" d="M11.217 11.730L15.600 13.685" />
<path fill="none" stroke="#000000" stroke-width="0.600" d="M11.942 15.995L11.453 17.091" />
<path fill="none" stroke="#000000" stroke-width="0.600" d="M9.261 16.113L13.645 18.069" />
<path fill="none" stroke="#000000" stroke-width="0.600" d="M4.652 8.769L5.326 7.776" />
<path fill="none" stroke="#000000" stroke-width="0.600" d="M3.340 6.429L7.312 9.124" />
<path fill="none" stroke="#000000" stroke-width="0.600" d="M3.304 10.755L2.630 11.748" />
<path fill="none" stroke="#000000" stroke-width="0.600" d="M0.645 10.400L4.616 13.096" />
</g>
<g id="G_aaaaaaa_renders/out.svg">
</g>
<g id="B_aaaaaaa_renders/out.svg">
</g>
<g id="I_aaaaaaa_renders/out.svg">
</g>
<g id="E_aaaaaaa_renders/out.svg">
</g>
<g id="X_aaaaaaa_renders/out.svg">
</g>
<clipPath id="clip_viewBox">
<path d="M-1636.856 896.694L-1490.163 896.694L-1490.163 974.387L-1636.856 974.387z" />
</clipPath>
</defs>
<g transform="scale(1,-1)" fill="#000000" stroke="#000000" stroke-linecap="round" stroke-linejoin="round" stroke-miterlimit="10" fill-rule="evenodd" clip-rule="evenodd" clip-path="url(#clip_viewBox)">
<use x="-1608.510" y="925.040" xlink:href="#F_aaaaaaa_renders/out.svg" />
</g>
</svg>
