<?xml version="1.0" encoding="utf-8" standalone="no"?>
<!-- Generated by Therion 6.0.3 (2021-10-03) -->
<!DOCTYPE svg PUBLIC "-//W3C//DTD SVG 1.1//EN" "http://www.w3.org/Graphics/SVG/1.1/DTD/svg11.dtd">
<svg width="5.246cm" height="1.5cm" viewBox="-1610 -940 100 10" xmlns="http://www.w3.org/2000/svg" xmlns:xlink="http://www.w3.org/1999/xlink">
<defs>
<g id="F_aaaaaaa_renders/out.svg">
<path fill="none" stroke="#000000" stroke-width="0.420" d="M91.056 11.195L89.627 13.123" />
<path fill="none" stroke="#000000" stroke-width="0.420" d="M89.731 11.684C88.887 11.034 88.059 10.420 87.246 9.841" />
<path fill="none" stroke="#000000" stroke-width="0.420" d="M87.271 8.391L85.956 10.399" />
<path fill="none" stroke="#000000" stroke-width="0.420" d="M85.968 7.505L84.699 9.543" />
<path fill="none" stroke="#000000" stroke-width="0.420" d="M84.687 8.100C83.788 7.517 82.908 6.980 82.047 6.484" />
<path fill="none" stroke="#000000" stroke-width="0.420" d="M81.925 5.037L80.824 7.170" />
<path fill="none" stroke="#000000" stroke-width="0.420" d="M80.528 4.289L79.495 6.455" />
<path fill="none" stroke="#000000" stroke-width="0.420" d="M79.320 5.023C78.357 4.546 77.418 4.123 76.501 3.752" />
<path fill="none" stroke="#000000" stroke-width="0.420" d="M76.170 2.334L75.390 4.604" />
<path fill="none" stroke="#000000" stroke-width="0.420" d="M74.661 1.798L73.983 4.101" />
<path fill="none" stroke="#000000" stroke-width="0.420" d="M73.585 2.716C72.556 2.403 71.556 2.156 70.582 1.968" />
<path fill="none" stroke="#000000" stroke-width="0.420" d="M69.977 0.643L69.666 3.023" />
<path fill="none" stroke="#000000" stroke-width="0.420" d="M68.372 0.433L68.201 2.827" />
<path fill="none" stroke="#000000" stroke-width="0.420" d="M67.516 1.564C66.455 1.490 65.426 1.487 64.423 1.546" />
<path fill="none" stroke="#000000" stroke-width="0.420" d="M63.516 0.412L63.790 2.796" />
<path fill="none" stroke="#000000" stroke-width="0.420" d="M61.907 0.614L62.328 2.977" />
<path fill="none" stroke="#000000" stroke-width="0.420" d="M61.354 1.928C60.329 2.122 59.331 2.379 58.355 2.686" />
<path fill="none" stroke="#000000" stroke-width="0.420" d="M57.218 1.797L58.023 4.058" />
<path fill="none" stroke="#000000" stroke-width="0.420" d="M55.717 2.355L56.624 4.577" />
<path fill="none" stroke="#000000" stroke-width="0.420" d="M55.456 3.761C54.506 4.164 53.575 4.608 52.656 5.080" />
<path fill="none" stroke="#000000" stroke-width="0.420" d="M51.405 4.380L52.536 6.497" />
<path fill="none" stroke="#000000" stroke-width="0.420" d="M50.024 5.136L51.202 7.228" />
<path fill="none" stroke="#000000" stroke-width="0.420" d="M49.941 6.565C49.049 7.078 48.163 7.609 47.280 8.144" />
<path fill="none" stroke="#000000" stroke-width="0.420" d="M45.996 7.521L47.241 9.573" />
<path fill="none" stroke="#000000" stroke-width="0.420" d="M44.675 8.326L45.919 10.378" />
<path fill="none" stroke="#000000" stroke-width="0.420" d="M44.635 9.754C43.752 10.288 42.865 10.817 41.971 11.327" />
<path fill="none" stroke="#000000" stroke-width="0.420" d="M40.713 10.659L41.882 12.755" />
<path fill="none" stroke="#000000" stroke-width="0.420" d="M39.376 11.383L40.496 13.506" />
<path fill="none" stroke="#000000" stroke-width="0.420" d="M39.249 12.799C38.327 13.265 37.392 13.702 36.440 14.097" />
<path fill="none" stroke="#000000" stroke-width="0.420" d="M35.278 13.270L36.165 15.500" />
<path fill="none" stroke="#000000" stroke-width="0.420" d="M33.876 13.774L34.656 16.043" />
<path fill="none" stroke="#000000" stroke-width="0.420" d="M33.528 15.142C32.549 15.437 31.547 15.680 30.519 15.860" />
<path fill="none" stroke="#000000" stroke-width="0.420" d="M29.562 14.796L29.948 17.165" />
<path fill="none" stroke="#000000" stroke-width="0.420" d="M28.099 14.954L28.336 17.342" />
<path fill="none" stroke="#000000" stroke-width="0.420" d="M27.445 16.194C26.443 16.236 25.414 16.216 24.353 16.123" />
<path fill="none" stroke="#000000" stroke-width="0.420" d="M23.688 14.848L23.477 17.239" />
<path fill="none" stroke="#000000" stroke-width="0.420" d="M22.229 14.628L21.878 17.003" />
<path fill="none" stroke="#000000" stroke-width="0.420" d="M21.293 15.667C20.323 15.464 19.328 15.201 18.303 14.872" />
<path fill="none" stroke="#000000" stroke-width="0.420" d="M17.926 13.481L17.213 15.773" />
<path fill="none" stroke="#000000" stroke-width="0.420" d="M16.526 12.958L15.713 15.216" />
<path fill="none" stroke="#000000" stroke-width="0.420" d="M15.404 13.794C14.492 13.410 13.558 12.975 12.600 12.486" />
<path fill="none" stroke="#000000" stroke-width="0.420" d="M12.443 11.051L11.384 13.204" />
<path fill="none" stroke="#000000" stroke-width="0.420" d="M11.122 10.320L9.996 12.440" />
<path fill="none" stroke="#000000" stroke-width="0.420" d="M9.891 10.991C9.035 10.486 8.162 9.938 7.269 9.347" />
<path fill="none" stroke="#000000" stroke-width="0.420" d="M7.272 7.905L5.982 9.928" />
<path fill="none" stroke="#000000" stroke-width="0.420" d="M6.023 7.035L4.688 9.030" />
<path fill="none" stroke="#000000" stroke-width="0.420" d="M4.727 7.580C3.920 6.994 3.097 6.372 2.259 5.715" />
<path fill="none" stroke="#000000" stroke-width="0.420" d="M2.375 4.277L0.929 6.193" />
</g>
<g id="G_aaaaaaa_renders/out.svg">
</g>
<g id="B_aaaaaaa_renders/out.svg">
</g>
<g id="I_aaaaaaa_renders/out.svg">
</g>
<g id="E_aaaaaaa_renders/out.svg">
</g>
<g id="X_aaaaaaa_renders/out.svg">
</g>
<clipPath id="clip_viewBox">
<path d="M-1637.856 898.694L-1489.163 898.694L-1489.163 973.387L-1637.856 973.387z" />
</clipPath>
</defs>
<g transform="scale(1,-1)" fill="#000000" stroke="#000000" stroke-linecap="round" stroke-linejoin="round" stroke-miterlimit="10" fill-rule="evenodd" clip-rule="evenodd" clip-path="url(#clip_viewBox)">
<use x="-1609.510" y="927.040" xlink:href="#F_aaaaaaa_renders/out.svg" />
</g>
</svg>
