<?xml version="1.0" encoding="utf-8" standalone="no"?>
<!-- Generated by Therion 6.0.3 (2021-10-03) -->
<!DOCTYPE svg PUBLIC "-//W3C//DTD SVG 1.1//EN" "http://www.w3.org/Graphics/SVG/1.1/DTD/svg11.dtd">
<svg width="5.246cm" height="1.5cm" viewBox="-1610 -940 100 10" xmlns="http://www.w3.org/2000/svg" xmlns:xlink="http://www.w3.org/1999/xlink">
<defs>
<g id="F_aaaaaaa_renders/out.svg">
<path fill="none" stroke="#000000" stroke-width="1.200" d="M90.950 14.640C46.610 -20.730 45.390 42.730 1.050 6.750" />
<path fill="none" stroke="#000000" stroke-width="0.600" d="M87.427 9.059L88.431 9.716" />
<path fill="none" stroke="#000000" stroke-width="0.600" d="M86.603 8.487L83.878 6.775" />
<path fill="none" stroke="#000000" stroke-width="0.600" d="M81.942 5.695L83.008 6.246" />
<path fill="none" stroke="#000000" stroke-width="0.600" d="M81.044 5.205L78.086 3.813" />
<path fill="none" stroke="#000000" stroke-width="0.600" d="M75.993 3.004L77.128 3.394" />
<path fill="none" stroke="#000000" stroke-width="0.600" d="M75.000 2.647L71.783 1.766" />
<path fill="none" stroke="#000000" stroke-width="0.600" d="M69.537 1.376L70.727 1.531" />
<path fill="none" stroke="#000000" stroke-width="0.600" d="M68.458 1.236L65.073 1.116" />
<path fill="none" stroke="#000000" stroke-width="0.600" d="M62.782 1.288L63.975 1.151" />
<path fill="none" stroke="#000000" stroke-width="0.600" d="M61.697 1.432L58.409 2.164" />
<path fill="none" stroke="#000000" stroke-width="0.600" d="M56.251 2.868L57.381 2.465" />
<path fill="none" stroke="#000000" stroke-width="0.600" d="M55.263 3.245L52.277 4.583" />
<path fill="none" stroke="#000000" stroke-width="0.600" d="M50.311 5.604L51.369 5.039" />
<path fill="none" stroke="#000000" stroke-width="0.600" d="M49.436 6.091L46.707 7.687" />
<path fill="none" stroke="#000000" stroke-width="0.600" d="M44.860 8.806L45.886 8.184" />
<path fill="none" stroke="#000000" stroke-width="0.600" d="M44.053 9.300L41.435 10.866" />
<path fill="none" stroke="#000000" stroke-width="0.600" d="M39.604 11.904L40.652 11.319" />
<path fill="none" stroke="#000000" stroke-width="0.600" d="M38.817 12.322L36.173 13.601" />
<path fill="none" stroke="#000000" stroke-width="0.600" d="M34.278 14.376L35.393 13.933" />
<path fill="none" stroke="#000000" stroke-width="0.600" d="M33.486 14.639L30.752 15.373" />
<path fill="none" stroke="#000000" stroke-width="0.600" d="M28.777 15.708L29.961 15.515" />
<path fill="none" stroke="#000000" stroke-width="0.600" d="M27.980 15.760L25.189 15.779" />
<path fill="none" stroke="#000000" stroke-width="0.600" d="M23.196 15.600L24.392 15.706" />
<path fill="none" stroke="#000000" stroke-width="0.600" d="M22.404 15.441L19.645 14.777" />
<path fill="none" stroke="#000000" stroke-width="0.600" d="M17.709 14.157L18.855 14.513" />
<path fill="none" stroke="#000000" stroke-width="0.600" d="M16.932 13.829L14.278 12.643" />
<path fill="none" stroke="#000000" stroke-width="0.600" d="M12.435 11.709L13.511 12.239" />
<path fill="none" stroke="#000000" stroke-width="0.600" d="M11.685 11.261L9.158 9.717" />
<path fill="none" stroke="#000000" stroke-width="0.600" d="M7.411 8.570L8.423 9.215" />
<path fill="none" stroke="#000000" stroke-width="0.600" d="M6.691 8.038L4.283 6.250" />
<path fill="none" stroke="#000000" stroke-width="0.600" d="M2.619 4.957L3.577 5.680" />
</g>
<g id="G_aaaaaaa_renders/out.svg">
</g>
<g id="B_aaaaaaa_renders/out.svg">
</g>
<g id="I_aaaaaaa_renders/out.svg">
</g>
<g id="E_aaaaaaa_renders/out.svg">
</g>
<g id="X_aaaaaaa_renders/out.svg">
</g>
<clipPath id="clip_viewBox">
<path d="M-1637.856 896.694L-1489.163 896.694L-1489.163 972.387L-1637.856 972.387z" />
</clipPath>
</defs>
<g transform="scale(1,-1)" fill="#000000" stroke="#000000" stroke-linecap="round" stroke-linejoin="round" stroke-miterlimit="10" fill-rule="evenodd" clip-rule="evenodd" clip-path="url(#clip_viewBox)">
<use x="-1609.510" y="925.040" xlink:href="#F_aaaaaaa_renders/out.svg" />
</g>
</svg>
