<?xml version="1.0" encoding="utf-8" standalone="no"?>
<!-- Generated by Therion 6.0.3 (2021-10-03) -->
<!DOCTYPE svg PUBLIC "-//W3C//DTD SVG 1.1//EN" "http://www.w3.org/Graphics/SVG/1.1/DTD/svg11.dtd">
<svg width="5.246cm" height="1.5cm" viewBox="-1610 -940 100 10" xmlns="http://www.w3.org/2000/svg" xmlns:xlink="http://www.w3.org/1999/xlink">
<defs>
<g id="F_aaaaaaa_renders/out.svg">
<path fill="none" stroke="#000000" stroke-width="0.600" d="M92.672 13.682L93.395 12.723" />
<path fill="none" stroke="#000000" stroke-width="0.600" d="M91.228 15.598L90.505 16.557" />
<path fill="none" stroke="#000000" stroke-width="0.600" d="M90.262 11.825L90.952 10.843" />
<path fill="none" stroke="#000000" stroke-width="0.600" d="M88.883 13.789L88.194 14.771" />
<path fill="none" stroke="#000000" stroke-width="0.600" d="M93.395 12.723L90.952 10.843" />
<path fill="none" stroke="#000000" stroke-width="0.600" d="M90.505 16.557L88.194 14.771" />
<path fill="none" stroke="#000000" stroke-width="0.600" d="M87.780 10.052L88.429 9.043" />
<path fill="none" stroke="#000000" stroke-width="0.600" d="M86.482 12.071L85.833 13.080" />
<path fill="none" stroke="#000000" stroke-width="0.600" d="M90.952 10.843L88.429 9.043" />
<path fill="none" stroke="#000000" stroke-width="0.600" d="M88.194 14.771L85.833 13.080" />
<path fill="none" stroke="#000000" stroke-width="0.600" d="M85.220 8.384L85.820 7.345" />
<path fill="none" stroke="#000000" stroke-width="0.600" d="M84.018 10.462L83.418 11.501" />
<path fill="none" stroke="#000000" stroke-width="0.600" d="M88.429 9.043L85.820 7.345" />
<path fill="none" stroke="#000000" stroke-width="0.600" d="M85.833 13.080L83.418 11.501" />
<path fill="none" stroke="#000000" stroke-width="0.600" d="M82.568 6.840L83.110 5.770" />
<path fill="none" stroke="#000000" stroke-width="0.600" d="M81.484 8.982L80.942 10.052" />
<path fill="none" stroke="#000000" stroke-width="0.600" d="M85.820 7.345L83.110 5.770" />
<path fill="none" stroke="#000000" stroke-width="0.600" d="M83.418 11.501L80.942 10.052" />
<path fill="none" stroke="#000000" stroke-width="0.600" d="M79.818 5.452L80.288 4.348" />
<path fill="none" stroke="#000000" stroke-width="0.600" d="M78.878 7.660L78.407 8.764" />
<path fill="none" stroke="#000000" stroke-width="0.600" d="M83.110 5.770L80.288 4.348" />
<path fill="none" stroke="#000000" stroke-width="0.600" d="M80.942 10.052L78.407 8.764" />
<path fill="none" stroke="#000000" stroke-width="0.600" d="M76.966 4.257L77.349 3.120" />
<path fill="none" stroke="#000000" stroke-width="0.600" d="M76.199 6.531L75.816 7.668" />
<path fill="none" stroke="#000000" stroke-width="0.600" d="M80.288 4.348L77.349 3.120" />
<path fill="none" stroke="#000000" stroke-width="0.600" d="M78.407 8.764L75.816 7.668" />
<path fill="none" stroke="#000000" stroke-width="0.600" d="M74.006 3.301L74.285 2.134" />
<path fill="none" stroke="#000000" stroke-width="0.600" d="M73.450 5.636L73.172 6.803" />
<path fill="none" stroke="#000000" stroke-width="0.600" d="M77.349 3.120L74.285 2.134" />
<path fill="none" stroke="#000000" stroke-width="0.600" d="M75.816 7.668L73.172 6.803" />
<path fill="none" stroke="#000000" stroke-width="0.600" d="M70.953 2.639L71.108 1.450" />
<path fill="none" stroke="#000000" stroke-width="0.600" d="M70.644 5.020L70.489 6.209" />
<path fill="none" stroke="#000000" stroke-width="0.600" d="M74.285 2.134L71.108 1.450" />
<path fill="none" stroke="#000000" stroke-width="0.600" d="M73.172 6.803L70.489 6.209" />
<path fill="none" stroke="#000000" stroke-width="0.600" d="M67.829 2.325L67.845 1.125" />
<path fill="none" stroke="#000000" stroke-width="0.600" d="M67.798 4.725L67.782 5.925" />
<path fill="none" stroke="#000000" stroke-width="0.600" d="M71.108 1.450L67.845 1.125" />
<path fill="none" stroke="#000000" stroke-width="0.600" d="M70.489 6.209L67.782 5.925" />
<path fill="none" stroke="#000000" stroke-width="0.600" d="M64.686 2.396L64.557 1.203" />
<path fill="none" stroke="#000000" stroke-width="0.600" d="M64.945 4.783L65.074 5.975" />
<path fill="none" stroke="#000000" stroke-width="0.600" d="M67.845 1.125L64.557 1.203" />
<path fill="none" stroke="#000000" stroke-width="0.600" d="M67.782 5.925L65.074 5.975" />
<path fill="none" stroke="#000000" stroke-width="0.600" d="M61.580 2.859L61.312 1.690" />
<path fill="none" stroke="#000000" stroke-width="0.600" d="M62.117 5.199L62.385 6.368" />
<path fill="none" stroke="#000000" stroke-width="0.600" d="M64.557 1.203L61.312 1.690" />
<path fill="none" stroke="#000000" stroke-width="0.600" d="M65.074 5.975L62.385 6.368" />
<path fill="none" stroke="#000000" stroke-width="0.600" d="M58.565 3.680L58.175 2.545" />
<path fill="none" stroke="#000000" stroke-width="0.600" d="M59.344 5.950L59.734 7.085" />
<path fill="none" stroke="#000000" stroke-width="0.600" d="M61.312 1.690L58.175 2.545" />
<path fill="none" stroke="#000000" stroke-width="0.600" d="M62.385 6.368L59.734 7.085" />
<path fill="none" stroke="#000000" stroke-width="0.600" d="M55.668 4.793L55.182 3.696" />
<path fill="none" stroke="#000000" stroke-width="0.600" d="M56.640 6.988L57.126 8.085" />
<path fill="none" stroke="#000000" stroke-width="0.600" d="M58.175 2.545L55.182 3.696" />
<path fill="none" stroke="#000000" stroke-width="0.600" d="M59.734 7.085L57.126 8.085" />
<path fill="none" stroke="#000000" stroke-width="0.600" d="M52.892 6.124L52.337 5.060" />
<path fill="none" stroke="#000000" stroke-width="0.600" d="M54.003 8.251L54.559 9.315" />
<path fill="none" stroke="#000000" stroke-width="0.600" d="M55.182 3.696L52.337 5.060" />
<path fill="none" stroke="#000000" stroke-width="0.600" d="M57.126 8.085L54.559 9.315" />
<path fill="none" stroke="#000000" stroke-width="0.600" d="M50.219 7.596L49.619 6.557" />
<path fill="none" stroke="#000000" stroke-width="0.600" d="M51.419 9.675L52.019 10.714" />
<path fill="none" stroke="#000000" stroke-width="0.600" d="M52.337 5.060L49.619 6.557" />
<path fill="none" stroke="#000000" stroke-width="0.600" d="M54.559 9.315L52.019 10.714" />
<path fill="none" stroke="#000000" stroke-width="0.600" d="M47.619 9.142L46.998 8.115" />
<path fill="none" stroke="#000000" stroke-width="0.600" d="M48.860 11.196L49.481 12.223" />
<path fill="none" stroke="#000000" stroke-width="0.600" d="M49.619 6.557L46.998 8.115" />
<path fill="none" stroke="#000000" stroke-width="0.600" d="M52.019 10.714L49.481 12.223" />
<path fill="none" stroke="#000000" stroke-width="0.600" d="M45.056 10.701L44.437 9.674" />
<path fill="none" stroke="#000000" stroke-width="0.600" d="M46.296 12.757L46.915 13.784" />
<path fill="none" stroke="#000000" stroke-width="0.600" d="M46.998 8.115L44.437 9.674" />
<path fill="none" stroke="#000000" stroke-width="0.600" d="M49.481 12.223L46.915 13.784" />
<path fill="none" stroke="#000000" stroke-width="0.600" d="M42.497 12.216L41.901 11.174" />
<path fill="none" stroke="#000000" stroke-width="0.600" d="M43.690 14.298L44.286 15.339" />
<path fill="none" stroke="#000000" stroke-width="0.600" d="M44.437 9.674L41.901 11.174" />
<path fill="none" stroke="#000000" stroke-width="0.600" d="M46.915 13.784L44.286 15.339" />
<path fill="none" stroke="#000000" stroke-width="0.600" d="M39.908 13.626L39.358 12.559" />
<path fill="none" stroke="#000000" stroke-width="0.600" d="M41.007 15.760L41.556 16.826" />
<path fill="none" stroke="#000000" stroke-width="0.600" d="M41.901 11.174L39.358 12.559" />
<path fill="none" stroke="#000000" stroke-width="0.600" d="M44.286 15.339L41.556 16.826" />
<path fill="none" stroke="#000000" stroke-width="0.600" d="M37.266 14.868L36.789 13.767" />
<path fill="none" stroke="#000000" stroke-width="0.600" d="M38.219 17.071L38.696 18.172" />
<path fill="none" stroke="#000000" stroke-width="0.600" d="M39.358 12.559L36.789 13.767" />
<path fill="none" stroke="#000000" stroke-width="0.600" d="M41.556 16.826L38.696 18.172" />
<path fill="none" stroke="#000000" stroke-width="0.600" d="M34.554 15.878L34.177 14.739" />
<path fill="none" stroke="#000000" stroke-width="0.600" d="M35.308 18.157L35.685 19.296" />
<path fill="none" stroke="#000000" stroke-width="0.600" d="M36.789 13.767L34.177 14.739" />
<path fill="none" stroke="#000000" stroke-width="0.600" d="M38.696 18.172L35.685 19.296" />
<path fill="none" stroke="#000000" stroke-width="0.600" d="M31.774 16.592L31.522 15.419" />
<path fill="none" stroke="#000000" stroke-width="0.600" d="M32.279 18.939L32.531 20.112" />
<path fill="none" stroke="#000000" stroke-width="0.600" d="M34.177 14.739L31.522 15.419" />
<path fill="none" stroke="#000000" stroke-width="0.600" d="M35.685 19.296L32.531 20.112" />
<path fill="none" stroke="#000000" stroke-width="0.600" d="M28.943 16.965L28.833 15.770" />
<path fill="none" stroke="#000000" stroke-width="0.600" d="M29.165 19.355L29.275 20.549" />
<path fill="none" stroke="#000000" stroke-width="0.600" d="M31.522 15.419L28.833 15.770" />
<path fill="none" stroke="#000000" stroke-width="0.600" d="M32.531 20.112L29.275 20.549" />
<path fill="none" stroke="#000000" stroke-width="0.600" d="M26.090 16.975L26.126 15.775" />
<path fill="none" stroke="#000000" stroke-width="0.600" d="M26.018 19.374L25.983 20.573" />
<path fill="none" stroke="#000000" stroke-width="0.600" d="M28.833 15.770L26.126 15.775" />
<path fill="none" stroke="#000000" stroke-width="0.600" d="M29.275 20.549L25.983 20.573" />
<path fill="none" stroke="#000000" stroke-width="0.600" d="M23.250 16.632L23.425 15.445" />
<path fill="none" stroke="#000000" stroke-width="0.600" d="M22.902 19.007L22.728 20.194" />
<path fill="none" stroke="#000000" stroke-width="0.600" d="M26.126 15.775L23.425 15.445" />
<path fill="none" stroke="#000000" stroke-width="0.600" d="M25.983 20.573L22.728 20.194" />
<path fill="none" stroke="#000000" stroke-width="0.600" d="M20.452 15.970L20.749 14.807" />
<path fill="none" stroke="#000000" stroke-width="0.600" d="M19.859 18.296L19.563 19.459" />
<path fill="none" stroke="#000000" stroke-width="0.600" d="M23.425 15.445L20.749 14.807" />
<path fill="none" stroke="#000000" stroke-width="0.600" d="M22.728 20.194L19.563 19.459" />
<path fill="none" stroke="#000000" stroke-width="0.600" d="M17.716 15.033L18.116 13.902" />
<path fill="none" stroke="#000000" stroke-width="0.600" d="M16.917 17.296L16.517 18.428" />
<path fill="none" stroke="#000000" stroke-width="0.600" d="M20.749 14.807L18.116 13.902" />
<path fill="none" stroke="#000000" stroke-width="0.600" d="M19.563 19.459L16.517 18.428" />
<path fill="none" stroke="#000000" stroke-width="0.600" d="M15.052 13.867L15.537 12.770" />
<path fill="none" stroke="#000000" stroke-width="0.600" d="M14.082 16.063L13.597 17.160" />
<path fill="none" stroke="#000000" stroke-width="0.600" d="M18.116 13.902L15.537 12.770" />
<path fill="none" stroke="#000000" stroke-width="0.600" d="M16.517 18.428L13.597 17.160" />
<path fill="none" stroke="#000000" stroke-width="0.600" d="M12.461 12.513L13.016 11.449" />
<path fill="none" stroke="#000000" stroke-width="0.600" d="M11.351 14.641L10.797 15.705" />
<path fill="none" stroke="#000000" stroke-width="0.600" d="M15.537 12.770L13.016 11.449" />
<path fill="none" stroke="#000000" stroke-width="0.600" d="M13.597 17.160L10.797 15.705" />
<path fill="none" stroke="#000000" stroke-width="0.600" d="M9.942 11.003L10.554 9.971" />
<path fill="none" stroke="#000000" stroke-width="0.600" d="M8.718 13.067L8.106 14.099" />
<path fill="none" stroke="#000000" stroke-width="0.600" d="M13.016 11.449L10.554 9.971" />
<path fill="none" stroke="#000000" stroke-width="0.600" d="M10.797 15.705L8.106 14.099" />
<path fill="none" stroke="#000000" stroke-width="0.600" d="M7.495 9.368L8.154 8.365" />
<path fill="none" stroke="#000000" stroke-width="0.600" d="M6.176 11.373L5.517 12.376" />
<path fill="none" stroke="#000000" stroke-width="0.600" d="M10.554 9.971L8.154 8.365" />
<path fill="none" stroke="#000000" stroke-width="0.600" d="M8.106 14.099L5.517 12.376" />
<path fill="none" stroke="#000000" stroke-width="0.600" d="M5.108 7.627L5.807 6.651" />
<path fill="none" stroke="#000000" stroke-width="0.600" d="M3.711 9.578L3.012 10.554" />
<path fill="none" stroke="#000000" stroke-width="0.600" d="M8.154 8.365L5.807 6.651" />
<path fill="none" stroke="#000000" stroke-width="0.600" d="M5.517 12.376L3.012 10.554" />
<path fill="none" stroke="#000000" stroke-width="0.600" d="M2.781 5.798L3.511 4.846" />
<path fill="none" stroke="#000000" stroke-width="0.600" d="M1.319 7.702L0.589 8.654" />
<path fill="none" stroke="#000000" stroke-width="0.600" d="M5.807 6.651L3.511 4.846" />
<path fill="none" stroke="#000000" stroke-width="0.600" d="M3.012 10.554L0.589 8.654" />
</g>
<g id="G_aaaaaaa_renders/out.svg">
</g>
<g id="B_aaaaaaa_renders/out.svg">
</g>
<g id="I_aaaaaaa_renders/out.svg">
</g>
<g id="E_aaaaaaa_renders/out.svg">
</g>
<g id="X_aaaaaaa_renders/out.svg">
</g>
<clipPath id="clip_viewBox">
<path d="M-1638.856 896.694L-1488.163 896.694L-1488.163 974.387L-1638.856 974.387z" />
</clipPath>
</defs>
<g transform="scale(1,-1)" fill="#000000" stroke="#000000" stroke-linecap="round" stroke-linejoin="round" stroke-miterlimit="10" fill-rule="evenodd" clip-rule="evenodd" clip-path="url(#clip_viewBox)">
<use x="-1610.510" y="925.040" xlink:href="#F_aaaaaaa_renders/out.svg" />
</g>
</svg>
