<?xml version="1.0" encoding="utf-8" standalone="no"?>
<!-- Generated by Therion 6.0.3 (2021-10-03) -->
<!DOCTYPE svg PUBLIC "-//W3C//DTD SVG 1.1//EN" "http://www.w3.org/Graphics/SVG/1.1/DTD/svg11.dtd">
<svg width="5.246cm" height="1.5cm" viewBox="-1610 -940 100 10" xmlns="http://www.w3.org/2000/svg" xmlns:xlink="http://www.w3.org/1999/xlink">
<defs>
<g id="F_aaaaaaa_renders/out.svg">
<path fill="none" stroke="#000000" stroke-width="0.600" d="M90.950 14.640C91.469 10.421 87.123 7.403 83.619 9.423" />
<path fill="none" stroke="#000000" stroke-width="0.600" d="M83.619 9.423C83.621 5.043 78.668 2.676 75.582 5.394" />
<path fill="none" stroke="#000000" stroke-width="0.600" d="M75.582 5.394C74.685 0.935 68.984 -0.123 66.814 3.525" />
<path fill="none" stroke="#000000" stroke-width="0.600" d="M66.814 3.525C64.619 -0.396 58.795 0.511 57.955 4.815" />
<path fill="none" stroke="#000000" stroke-width="0.600" d="M57.955 4.815C54.790 2.058 49.820 4.359 49.819 8.635" />
<path fill="none" stroke="#000000" stroke-width="0.600" d="M49.819 8.635C46.398 6.659 42.107 9.213 42.093 13.257" />
<path fill="none" stroke="#000000" stroke-width="0.600" d="M42.093 13.257C38.846 11.367 34.702 13.290 33.931 17.017" />
<path fill="none" stroke="#000000" stroke-width="0.600" d="M33.931 17.017C31.200 14.585 26.950 15.105 25.054 18.174" />
<path fill="none" stroke="#000000" stroke-width="0.600" d="M25.054 18.174C23.279 14.877 19.053 13.823 16.316 16.165" />
<path fill="none" stroke="#000000" stroke-width="0.600" d="M16.316 16.165C15.608 12.359 11.562 10.219 8.330 12.035" />
<path fill="none" stroke="#000000" stroke-width="0.600" d="M8.330 12.035C8.376 8.092 4.554 5.299 1.050 6.750" />
<path fill="none" stroke="#000000" stroke-width="0.600" d="M1.050 6.750L1.050 6.750" />
</g>
<g id="G_aaaaaaa_renders/out.svg">
</g>
<g id="B_aaaaaaa_renders/out.svg">
</g>
<g id="I_aaaaaaa_renders/out.svg">
</g>
<g id="E_aaaaaaa_renders/out.svg">
</g>
<g id="X_aaaaaaa_renders/out.svg">
</g>
<clipPath id="clip_viewBox">
<path d="M-1637.856 896.694L-1489.163 896.694L-1489.163 972.387L-1637.856 972.387z" />
</clipPath>
</defs>
<g transform="scale(1,-1)" fill="#000000" stroke="#000000" stroke-linecap="round" stroke-linejoin="round" stroke-miterlimit="10" fill-rule="evenodd" clip-rule="evenodd" clip-path="url(#clip_viewBox)">
<use x="-1609.510" y="925.040" xlink:href="#F_aaaaaaa_renders/out.svg" />
</g>
</svg>
