<?xml version="1.0" encoding="utf-8" standalone="no"?>
<!-- Generated by Therion 6.0.3 (2021-10-03) -->
<!DOCTYPE svg PUBLIC "-//W3C//DTD SVG 1.1//EN" "http://www.w3.org/Graphics/SVG/1.1/DTD/svg11.dtd">
<svg width="5.175cm" height="2.600cm" viewBox="-1636.856 -972.387 146.693 73.693" xmlns="http://www.w3.org/2000/svg" xmlns:xlink="http://www.w3.org/1999/xlink">
<defs>
<g id="F_aaaaaaa_renders/out.svg">
<path fill="none" stroke="#000000" stroke-width="0.420" d="M89.255 12.091C88.039 11.139 86.855 10.263 85.702 9.457" />
<path fill="none" stroke="#000000" stroke-width="0.420" d="M87.852 11.015L88.545 10.036" />
<path fill="none" stroke="#000000" stroke-width="0.420" d="M87.141 10.488L87.824 9.501" />
<path fill="none" stroke="#000000" stroke-width="0.420" d="M84.243 8.464C82.946 7.605 81.690 6.838 80.471 6.157" />
<path fill="none" stroke="#000000" stroke-width="0.420" d="M82.755 7.508L83.358 6.470" />
<path fill="none" stroke="#000000" stroke-width="0.420" d="M82.000 7.045L82.588 5.999" />
<path fill="none" stroke="#000000" stroke-width="0.420" d="M78.912 5.321C77.522 4.607 76.181 4.007 74.884 3.508" />
<path fill="none" stroke="#000000" stroke-width="0.420" d="M77.325 4.545L77.794 3.441" />
<path fill="none" stroke="#000000" stroke-width="0.420" d="M76.519 4.181L76.965 3.067" />
<path fill="none" stroke="#000000" stroke-width="0.420" d="M73.217 2.915C71.731 2.430 70.304 2.081 68.930 1.851" />
<path fill="none" stroke="#000000" stroke-width="0.420" d="M71.521 2.413L71.791 1.243" />
<path fill="none" stroke="#000000" stroke-width="0.420" d="M70.663 2.199L70.898 1.022" />
<path fill="none" stroke="#000000" stroke-width="0.420" d="M67.178 1.619C65.644 1.471 64.176 1.471 62.762 1.594" />
<path fill="none" stroke="#000000" stroke-width="0.420" d="M65.412 1.512L65.409 0.312" />
<path fill="none" stroke="#000000" stroke-width="0.420" d="M64.528 1.506L64.482 0.307" />
<path fill="none" stroke="#000000" stroke-width="0.420" d="M61.008 1.813C59.528 2.053 58.105 2.423 56.725 2.892" />
<path fill="none" stroke="#000000" stroke-width="0.420" d="M59.274 2.157L58.980 0.994" />
<path fill="none" stroke="#000000" stroke-width="0.420" d="M58.416 2.375L58.086 1.221" />
<path fill="none" stroke="#000000" stroke-width="0.420" d="M55.068 3.508C53.701 4.058 52.373 4.696 51.068 5.387" />
<path fill="none" stroke="#000000" stroke-width="0.420" d="M53.444 4.208L52.938 3.120" />
<path fill="none" stroke="#000000" stroke-width="0.420" d="M52.645 4.586L52.118 3.508" />
<path fill="none" stroke="#000000" stroke-width="0.420" d="M49.517 6.236C48.237 6.960 46.974 7.722 45.713 8.489" />
<path fill="none" stroke="#000000" stroke-width="0.420" d="M47.986 7.122L47.377 6.088" />
<path fill="none" stroke="#000000" stroke-width="0.420" d="M47.226 7.574L46.611 6.543" />
<path fill="none" stroke="#000000" stroke-width="0.420" d="M44.203 9.409C42.941 10.177 41.676 10.936 40.393 11.654" />
<path fill="none" stroke="#000000" stroke-width="0.420" d="M42.688 10.323L42.074 9.292" />
<path fill="none" stroke="#000000" stroke-width="0.420" d="M41.927 10.773L41.321 9.738" />
<path fill="none" stroke="#000000" stroke-width="0.420" d="M38.838 12.496C37.529 13.180 36.196 13.807 34.824 14.345" />
<path fill="none" stroke="#000000" stroke-width="0.420" d="M37.256 13.287L36.736 12.205" />
<path fill="none" stroke="#000000" stroke-width="0.420" d="M36.455 13.658L35.956 12.566" />
<path fill="none" stroke="#000000" stroke-width="0.420" d="M33.161 14.943C31.777 15.396 30.349 15.747 28.864 15.965" />
<path fill="none" stroke="#000000" stroke-width="0.420" d="M31.464 15.439L31.148 14.282" />
<path fill="none" stroke="#000000" stroke-width="0.420" d="M30.604 15.645L30.325 14.478" />
<path fill="none" stroke="#000000" stroke-width="0.420" d="M27.108 16.156C25.694 16.256 24.227 16.232 22.694 16.057" />
<path fill="none" stroke="#000000" stroke-width="0.420" d="M25.340 16.215L25.314 15.015" />
<path fill="none" stroke="#000000" stroke-width="0.420" d="M24.456 16.194L24.473 14.994" />
<path fill="none" stroke="#000000" stroke-width="0.420" d="M20.945 15.796C19.576 15.544 18.155 15.172 16.675 14.663" />
<path fill="none" stroke="#000000" stroke-width="0.420" d="M19.217 15.420L19.471 14.247" />
<path fill="none" stroke="#000000" stroke-width="0.420" d="M18.362 15.192L18.650 14.027" />
<path fill="none" stroke="#000000" stroke-width="0.420" d="M15.018 14.046C13.728 13.530 12.395 12.911 11.013 12.180" />
<path fill="none" stroke="#000000" stroke-width="0.420" d="M13.391 13.350L13.852 12.242" />
<path fill="none" stroke="#000000" stroke-width="0.420" d="M12.591 12.976L13.075 11.878" />
<path fill="none" stroke="#000000" stroke-width="0.420" d="M9.463 11.325C8.252 10.629 7.005 9.849 5.718 8.978" />
<path fill="none" stroke="#000000" stroke-width="0.420" d="M7.944 10.419L8.544 9.380" />
<path fill="none" stroke="#000000" stroke-width="0.420" d="M7.196 9.950L7.811 8.919" />
<path fill="none" stroke="#000000" stroke-width="0.420" d="M4.266 7.969C3.121 7.152 1.946 6.265 0.739 5.304" />
<path fill="none" stroke="#000000" stroke-width="0.420" d="M2.837 6.925L3.529 5.944" />
<path fill="none" stroke="#000000" stroke-width="0.420" d="M2.133 6.392L2.835 5.419" />
</g>
<g id="G_aaaaaaa_renders/out.svg">
</g>
<g id="B_aaaaaaa_renders/out.svg">
</g>
<g id="I_aaaaaaa_renders/out.svg">
</g>
<g id="E_aaaaaaa_renders/out.svg">
</g>
<g id="X_aaaaaaa_renders/out.svg">
</g>
<clipPath id="clip_viewBox">
<path d="M-1636.856 898.694L-1490.163 898.694L-1490.163 972.387L-1636.856 972.387z" />
</clipPath>
</defs>
<g transform="scale(1,-1)" fill="#000000" stroke="#000000" stroke-linecap="round" stroke-linejoin="round" stroke-miterlimit="10" fill-rule="evenodd" clip-rule="evenodd" clip-path="url(#clip_viewBox)">
<use x="-1608.510" y="927.040" xlink:href="#F_aaaaaaa_renders/out.svg" />
</g>
</svg>
