<?xml version="1.0" encoding="utf-8" standalone="no"?>
<!-- Generated by Therion 6.0.3 (2021-10-03) -->
<!DOCTYPE svg PUBLIC "-//W3C//DTD SVG 1.1//EN" "http://www.w3.org/Graphics/SVG/1.1/DTD/svg11.dtd">
<svg width="5.246cm" height="1.5cm" viewBox="-1610 -940 100 10" xmlns="http://www.w3.org/2000/svg" xmlns:xlink="http://www.w3.org/1999/xlink">
<defs>
<g id="F_aaaaaaa_renders/out.svg">
<path fill="none" stroke="#000000" stroke-width="0.600" d="M90.950 13.640C91.941 11.697 89.483 9.943 88.036 11.411" />
<path fill="none" stroke="#000000" stroke-width="0.600" d="M88.036 11.411C88.948 9.417 86.396 7.773 85.023 9.319" />
<path fill="none" stroke="#000000" stroke-width="0.600" d="M85.023 9.319C85.835 7.267 83.174 5.765 81.899 7.399" />
<path fill="none" stroke="#000000" stroke-width="0.600" d="M81.899 7.399C82.585 5.283 79.800 3.963 78.651 5.698" />
<path fill="none" stroke="#000000" stroke-width="0.600" d="M78.651 5.698C79.176 3.516 76.256 2.431 75.270 4.279" />
<path fill="none" stroke="#000000" stroke-width="0.600" d="M75.270 4.279C75.589 2.036 72.533 1.255 71.759 3.221" />
<path fill="none" stroke="#000000" stroke-width="0.600" d="M71.759 3.221C71.818 0.942 68.653 0.544 68.144 2.616" />
<path fill="none" stroke="#000000" stroke-width="0.600" d="M68.144 2.616C67.897 0.349 64.683 0.396 64.482 2.542" />
<path fill="none" stroke="#000000" stroke-width="0.600" d="M64.482 2.542C63.910 0.353 60.737 0.860 60.848 3.029" />
<path fill="none" stroke="#000000" stroke-width="0.600" d="M60.848 3.029C59.982 0.981 56.941 1.893 57.323 4.031" />
<path fill="none" stroke="#000000" stroke-width="0.600" d="M57.323 4.031C56.228 2.146 53.356 3.363 53.940 5.444" />
<path fill="none" stroke="#000000" stroke-width="0.600" d="M53.940 5.444C52.693 3.707 49.980 5.119 50.689 7.140" />
<path fill="none" stroke="#000000" stroke-width="0.600" d="M50.689 7.140C49.355 5.512 46.762 7.020 47.524 8.996" />
<path fill="none" stroke="#000000" stroke-width="0.600" d="M47.524 8.996C46.162 7.434 43.641 8.949 44.391 10.901" />
<path fill="none" stroke="#000000" stroke-width="0.600" d="M44.391 10.901C43.047 9.356 40.548 10.801 41.222 12.749" />
<path fill="none" stroke="#000000" stroke-width="0.600" d="M41.222 12.749C39.944 11.176 37.426 12.470 37.960 14.426" />
<path fill="none" stroke="#000000" stroke-width="0.600" d="M37.960 14.426C36.800 12.787 34.234 13.846 34.564 15.808" />
<path fill="none" stroke="#000000" stroke-width="0.600" d="M34.564 15.808C33.579 14.069 30.954 14.814 31.027 16.765" />
<path fill="none" stroke="#000000" stroke-width="0.600" d="M31.027 16.765C30.273 14.913 27.598 15.285 27.388 17.196" />
<path fill="none" stroke="#000000" stroke-width="0.600" d="M27.388 17.196C26.910 15.240 24.211 15.214 23.726 17.060" />
<path fill="none" stroke="#000000" stroke-width="0.600" d="M23.726 17.060C23.539 15.036 20.849 14.630 20.121 16.396" />
<path fill="none" stroke="#000000" stroke-width="0.600" d="M20.121 16.396C20.207 14.344 17.557 13.602 16.627 15.285" />
<path fill="none" stroke="#000000" stroke-width="0.600" d="M16.627 15.285C16.949 13.240 14.359 12.218 13.267 13.819" />
<path fill="none" stroke="#000000" stroke-width="0.600" d="M13.267 13.819C13.781 11.801 11.260 10.552 10.039 12.079" />
<path fill="none" stroke="#000000" stroke-width="0.600" d="M10.039 12.079C10.708 10.097 8.258 8.666 6.936 10.125" />
<path fill="none" stroke="#000000" stroke-width="0.600" d="M6.936 10.125C7.728 8.182 5.347 6.604 3.942 8.003" />
<path fill="none" stroke="#000000" stroke-width="0.600" d="M3.942 8.003C4.835 6.099 2.518 4.405 1.050 5.750" />
<path fill="none" stroke="#000000" stroke-width="0.600" d="M1.050 5.750L1.050 5.750" />
</g>
<g id="G_aaaaaaa_renders/out.svg">
</g>
<g id="B_aaaaaaa_renders/out.svg">
</g>
<g id="I_aaaaaaa_renders/out.svg">
</g>
<g id="E_aaaaaaa_renders/out.svg">
</g>
<g id="X_aaaaaaa_renders/out.svg">
</g>
<clipPath id="clip_viewBox">
<path d="M-1637.856 897.694L-1489.163 897.694L-1489.163 972.387L-1637.856 972.387z" />
</clipPath>
</defs>
<g transform="scale(1,-1)" fill="#000000" stroke="#000000" stroke-linecap="round" stroke-linejoin="round" stroke-miterlimit="10" fill-rule="evenodd" clip-rule="evenodd" clip-path="url(#clip_viewBox)">
<use x="-1609.510" y="926.040" xlink:href="#F_aaaaaaa_renders/out.svg" />
</g>
</svg>
