<?xml version="1.0" encoding="utf-8" standalone="no"?>
<!-- Generated by Therion 6.0.3 (2021-10-03) -->
<!DOCTYPE svg PUBLIC "-//W3C//DTD SVG 1.1//EN" "http://www.w3.org/Graphics/SVG/1.1/DTD/svg11.dtd">
<svg width="5.246cm" height="1.5cm" viewBox="-1610 -940 100 10" xmlns="http://www.w3.org/2000/svg" xmlns:xlink="http://www.w3.org/1999/xlink">
<defs>
<g id="F_aaaaaaa_renders/out.svg">
<path fill="none" stroke="#000000" stroke-width="0.420" d="M89.139 13.000C88.007 12.117 86.903 11.300 85.826 10.544" />
<path fill="none" stroke="#000000" stroke-width="0.420" d="M88.322 12.370L89.022 11.396" />
<path fill="none" stroke="#000000" stroke-width="0.420" d="M87.498 11.752L88.703 10.031" />
<path fill="none" stroke="#000000" stroke-width="0.420" d="M86.664 11.141L87.339 10.149" />
<path fill="none" stroke="#000000" stroke-width="0.420" d="M84.120 9.382C82.912 8.587 81.740 7.871 80.600 7.229" />
<path fill="none" stroke="#000000" stroke-width="0.420" d="M83.253 8.821L83.867 7.790" />
<path fill="none" stroke="#000000" stroke-width="0.420" d="M82.378 8.275L83.420 6.452" />
<path fill="none" stroke="#000000" stroke-width="0.420" d="M81.494 7.744L82.071 6.691" />
<path fill="none" stroke="#000000" stroke-width="0.420" d="M78.781 6.254C77.486 5.595 76.234 5.033 75.021 4.561" />
<path fill="none" stroke="#000000" stroke-width="0.420" d="M77.858 5.797L78.343 4.699" />
<path fill="none" stroke="#000000" stroke-width="0.420" d="M76.923 5.361L77.724 3.420" />
<path fill="none" stroke="#000000" stroke-width="0.420" d="M75.977 4.948L76.406 3.827" />
<path fill="none" stroke="#000000" stroke-width="0.420" d="M73.077 3.870C71.693 3.424 70.361 3.098 69.075 2.876" />
<path fill="none" stroke="#000000" stroke-width="0.420" d="M72.090 3.570L72.382 2.406" />
<path fill="none" stroke="#000000" stroke-width="0.420" d="M71.094 3.303L71.536 1.250" />
<path fill="none" stroke="#000000" stroke-width="0.420" d="M70.089 3.071L70.300 1.889" />
<path fill="none" stroke="#000000" stroke-width="0.420" d="M67.030 2.606C65.603 2.476 64.232 2.475 62.909 2.582" />
<path fill="none" stroke="#000000" stroke-width="0.420" d="M66.001 2.533L66.026 1.334" />
<path fill="none" stroke="#000000" stroke-width="0.420" d="M64.970 2.505L64.927 0.405" />
<path fill="none" stroke="#000000" stroke-width="0.420" d="M63.939 2.521L63.864 1.323" />
<path fill="none" stroke="#000000" stroke-width="0.420" d="M60.862 2.837C59.484 3.069 58.156 3.413 56.866 3.844" />
<path fill="none" stroke="#000000" stroke-width="0.420" d="M59.848 3.029L59.580 1.859" />
<path fill="none" stroke="#000000" stroke-width="0.420" d="M58.844 3.263L58.297 1.235" />
<path fill="none" stroke="#000000" stroke-width="0.420" d="M57.849 3.535L57.495 2.389" />
<path fill="none" stroke="#000000" stroke-width="0.420" d="M54.931 4.563C53.658 5.082 52.418 5.676 51.198 6.318" />
<path fill="none" stroke="#000000" stroke-width="0.420" d="M53.982 4.966L53.491 3.871" />
<path fill="none" stroke="#000000" stroke-width="0.420" d="M53.043 5.395L52.138 3.500" />
<path fill="none" stroke="#000000" stroke-width="0.420" d="M52.116 5.847L51.575 4.775" />
<path fill="none" stroke="#000000" stroke-width="0.420" d="M49.389 7.309C48.195 7.986 47.015 8.697 45.839 9.413" />
<path fill="none" stroke="#000000" stroke-width="0.420" d="M48.494 7.824L47.891 6.786" />
<path fill="none" stroke="#000000" stroke-width="0.420" d="M47.605 8.347L46.534 6.541" />
<path fill="none" stroke="#000000" stroke-width="0.420" d="M46.721 8.878L46.102 7.849" />
<path fill="none" stroke="#000000" stroke-width="0.420" d="M44.077 10.486C42.899 11.201 41.718 11.909 40.522 12.581" />
<path fill="none" stroke="#000000" stroke-width="0.420" d="M43.194 11.020L42.577 9.990" />
<path fill="none" stroke="#000000" stroke-width="0.420" d="M42.309 11.549L41.241 9.740" />
<path fill="none" stroke="#000000" stroke-width="0.420" d="M41.418 12.070L40.818 11.031" />
<path fill="none" stroke="#000000" stroke-width="0.420" d="M38.708 13.563C37.485 14.198 36.240 14.783 34.961 15.291" />
<path fill="none" stroke="#000000" stroke-width="0.420" d="M37.788 14.029L37.254 12.954" />
<path fill="none" stroke="#000000" stroke-width="0.420" d="M36.857 14.474L35.965 12.573" />
<path fill="none" stroke="#000000" stroke-width="0.420" d="M35.915 14.896L35.433 13.797" />
<path fill="none" stroke="#000000" stroke-width="0.420" d="M33.021 15.988C31.726 16.404 30.393 16.732 29.010 16.943" />
<path fill="none" stroke="#000000" stroke-width="0.420" d="M32.033 16.286L31.693 15.135" />
<path fill="none" stroke="#000000" stroke-width="0.420" d="M31.035 16.546L30.514 14.511" />
<path fill="none" stroke="#000000" stroke-width="0.420" d="M30.027 16.765L29.774 15.592" />
<path fill="none" stroke="#000000" stroke-width="0.420" d="M26.959 17.166C25.636 17.251 24.266 17.227 22.839 17.073" />
<path fill="none" stroke="#000000" stroke-width="0.420" d="M25.929 17.210L25.874 16.011" />
<path fill="none" stroke="#000000" stroke-width="0.420" d="M24.898 17.209L24.889 15.109" />
<path fill="none" stroke="#000000" stroke-width="0.420" d="M23.868 17.163L23.912 15.963" />
<path fill="none" stroke="#000000" stroke-width="0.420" d="M20.800 16.769C19.519 16.525 18.192 16.177 16.814 15.711" />
<path fill="none" stroke="#000000" stroke-width="0.420" d="M19.790 16.557L20.020 15.379" />
<path fill="none" stroke="#000000" stroke-width="0.420" d="M18.789 16.309L19.264 14.263" />
<path fill="none" stroke="#000000" stroke-width="0.420" d="M17.797 16.026L18.107 14.867" />
<path fill="none" stroke="#000000" stroke-width="0.420" d="M14.881 14.991C13.674 14.502 12.429 13.924 11.142 13.248" />
<path fill="none" stroke="#000000" stroke-width="0.420" d="M13.931 14.591L14.375 13.476" />
<path fill="none" stroke="#000000" stroke-width="0.420" d="M12.990 14.165L13.817 12.235" />
<path fill="none" stroke="#000000" stroke-width="0.420" d="M12.062 13.718L12.561 12.627" />
<path fill="none" stroke="#000000" stroke-width="0.420" d="M9.337 12.252C8.204 11.597 7.039 10.868 5.839 10.060" />
<path fill="none" stroke="#000000" stroke-width="0.420" d="M8.447 11.726L9.035 10.680" />
<path fill="none" stroke="#000000" stroke-width="0.420" d="M7.569 11.186L8.632 9.375" />
<path fill="none" stroke="#000000" stroke-width="0.420" d="M6.699 10.630L7.324 9.605" />
<path fill="none" stroke="#000000" stroke-width="0.420" d="M4.146 8.883C3.076 8.116 1.978 7.288 0.853 6.395" />
<path fill="none" stroke="#000000" stroke-width="0.420" d="M3.311 8.276L3.995 7.290" />
<path fill="none" stroke="#000000" stroke-width="0.420" d="M2.484 7.659L3.705 5.950" />
<path fill="none" stroke="#000000" stroke-width="0.420" d="M1.665 7.031L2.374 6.063" />
</g>
<g id="G_aaaaaaa_renders/out.svg">
</g>
<g id="B_aaaaaaa_renders/out.svg">
</g>
<g id="I_aaaaaaa_renders/out.svg">
</g>
<g id="E_aaaaaaa_renders/out.svg">
</g>
<g id="X_aaaaaaa_renders/out.svg">
</g>
<clipPath id="clip_viewBox">
<path d="M-1636.856 897.694L-1490.163 897.694L-1490.163 972.387L-1636.856 972.387z" />
</clipPath>
</defs>
<g transform="scale(1,-1)" fill="#000000" stroke="#000000" stroke-linecap="round" stroke-linejoin="round" stroke-miterlimit="10" fill-rule="evenodd" clip-rule="evenodd" clip-path="url(#clip_viewBox)">
<use x="-1608.510" y="926.040" xlink:href="#F_aaaaaaa_renders/out.svg" />
</g>
</svg>
