<?xml version="1.0" encoding="utf-8" standalone="no"?>
<!-- Generated by Therion 6.0.3 (2021-10-03) -->
<!DOCTYPE svg PUBLIC "-//W3C//DTD SVG 1.1//EN" "http://www.w3.org/Graphics/SVG/1.1/DTD/svg11.dtd">
<svg width="5.281cm" height="2.670cm" viewBox="-1637.856 -972.387 149.693 75.693" xmlns="http://www.w3.org/2000/svg" xmlns:xlink="http://www.w3.org/1999/xlink">
<defs>
<g id="F_aaaaaaa_renders/out.svg">
<path fill="none" stroke="#000000" stroke-width="0.420" d="M90.950 14.640L92.395 12.723" />
<path fill="none" stroke="#000000" stroke-width="0.420" d="M88.573 12.807L89.952 10.843" />
<path fill="none" stroke="#000000" stroke-width="0.420" d="M86.131 11.062L87.429 9.043" />
<path fill="none" stroke="#000000" stroke-width="0.420" d="M83.619 9.423L84.820 7.345" />
<path fill="none" stroke="#000000" stroke-width="0.420" d="M81.026 7.911L82.110 5.770" />
<path fill="none" stroke="#000000" stroke-width="0.420" d="M78.348 6.556L79.288 4.348" />
<path fill="none" stroke="#000000" stroke-width="0.420" d="M75.582 5.394L76.349 3.120" />
<path fill="none" stroke="#000000" stroke-width="0.420" d="M72.728 4.468L73.285 2.134" />
<path fill="none" stroke="#000000" stroke-width="0.420" d="M69.798 3.830L70.108 1.450" />
<path fill="none" stroke="#000000" stroke-width="0.420" d="M66.814 3.525L66.845 1.125" />
<path fill="none" stroke="#000000" stroke-width="0.420" d="M63.816 3.589L63.557 1.203" />
<path fill="none" stroke="#000000" stroke-width="0.420" d="M60.848 4.029L60.312 1.690" />
<path fill="none" stroke="#000000" stroke-width="0.420" d="M57.955 4.815L57.175 2.545" />
<path fill="none" stroke="#000000" stroke-width="0.420" d="M55.154 5.891L54.182 3.696" />
<path fill="none" stroke="#000000" stroke-width="0.420" d="M52.448 7.187L51.337 5.060" />
<path fill="none" stroke="#000000" stroke-width="0.420" d="M49.819 8.635L48.619 6.557" />
<path fill="none" stroke="#000000" stroke-width="0.420" d="M47.239 10.169L45.998 8.115" />
<path fill="none" stroke="#000000" stroke-width="0.420" d="M44.676 11.729L43.437 9.674" />
<path fill="none" stroke="#000000" stroke-width="0.420" d="M42.093 13.257L40.901 11.174" />
<path fill="none" stroke="#000000" stroke-width="0.420" d="M39.457 14.693L38.358 12.559" />
<path fill="none" stroke="#000000" stroke-width="0.420" d="M36.743 15.969L35.789 13.767" />
<path fill="none" stroke="#000000" stroke-width="0.420" d="M33.931 17.017L33.177 14.739" />
<path fill="none" stroke="#000000" stroke-width="0.420" d="M31.027 17.765L30.522 15.419" />
<path fill="none" stroke="#000000" stroke-width="0.420" d="M28.054 18.160L27.833 15.770" />
<path fill="none" stroke="#000000" stroke-width="0.420" d="M25.054 18.174L25.126 15.775" />
<path fill="none" stroke="#000000" stroke-width="0.420" d="M22.076 17.819L22.425 15.445" />
<path fill="none" stroke="#000000" stroke-width="0.420" d="M19.156 17.133L19.749 14.807" />
<path fill="none" stroke="#000000" stroke-width="0.420" d="M16.316 16.165L17.116 13.902" />
<path fill="none" stroke="#000000" stroke-width="0.420" d="M13.567 14.965L14.537 12.770" />
<path fill="none" stroke="#000000" stroke-width="0.420" d="M10.906 13.577L12.016 11.449" />
<path fill="none" stroke="#000000" stroke-width="0.420" d="M8.330 12.035L9.554 9.971" />
<path fill="none" stroke="#000000" stroke-width="0.420" d="M5.835 10.371L7.154 8.365" />
<path fill="none" stroke="#000000" stroke-width="0.420" d="M3.410 8.602L4.807 6.651" />
<path fill="none" stroke="#000000" stroke-width="0.420" d="M1.050 6.750L2.511 4.846" />
<path fill="none" stroke="#000000" stroke-width="0.600" d="M90.950 14.640C46.610 -20.730 45.390 42.730 1.050 6.750" />
</g>
<g id="G_aaaaaaa_renders/out.svg">
</g>
<g id="B_aaaaaaa_renders/out.svg">
</g>
<g id="I_aaaaaaa_renders/out.svg">
</g>
<g id="E_aaaaaaa_renders/out.svg">
</g>
<g id="X_aaaaaaa_renders/out.svg">
</g>
<clipPath id="clip_viewBox">
<path d="M-1637.856 896.694L-1488.163 896.694L-1488.163 972.387L-1637.856 972.387z" />
</clipPath>
</defs>
<g transform="scale(1,-1)" fill="#000000" stroke="#000000" stroke-linecap="round" stroke-linejoin="round" stroke-miterlimit="10" fill-rule="evenodd" clip-rule="evenodd" clip-path="url(#clip_viewBox)">
<use x="-1609.510" y="925.040" xlink:href="#F_aaaaaaa_renders/out.svg" />
</g>
</svg>
