<?xml version="1.0" encoding="utf-8" standalone="no"?>
<!-- Generated by Therion 6.0.3 (2021-10-03) -->
<!DOCTYPE svg PUBLIC "-//W3C//DTD SVG 1.1//EN" "http://www.w3.org/Graphics/SVG/1.1/DTD/svg11.dtd">
<svg width="5.140cm" height="2.635cm" viewBox="-1635.856 -972.387 145.693 74.693" xmlns="http://www.w3.org/2000/svg" xmlns:xlink="http://www.w3.org/1999/xlink">
<defs>
<g id="F_aaaaaaa_renders/out.svg">
<path fill="none" stroke="#000000" stroke-width="0.600" d="M88.627 11.007C87.821 11.866 86.591 10.735 85.598 11.035C85.157 10.164 84.914 9.007 83.948 8.954C82.924 9.264 82.003 8.134 82.298 6.873" />
<path fill="none" stroke="#000000" stroke-width="0.600" d="M79.107 4.730C78.502 5.740 77.060 4.895 76.153 5.399C75.538 4.640 75.056 3.561 74.100 3.713C73.165 4.233 72.026 3.323 72.047 2.028" />
<path fill="none" stroke="#000000" stroke-width="0.600" d="M68.083 0.804C67.887 1.965 66.236 1.702 65.575 2.501C64.726 2.018 63.884 1.189 63.049 1.678C62.367 2.503 60.975 2.069 60.524 0.855" />
<path fill="none" stroke="#000000" stroke-width="0.600" d="M56.429 1.663C56.697 2.810 55.073 3.206 54.773 4.199C53.803 4.082 52.705 3.643 52.125 4.417C51.815 5.441 50.363 5.580 49.478 4.635" />
<path fill="none" stroke="#000000" stroke-width="0.600" d="M46.317 6.551C46.744 7.648 45.192 8.270 45.035 9.295C44.059 9.317 42.910 9.037 42.445 9.885C42.283 10.943 40.866 11.286 39.855 10.476" />
<path fill="none" stroke="#000000" stroke-width="0.600" d="M37.123 12.156C37.380 13.305 35.753 13.687 35.444 14.677C34.475 14.552 33.382 14.103 32.795 14.872C32.475 15.893 31.023 16.019 30.145 15.067" />
<path fill="none" stroke="#000000" stroke-width="0.600" d="M27.350 15.555C27.135 16.712 25.489 16.422 24.814 17.210C23.973 16.714 23.145 15.870 22.302 16.346C21.606 17.159 20.222 16.703 19.791 15.482" />
<path fill="none" stroke="#000000" stroke-width="0.600" d="M17.064 14.431C16.445 15.432 15.015 14.567 14.101 15.058C13.496 14.291 13.029 13.205 12.072 13.344C11.129 13.851 10.003 12.925 10.042 11.631" />
<path fill="none" stroke="#000000" stroke-width="0.600" d="M7.503 9.784C6.689 10.635 5.470 9.492 4.474 9.782C4.042 8.906 3.810 7.747 2.845 7.684C1.817 7.984 0.908 6.844 1.215 5.587" />
</g>
<g id="G_aaaaaaa_renders/out.svg">
</g>
<g id="B_aaaaaaa_renders/out.svg">
</g>
<g id="I_aaaaaaa_renders/out.svg">
</g>
<g id="E_aaaaaaa_renders/out.svg">
</g>
<g id="X_aaaaaaa_renders/out.svg">
</g>
<clipPath id="clip_viewBox">
<path d="M-1635.856 897.694L-1490.163 897.694L-1490.163 972.387L-1635.856 972.387z" />
</clipPath>
</defs>
<g transform="scale(1,-1)" fill="#000000" stroke="#000000" stroke-linecap="round" stroke-linejoin="round" stroke-miterlimit="10" fill-rule="evenodd" clip-rule="evenodd" clip-path="url(#clip_viewBox)">
<use x="-1607.510" y="926.040" xlink:href="#F_aaaaaaa_renders/out.svg" />
</g>
</svg>
