<?xml version="1.0" encoding="utf-8" standalone="no"?>
<!-- Generated by Therion 6.0.3 (2021-10-03) -->
<!DOCTYPE svg PUBLIC "-//W3C//DTD SVG 1.1//EN" "http://www.w3.org/Graphics/SVG/1.1/DTD/svg11.dtd">
<svg width="5.246cm" height="1.5cm" viewBox="-1610 -940 100 10" xmlns="http://www.w3.org/2000/svg" xmlns:xlink="http://www.w3.org/1999/xlink">
<defs>
<g id="F_aaaaaaa_renders/out.svg">
<path fill="#000000" stroke="none" d="M88.284 11.285C87.408 11.813 86.165 11.428 85.139 11.739C84.650 10.773 85.218 9.024 83.948 8.954C83.052 9.225 82.235 8.394 82.242 7.338L82.242 7.338L88.284 11.285Z" />
<path fill="none" stroke="#000000" stroke-width="0.600" d="M88.627 11.007C87.758 11.934 86.307 11.385 85.139 11.739C84.650 10.773 85.218 9.024 83.948 8.954C82.924 9.264 82.003 8.134 82.298 6.873" />
<path fill="#000000" stroke="none" d="M78.831 5.074C78.087 5.776 76.790 5.663 75.853 6.183C75.171 5.343 75.356 3.513 74.100 3.713C73.282 4.168 72.308 3.529 72.091 2.495L72.091 2.495L78.831 5.074Z" />
<path fill="none" stroke="#000000" stroke-width="0.600" d="M79.107 4.730C78.454 5.820 76.920 5.590 75.853 6.183C75.171 5.343 75.356 3.513 74.100 3.713C73.165 4.233 72.026 3.323 72.047 2.028" />
<path fill="#000000" stroke="none" d="M67.951 1.225C67.513 2.149 66.264 2.515 65.580 3.341C64.639 2.806 64.146 1.035 63.049 1.678C62.452 2.399 61.312 2.158 60.734 1.274L60.734 1.274L67.951 1.225Z" />
<path fill="none" stroke="#000000" stroke-width="0.600" d="M68.083 0.804C67.871 2.057 66.359 2.400 65.580 3.341C64.639 2.806 64.146 1.035 63.049 1.678C62.367 2.503 60.975 2.069 60.524 0.855" />
<path fill="#000000" stroke="none" d="M56.470 2.103C56.424 3.125 55.414 3.945 55.103 4.971C54.028 4.842 52.888 3.399 52.125 4.417C51.854 5.313 50.709 5.531 49.834 4.940L49.834 4.940L56.470 2.103Z" />
<path fill="none" stroke="#000000" stroke-width="0.600" d="M56.429 1.663C56.718 2.901 55.457 3.803 55.103 4.971C54.028 4.842 52.888 3.399 52.125 4.417C51.815 5.441 50.363 5.580 49.478 4.635" />
<path fill="#000000" stroke="none" d="M46.419 6.980C46.518 7.999 45.634 8.954 45.471 10.013C44.389 10.037 43.057 8.770 42.445 9.885C42.303 10.811 41.201 11.189 40.251 10.727L40.251 10.727L46.419 6.980Z" />
<path fill="none" stroke="#000000" stroke-width="0.600" d="M46.317 6.551C46.778 7.735 45.656 8.806 45.471 10.013C44.389 10.037 43.057 8.770 42.445 9.885C42.283 10.943 40.866 11.286 39.855 10.476" />
<path fill="#000000" stroke="none" d="M37.160 12.596C37.104 13.618 36.087 14.429 35.767 15.452C34.694 15.314 33.566 13.861 32.795 14.872C32.515 15.765 31.369 15.974 30.499 15.374L30.499 15.374L37.160 12.596Z" />
<path fill="none" stroke="#000000" stroke-width="0.600" d="M37.123 12.156C37.401 13.396 36.131 14.287 35.767 15.452C34.694 15.314 33.566 13.861 32.795 14.872C32.475 15.893 31.023 16.019 30.145 15.067" />
<path fill="#000000" stroke="none" d="M27.211 15.974C26.758 16.891 25.503 17.236 24.806 18.050C23.874 17.500 23.410 15.721 22.302 16.346C21.694 17.057 20.558 16.797 19.994 15.904L19.994 15.904L27.211 15.974Z" />
<path fill="none" stroke="#000000" stroke-width="0.600" d="M27.350 15.555C27.118 16.804 25.600 17.123 24.806 18.050C23.874 17.500 23.410 15.721 22.302 16.346C21.606 17.159 20.222 16.703 19.791 15.482" />
<path fill="#000000" stroke="none" d="M16.783 14.771C16.029 15.462 14.734 15.331 13.790 15.838C13.120 14.988 13.330 13.161 12.072 13.344C11.247 13.787 10.282 13.134 10.079 12.098L10.079 12.098L16.783 14.771Z" />
<path fill="none" stroke="#000000" stroke-width="0.600" d="M17.064 14.431C16.396 15.511 14.865 15.260 13.790 15.838C13.120 14.988 13.330 13.161 12.072 13.344C11.129 13.851 10.003 12.925 10.042 11.631" />
<path fill="#000000" stroke="none" d="M7.157 10.059C6.276 10.578 5.036 10.181 4.008 10.481C3.528 9.510 4.114 7.767 2.845 7.684C1.946 7.947 1.138 7.107 1.155 6.051L1.155 6.051L7.157 10.059Z" />
<path fill="none" stroke="#000000" stroke-width="0.600" d="M7.503 9.784C6.624 10.702 5.180 10.139 4.008 10.481C3.528 9.510 4.114 7.767 2.845 7.684C1.817 7.984 0.908 6.844 1.215 5.587" />
</g>
<g id="G_aaaaaaa_renders/out.svg">
</g>
<g id="B_aaaaaaa_renders/out.svg">
</g>
<g id="I_aaaaaaa_renders/out.svg">
</g>
<g id="E_aaaaaaa_renders/out.svg">
</g>
<g id="X_aaaaaaa_renders/out.svg">
</g>
<clipPath id="clip_viewBox">
<path d="M-1635.856 897.694L-1490.163 897.694L-1490.163 973.387L-1635.856 973.387z" />
</clipPath>
</defs>
<g transform="scale(1,-1)" fill="#000000" stroke="#000000" stroke-linecap="round" stroke-linejoin="round" stroke-miterlimit="10" fill-rule="evenodd" clip-rule="evenodd" clip-path="url(#clip_viewBox)">
<use x="-1607.510" y="926.040" xlink:href="#F_aaaaaaa_renders/out.svg" />
</g>
</svg>
