<?xml version="1.0" encoding="utf-8" standalone="no"?>
<!-- Generated by Therion 6.0.3 (2021-10-03) -->
<!DOCTYPE svg PUBLIC "-//W3C//DTD SVG 1.1//EN" "http://www.w3.org/Graphics/SVG/1.1/DTD/svg11.dtd">
<svg width="5.246cm" height="1.5cm" viewBox="-1610 -940 100 10" xmlns="http://www.w3.org/2000/svg" xmlns:xlink="http://www.w3.org/1999/xlink">
<defs>
<g id="F_aaaaaaa_renders/out.svg">
</g>
<g id="G_aaaaaaa_renders/out.svg">
</g>
<g id="B_aaaaaaa_renders/out.svg">
<path fill="none" stroke="inherit" stroke-width="0.420" d="M90.950 11.640C46.610 -23.730 45.390 39.730 1.050 3.750" />
</g>
<g id="I_aaaaaaa_renders/out.svg">
<path fill="inherit" stroke="none" d="M89.950 11.640C59.983 9.010 30.017 6.380 0.050 3.750C44.390 39.730 45.610 -23.730 89.950 11.640Z" />
</g>
<g id="E_aaaaaaa_renders/out.svg">
<path fill="none" stroke="#000000" stroke-width="0.600" d="M85.578 13.209L87.978 13.209" />
<path fill="none" stroke="#000000" stroke-width="0.600" d="M86.778 12.009L86.778 14.409" />
<path fill="none" stroke="#000000" stroke-width="0.600" d="M80.689 9.879L83.089 9.879" />
<path fill="none" stroke="#000000" stroke-width="0.600" d="M81.889 8.679L81.889 11.079" />
<path fill="none" stroke="#000000" stroke-width="0.600" d="M75.578 7.134L77.978 7.134" />
<path fill="none" stroke="#000000" stroke-width="0.600" d="M76.778 5.934L76.778 8.334" />
<path fill="none" stroke="#000000" stroke-width="0.600" d="M70.262 5.235L72.662 5.235" />
<path fill="none" stroke="#000000" stroke-width="0.600" d="M71.462 4.035L71.462 6.435" />
<path fill="none" stroke="#000000" stroke-width="0.600" d="M64.832 4.504L67.232 4.504" />
<path fill="none" stroke="#000000" stroke-width="0.600" d="M66.032 3.304L66.032 5.704" />
<path fill="none" stroke="#000000" stroke-width="0.600" d="M59.425 5.159L61.825 5.159" />
<path fill="none" stroke="#000000" stroke-width="0.600" d="M60.625 3.959L60.625 6.359" />
<path fill="none" stroke="#000000" stroke-width="0.600" d="M54.137 7.102L56.537 7.102" />
<path fill="none" stroke="#000000" stroke-width="0.600" d="M55.337 5.902L55.337 8.302" />
<path fill="none" stroke="#000000" stroke-width="0.600" d="M48.937 9.927L51.337 9.927" />
<path fill="none" stroke="#000000" stroke-width="0.600" d="M50.137 8.727L50.137 11.127" />
<path fill="none" stroke="#000000" stroke-width="0.600" d="M43.634 13.132L46.034 13.132" />
<path fill="none" stroke="#000000" stroke-width="0.600" d="M44.834 11.932L44.834 14.332" />
<path fill="none" stroke="#000000" stroke-width="0.600" d="M37.931 16.190L40.331 16.190" />
<path fill="none" stroke="#000000" stroke-width="0.600" d="M39.131 14.990L39.131 17.390" />
<path fill="none" stroke="#000000" stroke-width="0.600" d="M31.579 18.452L33.979 18.452" />
<path fill="none" stroke="#000000" stroke-width="0.600" d="M32.779 17.252L32.779 19.652" />
<path fill="none" stroke="#000000" stroke-width="0.600" d="M24.711 19.209L27.111 19.209" />
<path fill="none" stroke="#000000" stroke-width="0.600" d="M25.911 18.008L25.911 20.409" />
<path fill="none" stroke="#000000" stroke-width="0.600" d="M17.911 18.231L20.311 18.231" />
<path fill="none" stroke="#000000" stroke-width="0.600" d="M19.111 17.031L19.111 19.432" />
<path fill="none" stroke="#000000" stroke-width="0.600" d="M11.608 15.923L14.008 15.923" />
<path fill="none" stroke="#000000" stroke-width="0.600" d="M12.808 14.723L12.808 17.123" />
<path fill="none" stroke="#000000" stroke-width="0.600" d="M5.851 12.774L8.252 12.774" />
<path fill="none" stroke="#000000" stroke-width="0.600" d="M7.051 11.574L7.051 13.974" />
<path fill="none" stroke="#000000" stroke-width="0.600" d="M0.540 9.100L2.940 9.100" />
<path fill="none" stroke="#000000" stroke-width="0.600" d="M1.740 7.900L1.740 10.300" />
<path fill="none" stroke="#000000" stroke-width="1.200" d="M90.950 12.640C46.610 -22.730 45.390 40.730 1.050 4.750" />
</g>
<g id="X_aaaaaaa_renders/out.svg">
</g>
<clipPath id="clip_viewBox">
<path d="M-1637.856 898.694L-1489.163 898.694L-1489.163 976.387L-1637.856 976.387z" />
</clipPath>
</defs>
<g transform="scale(1,-1)" fill="#000000" stroke="#000000" stroke-linecap="round" stroke-linejoin="round" stroke-miterlimit="10" fill-rule="evenodd" clip-rule="evenodd" clip-path="url(#clip_viewBox)">
<g fill="#ffffff">
<use x="-1608.510" y="928.040" xlink:href="#I_aaaaaaa_renders/out.svg" />
</g>
<use x="-1609.510" y="927.040" xlink:href="#E_aaaaaaa_renders/out.svg" />
</g>
</svg>
