<?xml version="1.0" encoding="utf-8" standalone="no"?>
<!-- Generated by Therion 6.0.3 (2021-10-03) -->
<!DOCTYPE svg PUBLIC "-//W3C//DTD SVG 1.1//EN" "http://www.w3.org/Graphics/SVG/1.1/DTD/svg11.dtd">
<svg width="5.246cm" height="1.5cm" viewBox="-1610 -940 100 10" xmlns="http://www.w3.org/2000/svg" xmlns:xlink="http://www.w3.org/1999/xlink">
<defs>
<g id="F_aaaaaaa_renders/out.svg">
</g>
<g id="G_aaaaaaa_renders/out.svg">
</g>
<g id="B_aaaaaaa_renders/out.svg">
<path fill="none" stroke="inherit" stroke-width="0.420" d="M90.950 11.640C46.610 -23.730 45.390 39.730 1.050 3.750" />
</g>
<g id="I_aaaaaaa_renders/out.svg">
<path fill="inherit" stroke="none" d="M89.950 11.640C59.983 9.010 30.017 6.380 0.050 3.750C44.390 39.730 45.610 -23.730 89.950 11.640Z" />
</g>
<g id="E_aaaaaaa_renders/out.svg">
<path fill="none" stroke="#000000" stroke-width="0.600" d="M87.765 12.669C88.334 12.153 88.209 11.920 88.507 11.919C89.126 11.859 90.229 12.210 90.730 12.330C91.375 12.223 91.686 12.559 92.068 13.203C92.383 13.513 92.416 13.623 92.777 14.016C92.416 14.212 91.790 14.819 91.562 14.431C90.798 15.037 90.335 14.614 89.761 14.648C89.169 14.252 88.671 14.058 88.385 13.631C88.173 13.317 87.792 12.693 87.765 12.669Z" />
<path fill="none" stroke="#000000" stroke-width="0.600" d="M84.139 10.364C84.395 10.125 84.476 9.704 85.298 9.951C85.834 9.786 86.065 9.686 86.716 9.873C87.702 9.879 88.022 9.565 88.400 9.866C89.059 10.620 89.025 10.555 89.005 11.080C89.094 11.211 88.752 12.014 88.653 11.628C87.826 11.924 87.127 11.973 86.344 12.154C85.769 11.941 85.307 11.599 84.741 11.267C84.675 11.352 84.588 11.214 84.139 10.364Z" />
<path fill="none" stroke="#000000" stroke-width="0.600" d="M80.680 8.452C80.699 7.997 80.945 7.792 81.216 7.664C81.854 7.593 82.132 7.294 83.271 7.429C83.449 7.163 84.326 7.051 85.035 7.712C85.232 7.815 85.631 7.773 85.707 8.139C85.564 8.859 85.395 9.287 85.111 9.044C84.622 9.492 83.648 9.733 83.439 9.496C82.710 9.693 81.851 9.625 81.365 9.770C81.043 9.383 80.529 9.382 80.680 8.452Z" />
<path fill="none" stroke="#000000" stroke-width="0.600" d="M77.041 6.067C76.861 5.798 77.136 5.156 77.816 5.511C77.999 5.228 78.901 5.034 79.803 5.616C80.477 5.413 80.470 5.893 81.349 6.366C81.502 6.393 81.950 6.885 81.530 7.332C81.645 7.596 81.078 7.484 80.896 7.948C80.444 7.829 79.314 7.880 79.165 7.651C78.453 7.608 77.764 7.249 77.141 7.271C76.914 6.755 76.680 6.118 77.041 6.067Z" />
<path fill="none" stroke="#000000" stroke-width="0.600" d="M72.883 4.491C73.258 4.370 73.269 3.773 73.728 3.896C74.416 3.730 75.117 3.855 75.817 3.638C76.211 3.955 76.574 4.078 77.422 4.731C77.512 4.953 77.609 5.362 77.602 5.753C77.655 6.000 77.024 6.214 76.754 6.008C76.223 6.611 75.396 6.010 75.330 5.968C74.493 5.951 73.855 5.994 73.338 5.645C73.140 5.130 72.611 4.992 72.883 4.491Z" />
<path fill="none" stroke="#000000" stroke-width="0.600" d="M70.678 1.592C71.524 1.292 71.756 1.864 71.959 2.201C72.480 2.521 72.102 3.145 72.109 3.578C72.215 4.660 72.414 5.319 71.932 5.693C72.097 6.163 71.771 5.953 71.444 6.270C70.962 6.378 70.849 6.161 70.318 5.964C70.137 5.203 69.773 4.387 69.701 4.152C70.155 3.592 69.938 2.923 69.956 2.215C70.055 1.947 70.599 1.569 70.678 1.592Z" />
<path fill="none" stroke="#000000" stroke-width="0.600" d="M66.513 6.111C66.154 5.876 65.652 5.853 65.523 5.314C65.339 4.421 65.752 3.822 65.900 3.481C65.657 2.547 65.903 2.023 65.990 1.503C66.042 1.478 66.791 1.076 67.234 1.263C67.221 1.153 67.792 1.273 67.692 1.698C68.223 2.490 67.820 2.942 68.078 3.312C68.269 4.462 67.869 4.527 67.614 5.612C67.602 5.663 67.264 5.663 66.513 6.111Z" />
<path fill="none" stroke="#000000" stroke-width="0.600" d="M61.928 1.815C61.923 1.301 62.107 1.456 62.598 1.907C63.014 2.400 63.388 2.973 63.544 3.722C63.904 4.169 64.201 4.650 63.978 5.382C63.859 5.550 63.895 5.756 63.453 5.973C63.404 6.003 62.895 6.279 62.309 6.131C62.136 5.544 61.531 4.894 61.629 4.042C61.287 3.623 60.602 3.093 61.151 2.351C60.681 2.115 61.294 1.821 61.928 1.815Z" />
<path fill="none" stroke="#000000" stroke-width="0.600" d="M56.257 4.615C55.792 4.338 56.226 3.884 56.676 3.980C57.403 3.596 58.253 3.800 58.929 3.585C59.239 4.088 60.097 4.156 60.309 4.229C60.378 4.587 60.706 4.829 60.922 5.242C60.851 5.801 60.502 6.239 60.123 6.111C59.581 6.496 58.911 6.594 58.247 6.270C57.326 6.308 57.065 5.875 56.438 5.661C56.240 5.207 55.812 4.970 56.257 4.615Z" />
<path fill="none" stroke="#000000" stroke-width="0.600" d="M53.687 9.227C53.309 8.732 52.801 8.107 52.695 8.144C53.078 7.431 53.013 6.951 53.555 6.101C53.384 5.787 54.043 5.086 54.157 4.487C54.620 4.590 54.830 4.533 55.237 4.494C55.821 4.527 55.661 4.859 56.046 5.521C56.006 5.906 55.965 6.760 55.791 6.905C55.327 7.872 54.916 7.954 54.477 8.787C54.165 8.917 54.164 9.179 53.687 9.227Z" />
<path fill="none" stroke="#000000" stroke-width="0.600" d="M48.480 9.383C48.345 9.076 48.652 8.855 48.808 8.171C49.098 8.120 49.535 7.549 50.201 7.432C50.658 7.543 51.606 6.985 52.338 7.370C52.395 7.347 52.728 7.988 53.148 8.064C53.296 8.637 52.764 8.883 52.631 8.904C52.184 9.553 51.698 9.932 50.784 9.747C50.685 10.034 49.927 10.339 49.448 10.104C49.034 9.879 48.635 9.932 48.480 9.383Z" />
<path fill="none" stroke="#000000" stroke-width="0.600" d="M44.844 10.657C44.412 10.687 45.042 10.143 45.018 10.231C45.767 9.649 46.427 9.665 47.022 9.858C47.475 9.591 48.427 9.881 48.868 10.138C49.023 10.471 49.651 10.839 49.263 11.241C49.366 11.237 49.321 11.754 48.895 11.878C47.973 12.042 47.735 12.286 46.934 12.373C46.270 11.834 45.840 11.906 45.052 11.866C44.716 11.888 44.340 10.969 44.844 10.657Z" />
<path fill="none" stroke="#000000" stroke-width="0.600" d="M42.584 15.299C41.679 15.375 41.694 14.581 41.986 14.369C41.937 13.795 42.018 13.149 42.121 12.864C42.092 12.172 42.710 11.323 43.227 11.361C43.760 10.937 43.862 10.884 44.420 11.008C44.488 11.382 44.792 11.246 44.905 12.001C44.948 12.545 44.662 13.360 44.201 13.634C44.109 13.970 43.773 14.660 43.321 15.479C43.276 15.459 42.340 15.705 42.584 15.299Z" />
<path fill="none" stroke="#000000" stroke-width="0.600" d="M38.257 16.980C38.185 17.265 37.735 16.603 37.536 16.318C38.205 15.606 38.084 15.229 38.091 14.801C38.891 13.965 39.151 13.687 39.217 13.234C39.804 12.742 40.222 13.046 40.291 13.168C41.030 13.588 41.232 13.801 41.027 13.693C41.181 14.809 40.722 14.892 40.392 15.704C40.387 16.288 39.818 16.619 39.301 17.205C39.314 17.635 38.675 17.508 38.257 16.980Z" />
<path fill="none" stroke="#000000" stroke-width="0.600" d="M33.313 17.300C33.138 17.268 33.501 16.743 33.656 16.379C33.852 16.333 34.390 16.053 35.198 15.815C35.979 15.348 36.003 15.192 36.763 15.295C37.655 15.653 37.639 15.744 37.668 16.204C38.130 16.264 37.610 17.161 37.184 17.113C37.182 17.802 36.458 17.703 35.679 18.180C34.972 17.978 34.528 18.423 33.808 17.957C33.534 18.206 33.265 17.958 33.313 17.300Z" />
<path fill="none" stroke="#000000" stroke-width="0.600" d="M28.661 17.979C29.032 17.820 29.028 17.370 29.213 16.903C30.019 17.111 30.640 16.533 31.478 16.594C32.133 16.905 32.422 16.749 33.259 17.005C33.647 17.096 33.654 17.313 33.668 17.835C33.695 17.840 33.261 18.331 32.934 18.652C32.515 19.258 31.764 19.146 31.408 19.187C30.670 18.879 30.308 19.413 29.827 18.732C29.164 18.646 28.802 18.341 28.661 17.979Z" />
<path fill="none" stroke="#000000" stroke-width="0.600" d="M24.872 18.112C24.448 17.730 25.021 17.442 25.449 17.392C26.124 17.203 26.620 16.684 27.171 17.065C27.855 16.927 28.593 16.848 29.029 17.207C29.173 17.389 29.509 17.770 29.512 18.583C29.357 18.973 28.988 19.021 28.720 19.469C28.324 19.465 27.770 19.256 26.887 19.683C26.202 19.261 25.555 19.561 24.963 18.943C24.930 18.740 24.336 18.364 24.872 18.112Z" />
<path fill="none" stroke="#000000" stroke-width="0.600" d="M22.119 20.143C21.761 19.769 21.355 19.225 21.427 19.396C21.171 18.768 21.465 17.796 21.887 17.214C21.862 16.717 22.283 16.241 22.378 15.769C22.892 15.278 23.024 15.166 23.577 15.316C24.040 15.731 24.140 16.163 24.080 16.381C24.070 16.869 24.060 17.297 23.771 17.830C23.434 18.790 23.563 19.398 22.867 19.922C22.592 20.061 22.260 20.265 22.119 20.143Z" />
<path fill="none" stroke="#000000" stroke-width="0.600" d="M16.392 16.383C16.285 15.685 16.378 15.784 16.756 15.293C17.454 15.049 17.888 15.272 18.639 15.451C19.227 15.353 20.239 15.453 20.439 16.031C20.979 16.341 21.127 16.456 21.033 17.198C21.174 17.268 20.711 17.950 20.319 17.951C19.452 17.684 19.246 18.040 18.340 17.622C17.698 17.790 17.488 17.635 16.423 17.510C16.093 17.150 16.229 16.760 16.392 16.383Z" />
<path fill="none" stroke="#000000" stroke-width="0.600" d="M12.611 13.961C12.405 13.621 12.934 13.043 13.416 13.340C14.170 13.276 14.371 13.739 15.224 13.806C15.880 14.500 16.382 14.325 16.751 15.421C16.948 15.529 17.254 15.762 16.675 15.903C16.489 16.716 16.234 16.536 15.816 16.786C14.924 16.733 14.885 16.475 14.060 16.230C13.500 15.757 12.834 15.117 12.387 15.092C12.268 14.711 12.374 14.271 12.611 13.961Z" />
<path fill="none" stroke="#000000" stroke-width="0.600" d="M8.938 11.695C9.115 11.148 9.259 11.155 10.066 11.123C10.735 11.271 11.084 11.450 11.391 12.182C12.238 12.142 12.330 12.957 12.866 13.695C13.095 13.906 12.836 13.981 12.752 14.491C12.880 14.695 11.872 14.907 11.796 15.056C10.820 14.621 10.843 14.239 9.820 13.832C9.849 13.475 9.092 13.127 8.600 12.777C8.781 12.537 8.897 11.960 8.938 11.695Z" />
<path fill="none" stroke="#000000" stroke-width="0.600" d="M5.245 9.512C5.263 8.715 5.722 8.890 6.372 9.110C6.777 8.707 7.134 9.230 7.748 9.900C8.423 9.674 8.820 10.179 9.524 10.855C9.522 11.202 9.471 11.973 9.061 12.180C9.062 12.226 8.710 12.299 8.299 12.253C7.288 12.451 7.323 11.810 6.552 11.849C5.858 11.041 5.393 10.566 5.001 10.155C5.099 9.785 4.954 9.263 5.245 9.512Z" />
<path fill="none" stroke="#000000" stroke-width="0.600" d="M1.197 8.607C1.597 7.883 1.321 7.781 2.084 7.224C2.178 7.288 2.751 6.838 3.773 7.155C4.483 6.620 5.123 6.907 5.691 7.093C6.013 7.054 5.941 7.469 5.958 7.684C6.148 8.395 6.226 8.451 5.785 8.753C4.852 9.372 4.537 9.054 4.115 9.076C3.129 9.600 2.770 9.552 1.789 9.224C1.498 9.241 1.120 8.686 1.197 8.607Z" />
</g>
<g id="X_aaaaaaa_renders/out.svg">
</g>
<clipPath id="clip_viewBox">
<path d="M-1638.856 896.694L-1488.163 896.694L-1488.163 974.387L-1638.856 974.387z" />
</clipPath>
</defs>
<g transform="scale(1,-1)" fill="#000000" stroke="#000000" stroke-linecap="round" stroke-linejoin="round" stroke-miterlimit="10" fill-rule="evenodd" clip-rule="evenodd" clip-path="url(#clip_viewBox)">
<g fill="#ffffff">
<use x="-1608.510" y="928.040" xlink:href="#I_aaaaaaa_renders/out.svg" />
</g>
<use x="-1610.510" y="925.040" xlink:href="#E_aaaaaaa_renders/out.svg" />
</g>
</svg>
