<?xml version="1.0" encoding="utf-8" standalone="no"?>
<!-- Generated by Therion 6.0.3 (2021-10-03) -->
<!DOCTYPE svg PUBLIC "-//W3C//DTD SVG 1.1//EN" "http://www.w3.org/Graphics/SVG/1.1/DTD/svg11.dtd">
<svg width="5.246cm" height="1.5cm" viewBox="-1610 -940 100 10" xmlns="http://www.w3.org/2000/svg" xmlns:xlink="http://www.w3.org/1999/xlink">
<defs>
<g id="F_aaaaaaa_renders/out.svg">
</g>
<g id="G_aaaaaaa_renders/out.svg">
</g>
<g id="B_aaaaaaa_renders/out.svg">
<path fill="none" stroke="inherit" stroke-width="0.420" d="M90.950 11.640C46.610 -23.730 45.390 39.730 1.050 3.750" />
</g>
<g id="I_aaaaaaa_renders/out.svg">
<path fill="inherit" stroke="none" d="M89.950 11.640C59.983 9.010 30.017 6.380 0.050 3.750C44.390 39.730 45.610 -23.730 89.950 11.640Z" />
</g>
<g id="E_aaaaaaa_renders/out.svg">
<path fill="none" stroke="#000000" stroke-width="1.200" d="M89.132 14.859C88.779 14.480 91.180 12.674 92.335 11.096C87.196 7.119 80.942 4.491 77.225 3.075C76.821 5.579 77.076 6.420 76.535 7.197" />
<path fill="none" stroke="#000000" stroke-width="1.200" d="M73.176 6.082C74.122 5.325 72.909 4.172 74.188 2.911C68.748 0.006 63.698 2.373 59.109 2.374C59.496 4.813 59.825 5.610 60.643 7.756" />
<path fill="none" stroke="#000000" stroke-width="1.200" d="M57.117 9.235C55.889 7.957 54.983 6.734 55.258 5.784C49.717 7.963 46.602 11.071 41.144 13.013C42.579 14.743 41.653 15.057 42.498 16.302" />
<path fill="none" stroke="#000000" stroke-width="1.200" d="M39.824 18.426C39.078 16.546 37.284 15.381 37.856 15.124C33.775 16.905 27.489 15.922 22.469 15.678C21.997 16.786 21.300 19.238 20.963 19.139" />
<path fill="none" stroke="#000000" stroke-width="1.200" d="M15.942 19.560C17.278 17.704 18.018 15.868 19.034 13.485C14.922 12.389 10.001 10.680 5.114 6.743C3.189 7.145 1.743 7.738 1.443 9.681" />
</g>
<g id="X_aaaaaaa_renders/out.svg">
</g>
<clipPath id="clip_viewBox">
<path d="M-1639.856 898.694L-1489.163 898.694L-1489.163 976.387L-1639.856 976.387z" />
</clipPath>
</defs>
<g transform="scale(1,-1)" fill="#000000" stroke="#000000" stroke-linecap="round" stroke-linejoin="round" stroke-miterlimit="10" fill-rule="evenodd" clip-rule="evenodd" clip-path="url(#clip_viewBox)">
<g fill="#ffffff">
<use x="-1608.510" y="928.040" xlink:href="#I_aaaaaaa_renders/out.svg" />
</g>
<use x="-1611.510" y="927.040" xlink:href="#E_aaaaaaa_renders/out.svg" />
</g>
</svg>
