<?xml version="1.0" encoding="utf-8" standalone="no"?>
<!-- Generated by Therion 6.0.3 (2021-10-03) -->
<!DOCTYPE svg PUBLIC "-//W3C//DTD SVG 1.1//EN" "http://www.w3.org/Graphics/SVG/1.1/DTD/svg11.dtd">
<svg width="5.246cm" height="1.5cm" viewBox="-1610 -940 100 10" xmlns="http://www.w3.org/2000/svg" xmlns:xlink="http://www.w3.org/1999/xlink">
<defs>
<g id="F_aaaaaaa_renders/out.svg">
</g>
<g id="G_aaaaaaa_renders/out.svg">
</g>
<g id="B_aaaaaaa_renders/out.svg">
<path fill="none" stroke="inherit" stroke-width="0.420" d="M90.950 11.640C46.610 -23.730 45.390 39.730 1.050 3.750" />
</g>
<g id="I_aaaaaaa_renders/out.svg">
<path fill="inherit" stroke="none" d="M89.950 11.640C59.983 9.010 30.017 6.380 0.050 3.750C44.390 39.730 45.610 -23.730 89.950 11.640Z" />
</g>
<g id="E_aaaaaaa_renders/out.svg">
<path fill="none" stroke="#000000" stroke-width="0.600" d="M85.978 13.209C85.978 14.409 87.778 14.409 87.778 13.209C87.778 12.009 89.578 12.009 89.578 13.209" />
<path fill="none" stroke="#000000" stroke-width="0.600" d="M81.089 9.879C81.089 11.079 82.889 11.079 82.889 9.879C82.889 8.679 84.689 8.679 84.689 9.879" />
<path fill="none" stroke="#000000" stroke-width="0.600" d="M75.978 7.134C75.978 8.334 77.778 8.334 77.778 7.134C77.778 5.934 79.578 5.934 79.578 7.134" />
<path fill="none" stroke="#000000" stroke-width="0.600" d="M70.662 5.235C70.662 6.435 72.462 6.435 72.462 5.235C72.462 4.035 74.262 4.035 74.262 5.235" />
<path fill="none" stroke="#000000" stroke-width="0.600" d="M65.232 4.504C65.232 5.704 67.032 5.704 67.032 4.504C67.032 3.304 68.832 3.304 68.832 4.504" />
<path fill="none" stroke="#000000" stroke-width="0.600" d="M59.825 5.159C59.825 6.359 61.625 6.359 61.625 5.159C61.625 3.959 63.425 3.959 63.425 5.159" />
<path fill="none" stroke="#000000" stroke-width="0.600" d="M54.537 7.102C54.537 8.302 56.337 8.302 56.337 7.102C56.337 5.902 58.137 5.902 58.137 7.102" />
<path fill="none" stroke="#000000" stroke-width="0.600" d="M49.337 9.927C49.337 11.127 51.137 11.127 51.137 9.927C51.137 8.727 52.937 8.727 52.937 9.927" />
<path fill="none" stroke="#000000" stroke-width="0.600" d="M44.034 13.132C44.034 14.332 45.834 14.332 45.834 13.132C45.834 11.932 47.634 11.932 47.634 13.132" />
<path fill="none" stroke="#000000" stroke-width="0.600" d="M38.331 16.190C38.331 17.390 40.131 17.390 40.131 16.190C40.131 14.990 41.931 14.990 41.931 16.190" />
<path fill="none" stroke="#000000" stroke-width="0.600" d="M31.979 18.452C31.979 19.652 33.779 19.652 33.779 18.452C33.779 17.252 35.579 17.252 35.579 18.452" />
<path fill="none" stroke="#000000" stroke-width="0.600" d="M25.111 19.209C25.111 20.408 26.911 20.408 26.911 19.209C26.911 18.009 28.711 18.009 28.711 19.209" />
<path fill="none" stroke="#000000" stroke-width="0.600" d="M18.311 18.231C18.311 19.431 20.111 19.431 20.111 18.231C20.111 17.032 21.911 17.032 21.911 18.231" />
<path fill="none" stroke="#000000" stroke-width="0.600" d="M12.008 15.923C12.008 17.123 13.808 17.123 13.808 15.923C13.808 14.723 15.608 14.723 15.608 15.923" />
<path fill="none" stroke="#000000" stroke-width="0.600" d="M6.252 12.774C6.252 13.974 8.051 13.974 8.051 12.774C8.051 11.574 9.851 11.574 9.851 12.774" />
<path fill="none" stroke="#000000" stroke-width="0.600" d="M0.940 9.100C0.940 10.300 2.740 10.300 2.740 9.100C2.740 7.900 4.540 7.900 4.540 9.100" />
<path fill="none" stroke="#000000" stroke-width="1.200" d="M91.950 12.640C47.610 -22.730 46.390 40.730 2.050 4.750" />
</g>
<g id="X_aaaaaaa_renders/out.svg">
</g>
<clipPath id="clip_viewBox">
<path d="M-1638.856 898.694L-1489.163 898.694L-1489.163 976.387L-1638.856 976.387z" />
</clipPath>
</defs>
<g transform="scale(1,-1)" fill="#000000" stroke="#000000" stroke-linecap="round" stroke-linejoin="round" stroke-miterlimit="10" fill-rule="evenodd" clip-rule="evenodd" clip-path="url(#clip_viewBox)">
<g fill="#ffffff">
<use x="-1608.510" y="928.040" xlink:href="#I_aaaaaaa_renders/out.svg" />
</g>
<use x="-1610.510" y="927.040" xlink:href="#E_aaaaaaa_renders/out.svg" />
</g>
</svg>
