<?xml version="1.0" encoding="utf-8" standalone="no"?>
<!-- Generated by Therion 6.0.3 (2021-10-03) -->
<!DOCTYPE svg PUBLIC "-//W3C//DTD SVG 1.1//EN" "http://www.w3.org/Graphics/SVG/1.1/DTD/svg11.dtd">
<svg width="5.246cm" height="1.5cm" viewBox="-1610 -940 100 10" xmlns="http://www.w3.org/2000/svg" xmlns:xlink="http://www.w3.org/1999/xlink">
<defs>
<g id="F_aaaaaaa_renders/out.svg">
</g>
<g id="G_aaaaaaa_renders/out.svg">
</g>
<g id="B_aaaaaaa_renders/out.svg">
<path fill="none" stroke="inherit" stroke-width="0.420" d="M90.950 11.640C46.610 -23.730 45.390 39.730 1.050 3.750" />
</g>
<g id="I_aaaaaaa_renders/out.svg">
<path fill="inherit" stroke="none" d="M89.950 11.640C59.983 9.010 30.017 6.380 0.050 3.750C44.390 39.730 45.610 -23.730 89.950 11.640Z" />
</g>
<g id="E_aaaaaaa_renders/out.svg">
<path fill="none" stroke="#000000" stroke-width="0.600" d="M88.711 14.914C88.718 13.783 87.179 11.617 86.119 10.041C87.663 10.238 89.710 11.319 91.257 11.236C91.013 12.297 89.703 13.492 88.711 14.914Z" />
<path fill="none" stroke="#000000" stroke-width="0.600" d="M83.828 6.117C84.661 7.654 86.826 8.754 87.702 10.648C85.999 11.191 83.885 10.708 82.942 11.612C82.770 9.195 83.692 7.998 83.828 6.117Z" />
<path fill="none" stroke="#000000" stroke-width="0.600" d="M79.041 4.549C80.471 5.181 81.781 5.834 83.255 6.593C82.372 7.960 80.624 8.515 79.990 9.654C79.373 7.688 79.404 6.463 79.041 4.549Z" />
<path fill="none" stroke="#000000" stroke-width="0.600" d="M79.688 5.221C77.854 5.029 76.055 5.811 74.881 7.030C74.815 4.908 74.380 3.352 74.979 2.539C77.009 2.567 77.576 3.839 79.688 5.221Z" />
<path fill="none" stroke="#000000" stroke-width="0.600" d="M72.620 0.688C73.417 2.557 72.183 3.767 72.150 6.014C71.117 5.136 70.392 4.459 68.879 3.363C69.784 2.305 71.195 1.666 72.620 0.688Z" />
<path fill="none" stroke="#000000" stroke-width="0.600" d="M69.120 0.378C68.402 1.576 67.635 3.599 67.137 5.875C66.073 4.816 64.961 3.302 64.117 2.031C65.103 0.866 67.459 1.108 69.120 0.378Z" />
<path fill="none" stroke="#000000" stroke-width="0.600" d="M61.497 0.362C61.970 1.534 63.469 2.472 64.365 4.352C62.025 4.289 60.364 4.080 59.531 3.974C60.352 2.400 60.241 1.268 61.497 0.362Z" />
<path fill="none" stroke="#000000" stroke-width="0.600" d="M54.434 3.232C55.880 2.357 58.145 2.565 59.622 2.981C58.969 4.198 57.336 5.435 56.957 7.288C55.456 6.119 54.839 3.894 54.434 3.232Z" />
<path fill="none" stroke="#000000" stroke-width="0.600" d="M49.898 4.201C51.423 4.586 53.118 4.846 55.362 4.622C54.632 6.609 52.942 7.106 52.868 8.504C51.607 7.852 50.043 5.716 49.898 4.201Z" />
<path fill="none" stroke="#000000" stroke-width="0.600" d="M46.937 10.880C46.236 9.914 46.846 8.201 46.530 6.019C48.334 7.226 49.158 8.501 51.046 9.314C49.162 9.313 47.491 10.629 46.937 10.880Z" />
<path fill="none" stroke="#000000" stroke-width="0.600" d="M44.948 13.547C44.308 12.787 42.486 12.100 40.869 10.870C41.769 10.829 43.440 9.581 44.832 8.290C44.712 10.698 45.499 12.059 44.948 13.547Z" />
<path fill="none" stroke="#000000" stroke-width="0.600" d="M38.966 10.285C39.374 11.806 41.102 13.277 42.161 14.168C40.766 14.376 39.242 14.631 37.946 15.654C37.639 14.126 38.587 11.985 38.966 10.285Z" />
<path fill="none" stroke="#000000" stroke-width="0.600" d="M38.212 15.342C36.806 16.607 35.568 17.617 34.172 18.357C33.537 17.202 33.035 15.085 33.681 13.954C34.182 14.150 36.504 13.875 38.212 15.342Z" />
<path fill="none" stroke="#000000" stroke-width="0.600" d="M31.304 19.672C30.286 18.791 28.935 17.829 27.480 15.920C29.235 16.152 30.507 15.667 32.464 14.932C31.165 16.451 31.265 18.218 31.304 19.672Z" />
<path fill="none" stroke="#000000" stroke-width="0.600" d="M27.659 15.848C27.008 17.784 25.549 19.334 24.939 19.885C24.431 18.030 24.137 17.111 23.566 14.942C24.405 15.895 26.318 15.727 27.659 15.848Z" />
<path fill="none" stroke="#000000" stroke-width="0.600" d="M20.716 13.507C21.850 15.454 21.897 16.619 22.369 18.675C21.260 17.603 19.816 17.172 18.565 17.863C18.969 16.295 19.801 14.500 20.716 13.507Z" />
<path fill="none" stroke="#000000" stroke-width="0.600" d="M13.678 12.676C15.770 13.035 17.316 14.513 18.551 15.029C17.555 16.394 15.896 17.079 13.989 17.607C14.049 15.324 14.367 13.748 13.678 12.676Z" />
<path fill="none" stroke="#000000" stroke-width="0.600" d="M13.140 10.377C12.946 11.751 12.084 13.883 12.283 15.922C10.822 14.120 9.826 13.002 8.855 12.841C10.144 11.602 11.092 11.308 13.140 10.377Z" />
<path fill="none" stroke="#000000" stroke-width="0.600" d="M4.634 11.619C5.035 10.326 6.500 7.885 7.507 7.871C8.494 8.467 8.246 10.226 8.340 12.101C6.954 11.476 5.928 12.240 4.634 11.619Z" />
<path fill="none" stroke="#000000" stroke-width="0.600" d="M2.037 4.900C3.275 5.546 4.631 6.933 5.709 8.065C4.438 8.202 2.554 8.213 1.059 8.707C1.657 7.300 1.423 5.745 2.037 4.900Z" />
</g>
<g id="X_aaaaaaa_renders/out.svg">
</g>
<clipPath id="clip_viewBox">
<path d="M-1637.856 897.694L-1489.163 897.694L-1489.163 975.387L-1637.856 975.387z" />
</clipPath>
</defs>
<g transform="scale(1,-1)" fill="#000000" stroke="#000000" stroke-linecap="round" stroke-linejoin="round" stroke-miterlimit="10" fill-rule="evenodd" clip-rule="evenodd" clip-path="url(#clip_viewBox)">
<g fill="#ffffff">
<use x="-1608.510" y="928.040" xlink:href="#I_aaaaaaa_renders/out.svg" />
</g>
<use x="-1609.510" y="926.040" xlink:href="#E_aaaaaaa_renders/out.svg" />
</g>
</svg>
