<?xml version="1.0" encoding="utf-8" standalone="no"?>
<!-- Generated by Therion 6.0.3 (2021-10-03) -->
<!DOCTYPE svg PUBLIC "-//W3C//DTD SVG 1.1//EN" "http://www.w3.org/Graphics/SVG/1.1/DTD/svg11.dtd">
<svg width="5.246cm" height="1.5cm" viewBox="-1610 -940 100 10" xmlns="http://www.w3.org/2000/svg" xmlns:xlink="http://www.w3.org/1999/xlink">
<defs>
<g id="F_aaaaaaa_renders/out.svg">
</g>
<g id="G_aaaaaaa_renders/out.svg">
</g>
<g id="B_aaaaaaa_renders/out.svg">
</g>
<g id="I_aaaaaaa_renders/out.svg">
</g>
<g id="E_aaaaaaa_renders/out.svg">
<path fill="none" stroke="#000000" stroke-width="0.420" stroke-dasharray="3.000,3.000" stroke-dashoffset="0.000" d="M90.950 13.640C91.847 11.532 89.161 9.710 85.976 9.956C83.201 10.171 80.456 9.015 80.697 6.733C80.935 4.470 77.964 3.668 75.054 4.201C72.863 4.602 70.488 4.380 69.056 2.720C67.095 0.448 63.782 0.427 62.884 2.687C61.485 6.204 57.591 6.487 56.892 4.188C55.503 -0.380 48.685 2.775 51.290 6.806C52.911 9.316 49.138 12.746 45.958 9.949C44.249 8.445 41.895 10.422 40.619 13.080C39.474 15.465 36.959 16.930 34.996 15.656C32.772 14.212 29.814 14.791 28.987 17.077C27.870 20.166 23.551 19.952 22.817 16.941C22.180 14.328 18.873 13.443 16.841 15.365C14.971 17.134 11.761 15.735 11.234 12.759C10.825 10.449 8.418 9.146 5.988 9.477C3.731 9.785 2.773 7.072 1.050 5.750L1.050 5.750" />
<path fill="none" stroke="#000000" stroke-width="0.420" d="M2.444 9.499C1.907 8.366 1.702 6.879 1.050 5.750L1.050 5.750L1.050 5.750C2.309 6.088 3.506 6.994 4.687 7.415Z" />
<path fill="#000000" stroke="none" d="M2.444 9.499C1.907 8.366 1.702 6.879 1.050 5.750L1.050 5.750L1.050 5.750C2.309 6.088 3.506 6.994 4.687 7.415Z" />
</g>
<g id="X_aaaaaaa_renders/out.svg">
</g>
<clipPath id="clip_viewBox">
<path d="M-1637.856 897.694L-1489.163 897.694L-1489.163 974.387L-1637.856 974.387z" />
</clipPath>
</defs>
<g transform="scale(1,-1)" fill="#000000" stroke="#000000" stroke-linecap="round" stroke-linejoin="round" stroke-miterlimit="10" fill-rule="evenodd" clip-rule="evenodd" clip-path="url(#clip_viewBox)">
<use x="-1609.510" y="926.040" xlink:href="#E_aaaaaaa_renders/out.svg" />
</g>
</svg>
