<?xml version="1.0" encoding="utf-8" standalone="no"?>
<!-- Generated by Therion 6.0.3 (2021-10-03) -->
<!DOCTYPE svg PUBLIC "-//W3C//DTD SVG 1.1//EN" "http://www.w3.org/Graphics/SVG/1.1/DTD/svg11.dtd">
<svg width="5.246cm" height="1.5cm" viewBox="-1610 -940 100 10" xmlns="http://www.w3.org/2000/svg" xmlns:xlink="http://www.w3.org/1999/xlink">
<defs>
<g id="F_aaaaaaa_renders/out.svg">
</g>
<g id="G_aaaaaaa_renders/out.svg">
</g>
<g id="B_aaaaaaa_renders/out.svg">
<path fill="none" stroke="inherit" stroke-width="0.420" d="M90.950 11.640C46.610 -23.730 45.390 39.730 1.050 3.750" />
</g>
<g id="I_aaaaaaa_renders/out.svg">
<path fill="inherit" stroke="none" d="M89.950 11.640C59.983 9.010 30.017 6.380 0.050 3.750C44.390 39.730 45.610 -23.730 89.950 11.640Z" />
</g>
<g id="E_aaaaaaa_renders/out.svg">
<path fill="none" stroke="#000000" stroke-width="0.600" d="M88.993 13.122C91.033 10.255 86.680 7.443 84.947 10.269" />
<path fill="none" stroke="#000000" stroke-width="0.600" d="M80.697 7.733C82.309 4.486 77.352 2.450 76.212 5.636" />
<path fill="none" stroke="#000000" stroke-width="0.600" d="M71.491 4.159C72.203 0.479 66.604 -0.002 66.589 3.517" />
<path fill="none" stroke="#000000" stroke-width="0.600" d="M61.659 3.872C60.957 0.299 55.617 1.855 56.892 5.188" />
<path fill="none" stroke="#000000" stroke-width="0.600" d="M52.381 7.222C50.812 4.228 46.321 6.736 48.074 9.665" />
<path fill="none" stroke="#000000" stroke-width="0.600" d="M43.840 12.232C42.207 9.494 38.046 11.799 39.524 14.659" />
<path fill="none" stroke="#000000" stroke-width="0.600" d="M34.996 16.656C33.930 13.784 29.679 14.963 30.214 17.911" />
<path fill="none" stroke="#000000" stroke-width="0.600" d="M25.279 18.186C25.344 15.071 20.987 14.610 20.388 17.462" />
<path fill="none" stroke="#000000" stroke-width="0.600" d="M15.690 15.913C16.822 12.889 12.606 11.080 11.234 13.759" />
<path fill="none" stroke="#000000" stroke-width="0.600" d="M7.012 11.176C8.760 8.391 4.812 5.777 2.993 8.284" />
<path fill="none" stroke="#000000" stroke-width="0.600" d="M1.050 6.750L1.050 6.750" />
<path fill="none" stroke="#000000" stroke-width="1.200" d="M90.950 14.640C46.610 -20.730 45.390 42.730 1.050 6.750" />
</g>
<g id="X_aaaaaaa_renders/out.svg">
</g>
<clipPath id="clip_viewBox">
<path d="M-1637.856 896.694L-1489.163 896.694L-1489.163 972.387L-1637.856 972.387z" />
</clipPath>
</defs>
<g transform="scale(1,-1)" fill="#000000" stroke="#000000" stroke-linecap="round" stroke-linejoin="round" stroke-miterlimit="10" fill-rule="evenodd" clip-rule="evenodd" clip-path="url(#clip_viewBox)">
<g fill="#ffffff">
<use x="-1608.510" y="928.040" xlink:href="#I_aaaaaaa_renders/out.svg" />
</g>
<use x="-1609.510" y="925.040" xlink:href="#E_aaaaaaa_renders/out.svg" />
</g>
</svg>
