<?xml version="1.0" encoding="utf-8" standalone="no"?>
<!-- Generated by Therion 6.0.3 (2021-10-03) -->
<!DOCTYPE svg PUBLIC "-//W3C//DTD SVG 1.1//EN" "http://www.w3.org/Graphics/SVG/1.1/DTD/svg11.dtd">
<svg width="5.246cm" height="1.5cm" viewBox="-1610 -940 100 10" xmlns="http://www.w3.org/2000/svg" xmlns:xlink="http://www.w3.org/1999/xlink">
<defs>
<g id="F_aaaaaaa_renders/out.svg">
</g>
<g id="G_aaaaaaa_renders/out.svg">
</g>
<g id="B_aaaaaaa_renders/out.svg">
<path fill="none" stroke="inherit" stroke-width="0.420" d="M90.950 11.640C46.610 -23.730 45.390 39.730 1.050 3.750" />
</g>
<g id="I_aaaaaaa_renders/out.svg">
<path fill="inherit" stroke="none" d="M89.950 11.640C59.983 9.010 30.017 6.380 0.050 3.750C44.390 39.730 45.610 -23.730 89.950 11.640Z" />
</g>
<g id="E_aaaaaaa_renders/out.svg">
<path fill="#ffffff" stroke="none" d="M90.673 9.707L90.673 13.907L86.473 13.907C77.247 7.043 69.951 4.604 63.723 4.604L67.923 4.604C52.626 4.604 43.765 19.315 28.543 19.315L24.343 19.315C18.053 19.315 10.676 16.803 1.310 9.703L1.310 5.503L5.510 5.503C14.876 12.603 22.253 15.115 28.543 15.115L24.343 15.115C39.565 15.115 48.426 0.404 63.723 0.404L67.923 0.404C74.151 0.404 81.447 2.843 90.673 9.707Z" />
<path fill="none" stroke="#000000" stroke-width="1.200" d="M90.950 13.640C90.144 12.997 89.351 12.386 88.573 11.807" />
<path fill="none" stroke="#000000" stroke-width="1.200" d="M3.410 7.602C2.637 7.017 1.850 6.399 1.050 5.750" />
<path fill="none" stroke="#000000" stroke-width="1.200" stroke-dasharray="0.500,2.000,4.000,2.000" stroke-dashoffset="4.500" d="M88.573 11.807C47.324 -18.880 44.669 38.881 3.410 7.603" />
</g>
<g id="X_aaaaaaa_renders/out.svg">
</g>
<clipPath id="clip_viewBox">
<path d="M-1637.856 897.694L-1489.163 897.694L-1489.163 974.387L-1637.856 974.387z" />
</clipPath>
</defs>
<g transform="scale(1,-1)" fill="#000000" stroke="#000000" stroke-linecap="round" stroke-linejoin="round" stroke-miterlimit="10" fill-rule="evenodd" clip-rule="evenodd" clip-path="url(#clip_viewBox)">
<g fill="#ffffff">
<use x="-1608.510" y="928.040" xlink:href="#I_aaaaaaa_renders/out.svg" />
</g>
<use x="-1609.510" y="926.040" xlink:href="#E_aaaaaaa_renders/out.svg" />
</g>
</svg>
