<?xml version="1.0" encoding="utf-8" standalone="no"?>
<!-- Generated by Therion 6.0.3 (2021-10-03) -->
<!DOCTYPE svg PUBLIC "-//W3C//DTD SVG 1.1//EN" "http://www.w3.org/Graphics/SVG/1.1/DTD/svg11.dtd">
<svg width="5.246cm" height="1.5cm" viewBox="-1610 -940 100 10" xmlns="http://www.w3.org/2000/svg" xmlns:xlink="http://www.w3.org/1999/xlink">
<defs>
<g id="F_aaaaaaa_renders/out.svg">
</g>
<g id="G_aaaaaaa_renders/out.svg">
</g>
<g id="B_aaaaaaa_renders/out.svg">
<path fill="none" stroke="inherit" stroke-width="0.420" d="M90.950 11.640C46.610 -23.730 45.390 39.730 1.050 3.750" />
</g>
<g id="I_aaaaaaa_renders/out.svg">
<path fill="inherit" stroke="none" d="M89.950 11.640C59.983 9.010 30.017 6.380 0.050 3.750C44.390 39.730 45.610 -23.730 89.950 11.640Z" />
</g>
<g id="E_aaaaaaa_renders/out.svg">
<path fill="none" stroke="#000000" stroke-width="1.200" d="M90.950 16.640C46.610 -18.730 45.390 44.730 1.050 8.750" />
<path fill="none" stroke="#000000" stroke-width="0.600" d="M91.134 14.875C90.643 14.513 90.179 14.115 89.681 13.763C89.181 13.409 88.707 13.021 88.199 12.679C87.691 12.337 87.208 11.959 86.692 11.630C86.174 11.300 85.680 10.932 85.153 10.617C84.625 10.301 84.121 9.946 83.583 9.647C83.044 9.346 82.527 9.006 81.978 8.723C81.428 8.441 80.899 8.117 80.338 7.855C79.775 7.592 79.233 7.288 78.659 7.049C78.085 6.809 77.528 6.527 76.943 6.313C76.355 6.099 75.783 5.843 75.185 5.659C74.585 5.473 73.998 5.248 73.389 5.096C72.777 4.944 72.174 4.752 71.554 4.637C70.932 4.522 70.317 4.370 69.689 4.295C69.059 4.220 68.432 4.113 67.798 4.081C67.162 4.050 66.528 3.991 65.892 4.005C65.256 4.019 64.618 4.011 63.985 4.072C63.352 4.132 62.716 4.176 62.088 4.282C61.463 4.388 60.835 4.483 60.218 4.631C59.604 4.779 58.987 4.922 58.383 5.109C57.782 5.295 57.181 5.480 56.592 5.700C56.006 5.920 55.422 6.141 54.848 6.389C54.278 6.636 53.709 6.888 53.150 7.159C52.595 7.429 52.042 7.704 51.496 7.992C50.954 8.279 50.415 8.572 49.880 8.873C49.350 9.172 48.823 9.478 48.297 9.786C47.775 10.093 47.257 10.406 46.738 10.719C46.223 11.029 45.711 11.345 45.196 11.657C44.685 11.967 44.176 12.280 43.664 12.588C43.155 12.894 42.646 13.200 42.133 13.500C41.624 13.798 41.113 14.092 40.598 14.380C40.086 14.666 39.570 14.944 39.050 15.215C38.534 15.485 38.012 15.741 37.487 15.991C36.965 16.240 36.435 16.470 35.903 16.695C35.374 16.920 34.835 17.117 34.296 17.313C33.760 17.508 33.212 17.668 32.666 17.831C32.122 17.993 31.567 18.112 31.014 18.238C30.463 18.364 29.902 18.437 29.343 18.523C28.786 18.610 28.222 18.636 27.661 18.682C27.099 18.727 26.535 18.706 25.972 18.710C25.408 18.715 24.846 18.648 24.284 18.611C23.719 18.575 23.162 18.464 22.601 18.389C22.039 18.313 21.490 18.163 20.933 18.051C20.374 17.939 19.834 17.753 19.282 17.607C18.729 17.461 18.197 17.242 17.652 17.066C17.105 16.889 16.584 16.642 16.046 16.438C15.506 16.233 14.995 15.961 14.465 15.732C13.932 15.502 13.430 15.208 12.907 14.956C12.383 14.704 11.891 14.392 11.377 14.120C10.861 13.848 10.378 13.519 9.871 13.229C9.363 12.939 8.888 12.595 8.389 12.289C7.889 11.983 7.422 11.626 6.930 11.306C6.438 10.986 5.979 10.618 5.495 10.285C5.010 9.952 4.558 9.573 4.081 9.229C3.601 8.884 3.136 8.520 2.684 8.140" />
<path fill="none" stroke="#000000" stroke-width="0.600" d="M89.933 13.947L89.681 13.763C89.181 13.409 88.707 13.021 88.199 12.679C87.953 12.513 87.713 12.339 87.473 12.166L90.521 10.604Z" />
<path fill="#ffffff" stroke="none" d="M84.942 10.488C84.489 10.207 84.049 9.906 83.583 9.647C83.164 9.413 82.759 9.156 82.342 8.920L85.161 7.050Z" />
<path fill="none" stroke="#000000" stroke-width="0.600" d="M84.942 10.488C84.489 10.207 84.049 9.906 83.583 9.647C83.164 9.413 82.759 9.156 82.342 8.920L85.161 7.050Z" />
<path fill="#ffffff" stroke="none" d="M79.649 7.517C79.323 7.353 78.996 7.189 78.659 7.049C78.085 6.809 77.528 6.527 76.943 6.313L76.873 6.288L79.507 4.106Z" />
<path fill="none" stroke="#000000" stroke-width="0.600" d="M79.649 7.517C79.323 7.353 78.996 7.189 78.659 7.049C78.085 6.809 77.528 6.527 76.943 6.313L76.873 6.288L79.507 4.106Z" />
<path fill="#ffffff" stroke="none" d="M74.011 5.274C73.805 5.209 73.598 5.148 73.389 5.096C72.777 4.944 72.174 4.752 71.554 4.637C71.391 4.607 71.228 4.574 71.065 4.541L73.335 1.939Z" />
<path fill="none" stroke="#000000" stroke-width="0.600" d="M74.011 5.274C73.805 5.209 73.598 5.148 73.389 5.096C72.777 4.944 72.174 4.752 71.554 4.637C71.391 4.607 71.228 4.574 71.065 4.541L73.335 1.939Z" />
<path fill="#ffffff" stroke="none" d="M68.062 4.099L67.798 4.081C67.162 4.050 66.528 3.991 65.892 4.005C65.604 4.012 65.316 4.013 65.028 4.019L66.664 0.977Z" />
<path fill="none" stroke="#000000" stroke-width="0.600" d="M68.062 4.099L67.798 4.081C67.162 4.050 66.528 3.991 65.892 4.005C65.604 4.012 65.316 4.013 65.028 4.019L66.664 0.977Z" />
<path fill="#ffffff" stroke="none" d="M62.006 4.296C61.408 4.396 60.808 4.489 60.218 4.631C59.823 4.726 59.428 4.819 59.035 4.923L59.877 1.595Z" />
<path fill="none" stroke="#000000" stroke-width="0.600" d="M62.006 4.296C61.408 4.396 60.808 4.489 60.218 4.631C59.823 4.726 59.428 4.819 59.035 4.923L59.877 1.595Z" />
<path fill="#ffffff" stroke="none" d="M56.150 5.867C55.713 6.033 55.277 6.203 54.848 6.389C54.348 6.606 53.850 6.826 53.358 7.060L53.531 3.650Z" />
<path fill="none" stroke="#000000" stroke-width="0.600" d="M56.150 5.867C55.713 6.033 55.277 6.203 54.848 6.389C54.348 6.606 53.850 6.826 53.358 7.060L53.531 3.650Z" />
<path fill="#ffffff" stroke="none" d="M50.655 8.444L49.880 8.873C49.350 9.172 48.823 9.478 48.297 9.786L48.018 9.951L47.819 6.552Z" />
<path fill="none" stroke="#000000" stroke-width="0.600" d="M50.655 8.444L49.880 8.873C49.350 9.172 48.823 9.478 48.297 9.786L48.018 9.951L47.819 6.552Z" />
<path fill="#ffffff" stroke="none" d="M45.419 11.522L45.196 11.657C44.685 11.967 44.176 12.280 43.664 12.588L42.820 13.094L42.545 9.715Z" />
<path fill="none" stroke="#000000" stroke-width="0.600" d="M45.419 11.522L45.196 11.657C44.685 11.967 44.176 12.280 43.664 12.588L42.820 13.094L42.545 9.715Z" />
<path fill="#ffffff" stroke="none" d="M40.187 14.607C39.810 14.814 39.431 15.016 39.050 15.215C38.534 15.485 38.012 15.741 37.487 15.991L37.485 15.992L37.459 12.619Z" />
<path fill="none" stroke="#000000" stroke-width="0.600" d="M40.187 14.607C39.810 14.814 39.431 15.016 39.050 15.215C38.534 15.485 38.012 15.741 37.487 15.991L37.485 15.992L37.459 12.619Z" />
<path fill="#ffffff" stroke="none" d="M34.686 17.170L34.296 17.313C33.760 17.508 33.212 17.668 32.666 17.831C32.375 17.918 32.080 17.992 31.785 18.062L32.366 14.751Z" />
<path fill="none" stroke="#000000" stroke-width="0.600" d="M34.686 17.170L34.296 17.313C33.760 17.508 33.212 17.668 32.666 17.831C32.375 17.918 32.080 17.992 31.785 18.062L32.366 14.751Z" />
<path fill="#ffffff" stroke="none" d="M28.797 18.591C28.419 18.629 28.039 18.651 27.661 18.682C27.099 18.727 26.535 18.706 25.972 18.710L25.764 18.709L27.177 15.668Z" />
<path fill="none" stroke="#000000" stroke-width="0.600" d="M28.797 18.591C28.419 18.629 28.039 18.651 27.661 18.682C27.099 18.727 26.535 18.706 25.972 18.710L25.764 18.709L27.177 15.668Z" />
<path fill="#ffffff" stroke="none" d="M22.744 18.409L22.601 18.389C22.039 18.313 21.490 18.163 20.933 18.051C20.544 17.973 20.163 17.859 19.782 17.748L21.910 15.154Z" />
<path fill="none" stroke="#000000" stroke-width="0.600" d="M22.744 18.409L22.601 18.389C22.039 18.313 21.490 18.163 20.933 18.051C20.544 17.973 20.163 17.859 19.782 17.748L21.910 15.154Z" />
<path fill="#ffffff" stroke="none" d="M16.903 16.786C16.618 16.669 16.334 16.547 16.046 16.438C15.506 16.233 14.995 15.961 14.465 15.732C14.348 15.682 14.233 15.628 14.119 15.573L16.752 13.441Z" />
<path fill="none" stroke="#000000" stroke-width="0.600" d="M16.903 16.786C16.618 16.669 16.334 16.547 16.046 16.438C15.506 16.233 14.995 15.961 14.465 15.732C14.348 15.682 14.233 15.628 14.119 15.573L16.752 13.441Z" />
<path fill="#ffffff" stroke="none" d="M11.436 14.152L11.377 14.120C10.861 13.848 10.378 13.519 9.871 13.229C9.518 13.028 9.181 12.800 8.840 12.577L11.693 10.777Z" />
<path fill="none" stroke="#000000" stroke-width="0.600" d="M11.436 14.152L11.377 14.120C10.861 13.848 10.378 13.519 9.871 13.229C9.518 13.028 9.181 12.800 8.840 12.577L11.693 10.777Z" />
<path fill="#ffffff" stroke="none" d="M6.321 10.882C6.047 10.682 5.775 10.477 5.495 10.285C5.010 9.952 4.558 9.573 4.081 9.229L3.876 9.080L6.911 7.563Z" />
<path fill="none" stroke="#000000" stroke-width="0.600" d="M6.321 10.882C6.047 10.682 5.775 10.477 5.495 10.285C5.010 9.952 4.558 9.573 4.081 9.229L3.876 9.080L6.911 7.563Z" />
</g>
<g id="X_aaaaaaa_renders/out.svg">
</g>
<clipPath id="clip_viewBox">
<path d="M-1637.856 894.694L-1489.163 894.694L-1489.163 972.387L-1637.856 972.387z" />
</clipPath>
</defs>
<g transform="scale(1,-1)" fill="#000000" stroke="#000000" stroke-linecap="round" stroke-linejoin="round" stroke-miterlimit="10" fill-rule="evenodd" clip-rule="evenodd" clip-path="url(#clip_viewBox)">
<g fill="#ffffff">
<use x="-1608.510" y="928.040" xlink:href="#I_aaaaaaa_renders/out.svg" />
</g>
<use x="-1609.510" y="923.040" xlink:href="#E_aaaaaaa_renders/out.svg" />
</g>
</svg>
