<?xml version="1.0" encoding="utf-8" standalone="no"?>
<!-- Generated by Therion 6.0.3 (2021-10-03) -->
<!DOCTYPE svg PUBLIC "-//W3C//DTD SVG 1.1//EN" "http://www.w3.org/Graphics/SVG/1.1/DTD/svg11.dtd">
<svg width="5.246cm" height="1.5cm" viewBox="-1610 -940 100 10" xmlns="http://www.w3.org/2000/svg" xmlns:xlink="http://www.w3.org/1999/xlink">
<defs>
<g id="F_aaaaaaa_renders/out.svg">
</g>
<g id="G_aaaaaaa_renders/out.svg">
</g>
<g id="B_aaaaaaa_renders/out.svg">
<path fill="none" stroke="inherit" stroke-width="0.420" d="M90.950 11.640C46.610 -23.730 45.390 39.730 1.050 3.750" />
</g>
<g id="I_aaaaaaa_renders/out.svg">
<path fill="inherit" stroke="none" d="M89.950 11.640C59.983 9.010 30.017 6.380 0.050 3.750C44.390 39.730 45.610 -23.730 89.950 11.640Z" />
</g>
<g id="E_aaaaaaa_renders/out.svg">
<path fill="none" stroke="#000000" stroke-width="0.840" d="M90.711 15.611h0.001" />
<path fill="none" stroke="#000000" stroke-width="0.840" d="M91.229 12.945h0.001" />
<path fill="none" stroke="#000000" stroke-width="0.840" d="M90.676 11.669h0.001" />
<path fill="none" stroke="#000000" stroke-width="0.840" d="M88.077 13.326h0.001" />
<path fill="none" stroke="#000000" stroke-width="0.840" d="M86.792 13.183h0.001" />
<path fill="none" stroke="#000000" stroke-width="0.840" d="M86.861 10.971h0.001" />
<path fill="none" stroke="#000000" stroke-width="0.840" d="M84.643 12.348h0.001" />
<path fill="none" stroke="#000000" stroke-width="0.840" d="M85.259 9.110h0.001" />
<path fill="none" stroke="#000000" stroke-width="0.840" d="M82.836 11.023h0.001" />
<path fill="none" stroke="#000000" stroke-width="0.840" d="M83.370 7.675h0.001" />
<path fill="none" stroke="#000000" stroke-width="0.840" d="M82.820 6.156h0.001" />
<path fill="none" stroke="#000000" stroke-width="0.840" d="M81.389 6.378h0.001" />
<path fill="none" stroke="#000000" stroke-width="0.840" d="M80.353 5.816h0.001" />
<path fill="none" stroke="#000000" stroke-width="0.840" d="M79.158 5.641h0.001" />
<path fill="none" stroke="#000000" stroke-width="0.840" d="M78.114 5.119h0.001" />
<path fill="none" stroke="#000000" stroke-width="0.840" d="M76.259 7.016h0.001" />
<path fill="none" stroke="#000000" stroke-width="0.840" d="M75.416 6.093h0.001" />
<path fill="none" stroke="#000000" stroke-width="0.840" d="M74.633 4.773h0.001" />
<path fill="none" stroke="#000000" stroke-width="0.840" d="M73.352 5.430h0.001" />
<path fill="none" stroke="#000000" stroke-width="0.840" d="M72.762 2.490h0.001" />
<path fill="none" stroke="#000000" stroke-width="0.840" d="M71.300 4.649h0.001" />
<path fill="none" stroke="#000000" stroke-width="0.840" d="M70.435 1.919h0.001" />
<path fill="none" stroke="#000000" stroke-width="0.840" d="M69.120 5.888h0.001" />
<path fill="none" stroke="#000000" stroke-width="0.840" d="M68.085 3.716h0.001" />
<path fill="none" stroke="#000000" stroke-width="0.840" d="M66.881 2.161h0.001" />
<path fill="none" stroke="#000000" stroke-width="0.840" d="M66.002 4.785h0.001" />
<path fill="none" stroke="#000000" stroke-width="0.840" d="M64.908 4.622h0.001" />
<path fill="none" stroke="#000000" stroke-width="0.840" d="M64.064 5.793h0.001" />
<path fill="none" stroke="#000000" stroke-width="0.840" d="M63.129 6.287h0.001" />
<path fill="none" stroke="#000000" stroke-width="0.840" d="M61.038 2.980h0.001" />
<path fill="none" stroke="#000000" stroke-width="0.840" d="M61.102 6.747h0.001" />
<path fill="none" stroke="#000000" stroke-width="0.840" d="M60.176 7.283h0.001" />
<path fill="none" stroke="#000000" stroke-width="0.840" d="M59.087 7.446h0.001" />
<path fill="none" stroke="#000000" stroke-width="0.840" d="M56.395 4.256h0.001" />
<path fill="none" stroke="#000000" stroke-width="0.840" d="M56.876 7.920h0.001" />
<path fill="none" stroke="#000000" stroke-width="0.840" d="M55.299 7.349h0.001" />
<path fill="none" stroke="#000000" stroke-width="0.840" d="M54.560 8.418h0.001" />
<path fill="none" stroke="#000000" stroke-width="0.840" d="M52.432 7.042h0.001" />
<path fill="none" stroke="#000000" stroke-width="0.840" d="M52.806 10.045h0.001" />
<path fill="none" stroke="#000000" stroke-width="0.840" d="M51.175 9.619h0.001" />
<path fill="none" stroke="#000000" stroke-width="0.840" d="M50.366 10.593h0.001" />
<path fill="none" stroke="#000000" stroke-width="0.840" d="M49.165 10.935h0.001" />
<path fill="none" stroke="#000000" stroke-width="0.840" d="M47.682 10.826h0.001" />
<path fill="none" stroke="#000000" stroke-width="0.840" d="M47.262 12.496h0.001" />
<path fill="none" stroke="#000000" stroke-width="0.840" d="M45.376 11.712h0.001" />
<path fill="none" stroke="#000000" stroke-width="0.840" d="M45.365 14.164h0.001" />
<path fill="none" stroke="#000000" stroke-width="0.840" d="M44.406 15.034h0.001" />
<path fill="none" stroke="#000000" stroke-width="0.840" d="M43.669 16.381h0.001" />
<path fill="none" stroke="#000000" stroke-width="0.840" d="M41.226 14.380h0.001" />
<path fill="none" stroke="#000000" stroke-width="0.840" d="M41.094 17.079h0.001" />
<path fill="none" stroke="#000000" stroke-width="0.840" d="M40.106 18.148h0.001" />
<path fill="none" stroke="#000000" stroke-width="0.840" d="M38.599 18.008h0.001" />
<path fill="none" stroke="#000000" stroke-width="0.840" d="M36.957 17.362h0.001" />
<path fill="none" stroke="#000000" stroke-width="0.840" d="M35.749 17.902h0.001" />
<path fill="none" stroke="#000000" stroke-width="0.840" d="M34.836 19.734h0.001" />
<path fill="none" stroke="#000000" stroke-width="0.840" d="M33.301 19.210h0.001" />
<path fill="none" stroke="#000000" stroke-width="0.840" d="M31.483 16.328h0.001" />
<path fill="none" stroke="#000000" stroke-width="0.840" d="M30.313 16.906h0.001" />
<path fill="none" stroke="#000000" stroke-width="0.840" d="M29.060 16.812h0.001" />
<path fill="none" stroke="#000000" stroke-width="0.840" d="M27.823 16.531h0.001" />
<path fill="none" stroke="#000000" stroke-width="0.840" d="M26.432 20.042h0.001" />
<path fill="none" stroke="#000000" stroke-width="0.840" d="M25.309 17.140h0.001" />
<path fill="none" stroke="#000000" stroke-width="0.840" d="M23.731 19.311h0.001" />
<path fill="none" stroke="#000000" stroke-width="0.840" d="M23.000 15.798h0.001" />
<path fill="none" stroke="#000000" stroke-width="0.840" d="M21.731 15.898h0.001" />
<path fill="none" stroke="#000000" stroke-width="0.840" d="M20.446 15.937h0.001" />
<path fill="none" stroke="#000000" stroke-width="0.840" d="M18.558 17.815h0.001" />
<path fill="none" stroke="#000000" stroke-width="0.840" d="M17.119 17.920h0.001" />
<path fill="none" stroke="#000000" stroke-width="0.840" d="M15.675 17.949h0.001" />
<path fill="none" stroke="#000000" stroke-width="0.840" d="M14.613 17.011h0.001" />
<path fill="none" stroke="#000000" stroke-width="0.840" d="M14.514 14.039h0.001" />
<path fill="none" stroke="#000000" stroke-width="0.840" d="M14.018 12.216h0.001" />
<path fill="none" stroke="#000000" stroke-width="0.840" d="M11.243 14.939h0.001" />
<path fill="none" stroke="#000000" stroke-width="0.840" d="M10.377 13.824h0.001" />
<path fill="none" stroke="#000000" stroke-width="0.840" d="M9.155 13.389h0.001" />
<path fill="none" stroke="#000000" stroke-width="0.840" d="M8.769 11.559h0.001" />
<path fill="none" stroke="#000000" stroke-width="0.840" d="M7.449 11.312h0.001" />
<path fill="none" stroke="#000000" stroke-width="0.840" d="M5.524 11.957h0.001" />
<path fill="none" stroke="#000000" stroke-width="0.840" d="M5.366 9.915h0.001" />
<path fill="none" stroke="#000000" stroke-width="0.840" d="M5.744 7.209h0.001" />
<path fill="none" stroke="#000000" stroke-width="0.840" d="M4.359 7.055h0.001" />
<path fill="none" stroke="#000000" stroke-width="0.840" d="M1.199 9.241h0.001" />
<path fill="none" stroke="#000000" stroke-width="0.840" d="M1.281 7.055h0.001" />
<path fill="none" stroke="#000000" stroke-width="1.200" d="M92.950 12.640C48.610 -22.730 47.390 40.730 3.050 4.750" />
</g>
<g id="X_aaaaaaa_renders/out.svg">
</g>
<clipPath id="clip_viewBox">
<path d="M-1639.856 898.694L-1489.163 898.694L-1489.163 976.387L-1639.856 976.387z" />
</clipPath>
</defs>
<g transform="scale(1,-1)" fill="#000000" stroke="#000000" stroke-linecap="round" stroke-linejoin="round" stroke-miterlimit="10" fill-rule="evenodd" clip-rule="evenodd" clip-path="url(#clip_viewBox)">
<g fill="#ffffff">
<use x="-1608.510" y="928.040" xlink:href="#I_aaaaaaa_renders/out.svg" />
</g>
<use x="-1611.510" y="927.040" xlink:href="#E_aaaaaaa_renders/out.svg" />
</g>
</svg>
