<svg xmlns="http://www.w3.org/2000/svg" height="24" viewBox="0 -960 960 960" width="24"><path d="M240-691.692V-580q0 8.5-5.758 14.25T219.973-560q-8.512 0-14.242-5.75Q200-571.5 200-580v-147.693q0-13.73 9.288-23.019Q218.577-760 232.307-760H380q8.5 0 14.25 5.758 5.75 5.757 5.75 14.269 0 8.511-5.75 14.242Q388.5-720 380-720H268.308l212.538 212.538q8.693 8.693 13.923 20.714Q500-474.727 500-461.462V-220q0 8.5-5.758 14.25-5.757 5.75-14.269 5.75t-14.242-5.75Q460-211.5 460-220v-241.692q0-4.616-1.539-8.846-1.538-4.231-5.384-8.077L240-691.692Zm480 0L580.462-551.923q-5.846 5.846-13.885 6.231-8.038.384-14.654-6.231-6.615-6.616-6.615-14.385t6.615-14.385L691.692-720H580q-8.5 0-14.25-5.758T560-740.027q0-8.512 5.75-14.242Q571.5-760 580-760h147.693q13.73 0 23.019 9.288Q760-741.423 760-727.693V-580q0 8.5-5.758 14.25-5.757 5.75-14.269 5.75-8.511 0-14.242-5.75Q720-571.5 720-580v-111.692Z"/></svg>