<svg xmlns="http://www.w3.org/2000/svg" height="24" viewBox="0 -960 960 960" width="24"><path d="M364.615-280Q337-280 318.5-298.5 300-317 300-344.615v-430.77Q300-803 318.5-821.5 337-840 364.615-840h310.77Q703-840 721.5-821.5 740-803 740-775.385v430.77Q740-317 721.5-298.5 703-280 675.385-280h-310.77Zm-120 120Q217-160 198.5-178.5 180-197 180-224.615v-450.77q0-8.538 5.73-14.269 5.731-5.731 14.27-5.731 8.538 0 14.269 5.731T220-675.385v450.77q0 9.231 7.692 16.923Q235.384-200 244.615-200h330.77q8.538 0 14.269 5.731T595.385-180q0 8.539-5.731 14.27-5.731 5.73-14.269 5.73h-330.77Z"/></svg>