<svg xmlns="http://www.w3.org/2000/svg" height="24" viewBox="0 -960 960 960" width="24"><path d="M224.615-160q-26.654 0-45.634-18.981Q160-197.961 160-224.615v-510.77q0-26.654 18.981-45.634Q197.961-800 224.615-800h185.462q5.615-23.462 24.923-39.423 19.308-15.962 45-15.962 26.154 0 45.346 15.962 19.193 15.961 24.808 39.423h185.231q26.654 0 45.634 18.981Q800-762.039 800-735.385v510.77q0 26.654-18.981 45.634Q762.039-160 735.385-160h-510.77Zm0-40h510.77q9.23 0 16.923-7.692Q760-215.385 760-224.615v-510.77q0-9.23-7.692-16.923Q744.615-760 735.385-760H640v56.923q0 13.731-9.2 23.02-9.201 9.288-22.801 9.288H351.985q-13.601 0-22.793-9.288-9.192-9.289-9.192-23.02V-760h-95.385q-9.23 0-16.923 7.692Q200-744.615 200-735.385v510.77q0 9.23 7.692 16.923Q215.385-200 224.615-200Zm255.52-550.769q13.788 0 22.98-9.328 9.193-9.327 9.193-23.115 0-13.788-9.328-22.98-9.327-9.193-23.115-9.193-13.788 0-22.98 9.328-9.193 9.327-9.193 23.115 0 13.788 9.328 22.98 9.327 9.193 23.115 9.193Z"/></svg>