<svg xmlns="http://www.w3.org/2000/svg" height="24" viewBox="0 -960 960 960" width="24"><path d="M304.615-160q-26.654 0-45.634-18.981Q240-197.961 240-224.615V-720h-20q-8.5 0-14.25-5.758T200-740.027q0-8.512 5.75-14.242Q211.5-760 220-760h140q0-12.385 9.192-21.577 9.193-9.193 21.577-9.193h178.462q12.384 0 21.577 9.193Q600-772.385 600-760h140q8.5 0 14.25 5.758 5.75 5.757 5.75 14.269 0 8.511-5.75 14.242Q748.5-720 740-720h-20v495.385q0 26.654-18.981 45.634Q682.039-160 655.385-160h-350.77ZM680-720H280v495.385q0 10.769 6.923 17.692T304.615-200h350.77q10.769 0 17.692-6.923T680-224.615V-720ZM412.335-280q8.511 0 14.242-5.75 5.731-5.75 5.731-14.25v-320q0-8.5-5.758-14.25T412.281-640q-8.512 0-14.243 5.75T392.307-620v320q0 8.5 5.758 14.25t14.27 5.75Zm135.384 0q8.512 0 14.243-5.75t5.731-14.25v-320q0-8.5-5.758-14.25t-14.27-5.75q-8.511 0-14.242 5.75-5.731 5.75-5.731 14.25v320q0 8.5 5.758 14.25t14.269 5.75ZM280-720v520-520Z"/></svg>