<svg xmlns="http://www.w3.org/2000/svg" height="24" viewBox="0 -960 960 960" width="24"><path d="M320-392.307h35.385v-120.001H320V-470h-60v35.385h60v42.308Zm75.385-42.308H700V-470H395.385v35.385Zm209.23-93.077H640V-570h60v-35.385h-60v-42.308h-35.385v120.001ZM260-570h304.615v-35.385H260V-570Zm100 410v-80H184.615Q157-240 138.5-258.5 120-277 120-304.615v-430.77Q120-763 138.5-781.5 157-800 184.615-800h590.77Q803-800 821.5-781.5 840-763 840-735.385v430.77Q840-277 821.5-258.5 803-240 775.385-240H600v80H360Z"/></svg>