<svg xmlns="http://www.w3.org/2000/svg" height="20" viewBox="0 -960 960 960" width="20"><path d="M611.846-357.077v-245.846L476.154-480l135.692 122.923ZM235.615-184q-21.483 0-36.549-15.066Q184-214.132 184-235.615v-488.77q0-21.483 15.066-36.549Q214.132-776 235.615-776h488.77q21.483 0 36.549 15.066Q776-745.868 776-724.385v488.77q0 21.483-15.066 36.549Q745.868-184 724.385-184h-488.77ZM368-216h351.385q9.23 0 16.923-7.692Q744-231.385 744-240.615v-478.77q0-9.23-7.692-16.923Q728.615-744 719.385-744H368v528Z"/></svg>