<svg xmlns="http://www.w3.org/2000/svg" height="24" viewBox="0 -960 960 960" width="24"><path d="M686.154-307.692q-66.616 0-113.923-42.039Q524.923-391.769 514.769-460H267.385q-6.616 27-28.154 45.808-21.539 18.807-53.077 18.807-35.077 0-59.846-24.769-24.77-24.769-24.77-59.846t24.77-59.846q24.769-24.769 59.846-24.769 31.538 0 53.077 18.807Q260.769-527 267.385-500h247.384q10.154-68.231 57.462-110.269 47.307-42.039 113.923-42.039 71.461 0 121.885 51.193 50.423 51.192 50.423 122.653 0 69.924-50.423 120.347-50.424 50.423-121.885 50.423Zm0-40q54.615 0 93.461-38.847 38.846-38.846 38.846-93.461t-38.846-93.461q-38.846-38.847-93.461-38.847-54.616 0-93.462 38.847-38.846 38.846-38.846 93.461t38.846 93.461q38.846 38.847 93.462 38.847Z"/></svg>