<svg xmlns="http://www.w3.org/2000/svg" height="24" viewBox="0 -960 960 960" width="24"><path d="M264.615-120q-26.846 0-45.731-18.884Q200-157.769 200-184.615v-350.77q0-26.846 18.884-45.731Q237.769-600 264.615-600H600v-80q0-50-35-85t-85-35q-45.077 0-78.5 29.346t-39.808 72.731q-1.692 7.846-7.654 12.884Q348.077-680 340-680q-8.539 0-14.269-6-5.731-6-4.27-14.077 7.077-59.77 52.077-99.847Q418.538-840 480-840q66.846 0 113.423 46.577T640-680v80h55.385q26.846 0 45.731 18.884Q760-562.231 760-535.385v350.77q0 26.846-18.884 45.731Q722.231-120 695.385-120h-430.77Zm0-40h430.77q10.769 0 17.692-6.923T720-184.615v-350.77q0-10.769-6.923-17.692T695.385-560h-430.77q-10.769 0-17.692 6.923T240-535.385v350.77q0 10.769 6.923 17.692T264.615-160ZM480-300q25.308 0 42.654-17.346Q540-334.692 540-360q0-25.308-17.346-42.654Q505.308-420 480-420q-25.308 0-42.654 17.346Q420-385.308 420-360q0 25.308 17.346 42.654Q454.692-300 480-300ZM240-160v-400 400Z"/></svg>