<svg xmlns="http://www.w3.org/2000/svg" height="24" viewBox="0 -960 960 960" width="24"><path d="M480-384 269.385-173.384q-5.616 5.615-13.27 5.346-7.654-.269-13.5-6.116Q237-179.769 237-187.923t5.615-13.769l173.462-173.693q25.307-25.307 34.615-46.615Q460-443.308 460-479.154v-245.538l-71.385 71.384q-5.615 5.616-13.269 5.616t-13.5-5.846q-5.615-5.616-5.615-13.77t5.615-13.769l95.539-96.308q9.692-9.692 22.615-9.692 12.923 0 22.615 9.692l96.308 96.308q5.616 5.615 5.731 13.269.115 7.654-5.731 13.5-5.615 5.616-13.769 5.616t-13.769-5.616L500-724.692v245.538q0 35.846 10.077 57.923 10.077 22.077 35.385 47.385l172.692 172.923q5.615 5.615 5.731 13.269.115 7.654-5.731 13.5-5.615 5.616-13.769 5.616t-13.77-5.616L480-384Z"/></svg>