<svg xmlns="http://www.w3.org/2000/svg" height="24" viewBox="0 -960 960 960" width="24"><path d="M501.538-278.461q-26.654 0-45.634-18.981-18.981-18.981-18.981-45.635v-273.846q0-26.654 18.981-45.635 18.98-18.981 45.634-18.981h273.847q26.654 0 45.634 18.981Q840-643.577 840-616.923v273.846q0 26.654-18.981 45.635-18.98 18.981-45.634 18.981H501.538Zm-24.615-338.462v273.846q0 10.769 6.923 17.692t17.692 6.923h273.847q10.769 0 17.692-6.923T800-343.077v-273.846q0-10.769-6.923-17.692t-17.692-6.923H501.538q-10.769 0-17.692 6.923t-6.923 17.692Zm-173.846-15.385q-10.462 0-17.539-7.077-7.077-7.077-7.077-17.538 0-10.462 7.077-17.539 7.077-7.077 17.539-7.077 10.461 0 17.538 7.077t7.077 17.539q0 10.461-7.077 17.538t-17.538 7.077Zm-158.462 0q-10.461 0-17.538-7.077T120-656.923q0-10.462 7.077-17.539 7.077-7.077 17.538-7.077 10.462 0 17.539 7.077 7.077 7.077 7.077 17.539 0 10.461-7.077 17.538t-17.539 7.077Zm0 176.923q-10.461 0-17.538-7.076Q120-469.538 120-480q0-10.462 7.077-17.539 7.077-7.076 17.538-7.076 10.462 0 17.539 7.076 7.077 7.077 7.077 17.539 0 10.462-7.077 17.539-7.077 7.076-17.539 7.076Zm0 176.924q-10.461 0-17.538-7.077T120-303.077q0-10.461 7.077-17.538t17.538-7.077q10.462 0 17.539 7.077 7.077 7.077 7.077 17.538 0 10.462-7.077 17.539-7.077 7.077-17.539 7.077Zm158.462 0q-10.462 0-17.539-7.077-7.077-7.077-7.077-17.539 0-10.461 7.077-17.538t17.539-7.077q10.461 0 17.538 7.077t7.077 17.538q0 10.462-7.077 17.539-7.077 7.077-17.538 7.077ZM638.462-480Z"/></svg>