<svg xmlns="http://www.w3.org/2000/svg" height="24" viewBox="0 -960 960 960" width="24"><path d="M184.615-750.769q-10.461 0-17.538-7.077T160-775.385q0-10.461 7.077-17.538T184.615-800q10.462 0 17.539 7.077 7.077 7.077 7.077 17.538 0 10.462-7.077 17.539-7.077 7.077-17.539 7.077Zm147.693 0q-10.462 0-17.539-7.077-7.077-7.077-7.077-17.539 0-10.461 7.077-17.538T332.308-800q10.461 0 17.538 7.077t7.077 17.538q0 10.462-7.077 17.539-7.077 7.077-17.538 7.077Zm147.692 0q-10.462 0-17.539-7.077-7.076-7.077-7.076-17.539 0-10.461 7.076-17.538Q469.538-800 480-800q10.462 0 17.539 7.077 7.076 7.077 7.076 17.538 0 10.462-7.076 17.539-7.077 7.077-17.539 7.077Zm147.692 0q-10.461 0-17.538-7.077t-7.077-17.539q0-10.461 7.077-17.538T627.692-800q10.462 0 17.539 7.077 7.077 7.077 7.077 17.538 0 10.462-7.077 17.539-7.077 7.077-17.539 7.077Zm147.693 0q-10.462 0-17.539-7.077-7.077-7.077-7.077-17.539 0-10.461 7.077-17.538T775.385-800q10.461 0 17.538 7.077T800-775.385q0 10.462-7.077 17.539-7.077 7.077-17.538 7.077Zm-590.77 147.692q-10.461 0-17.538-7.077T160-627.692q0-10.462 7.077-17.539 7.077-7.077 17.538-7.077 10.462 0 17.539 7.077 7.077 7.077 7.077 17.539 0 10.461-7.077 17.538t-17.539 7.077Zm590.77 0q-10.462 0-17.539-7.077-7.077-7.077-7.077-17.538 0-10.462 7.077-17.539 7.077-7.077 17.539-7.077 10.461 0 17.538 7.077T800-627.692q0 10.461-7.077 17.538t-17.538 7.077Zm-590.77 147.692q-10.461 0-17.538-7.076Q160-469.538 160-480q0-10.462 7.077-17.539 7.077-7.076 17.538-7.076 10.462 0 17.539 7.076 7.077 7.077 7.077 17.539 0 10.462-7.077 17.539-7.077 7.076-17.539 7.076Zm590.77 0q-10.462 0-17.539-7.076-7.077-7.077-7.077-17.539 0-10.462 7.077-17.539 7.077-7.076 17.539-7.076 10.461 0 17.538 7.076Q800-490.462 800-480q0 10.462-7.077 17.539-7.077 7.076-17.538 7.076Zm-590.77 147.693q-10.461 0-17.538-7.077T160-332.308q0-10.461 7.077-17.538t17.538-7.077q10.462 0 17.539 7.077 7.077 7.077 7.077 17.538 0 10.462-7.077 17.539-7.077 7.077-17.539 7.077Zm590.77 0q-10.462 0-17.539-7.077-7.077-7.077-7.077-17.539 0-10.461 7.077-17.538t17.539-7.077q10.461 0 17.538 7.077T800-332.308q0 10.462-7.077 17.539-7.077 7.077-17.538 7.077ZM184.615-160q-10.461 0-17.538-7.077T160-184.615q0-10.462 7.077-17.539 7.077-7.077 17.538-7.077 10.462 0 17.539 7.077 7.077 7.077 7.077 17.539 0 10.461-7.077 17.538T184.615-160Zm147.693 0q-10.462 0-17.539-7.077-7.077-7.077-7.077-17.538 0-10.462 7.077-17.539 7.077-7.077 17.539-7.077 10.461 0 17.538 7.077t7.077 17.539q0 10.461-7.077 17.538T332.308-160ZM480-160q-10.462 0-17.539-7.077-7.076-7.077-7.076-17.538 0-10.462 7.076-17.539 7.077-7.077 17.539-7.077 10.462 0 17.539 7.077 7.076 7.077 7.076 17.539 0 10.461-7.076 17.538Q490.462-160 480-160Zm147.692 0q-10.461 0-17.538-7.077t-7.077-17.538q0-10.462 7.077-17.539 7.077-7.077 17.538-7.077 10.462 0 17.539 7.077 7.077 7.077 7.077 17.539 0 10.461-7.077 17.538T627.692-160Zm147.693 0q-10.462 0-17.539-7.077-7.077-7.077-7.077-17.538 0-10.462 7.077-17.539 7.077-7.077 17.539-7.077 10.461 0 17.538 7.077T800-184.615q0 10.461-7.077 17.538T775.385-160ZM372.308-307.692q-26.654 0-45.635-18.981-18.981-18.981-18.981-45.635v-215.384q0-26.654 18.981-45.635 18.981-18.981 45.635-18.981h215.384q26.654 0 45.635 18.981 18.981 18.981 18.981 45.635v215.384q0 26.654-18.981 45.635-18.981 18.981-45.635 18.981H372.308Zm0-40h215.384q10.77 0 17.693-6.923 6.923-6.923 6.923-17.693v-215.384q0-10.77-6.923-17.693-6.923-6.923-17.693-6.923H372.308q-10.77 0-17.693 6.923-6.923 6.923-6.923 17.693v215.384q0 10.77 6.923 17.693 6.923 6.923 17.693 6.923Z"/></svg>