<?xml version="1.0" encoding="utf-8" standalone="no"?>
<!-- Generated by Therion 6.2.1 (2024-03-20) -->
<!DOCTYPE svg PUBLIC "-//W3C//DTD SVG 1.1//EN" "http://www.w3.org/Graphics/SVG/1.1/DTD/svg11.dtd">
<svg width="0.623cm" height="0.623cm" viewBox="-8.835 -8.835 17.669 17.669" xmlns="http://www.w3.org/2000/svg" xmlns:xlink="http://www.w3.org/1999/xlink">
<defs>
<g id="F_aaaaaaa_renders/equipment/anchor.svg">
</g>
<g id="G_aaaaaaa_renders/equipment/anchor.svg">
</g>
<g id="B_aaaaaaa_renders/equipment/anchor.svg">
</g>
<g id="I_aaaaaaa_renders/equipment/anchor.svg">
</g>
<g id="E_aaaaaaa_renders/equipment/anchor.svg">
<path fill="none" stroke="#000000" stroke-width="0.420" d="M1.200 1.200L10.800 1.200L10.800 10.800L1.200 10.800Z" />
<path fill="none" stroke="#000000" stroke-width="0.600" d="M9.600 6.000C9.600 6.318 9.473 6.623 9.248 6.848C9.023 7.074 8.718 7.200 8.400 7.200C8.082 7.200 7.777 7.074 7.551 6.848C7.326 6.623 7.200 6.318 7.200 6.000C7.200 5.682 7.326 5.377 7.551 5.152C7.777 4.926 8.082 4.800 8.400 4.800C8.718 4.800 9.023 4.926 9.248 5.152C9.473 5.377 9.600 5.682 9.600 6.000Z" />
<path fill="none" stroke="#000000" stroke-width="1.200" stroke-linecap="butt" d="M2.400 6.000L7.200 6.000" />
<path fill="none" stroke="#000000" stroke-width="0.420" d="M7.200 1.200L7.200 10.800" />
</g>
<g id="X_aaaaaaa_renders/equipment/anchor.svg">
</g>
<clipPath id="clip_viewBox">
<path d="M-8.835 -8.835L8.835 -8.835L8.835 8.835L-8.835 8.835z" />
</clipPath>
</defs>
<g transform="scale(1,-1)" fill="#000000" stroke="#000000" stroke-linecap="round" stroke-linejoin="round" stroke-miterlimit="10" fill-rule="evenodd" clip-rule="evenodd" clip-path="url(#clip_viewBox)">
<use x="-6.000" y="-6.000" xlink:href="#E_aaaaaaa_renders/equipment/anchor.svg" />
</g>
</svg>
