<?xml version="1.0" encoding="utf-8" standalone="no"?>
<!-- Generated by Therion 6.2.1 (2024-03-20) -->
<!DOCTYPE svg PUBLIC "-//W3C//DTD SVG 1.1//EN" "http://www.w3.org/Graphics/SVG/1.1/DTD/svg11.dtd">
<svg width="0.623cm" height="0.623cm" viewBox="-8.835 -8.835 17.669 17.669" xmlns="http://www.w3.org/2000/svg" xmlns:xlink="http://www.w3.org/1999/xlink">
<defs>
<g id="F_aaaaaaa_renders/equipment/rope-ladder.svg">
</g>
<g id="G_aaaaaaa_renders/equipment/rope-ladder.svg">
</g>
<g id="B_aaaaaaa_renders/equipment/rope-ladder.svg">
</g>
<g id="I_aaaaaaa_renders/equipment/rope-ladder.svg">
</g>
<g id="E_aaaaaaa_renders/equipment/rope-ladder.svg">
<path fill="none" stroke="#000000" stroke-width="0.420" d="M1.200 1.200L10.800 1.200L10.800 10.800L1.200 10.800Z" />
<path fill="none" stroke="#000000" stroke-width="0.600" d="M7.200 1.200C7.937 1.782 8.377 2.661 8.400 3.600C8.442 5.279 7.158 6.721 7.200 8.400C7.223 9.339 7.663 10.218 8.400 10.800" />
<path fill="none" stroke="#000000" stroke-width="0.600" d="M3.600 1.200C4.337 1.782 4.777 2.661 4.800 3.600C4.842 5.279 3.558 6.721 3.600 8.400C3.623 9.339 4.063 10.218 4.800 10.800" />
<path fill="none" stroke="#000000" stroke-width="0.600" d="M3.600 8.400L7.200 8.400" />
<path fill="none" stroke="#000000" stroke-width="0.600" d="M4.200 6.000L7.800 6.000" />
<path fill="none" stroke="#000000" stroke-width="0.600" d="M4.800 3.600L8.400 3.600" />
</g>
<g id="X_aaaaaaa_renders/equipment/rope-ladder.svg">
</g>
<clipPath id="clip_viewBox">
<path d="M-8.835 -8.835L8.835 -8.835L8.835 8.835L-8.835 8.835z" />
</clipPath>
</defs>
<g transform="scale(1,-1)" fill="#000000" stroke="#000000" stroke-linecap="round" stroke-linejoin="round" stroke-miterlimit="10" fill-rule="evenodd" clip-rule="evenodd" clip-path="url(#clip_viewBox)">
<use x="-6.000" y="-6.000" xlink:href="#E_aaaaaaa_renders/equipment/rope-ladder.svg" />
</g>
</svg>
