<?xml version="1.0" encoding="utf-8" standalone="no"?>
<!-- Generated by Therion 6.2.1 (2024-03-20) -->
<!DOCTYPE svg PUBLIC "-//W3C//DTD SVG 1.1//EN" "http://www.w3.org/Graphics/SVG/1.1/DTD/svg11.dtd">
<svg width="0.694cm" height="0.623cm" viewBox="-9.835 -8.835 19.669 17.669" xmlns="http://www.w3.org/2000/svg" xmlns:xlink="http://www.w3.org/1999/xlink">
<defs>
<g id="F_aaaaaaa_renders/equipment/walkway.svg">
</g>
<g id="G_aaaaaaa_renders/equipment/walkway.svg">
</g>
<g id="B_aaaaaaa_renders/equipment/walkway.svg">
</g>
<g id="I_aaaaaaa_renders/equipment/walkway.svg">
</g>
<g id="E_aaaaaaa_renders/equipment/walkway.svg">
<path fill="none" stroke="#000000" stroke-width="0.671" stroke-linecap="butt" stroke-linejoin="miter" d="M1.335 0.689L12.665 0.689" />
<path fill="none" stroke="#000000" stroke-width="0.671" stroke-linecap="butt" stroke-linejoin="miter" d="M9.982 3.298L12.665 3.298" />
<path fill="none" stroke="#000000" stroke-width="0.671" stroke-linecap="butt" stroke-linejoin="miter" d="M1.335 3.298L4.018 3.298" />
<path fill="none" stroke="#000000" stroke-width="0.671" stroke-linecap="butt" stroke-linejoin="miter" d="M6.553 3.298L7.671 3.298" />
<path fill="none" stroke="#000000" stroke-width="0.894" stroke-linejoin="miter" d="M4.615 1.956L5.807 4.118L6.851 8.814" />
<path fill="none" stroke="#000000" stroke-width="0.894" stroke-linejoin="miter" d="M9.162 2.031L8.491 4.118L6.851 5.981L7.373 8.665" />
<path fill="none" stroke="#000000" stroke-width="0.671" d="M9.832 6.876L8.491 7.472L7.298 9.485L5.286 8.292L4.540 6.727" />
<path fill="#000000" stroke="none" d="M8.342 10.826C8.342 10.454 7.969 10.081 7.522 10.081C7.075 10.081 6.702 10.454 6.702 10.826C6.702 11.274 7.075 11.646 7.522 11.646C7.969 11.646 8.342 11.274 8.342 10.826Z" />
</g>
<g id="X_aaaaaaa_renders/equipment/walkway.svg">
</g>
<clipPath id="clip_viewBox">
<path d="M-9.835 -8.835L9.835 -8.835L9.835 8.835L-9.835 8.835z" />
</clipPath>
</defs>
<g transform="scale(1,-1)" fill="#000000" stroke="#000000" stroke-linecap="round" stroke-linejoin="round" stroke-miterlimit="10" fill-rule="evenodd" clip-rule="evenodd" clip-path="url(#clip_viewBox)">
<use x="-7.000" y="-6.000" xlink:href="#E_aaaaaaa_renders/equipment/walkway.svg" />
</g>
</svg>
