<?xml version="1.0" encoding="utf-8" standalone="no"?>
<!-- Generated by Therion 6.2.1 (2024-03-20) -->
<!DOCTYPE svg PUBLIC "-//W3C//DTD SVG 1.1//EN" "http://www.w3.org/Graphics/SVG/1.1/DTD/svg11.dtd">
<svg width="0.623cm" height="0.623cm" viewBox="-8.835 -8.835 17.669 17.669" xmlns="http://www.w3.org/2000/svg" xmlns:xlink="http://www.w3.org/1999/xlink">
<defs>
<g id="F_aaaaaaa_renders/equipment/wheelchair.svg">
</g>
<g id="G_aaaaaaa_renders/equipment/wheelchair.svg">
</g>
<g id="B_aaaaaaa_renders/equipment/wheelchair.svg">
</g>
<g id="I_aaaaaaa_renders/equipment/wheelchair.svg">
</g>
<g id="E_aaaaaaa_renders/equipment/wheelchair.svg">
<path fill="#ffffff" stroke="none" d="M11.372 6.000C11.372 3.024 8.960 0.612 6.016 0.612C3.040 0.612 0.628 3.024 0.628 6.000C0.628 8.976 3.040 11.388 6.016 11.388C8.960 11.388 11.372 8.976 11.372 6.000Z" />
<path fill="none" stroke="#cc0000" stroke-width="1.222" d="M11.372 6.000C11.372 3.024 8.960 0.612 6.016 0.612C3.040 0.612 0.628 3.024 0.628 6.000C0.628 8.976 3.040 11.388 6.016 11.388C8.960 11.388 11.372 8.976 11.372 6.000Z" />
<path fill="#000000" stroke="none" d="M6.329 9.415C6.329 8.945 5.953 8.569 5.483 8.569C5.013 8.569 4.637 8.945 4.637 9.415C4.637 9.884 5.013 10.260 5.483 10.260C5.953 10.260 6.329 9.884 6.329 9.415Z" />
<path fill="none" stroke="#000000" stroke-width="0.658" d="M4.355 6.908C3.416 6.627 2.758 5.749 2.758 4.747C2.758 3.525 3.760 2.523 5.013 2.523C6.016 2.523 6.924 3.181 7.175 4.152" />
<path fill="none" stroke="#000000" stroke-width="0.658" d="M5.546 7.942L5.546 5.561L8.115 5.561L8.710 4.026L9.368 4.183" />
<path fill="none" stroke="#000000" stroke-width="0.658" d="M5.546 7.284L7.488 7.284" />
</g>
<g id="X_aaaaaaa_renders/equipment/wheelchair.svg">
</g>
<clipPath id="clip_viewBox">
<path d="M-8.835 -8.835L8.835 -8.835L8.835 8.835L-8.835 8.835z" />
</clipPath>
</defs>
<g transform="scale(1,-1)" fill="#000000" stroke="#000000" stroke-linecap="round" stroke-linejoin="round" stroke-miterlimit="10" fill-rule="evenodd" clip-rule="evenodd" clip-path="url(#clip_viewBox)">
<use x="-6.000" y="-6.000" xlink:href="#E_aaaaaaa_renders/equipment/wheelchair.svg" />
</g>
</svg>
