<?xml version="1.0" encoding="utf-8" standalone="no"?>
<!-- Generated by Therion 6.2.1 (2024-03-20) -->
<!DOCTYPE svg PUBLIC "-//W3C//DTD SVG 1.1//EN" "http://www.w3.org/Graphics/SVG/1.1/DTD/svg11.dtd">
<svg width="0.694cm" height="0.553cm" viewBox="-9.835 -7.835 19.669 15.669" xmlns="http://www.w3.org/2000/svg" xmlns:xlink="http://www.w3.org/1999/xlink">
<defs>
<g id="F_aaaaaaa_renders/speleothems/anastomosis.svg">
</g>
<g id="G_aaaaaaa_renders/speleothems/anastomosis.svg">
</g>
<g id="B_aaaaaaa_renders/speleothems/anastomosis.svg">
</g>
<g id="I_aaaaaaa_renders/speleothems/anastomosis.svg">
</g>
<g id="E_aaaaaaa_renders/speleothems/anastomosis.svg">
<path fill="none" stroke="#000000" stroke-width="0.600" d="M1.000 1.400C1.115 0.080 3.044 0.080 3.160 1.400C3.370 3.796 3.430 6.204 3.640 8.600C3.743 9.773 5.457 9.773 5.560 8.600C5.770 6.204 5.830 3.796 6.040 1.400C6.143 0.227 7.857 0.227 7.960 1.400C8.170 3.796 8.230 6.204 8.440 8.600C8.543 9.773 10.257 9.773 10.360 8.600C10.570 6.204 10.630 3.796 10.840 1.400C10.956 0.080 12.885 0.080 13.000 1.400" />
</g>
<g id="X_aaaaaaa_renders/speleothems/anastomosis.svg">
</g>
<clipPath id="clip_viewBox">
<path d="M-9.835 -7.835L9.835 -7.835L9.835 7.835L-9.835 7.835z" />
</clipPath>
</defs>
<g transform="scale(1,-1)" fill="#000000" stroke="#000000" stroke-linecap="round" stroke-linejoin="round" stroke-miterlimit="10" fill-rule="evenodd" clip-rule="evenodd" clip-path="url(#clip_viewBox)">
<use x="-7.000" y="-5.000" xlink:href="#E_aaaaaaa_renders/speleothems/anastomosis.svg" />
</g>
</svg>
