<?xml version="1.0" encoding="utf-8" standalone="no"?>
<!-- Generated by Therion 6.2.1 (2024-03-20) -->
<!DOCTYPE svg PUBLIC "-//W3C//DTD SVG 1.1//EN" "http://www.w3.org/Graphics/SVG/1.1/DTD/svg11.dtd">
<svg width="0.482cm" height="0.447cm" viewBox="-6.835 -6.835 13.669 12.669" xmlns="http://www.w3.org/2000/svg" xmlns:xlink="http://www.w3.org/1999/xlink">
<defs>
<g id="F_aaaaaaa_renders/speleothems/cave-pearl.svg">
</g>
<g id="G_aaaaaaa_renders/speleothems/cave-pearl.svg">
</g>
<g id="B_aaaaaaa_renders/speleothems/cave-pearl.svg">
</g>
<g id="I_aaaaaaa_renders/speleothems/cave-pearl.svg">
</g>
<g id="E_aaaaaaa_renders/speleothems/cave-pearl.svg">
<path fill="none" stroke="#000000" stroke-width="0.600" d="M5.500 4.920C5.500 5.318 5.342 5.699 5.061 5.981C4.779 6.262 4.398 6.420 4.000 6.420C3.602 6.420 3.221 6.262 2.939 5.981C2.658 5.699 2.500 5.318 2.500 4.920C2.500 4.522 2.658 4.141 2.939 3.859C3.221 3.578 3.602 3.420 4.000 3.420C4.398 3.420 4.779 3.578 5.061 3.859C5.342 4.141 5.500 4.522 5.500 4.920Z" />
<path fill="none" stroke="#000000" stroke-width="0.600" d="M1.587 3.339C1.243 3.140 0.991 2.812 0.888 2.428C0.785 2.044 0.839 1.635 1.038 1.290C1.237 0.945 1.565 0.694 1.949 0.591C2.333 0.488 2.743 0.542 3.087 0.741C3.432 0.940 3.683 1.267 3.786 1.652C3.889 2.036 3.835 2.445 3.636 2.790C3.437 3.135 3.110 3.386 2.725 3.489C2.341 3.592 1.932 3.538 1.587 3.339Z" />
<path fill="none" stroke="#000000" stroke-width="0.600" d="M4.913 0.741C5.257 0.542 5.667 0.488 6.051 0.591C6.435 0.694 6.763 0.945 6.962 1.290C7.161 1.635 7.215 2.044 7.112 2.428C7.009 2.812 6.757 3.140 6.413 3.339C6.068 3.538 5.659 3.592 5.275 3.489C4.890 3.386 4.563 3.135 4.364 2.790C4.165 2.445 4.111 2.036 4.214 1.652C4.317 1.267 4.568 0.940 4.913 0.741Z" />
</g>
<g id="X_aaaaaaa_renders/speleothems/cave-pearl.svg">
</g>
<clipPath id="clip_viewBox">
<path d="M-6.835 -5.835L6.835 -5.835L6.835 6.835L-6.835 6.835z" />
</clipPath>
</defs>
<g transform="scale(1,-1)" fill="#000000" stroke="#000000" stroke-linecap="round" stroke-linejoin="round" stroke-miterlimit="10" fill-rule="evenodd" clip-rule="evenodd" clip-path="url(#clip_viewBox)">
<use x="-4.000" y="-3.000" xlink:href="#E_aaaaaaa_renders/speleothems/cave-pearl.svg" />
</g>
</svg>
