<?xml version="1.0" encoding="utf-8" standalone="no"?>
<!-- Generated by Therion 6.2.1 (2024-03-20) -->
<!DOCTYPE svg PUBLIC "-//W3C//DTD SVG 1.1//EN" "http://www.w3.org/Graphics/SVG/1.1/DTD/svg11.dtd">
<svg width="0.623cm" height="0.553cm" viewBox="-8.835 -8.835 17.669 15.669" xmlns="http://www.w3.org/2000/svg" xmlns:xlink="http://www.w3.org/1999/xlink">
<defs>
<g id="F_aaaaaaa_renders/speleothems/disc-pillars.svg">
</g>
<g id="G_aaaaaaa_renders/speleothems/disc-pillars.svg">
</g>
<g id="B_aaaaaaa_renders/speleothems/disc-pillars.svg">
</g>
<g id="I_aaaaaaa_renders/speleothems/disc-pillars.svg">
</g>
<g id="E_aaaaaaa_renders/speleothems/disc-pillars.svg">
<path fill="none" stroke="#000000" stroke-width="0.600" d="M1.140 9.160L2.400 7.060L2.400 4.540L1.140 2.440" />
<path fill="none" stroke="#000000" stroke-width="0.600" d="M2.400 4.540L3.660 2.440" />
<path fill="none" stroke="#000000" stroke-width="0.600" d="M2.400 7.060L3.660 9.160" />
<path fill="none" stroke="#000000" stroke-width="0.600" d="M1.140 5.800L3.660 5.800" />
<path fill="none" stroke="#000000" stroke-width="0.600" d="M4.740 7.360L6.000 5.260L6.000 2.740L4.740 0.640" />
<path fill="none" stroke="#000000" stroke-width="0.600" d="M6.000 2.740L7.260 0.640" />
<path fill="none" stroke="#000000" stroke-width="0.600" d="M6.000 5.260L7.260 7.360" />
<path fill="none" stroke="#000000" stroke-width="0.600" d="M4.740 4.000L7.260 4.000" />
<path fill="none" stroke="#000000" stroke-width="0.600" d="M8.340 9.160L9.600 7.060L9.600 4.540L8.340 2.440" />
<path fill="none" stroke="#000000" stroke-width="0.600" d="M9.600 4.540L10.860 2.440" />
<path fill="none" stroke="#000000" stroke-width="0.600" d="M9.600 7.060L10.860 9.160" />
<path fill="none" stroke="#000000" stroke-width="0.600" d="M8.340 5.800L10.860 5.800" />
</g>
<g id="X_aaaaaaa_renders/speleothems/disc-pillars.svg">
</g>
<clipPath id="clip_viewBox">
<path d="M-8.835 -6.835L8.835 -6.835L8.835 8.835L-8.835 8.835z" />
</clipPath>
</defs>
<g transform="scale(1,-1)" fill="#000000" stroke="#000000" stroke-linecap="round" stroke-linejoin="round" stroke-miterlimit="10" fill-rule="evenodd" clip-rule="evenodd" clip-path="url(#clip_viewBox)">
<use x="-6.000" y="-4.000" xlink:href="#E_aaaaaaa_renders/speleothems/disc-pillars.svg" />
</g>
</svg>
