<?xml version="1.0" encoding="utf-8" standalone="no"?>
<!-- Generated by Therion 6.2.1 (2024-03-20) -->
<!DOCTYPE svg PUBLIC "-//W3C//DTD SVG 1.1//EN" "http://www.w3.org/Graphics/SVG/1.1/DTD/svg11.dtd">
<svg width="0.412cm" height="0.482cm" viewBox="-5.835 -6.835 11.669 13.669" xmlns="http://www.w3.org/2000/svg" xmlns:xlink="http://www.w3.org/1999/xlink">
<defs>
<g id="F_aaaaaaa_renders/speleothems/disk.svg">
</g>
<g id="G_aaaaaaa_renders/speleothems/disk.svg">
</g>
<g id="B_aaaaaaa_renders/speleothems/disk.svg">
</g>
<g id="I_aaaaaaa_renders/speleothems/disk.svg">
</g>
<g id="E_aaaaaaa_renders/speleothems/disk.svg">
<path fill="none" stroke="#000000" stroke-width="0.600" d="M0.600 0.400L3.000 4.000L5.400 0.400" />
<path fill="#ffffff" stroke="none" d="M4.800 5.800C4.800 6.277 4.610 6.735 4.273 7.073C3.935 7.410 3.477 7.600 3.000 7.600C2.523 7.600 2.065 7.410 1.727 7.073C1.390 6.735 1.200 6.277 1.200 5.800C1.200 5.323 1.390 4.865 1.727 4.527C2.065 4.190 2.523 4.000 3.000 4.000C3.477 4.000 3.935 4.190 4.273 4.527C4.610 4.865 4.800 5.323 4.800 5.800Z" />
<path fill="none" stroke="#000000" stroke-width="0.600" d="M4.800 5.800C4.800 6.277 4.610 6.735 4.273 7.073C3.935 7.410 3.477 7.600 3.000 7.600C2.523 7.600 2.065 7.410 1.727 7.073C1.390 6.735 1.200 6.277 1.200 5.800C1.200 5.323 1.390 4.865 1.727 4.527C2.065 4.190 2.523 4.000 3.000 4.000C3.477 4.000 3.935 4.190 4.273 4.527C4.610 4.865 4.800 5.323 4.800 5.800Z" />
</g>
<g id="X_aaaaaaa_renders/speleothems/disk.svg">
</g>
<clipPath id="clip_viewBox">
<path d="M-5.835 -6.835L5.835 -6.835L5.835 6.835L-5.835 6.835z" />
</clipPath>
</defs>
<g transform="scale(1,-1)" fill="#000000" stroke="#000000" stroke-linecap="round" stroke-linejoin="round" stroke-miterlimit="10" fill-rule="evenodd" clip-rule="evenodd" clip-path="url(#clip_viewBox)">
<use x="-3.000" y="-4.000" xlink:href="#E_aaaaaaa_renders/speleothems/disk.svg" />
</g>
</svg>
