<?xml version="1.0" encoding="utf-8" standalone="no"?>
<!-- Generated by Therion 6.2.1 (2024-03-20) -->
<!DOCTYPE svg PUBLIC "-//W3C//DTD SVG 1.1//EN" "http://www.w3.org/Graphics/SVG/1.1/DTD/svg11.dtd">
<svg width="0.694cm" height="0.553cm" viewBox="-10.835 -8.835 19.669 15.669" xmlns="http://www.w3.org/2000/svg" xmlns:xlink="http://www.w3.org/1999/xlink">
<defs>
<g id="F_aaaaaaa_renders/speleothems/helictites.svg">
</g>
<g id="G_aaaaaaa_renders/speleothems/helictites.svg">
</g>
<g id="B_aaaaaaa_renders/speleothems/helictites.svg">
</g>
<g id="I_aaaaaaa_renders/speleothems/helictites.svg">
</g>
<g id="E_aaaaaaa_renders/speleothems/helictites.svg">
<path fill="none" stroke="#000000" stroke-width="0.600" d="M2.600 9.160L2.600 2.440" />
<path fill="none" stroke="#000000" stroke-width="0.600" d="M0.920 9.160C0.920 9.160 0.920 6.640 0.920 6.640C0.920 6.247 1.341 6.042 1.760 5.968C1.760 5.968 2.600 5.800 2.600 5.800" />
<path fill="none" stroke="#000000" stroke-width="0.600" d="M4.280 2.440C4.280 2.440 4.280 4.960 4.280 4.960C4.280 5.352 3.860 5.558 3.440 5.632C3.440 5.632 2.600 5.800 2.600 5.800" />
<path fill="none" stroke="#000000" stroke-width="0.600" d="M8.000 7.360L8.000 0.640" />
<path fill="none" stroke="#000000" stroke-width="0.600" d="M6.320 7.360C6.320 7.360 6.320 4.840 6.320 4.840C6.320 4.448 6.740 4.242 7.160 4.168C7.160 4.168 8.000 4.000 8.000 4.000" />
<path fill="none" stroke="#000000" stroke-width="0.600" d="M9.680 0.640C9.680 0.640 9.680 3.160 9.680 3.160C9.680 3.552 9.260 3.758 8.840 3.832C8.840 3.832 8.000 4.000 8.000 4.000" />
<path fill="none" stroke="#000000" stroke-width="0.600" d="M11.600 9.160L11.600 2.440" />
<path fill="none" stroke="#000000" stroke-width="0.600" d="M9.920 9.160C9.920 9.160 9.920 6.640 9.920 6.640C9.920 6.247 10.341 6.042 10.760 5.968C10.760 5.968 11.600 5.800 11.600 5.800" />
<path fill="none" stroke="#000000" stroke-width="0.600" d="M13.280 2.440C13.280 2.440 13.280 4.960 13.280 4.960C13.280 5.352 12.860 5.558 12.440 5.632C12.440 5.632 11.600 5.800 11.600 5.800" />
</g>
<g id="X_aaaaaaa_renders/speleothems/helictites.svg">
</g>
<clipPath id="clip_viewBox">
<path d="M-10.835 -6.835L8.835 -6.835L8.835 8.835L-10.835 8.835z" />
</clipPath>
</defs>
<g transform="scale(1,-1)" fill="#000000" stroke="#000000" stroke-linecap="round" stroke-linejoin="round" stroke-miterlimit="10" fill-rule="evenodd" clip-rule="evenodd" clip-path="url(#clip_viewBox)">
<use x="-8.000" y="-4.000" xlink:href="#E_aaaaaaa_renders/speleothems/helictites.svg" />
</g>
</svg>
