<?xml version="1.0" encoding="utf-8" standalone="no"?>
<!-- Generated by Therion 6.2.1 (2024-03-20) -->
<!DOCTYPE svg PUBLIC "-//W3C//DTD SVG 1.1//EN" "http://www.w3.org/Graphics/SVG/1.1/DTD/svg11.dtd">
<svg width="0.623cm" height="0.623cm" viewBox="-8.835 -9.835 17.669 17.669" xmlns="http://www.w3.org/2000/svg" xmlns:xlink="http://www.w3.org/1999/xlink">
<defs>
<g id="F_aaaaaaa_renders/speleothems/pillars-with-curtains.svg">
</g>
<g id="G_aaaaaaa_renders/speleothems/pillars-with-curtains.svg">
</g>
<g id="B_aaaaaaa_renders/speleothems/pillars-with-curtains.svg">
</g>
<g id="I_aaaaaaa_renders/speleothems/pillars-with-curtains.svg">
</g>
<g id="E_aaaaaaa_renders/speleothems/pillars-with-curtains.svg">
<path fill="none" stroke="#000000" stroke-width="0.600" d="M2.400 8.900L2.400 7.640C1.936 7.640 1.560 7.264 1.560 6.800C1.560 6.336 1.936 5.960 2.400 5.960L2.400 4.700" />
<path fill="none" stroke="#000000" stroke-width="0.600" d="M1.140 2.600L2.400 4.700L3.660 2.600" />
<path fill="none" stroke="#000000" stroke-width="0.600" d="M1.140 11.000L2.400 8.900L3.660 11.000" />
<path fill="none" stroke="#000000" stroke-width="0.600" d="M6.000 7.100L6.000 5.840C5.536 5.840 5.160 5.464 5.160 5.000C5.160 4.536 5.536 4.160 6.000 4.160L6.000 2.900" />
<path fill="none" stroke="#000000" stroke-width="0.600" d="M4.740 0.800L6.000 2.900L7.260 0.800" />
<path fill="none" stroke="#000000" stroke-width="0.600" d="M4.740 9.200L6.000 7.100L7.260 9.200" />
<path fill="none" stroke="#000000" stroke-width="0.600" d="M9.600 8.900L9.600 7.640C9.136 7.640 8.760 7.264 8.760 6.800C8.760 6.336 9.136 5.960 9.600 5.960L9.600 4.700" />
<path fill="none" stroke="#000000" stroke-width="0.600" d="M8.340 2.600L9.600 4.700L10.860 2.600" />
<path fill="none" stroke="#000000" stroke-width="0.600" d="M8.340 11.000L9.600 8.900L10.860 11.000" />
</g>
<g id="X_aaaaaaa_renders/speleothems/pillars-with-curtains.svg">
</g>
<clipPath id="clip_viewBox">
<path d="M-8.835 -7.835L8.835 -7.835L8.835 9.835L-8.835 9.835z" />
</clipPath>
</defs>
<g transform="scale(1,-1)" fill="#000000" stroke="#000000" stroke-linecap="round" stroke-linejoin="round" stroke-miterlimit="10" fill-rule="evenodd" clip-rule="evenodd" clip-path="url(#clip_viewBox)">
<use x="-6.000" y="-5.000" xlink:href="#E_aaaaaaa_renders/speleothems/pillars-with-curtains.svg" />
</g>
</svg>
