<?xml version="1.0" encoding="utf-8" standalone="no"?>
<!-- Generated by Therion 6.2.1 (2024-03-20) -->
<!DOCTYPE svg PUBLIC "-//W3C//DTD SVG 1.1//EN" "http://www.w3.org/Graphics/SVG/1.1/DTD/svg11.dtd">
<svg width="0.694cm" height="0.412cm" viewBox="-9.835 -5.835 19.669 11.669" xmlns="http://www.w3.org/2000/svg" xmlns:xlink="http://www.w3.org/1999/xlink">
<defs>
<g id="F_aaaaaaa_renders/speleothems/popcorn.svg">
</g>
<g id="G_aaaaaaa_renders/speleothems/popcorn.svg">
</g>
<g id="B_aaaaaaa_renders/speleothems/popcorn.svg">
</g>
<g id="I_aaaaaaa_renders/speleothems/popcorn.svg">
</g>
<g id="E_aaaaaaa_renders/speleothems/popcorn.svg">
<path fill="none" stroke="#000000" stroke-width="0.600" d="M1.000 0.600L13.000 0.600" />
<path fill="none" stroke="#000000" stroke-width="0.420" d="M3.400 0.600L3.400 4.200" />
<path fill="none" stroke="#000000" stroke-width="0.420" d="M7.000 0.600L7.000 4.200" />
<path fill="none" stroke="#000000" stroke-width="0.420" d="M10.600 0.600L10.600 4.200" />
<path fill="#000000" stroke="none" d="M4.600 4.200C4.600 4.518 4.473 4.824 4.248 5.049C4.023 5.274 3.718 5.400 3.400 5.400C3.082 5.400 2.777 5.274 2.551 5.049C2.326 4.824 2.200 4.518 2.200 4.200C2.200 3.882 2.326 3.577 2.551 3.352C2.777 3.127 3.082 3.000 3.400 3.000C3.718 3.000 4.023 3.127 4.248 3.352C4.473 3.577 4.600 3.882 4.600 4.200Z" />
<path fill="#000000" stroke="none" d="M8.200 4.200C8.200 4.518 8.074 4.824 7.848 5.049C7.623 5.274 7.318 5.400 7.000 5.400C6.682 5.400 6.377 5.274 6.152 5.049C5.926 4.824 5.800 4.518 5.800 4.200C5.800 3.882 5.926 3.577 6.152 3.352C6.377 3.127 6.682 3.000 7.000 3.000C7.318 3.000 7.623 3.127 7.848 3.352C8.074 3.577 8.200 3.882 8.200 4.200Z" />
<path fill="#000000" stroke="none" d="M11.800 4.200C11.800 4.518 11.674 4.824 11.449 5.049C11.223 5.274 10.918 5.400 10.600 5.400C10.282 5.400 9.977 5.274 9.752 5.049C9.527 4.824 9.400 4.518 9.400 4.200C9.400 3.882 9.527 3.577 9.752 3.352C9.977 3.127 10.282 3.000 10.600 3.000C10.918 3.000 11.223 3.127 11.449 3.352C11.674 3.577 11.800 3.882 11.800 4.200Z" />
</g>
<g id="X_aaaaaaa_renders/speleothems/popcorn.svg">
</g>
<clipPath id="clip_viewBox">
<path d="M-9.835 -5.835L9.835 -5.835L9.835 5.835L-9.835 5.835z" />
</clipPath>
</defs>
<g transform="scale(1,-1)" fill="#000000" stroke="#000000" stroke-linecap="round" stroke-linejoin="round" stroke-miterlimit="10" fill-rule="evenodd" clip-rule="evenodd" clip-path="url(#clip_viewBox)">
<use x="-7.000" y="-3.000" xlink:href="#E_aaaaaaa_renders/speleothems/popcorn.svg" />
</g>
</svg>
