<?xml version="1.0" encoding="utf-8" standalone="no"?>
<!-- Generated by Therion 6.2.1 (2024-03-20) -->
<!DOCTYPE svg PUBLIC "-//W3C//DTD SVG 1.1//EN" "http://www.w3.org/Graphics/SVG/1.1/DTD/svg11.dtd">
<svg width="0.694cm" height="0.694cm" viewBox="-9.835 -9.835 19.669 19.669" xmlns="http://www.w3.org/2000/svg" xmlns:xlink="http://www.w3.org/1999/xlink">
<defs>
<g id="F_aaaaaaa_renders/symbolic passage fills/blocks.svg">
<path fill="none" stroke="#000000" stroke-width="0.600" d="M1.000 1.000L10.600 2.200L4.960 9.400Z" />
<path fill="none" stroke="#000000" stroke-width="0.600" d="M10.000 4.000L13.000 5.200L10.600 13.000L5.800 13.000Z" />
<path fill="none" stroke="#000000" stroke-width="0.600" d="M3.760 7.000L5.800 10.600L1.000 11.200Z" />
<path fill="none" stroke="#000000" stroke-width="0.420" d="M1.000 1.000L5.800 4.600L4.960 9.400" />
<path fill="none" stroke="#000000" stroke-width="0.420" d="M5.800 4.600L10.600 2.200" />
<path fill="none" stroke="#000000" stroke-width="0.420" d="M10.000 4.000L10.600 7.000L9.400 9.400L5.800 13.000" />
<path fill="none" stroke="#000000" stroke-width="0.420" d="M10.600 13.000L9.400 9.400" />
<path fill="none" stroke="#000000" stroke-width="0.420" d="M13.000 5.200L10.600 7.000" />
</g>
<g id="G_aaaaaaa_renders/symbolic passage fills/blocks.svg">
</g>
<g id="B_aaaaaaa_renders/symbolic passage fills/blocks.svg">
</g>
<g id="I_aaaaaaa_renders/symbolic passage fills/blocks.svg">
</g>
<g id="E_aaaaaaa_renders/symbolic passage fills/blocks.svg">
</g>
<g id="X_aaaaaaa_renders/symbolic passage fills/blocks.svg">
</g>
<clipPath id="clip_viewBox">
<path d="M-9.835 -9.835L9.835 -9.835L9.835 9.835L-9.835 9.835z" />
</clipPath>
</defs>
<g transform="scale(1,-1)" fill="#000000" stroke="#000000" stroke-linecap="round" stroke-linejoin="round" stroke-miterlimit="10" fill-rule="evenodd" clip-rule="evenodd" clip-path="url(#clip_viewBox)">
<use x="-7.000" y="-7.000" xlink:href="#F_aaaaaaa_renders/symbolic passage fills/blocks.svg" />
</g>
</svg>
