<?xml version="1.0" encoding="utf-8" standalone="no"?>
<!-- Generated by Therion 6.2.1 (2024-03-20) -->
<!DOCTYPE svg PUBLIC "-//W3C//DTD SVG 1.1//EN" "http://www.w3.org/Graphics/SVG/1.1/DTD/svg11.dtd">
<svg width="0.623cm" height="0.553cm" viewBox="-8.835 -7.835 17.669 15.669" xmlns="http://www.w3.org/2000/svg" xmlns:xlink="http://www.w3.org/1999/xlink">
<defs>
<g id="F_aaaaaaa_renders/symbolic passage fills/mud.svg">
</g>
<g id="G_aaaaaaa_renders/symbolic passage fills/mud.svg">
</g>
<g id="B_aaaaaaa_renders/symbolic passage fills/mud.svg">
</g>
<g id="I_aaaaaaa_renders/symbolic passage fills/mud.svg">
</g>
<g id="E_aaaaaaa_renders/symbolic passage fills/mud.svg">
<path fill="#873d05" stroke="none" d="M4.714 0.496C4.516 1.266 4.143 2.160 3.298 2.384C2.628 2.409 2.106 1.688 1.435 1.986C0.789 2.160 0.392 2.881 0.591 3.502C0.690 4.421 0.218 5.390 0.715 6.234C0.914 6.979 -0.229 7.377 0.044 8.122C0.442 8.743 1.212 8.271 1.758 8.172C2.404 7.998 2.777 8.544 3.025 9.016C3.721 9.538 4.615 9.265 5.385 9.315C5.956 9.290 6.503 9.315 7.025 9.538C7.497 9.712 8.192 9.811 8.540 9.315C8.838 8.743 9.211 8.097 9.931 7.998C10.527 7.923 11.322 8.296 11.670 7.551C12.067 6.830 11.993 6.011 11.993 5.241C11.943 4.346 11.446 3.502 11.695 2.632C11.744 1.812 10.751 1.713 10.155 1.713C9.459 1.738 8.863 1.440 8.242 1.167C7.621 0.893 6.851 0.570 6.205 0.968C5.633 1.042 5.310 -0.075 4.739 0.471L4.714 0.471Z" />
</g>
<g id="X_aaaaaaa_renders/symbolic passage fills/mud.svg">
</g>
<clipPath id="clip_viewBox">
<path d="M-8.835 -7.835L8.835 -7.835L8.835 7.835L-8.835 7.835z" />
</clipPath>
</defs>
<g transform="scale(1,-1)" fill="#000000" stroke="#000000" stroke-linecap="round" stroke-linejoin="round" stroke-miterlimit="10" fill-rule="evenodd" clip-rule="evenodd" clip-path="url(#clip_viewBox)">
<use x="-6.000" y="-5.000" xlink:href="#E_aaaaaaa_renders/symbolic passage fills/mud.svg" />
</g>
</svg>
