<?xml version="1.0" encoding="utf-8" standalone="no"?>
<!-- Generated by Therion 6.2.1 (2024-03-20) -->
<!DOCTYPE svg PUBLIC "-//W3C//DTD SVG 1.1//EN" "http://www.w3.org/Graphics/SVG/1.1/DTD/svg11.dtd">
<svg width="0.694cm" height="0.694cm" viewBox="-9.835 -9.835 19.669 19.669" xmlns="http://www.w3.org/2000/svg" xmlns:xlink="http://www.w3.org/1999/xlink">
<defs>
<g id="F_aaaaaaa_renders/symbolic passage fills/mudcrack.svg">
<path fill="#000000" stroke="none" d="M1.000 13.000L3.069 9.586L1.000 8.966L1.000 8.966L1.000 8.448L3.896 9.173L7.931 7.828L6.276 6.069L3.586 4.724L1.000 5.345L1.000 5.345L1.000 5.034L2.138 4.827L1.000 1.000L1.517 1.000L2.551 4.827L3.483 4.414L4.207 1.000L4.621 1.000L4.621 1.000L3.896 4.517L6.483 5.552L9.379 2.862L8.552 1.310L8.759 1.000L8.966 1.000L8.862 1.207L9.586 2.758L10.931 2.551L12.173 1.413L12.276 1.517L11.035 2.965L9.586 2.965L7.000 5.862L8.552 7.517L12.483 4.103L13.000 4.103L13.000 4.517L12.690 4.517L8.862 7.931L9.897 9.173L13.000 8.759L13.000 9.173L10.104 9.586L9.586 11.242L13.000 11.862L13.000 12.173L9.586 11.655L9.586 13.000L9.173 13.000L9.276 11.138L9.586 9.586L8.345 8.448L4.207 9.483L7.000 13.000L6.172 13.000L3.689 9.586L1.413 13.000Z" />
</g>
<g id="G_aaaaaaa_renders/symbolic passage fills/mudcrack.svg">
</g>
<g id="B_aaaaaaa_renders/symbolic passage fills/mudcrack.svg">
</g>
<g id="I_aaaaaaa_renders/symbolic passage fills/mudcrack.svg">
</g>
<g id="E_aaaaaaa_renders/symbolic passage fills/mudcrack.svg">
</g>
<g id="X_aaaaaaa_renders/symbolic passage fills/mudcrack.svg">
</g>
<clipPath id="clip_viewBox">
<path d="M-9.835 -9.835L9.835 -9.835L9.835 9.835L-9.835 9.835z" />
</clipPath>
</defs>
<g transform="scale(1,-1)" fill="#000000" stroke="#000000" stroke-linecap="round" stroke-linejoin="round" stroke-miterlimit="10" fill-rule="evenodd" clip-rule="evenodd" clip-path="url(#clip_viewBox)">
<use x="-7.000" y="-7.000" xlink:href="#F_aaaaaaa_renders/symbolic passage fills/mudcrack.svg" />
</g>
</svg>
