<?xml version="1.0" encoding="utf-8" standalone="no"?>
<!-- Generated by Therion 6.2.1 (2024-03-20) -->
<!DOCTYPE svg PUBLIC "-//W3C//DTD SVG 1.1//EN" "http://www.w3.org/Graphics/SVG/1.1/DTD/svg11.dtd">
<svg width="0.588cm" height="0.588cm" viewBox="-7.835 -7.835 16.669 16.669" xmlns="http://www.w3.org/2000/svg" xmlns:xlink="http://www.w3.org/1999/xlink">
<defs>
<g id="F_aaaaaaa_renders/symbolic passage fills/pebbles.svg">
<path fill="none" stroke="#000000" stroke-width="0.600" d="M7.255 9.821C7.122 10.186 6.772 10.417 6.384 10.461C5.770 10.532 5.169 10.339 4.590 10.128C4.010 9.917 3.425 9.679 3.001 9.230C2.732 8.946 2.612 8.544 2.745 8.179C2.878 7.814 3.228 7.583 3.616 7.539C4.230 7.468 4.831 7.661 5.410 7.872C5.990 8.083 6.575 8.321 6.999 8.770C7.268 9.054 7.388 9.456 7.255 9.821Z" />
<path fill="none" stroke="#000000" stroke-width="0.600" d="M9.917 1.556C10.150 1.866 10.153 2.285 9.979 2.636C9.704 3.189 9.215 3.587 8.722 3.958C8.230 4.330 7.712 4.690 7.104 4.802C6.719 4.873 6.317 4.754 6.083 4.444C5.850 4.134 5.847 3.715 6.021 3.364C6.296 2.811 6.785 2.413 7.278 2.042C7.770 1.670 8.288 1.310 8.896 1.198C9.281 1.127 9.683 1.246 9.917 1.556Z" />
<path fill="none" stroke="#000000" stroke-width="0.600" d="M3.127 0.881C3.470 1.063 3.650 1.442 3.640 1.833C3.624 2.451 3.349 3.019 3.060 3.563C2.770 4.108 2.453 4.654 1.950 5.012C1.631 5.239 1.216 5.301 0.873 5.119C0.530 4.937 0.350 4.558 0.360 4.167C0.376 3.549 0.651 2.981 0.940 2.437C1.230 1.892 1.547 1.346 2.050 0.988C2.369 0.761 2.784 0.699 3.127 0.881Z" />
</g>
<g id="G_aaaaaaa_renders/symbolic passage fills/pebbles.svg">
</g>
<g id="B_aaaaaaa_renders/symbolic passage fills/pebbles.svg">
</g>
<g id="I_aaaaaaa_renders/symbolic passage fills/pebbles.svg">
</g>
<g id="E_aaaaaaa_renders/symbolic passage fills/pebbles.svg">
</g>
<g id="X_aaaaaaa_renders/symbolic passage fills/pebbles.svg">
</g>
<clipPath id="clip_viewBox">
<path d="M-7.835 -8.835L8.835 -8.835L8.835 7.835L-7.835 7.835z" />
</clipPath>
</defs>
<g transform="scale(1,-1)" fill="#000000" stroke="#000000" stroke-linecap="round" stroke-linejoin="round" stroke-miterlimit="10" fill-rule="evenodd" clip-rule="evenodd" clip-path="url(#clip_viewBox)">
<use x="-5.000" y="-6.000" xlink:href="#F_aaaaaaa_renders/symbolic passage fills/pebbles.svg" />
</g>
</svg>
