<?xml version="1.0" encoding="utf-8" standalone="no"?>
<!-- Generated by Therion 6.2.1 (2024-03-20) -->
<!DOCTYPE svg PUBLIC "-//W3C//DTD SVG 1.1//EN" "http://www.w3.org/Graphics/SVG/1.1/DTD/svg11.dtd">
<svg width="0.553cm" height="0.553cm" viewBox="-7.835 -7.835 15.669 15.669" xmlns="http://www.w3.org/2000/svg" xmlns:xlink="http://www.w3.org/1999/xlink">
<defs>
<g id="F_aaaaaaa_renders/symbolic passage fills/snow.svg">
</g>
<g id="G_aaaaaaa_renders/symbolic passage fills/snow.svg">
</g>
<g id="B_aaaaaaa_renders/symbolic passage fills/snow.svg">
</g>
<g id="I_aaaaaaa_renders/symbolic passage fills/snow.svg">
</g>
<g id="E_aaaaaaa_renders/symbolic passage fills/snow.svg">
<path fill="none" stroke="#000000" stroke-width="0.600" d="M5.000 5.000L5.000 8.000" />
<path fill="none" stroke="#000000" stroke-width="0.600" d="M5.000 5.000L2.402 6.500" />
<path fill="none" stroke="#000000" stroke-width="0.600" d="M5.000 5.000L2.402 3.500" />
<path fill="none" stroke="#000000" stroke-width="0.600" d="M5.000 5.000L5.000 2.000" />
<path fill="none" stroke="#000000" stroke-width="0.600" d="M5.000 5.000L7.598 3.500" />
<path fill="none" stroke="#000000" stroke-width="0.600" d="M5.000 5.000L7.598 6.500" />
<path fill="none" stroke="#000000" stroke-width="0.600" d="M4.151 8.849L5.000 8.000L5.849 8.849" />
<path fill="none" stroke="#000000" stroke-width="0.600" d="M1.243 6.189L2.402 6.500L2.091 7.659" />
<path fill="none" stroke="#000000" stroke-width="0.600" d="M2.091 2.341L2.402 3.500L1.243 3.811" />
<path fill="none" stroke="#000000" stroke-width="0.600" d="M5.849 1.151L5.000 2.000L4.151 1.151" />
<path fill="none" stroke="#000000" stroke-width="0.600" d="M8.757 3.811L7.598 3.500L7.909 2.341" />
<path fill="none" stroke="#000000" stroke-width="0.600" d="M7.909 7.659L7.598 6.500L8.757 6.189" />
</g>
<g id="X_aaaaaaa_renders/symbolic passage fills/snow.svg">
</g>
<clipPath id="clip_viewBox">
<path d="M-7.835 -7.835L7.835 -7.835L7.835 7.835L-7.835 7.835z" />
</clipPath>
</defs>
<g transform="scale(1,-1)" fill="#000000" stroke="#000000" stroke-linecap="round" stroke-linejoin="round" stroke-miterlimit="10" fill-rule="evenodd" clip-rule="evenodd" clip-path="url(#clip_viewBox)">
<use x="-5.000" y="-5.000" xlink:href="#E_aaaaaaa_renders/symbolic passage fills/snow.svg" />
</g>
</svg>
