<?xml version="1.0" encoding="utf-8" standalone="no"?>
<!-- Generated by Therion 6.2.1 (2024-03-20) -->
<!DOCTYPE svg PUBLIC "-//W3C//DTD SVG 1.1//EN" "http://www.w3.org/Graphics/SVG/1.1/DTD/svg11.dtd">
<svg width="0.623cm" height="0.482cm" viewBox="-8.835 -6.835 17.669 13.669" xmlns="http://www.w3.org/2000/svg" xmlns:xlink="http://www.w3.org/1999/xlink">
<defs>
<pattern id="patt_pattern_water_UIS_renders/symbolic passage fills/water.svg" patternUnits="userSpaceOnUse" width="2.160" height="10.240" patternTransform="matrix(0.707 0.707 -0.707 0.707 0.000 0.000)">
<g transform="translate(0.120 0.120)" fill="black" stroke="black">
<path fill="inherit" stroke="none" d="M-0.120 -0.120L0.120 -0.120L0.120 0.120L0.120 10.120L-0.120 10.120L-0.120 9.880Z" />
</g>
</pattern>
<g id="F_aaaaaaa_renders/symbolic passage fills/water.svg">
<path fill="url(#patt_pattern_water_UIS_renders/symbolic passage fills/water.svg)" stroke="none" d="M11.100 4.000C11.100 4.955 10.563 5.870 9.606 6.546C8.650 7.221 7.353 7.600 6.000 7.600C4.647 7.600 3.350 7.221 2.394 6.546C1.437 5.870 0.900 4.955 0.900 4.000C0.900 3.045 1.437 2.130 2.394 1.454C3.350 0.779 4.647 0.400 6.000 0.400C7.353 0.400 8.650 0.779 9.606 1.454C10.563 2.130 11.100 3.045 11.100 4.000Z" />
<path fill="none" stroke="#000000" stroke-width="0.420" d="M11.100 4.000C11.100 4.955 10.563 5.870 9.606 6.546C8.650 7.221 7.353 7.600 6.000 7.600C4.647 7.600 3.350 7.221 2.394 6.546C1.437 5.870 0.900 4.955 0.900 4.000C0.900 3.045 1.437 2.130 2.394 1.454C3.350 0.779 4.647 0.400 6.000 0.400C7.353 0.400 8.650 0.779 9.606 1.454C10.563 2.130 11.100 3.045 11.100 4.000Z" />
</g>
<g id="G_aaaaaaa_renders/symbolic passage fills/water.svg">
</g>
<g id="B_aaaaaaa_renders/symbolic passage fills/water.svg">
</g>
<g id="I_aaaaaaa_renders/symbolic passage fills/water.svg">
</g>
<g id="E_aaaaaaa_renders/symbolic passage fills/water.svg">
</g>
<g id="X_aaaaaaa_renders/symbolic passage fills/water.svg">
</g>
<clipPath id="clip_viewBox">
<path d="M-8.835 -6.835L8.835 -6.835L8.835 6.835L-8.835 6.835z" />
</clipPath>
</defs>
<g transform="scale(1,-1)" fill="#000000" stroke="#000000" stroke-linecap="round" stroke-linejoin="round" stroke-miterlimit="10" fill-rule="evenodd" clip-rule="evenodd" clip-path="url(#clip_viewBox)">
<use x="-6.000" y="-4.000" xlink:href="#F_aaaaaaa_renders/symbolic passage fills/water.svg" />
</g>
</svg>
