<?xml version="1.0" encoding="utf-8" standalone="no"?>
<!-- Generated by Therion 6.2.1 (2024-03-20) -->
<!DOCTYPE svg PUBLIC "-//W3C//DTD SVG 1.1//EN" "http://www.w3.org/Graphics/SVG/1.1/DTD/svg11.dtd">
<svg width="0.623cm" height="0.623cm" viewBox="-8.835 -8.835 17.669 17.669" xmlns="http://www.w3.org/2000/svg" xmlns:xlink="http://www.w3.org/1999/xlink">
<defs>
<g id="F_aaaaaaa_renders/others/archeo-excavation.svg">
</g>
<g id="G_aaaaaaa_renders/others/archeo-excavation.svg">
</g>
<g id="B_aaaaaaa_renders/others/archeo-excavation.svg">
</g>
<g id="I_aaaaaaa_renders/others/archeo-excavation.svg">
</g>
<g id="E_aaaaaaa_renders/others/archeo-excavation.svg">
<path fill="#000000" stroke="none" d="M2.266 2.458L3.669 7.023L5.951 7.642L6.505 7.121L7.223 7.838L6.701 8.392L9.538 11.197L10.973 9.795L8.136 6.958L7.582 7.479L6.864 6.762L7.484 6.142L6.832 3.827Z" />
<path fill="none" stroke="#000000" stroke-width="0.554" d="M0.277 4.056C0.734 3.925 1.288 3.958 1.875 3.958" />
<path fill="none" stroke="#000000" stroke-width="0.554" d="M7.777 4.023C9.179 3.860 10.418 3.958 11.723 4.056" />
<path fill="none" stroke="#000000" stroke-width="0.359" stroke-linecap="square" d="M5.266 2.066C4.875 2.034 4.321 1.806 4.027 1.056" />
<path fill="none" stroke="#000000" stroke-width="0.359" stroke-linecap="square" d="M7.875 2.262C7.842 2.686 7.484 2.914 7.060 2.947" />
<path fill="none" stroke="#000000" stroke-width="0.359" stroke-linecap="square" d="M9.571 1.936C9.864 2.034 10.027 2.327 10.027 2.556" />
</g>
<g id="X_aaaaaaa_renders/others/archeo-excavation.svg">
</g>
<clipPath id="clip_viewBox">
<path d="M-8.835 -8.835L8.835 -8.835L8.835 8.835L-8.835 8.835z" />
</clipPath>
</defs>
<g transform="scale(1,-1)" fill="#000000" stroke="#000000" stroke-linecap="round" stroke-linejoin="round" stroke-miterlimit="10" fill-rule="evenodd" clip-rule="evenodd" clip-path="url(#clip_viewBox)">
<use x="-6.000" y="-6.000" xlink:href="#E_aaaaaaa_renders/others/archeo-excavation.svg" />
</g>
</svg>
