<?xml version="1.0" encoding="utf-8" standalone="no"?>
<!-- Generated by Therion 6.2.1 (2024-03-20) -->
<!DOCTYPE svg PUBLIC "-//W3C//DTD SVG 1.1//EN" "http://www.w3.org/Graphics/SVG/1.1/DTD/svg11.dtd">
<svg width="0.623cm" height="0.623cm" viewBox="-8.835 -8.835 17.669 17.669" xmlns="http://www.w3.org/2000/svg" xmlns:xlink="http://www.w3.org/1999/xlink">
<defs>
<g id="F_aaaaaaa_renders/others/archeo-material.svg">
</g>
<g id="G_aaaaaaa_renders/others/archeo-material.svg">
</g>
<g id="B_aaaaaaa_renders/others/archeo-material.svg">
</g>
<g id="I_aaaaaaa_renders/others/archeo-material.svg">
</g>
<g id="E_aaaaaaa_renders/others/archeo-material.svg">
<path fill="none" stroke="#000000" stroke-width="0.600" d="M2.606 2.606L6.000 6.000" />
<path fill="none" stroke="#000000" stroke-width="0.600" d="M2.606 9.394L6.000 6.000" />
<path fill="none" stroke="#000000" stroke-width="0.600" d="M6.000 6.000L10.800 6.000" />
<path fill="none" stroke="#000000" stroke-width="0.600" d="M10.800 6.000C10.800 7.273 10.294 8.494 9.394 9.394C8.494 10.294 7.273 10.800 6.000 10.800C4.727 10.800 3.506 10.294 2.606 9.394C1.706 8.494 1.200 7.273 1.200 6.000C1.200 4.727 1.706 3.506 2.606 2.606C3.506 1.706 4.727 1.200 6.000 1.200C7.273 1.200 8.494 1.706 9.394 2.606C10.294 3.506 10.800 4.727 10.800 6.000Z" />
</g>
<g id="X_aaaaaaa_renders/others/archeo-material.svg">
</g>
<clipPath id="clip_viewBox">
<path d="M-8.835 -8.835L8.835 -8.835L8.835 8.835L-8.835 8.835z" />
</clipPath>
</defs>
<g transform="scale(1,-1)" fill="#000000" stroke="#000000" stroke-linecap="round" stroke-linejoin="round" stroke-miterlimit="10" fill-rule="evenodd" clip-rule="evenodd" clip-path="url(#clip_viewBox)">
<use x="-6.000" y="-6.000" xlink:href="#E_aaaaaaa_renders/others/archeo-material.svg" />
</g>
</svg>
