<?xml version="1.0" encoding="utf-8" standalone="no"?>
<!-- Generated by Therion 6.2.1 (2024-03-20) -->
<!DOCTYPE svg PUBLIC "-//W3C//DTD SVG 1.1//EN" "http://www.w3.org/Graphics/SVG/1.1/DTD/svg11.dtd">
<svg width="0.623cm" height="0.553cm" viewBox="-8.835 -7.835 17.669 15.669" xmlns="http://www.w3.org/2000/svg" xmlns:xlink="http://www.w3.org/1999/xlink">
<defs>
<g id="F_aaaaaaa_renders/others/audio.svg">
</g>
<g id="G_aaaaaaa_renders/others/audio.svg">
</g>
<g id="B_aaaaaaa_renders/others/audio.svg">
</g>
<g id="I_aaaaaaa_renders/others/audio.svg">
</g>
<g id="E_aaaaaaa_renders/others/audio.svg">
<path fill="#000000" stroke="none" d="M5.447 8.445L3.002 7.056L0.945 7.056C0.390 7.056 0.001 6.612 0.001 6.111L0.001 3.944C0.001 3.444 0.390 2.999 0.945 2.999L3.002 2.999L5.447 1.610C5.891 1.332 6.280 1.554 6.280 2.055L6.280 8.001C6.280 8.501 5.891 8.723 5.447 8.445Z" />
<path fill="none" stroke="#000000" stroke-width="0.611" d="M7.281 7.890C8.392 6.000 8.448 4.111 7.281 2.110" />
<path fill="none" stroke="#000000" stroke-width="0.611" d="M8.781 8.779C10.059 6.778 10.337 3.777 8.781 1.277" />
<path fill="none" stroke="#000000" stroke-width="0.611" d="M10.337 9.668C12.282 5.889 12.004 3.388 10.337 0.332" />
</g>
<g id="X_aaaaaaa_renders/others/audio.svg">
</g>
<clipPath id="clip_viewBox">
<path d="M-8.835 -7.835L8.835 -7.835L8.835 7.835L-8.835 7.835z" />
</clipPath>
</defs>
<g transform="scale(1,-1)" fill="#000000" stroke="#000000" stroke-linecap="round" stroke-linejoin="round" stroke-miterlimit="10" fill-rule="evenodd" clip-rule="evenodd" clip-path="url(#clip_viewBox)">
<use x="-6.000" y="-5.000" xlink:href="#E_aaaaaaa_renders/others/audio.svg" />
</g>
</svg>
