<?xml version="1.0" encoding="utf-8" standalone="no"?>
<!-- Generated by Therion 6.2.1 (2024-03-20) -->
<!DOCTYPE svg PUBLIC "-//W3C//DTD SVG 1.1//EN" "http://www.w3.org/Graphics/SVG/1.1/DTD/svg11.dtd">
<svg width="0.623cm" height="0.412cm" viewBox="-8.835 -5.835 17.669 11.669" xmlns="http://www.w3.org/2000/svg" xmlns:xlink="http://www.w3.org/1999/xlink">
<defs>
<g id="F_aaaaaaa_renders/others/bat.svg">
</g>
<g id="G_aaaaaaa_renders/others/bat.svg">
</g>
<g id="B_aaaaaaa_renders/others/bat.svg">
</g>
<g id="I_aaaaaaa_renders/others/bat.svg">
</g>
<g id="E_aaaaaaa_renders/others/bat.svg">
<path fill="#000000" stroke="none" d="M4.790 0.899C4.275 1.948 2.997 3.683 2.396 2.453C2.034 4.151 1.004 3.884 0.451 3.931C0.212 3.970 -0.245 3.807 0.165 4.113C0.613 4.475 1.061 4.876 1.605 5.095C2.387 5.371 2.692 5.066 3.245 4.456C3.846 3.836 4.523 3.226 5.372 2.978C5.391 3.226 5.191 5.152 5.601 3.798C5.582 4.132 6.297 4.322 6.402 3.865C6.516 4.170 6.726 4.551 6.688 4.103C6.640 3.531 6.764 3.254 6.802 2.978C7.642 3.655 8.261 4.942 9.358 5.133C10.283 5.333 11.113 4.732 11.733 4.113C11.914 3.941 12.210 3.722 11.771 3.846C10.855 3.979 9.511 4.351 9.368 2.777C8.290 3.683 7.460 1.776 7.270 0.965C6.507 1.757 5.973 0.450 5.734 0.899C5.582 1.299 5.019 1.070 4.790 0.899Z" />
</g>
<g id="X_aaaaaaa_renders/others/bat.svg">
</g>
<clipPath id="clip_viewBox">
<path d="M-8.835 -5.835L8.835 -5.835L8.835 5.835L-8.835 5.835z" />
</clipPath>
</defs>
<g transform="scale(1,-1)" fill="#000000" stroke="#000000" stroke-linecap="round" stroke-linejoin="round" stroke-miterlimit="10" fill-rule="evenodd" clip-rule="evenodd" clip-path="url(#clip_viewBox)">
<use x="-6.000" y="-3.000" xlink:href="#E_aaaaaaa_renders/others/bat.svg" />
</g>
</svg>
