<?xml version="1.0" encoding="utf-8" standalone="no"?>
<!-- Generated by Therion 6.2.1 (2024-03-20) -->
<!DOCTYPE svg PUBLIC "-//W3C//DTD SVG 1.1//EN" "http://www.w3.org/Graphics/SVG/1.1/DTD/svg11.dtd">
<svg width="0.694cm" height="0.553cm" viewBox="-9.835 -7.835 19.669 15.669" xmlns="http://www.w3.org/2000/svg" xmlns:xlink="http://www.w3.org/1999/xlink">
<defs>
<g id="F_aaaaaaa_renders/others/bones.svg">
</g>
<g id="G_aaaaaaa_renders/others/bones.svg">
</g>
<g id="B_aaaaaaa_renders/others/bones.svg">
</g>
<g id="I_aaaaaaa_renders/others/bones.svg">
</g>
<g id="E_aaaaaaa_renders/others/bones.svg">
<path fill="#000000" stroke="none" d="M6.659 3.587C5.489 2.819 4.320 2.250 3.384 1.281C3.167 0.964 2.899 0.379 2.515 0.346C2.315 0.312 1.997 0.429 1.830 0.596C1.763 0.663 1.429 0.747 1.596 1.014C1.914 1.549 1.680 1.549 1.479 1.616C1.279 1.699 1.145 1.699 1.128 1.849C1.212 2.418 1.713 2.484 2.081 2.468C2.565 2.451 2.749 2.367 3.284 2.635C3.651 2.819 4.236 3.103 5.823 4.055Z" />
<path fill="#000000" stroke="none" d="M12.256 8.817C12.006 8.817 11.738 8.717 11.538 8.583C11.354 8.449 11.153 8.182 10.986 7.848C10.719 7.346 10.452 7.046 10.017 6.778C9.633 6.528 9.416 6.444 8.614 5.926L9.549 5.358C10.268 5.776 11.287 5.976 12.039 5.993C12.390 5.993 12.407 5.993 12.590 6.093C13.008 6.327 13.108 6.645 12.891 6.962C12.440 7.213 12.089 7.196 12.440 7.580C12.640 7.798 12.908 8.199 12.841 8.433C12.741 8.700 12.524 8.817 12.256 8.817Z" />
<path fill="#000000" stroke="none" d="M10.936 1.632C10.736 2.050 10.702 2.250 10.218 2.601C9.633 3.002 4.888 5.793 3.818 6.327C3.150 6.661 2.716 6.778 1.897 6.829C1.546 6.862 1.529 6.862 1.346 6.962C0.978 7.230 0.894 7.564 1.128 7.848C1.563 8.082 1.930 8.032 1.596 8.449C1.429 8.666 1.179 9.084 1.262 9.318C1.496 9.853 2.198 9.669 2.565 9.385C2.732 9.235 2.916 8.950 3.083 8.600C3.300 8.098 3.551 7.781 3.952 7.480C4.604 7.012 7.210 5.509 8.213 5.024C9.199 4.556 11.153 3.370 11.354 3.320C11.722 3.303 12.373 3.336 12.590 3.019C12.707 2.852 12.757 2.518 12.707 2.301C12.674 2.200 12.757 1.883 12.440 1.900C11.822 1.916 11.939 1.699 11.972 1.499C12.006 1.281 12.072 1.148 11.939 1.064C11.404 0.880 11.103 1.281 10.936 1.632Z" />
</g>
<g id="X_aaaaaaa_renders/others/bones.svg">
</g>
<clipPath id="clip_viewBox">
<path d="M-9.835 -7.835L9.835 -7.835L9.835 7.835L-9.835 7.835z" />
</clipPath>
</defs>
<g transform="scale(1,-1)" fill="#000000" stroke="#000000" stroke-linecap="round" stroke-linejoin="round" stroke-miterlimit="10" fill-rule="evenodd" clip-rule="evenodd" clip-path="url(#clip_viewBox)">
<use x="-7.000" y="-5.000" xlink:href="#E_aaaaaaa_renders/others/bones.svg" />
</g>
</svg>
