<?xml version="1.0" encoding="utf-8" standalone="no"?>
<!-- Generated by Therion 6.2.1 (2024-03-20) -->
<!DOCTYPE svg PUBLIC "-//W3C//DTD SVG 1.1//EN" "http://www.w3.org/Graphics/SVG/1.1/DTD/svg11.dtd">
<svg width="0.623cm" height="0.623cm" viewBox="-8.835 -8.835 17.669 17.669" xmlns="http://www.w3.org/2000/svg" xmlns:xlink="http://www.w3.org/1999/xlink">
<defs>
<g id="F_aaaaaaa_renders/others/danger.svg">
</g>
<g id="G_aaaaaaa_renders/others/danger.svg">
</g>
<g id="B_aaaaaaa_renders/others/danger.svg">
</g>
<g id="I_aaaaaaa_renders/others/danger.svg">
</g>
<g id="E_aaaaaaa_renders/others/danger.svg">
<path fill="#cc0000" stroke="none" d="M6.000 11.700C5.850 11.700 5.550 11.700 5.250 11.550L0.000 1.650L0.000 1.500C0.000 0.900 0.450 0.450 0.900 0.300L11.100 0.300C11.700 0.450 12.000 0.900 12.000 1.500C12.000 1.650 12.000 1.650 12.000 1.800L6.750 11.550C6.600 11.700 6.300 11.700 6.000 11.700L6.000 11.700Z" />
<path fill="#ffffff" stroke="none" d="M6.750 2.400C6.750 2.850 6.450 3.150 6.000 3.150C5.550 3.150 5.250 2.850 5.250 2.400C5.250 1.950 5.550 1.650 6.000 1.650C6.450 1.650 6.750 1.950 6.750 2.400Z" />
<path fill="#ffffff" stroke="none" d="M6.600 7.950C6.750 8.250 6.150 8.250 6.000 8.250C5.850 8.250 5.400 8.250 5.400 7.950L5.850 3.750C5.850 3.600 5.850 3.600 6.000 3.600C6.150 3.600 6.150 3.600 6.150 3.750Z" />
</g>
<g id="X_aaaaaaa_renders/others/danger.svg">
</g>
<clipPath id="clip_viewBox">
<path d="M-8.835 -8.835L8.835 -8.835L8.835 8.835L-8.835 8.835z" />
</clipPath>
</defs>
<g transform="scale(1,-1)" fill="#000000" stroke="#000000" stroke-linecap="round" stroke-linejoin="round" stroke-miterlimit="10" fill-rule="evenodd" clip-rule="evenodd" clip-path="url(#clip_viewBox)">
<use x="-6.000" y="-6.000" xlink:href="#E_aaaaaaa_renders/others/danger.svg" />
</g>
</svg>
