<?xml version="1.0" encoding="utf-8" standalone="no"?>
<!-- Generated by Therion 6.2.1 (2024-03-20) -->
<!DOCTYPE svg PUBLIC "-//W3C//DTD SVG 1.1//EN" "http://www.w3.org/Graphics/SVG/1.1/DTD/svg11.dtd">
<svg width="0.623cm" height="0.694cm" viewBox="-8.835 -9.835 17.669 19.669" xmlns="http://www.w3.org/2000/svg" xmlns:xlink="http://www.w3.org/1999/xlink">
<defs>
<g id="F_aaaaaaa_renders/others/electric-light.svg">
</g>
<g id="G_aaaaaaa_renders/others/electric-light.svg">
</g>
<g id="B_aaaaaaa_renders/others/electric-light.svg">
</g>
<g id="I_aaaaaaa_renders/others/electric-light.svg">
</g>
<g id="E_aaaaaaa_renders/others/electric-light.svg">
<path fill="#000000" stroke="none" d="M6.373 12.932C6.574 12.845 6.718 12.702 6.804 12.530C6.833 12.472 6.862 12.415 6.862 12.329L6.689 12.329C6.230 12.329 5.770 12.329 5.282 12.329C5.225 12.386 5.282 12.472 5.311 12.530C5.397 12.702 5.541 12.845 5.742 12.932C5.885 13.018 6.086 13.018 6.258 12.960C6.316 12.960 6.345 12.960 6.373 12.932Z" />
<path fill="#000000" stroke="none" d="M8.096 8.021C8.326 7.619 8.441 7.102 8.384 6.614C8.240 5.695 7.551 4.977 6.775 4.776C5.885 4.518 4.880 4.862 4.334 5.637C3.846 6.298 3.789 7.360 4.191 7.964C4.736 8.768 4.851 10.117 4.851 10.117L7.350 10.117C7.378 9.342 7.780 8.595 8.096 8.021Z" />
<path fill="none" stroke="#000000" stroke-width="0.718" d="M1.176 3.857L3.214 5.436" />
<path fill="none" stroke="#000000" stroke-width="0.718" d="M10.824 4.058L8.958 5.379" />
<path fill="none" stroke="#000000" stroke-width="0.718" d="M8.498 2.708L7.608 4.173" />
<path fill="none" stroke="#000000" stroke-width="0.718" d="M3.703 2.995L4.421 4.345" />
<path fill="none" stroke="#000000" stroke-width="0.718" d="M6.086 1.359L6.086 3.771" />
<path fill="none" stroke="#000000" stroke-width="0.632" d="M4.880 10.778L7.407 10.778" />
<path fill="none" stroke="#000000" stroke-width="0.632" d="M4.823 11.783L7.436 11.783" />
</g>
<g id="X_aaaaaaa_renders/others/electric-light.svg">
</g>
<clipPath id="clip_viewBox">
<path d="M-8.835 -9.835L8.835 -9.835L8.835 9.835L-8.835 9.835z" />
</clipPath>
</defs>
<g transform="scale(1,-1)" fill="#000000" stroke="#000000" stroke-linecap="round" stroke-linejoin="round" stroke-miterlimit="10" fill-rule="evenodd" clip-rule="evenodd" clip-path="url(#clip_viewBox)">
<use x="-6.000" y="-7.000" xlink:href="#E_aaaaaaa_renders/others/electric-light.svg" />
</g>
</svg>
