<?xml version="1.0" encoding="utf-8" standalone="no"?>
<!-- Generated by Therion 6.2.1 (2024-03-20) -->
<!DOCTYPE svg PUBLIC "-//W3C//DTD SVG 1.1//EN" "http://www.w3.org/Graphics/SVG/1.1/DTD/svg11.dtd">
<svg width="0.623cm" height="0.623cm" viewBox="-8.835 -8.835 17.669 17.669" xmlns="http://www.w3.org/2000/svg" xmlns:xlink="http://www.w3.org/1999/xlink">
<defs>
<g id="F_aaaaaaa_renders/others/ex-voto.svg">
</g>
<g id="G_aaaaaaa_renders/others/ex-voto.svg">
</g>
<g id="B_aaaaaaa_renders/others/ex-voto.svg">
</g>
<g id="I_aaaaaaa_renders/others/ex-voto.svg">
</g>
<g id="E_aaaaaaa_renders/others/ex-voto.svg">
<path fill="none" stroke="#000000" stroke-width="0.828" d="M2.901 11.556L5.957 10.527" />
<path fill="none" stroke="#000000" stroke-width="0.828" d="M1.044 0.644L2.130 3.958" />
<path fill="none" stroke="#000000" stroke-width="0.828" d="M0.416 0.787L1.587 0.444" />
<path fill="none" stroke="#000000" stroke-width="0.828" d="M3.558 11.213L1.473 4.929L2.130 3.958L3.158 4.386L5.272 10.756" />
<path fill="none" stroke="#000000" stroke-width="0.828" d="M2.244 6.928L3.701 6.843" />
<path fill="none" stroke="#000000" stroke-width="0.828" d="M9.071 11.499L11.584 9.499" />
<path fill="none" stroke="#000000" stroke-width="0.828" d="M3.558 1.901L5.729 4.643" />
<path fill="none" stroke="#000000" stroke-width="0.828" d="M3.129 2.272L4.015 1.558" />
<path fill="none" stroke="#000000" stroke-width="0.828" d="M9.585 10.956L5.443 5.786L5.729 4.643L6.843 4.672L11.013 9.928" />
<path fill="none" stroke="#000000" stroke-width="0.828" d="M7.100 7.700L7.985 6.500" />
</g>
<g id="X_aaaaaaa_renders/others/ex-voto.svg">
</g>
<clipPath id="clip_viewBox">
<path d="M-8.835 -8.835L8.835 -8.835L8.835 8.835L-8.835 8.835z" />
</clipPath>
</defs>
<g transform="scale(1,-1)" fill="#000000" stroke="#000000" stroke-linecap="round" stroke-linejoin="round" stroke-miterlimit="10" fill-rule="evenodd" clip-rule="evenodd" clip-path="url(#clip_viewBox)">
<use x="-6.000" y="-6.000" xlink:href="#E_aaaaaaa_renders/others/ex-voto.svg" />
</g>
</svg>
