<?xml version="1.0" encoding="utf-8" standalone="no"?>
<!-- Generated by Therion 6.2.1 (2024-03-20) -->
<!DOCTYPE svg PUBLIC "-//W3C//DTD SVG 1.1//EN" "http://www.w3.org/Graphics/SVG/1.1/DTD/svg11.dtd">
<svg width="0.694cm" height="0.553cm" viewBox="-9.835 -7.835 19.669 15.669" xmlns="http://www.w3.org/2000/svg" xmlns:xlink="http://www.w3.org/1999/xlink">
<defs>
<g id="F_aaaaaaa_renders/others/human-bones.svg">
</g>
<g id="G_aaaaaaa_renders/others/human-bones.svg">
</g>
<g id="B_aaaaaaa_renders/others/human-bones.svg">
</g>
<g id="I_aaaaaaa_renders/others/human-bones.svg">
</g>
<g id="E_aaaaaaa_renders/others/human-bones.svg">
<path fill="#000000" stroke="none" d="M2.174 8.320C2.101 8.320 2.027 8.320 1.991 8.284L1.991 8.284C1.624 8.210 1.440 7.843 1.477 7.550C1.220 7.403 1.000 7.146 1.000 6.889C1.000 6.522 1.367 6.192 1.771 6.192C1.917 6.229 2.064 6.265 2.174 6.339L3.495 5.605C3.495 5.605 3.495 5.641 3.459 5.641L3.422 5.788C3.275 6.192 3.239 6.742 3.275 7.293L2.908 7.513C2.908 7.660 2.872 7.807 2.835 7.917C2.688 8.174 2.431 8.320 2.174 8.320Z" />
<path fill="#000000" stroke="none" d="M9.734 3.623C9.661 3.183 9.624 2.669 9.404 2.229L11.128 1.274C11.092 0.981 11.275 0.687 11.495 0.540C12.119 0.394 12.560 0.724 12.560 1.238C12.817 1.384 13.000 1.641 13.000 1.898C13.000 2.265 12.633 2.595 12.229 2.559C12.083 2.559 11.973 2.522 11.826 2.449Z" />
<path fill="#000000" stroke="none" d="M11.862 8.320C11.606 8.320 11.349 8.174 11.202 7.917C11.128 7.807 11.128 7.660 11.128 7.513L10.945 7.403C11.018 6.852 10.982 6.192 10.835 5.788L10.835 5.751L11.826 6.339C11.973 6.265 12.083 6.229 12.266 6.192C12.670 6.192 13.000 6.522 13.000 6.889C13.000 7.146 12.817 7.403 12.560 7.550C12.560 7.843 12.413 8.210 12.046 8.284L12.046 8.284C11.973 8.320 11.936 8.320 11.862 8.320Z" />
<path fill="#000000" stroke="none" d="M4.523 3.770L2.174 2.449C2.064 2.522 1.954 2.559 1.771 2.559C1.367 2.595 1.000 2.265 1.000 1.898C1.000 1.641 1.183 1.384 1.477 1.238C1.440 0.724 1.881 0.394 2.541 0.540C2.725 0.687 2.908 0.981 2.908 1.274L4.780 2.339C4.596 2.779 4.560 3.329 4.523 3.770Z" />
<path fill="#000000" stroke="none" d="M7.128 9.495C6.835 9.495 6.541 9.458 6.321 9.384C5.257 8.944 4.670 8.540 4.266 7.440C4.119 6.962 4.119 6.265 4.266 5.825L4.303 5.715C4.633 4.981 4.927 4.981 5.000 4.834C5.220 4.467 5.037 3.183 5.697 2.706C5.991 2.632 6.321 2.449 6.541 2.485C6.725 2.559 6.945 2.485 7.128 2.485C7.312 2.485 7.532 2.522 7.716 2.485C8.009 2.485 8.266 2.595 8.560 2.706C9.220 3.183 9.037 4.467 9.257 4.834C9.294 4.981 9.624 4.981 9.917 5.715L9.991 5.825C10.138 6.265 10.138 6.962 9.991 7.440C9.991 7.440 9.771 8.063 9.404 8.430C8.927 8.907 8.706 9.164 7.936 9.384C7.716 9.458 7.422 9.495 7.128 9.495Z" />
<path fill="#ffffff" stroke="none" d="M6.541 6.522C6.211 6.045 6.174 5.678 5.697 5.678C4.853 5.641 4.890 6.302 4.853 6.559C4.780 6.889 5.257 7.183 5.697 7.183C6.101 7.183 6.725 6.852 6.541 6.522Z" />
<path fill="#ffffff" stroke="none" d="M7.716 6.522C8.046 6.045 8.046 5.678 8.560 5.678C9.404 5.641 9.330 6.302 9.404 6.559C9.477 6.889 9.000 7.183 8.560 7.183C8.156 7.183 7.532 6.852 7.716 6.522Z" />
<path fill="#ffffff" stroke="none" d="M7.128 5.862C6.761 5.678 6.688 4.797 6.688 4.467C6.688 4.467 6.725 4.430 6.761 4.430C7.092 4.614 7.202 4.614 7.532 4.430C7.569 4.430 7.606 4.467 7.606 4.467C7.606 4.797 7.495 5.898 7.128 5.862Z" />
</g>
<g id="X_aaaaaaa_renders/others/human-bones.svg">
</g>
<clipPath id="clip_viewBox">
<path d="M-9.835 -7.835L9.835 -7.835L9.835 7.835L-9.835 7.835z" />
</clipPath>
</defs>
<g transform="scale(1,-1)" fill="#000000" stroke="#000000" stroke-linecap="round" stroke-linejoin="round" stroke-miterlimit="10" fill-rule="evenodd" clip-rule="evenodd" clip-path="url(#clip_viewBox)">
<use x="-7.000" y="-5.000" xlink:href="#E_aaaaaaa_renders/others/human-bones.svg" />
</g>
</svg>
