<?xml version="1.0" encoding="utf-8" standalone="no"?>
<!-- Generated by Therion 6.2.1 (2024-03-20) -->
<!DOCTYPE svg PUBLIC "-//W3C//DTD SVG 1.1//EN" "http://www.w3.org/Graphics/SVG/1.1/DTD/svg11.dtd">
<svg width="0.412cm" height="0.412cm" viewBox="-5.835 -5.835 11.669 11.669" xmlns="http://www.w3.org/2000/svg" xmlns:xlink="http://www.w3.org/1999/xlink">
<defs>
<g id="F_aaaaaaa_renders/others/ice-stalactite.svg">
</g>
<g id="G_aaaaaaa_renders/others/ice-stalactite.svg">
</g>
<g id="B_aaaaaaa_renders/others/ice-stalactite.svg">
</g>
<g id="I_aaaaaaa_renders/others/ice-stalactite.svg">
</g>
<g id="E_aaaaaaa_renders/others/ice-stalactite.svg">
<path fill="#ffffff" stroke="none" d="M5.100 3.000C5.100 3.557 4.879 4.091 4.485 4.485C4.091 4.879 3.557 5.100 3.000 5.100C2.443 5.100 1.909 4.879 1.515 4.485C1.121 4.091 0.900 3.557 0.900 3.000C0.900 2.443 1.121 1.909 1.515 1.515C1.909 1.121 2.443 0.900 3.000 0.900C3.557 0.900 4.091 1.121 4.485 1.515C4.879 1.909 5.100 2.443 5.100 3.000Z" />
<path fill="none" stroke="#000000" stroke-width="0.600" d="M5.100 3.000C5.100 3.557 4.879 4.091 4.485 4.485C4.091 4.879 3.557 5.100 3.000 5.100C2.443 5.100 1.909 4.879 1.515 4.485C1.121 4.091 0.900 3.557 0.900 3.000C0.900 2.443 1.121 1.909 1.515 1.515C1.909 1.121 2.443 0.900 3.000 0.900C3.557 0.900 4.091 1.121 4.485 1.515C4.879 1.909 5.100 2.443 5.100 3.000Z" />
</g>
<g id="X_aaaaaaa_renders/others/ice-stalactite.svg">
</g>
<clipPath id="clip_viewBox">
<path d="M-5.835 -5.835L5.835 -5.835L5.835 5.835L-5.835 5.835z" />
</clipPath>
</defs>
<g transform="scale(1,-1)" fill="#000000" stroke="#000000" stroke-linecap="round" stroke-linejoin="round" stroke-miterlimit="10" fill-rule="evenodd" clip-rule="evenodd" clip-path="url(#clip_viewBox)">
<use x="-3.000" y="-3.000" xlink:href="#E_aaaaaaa_renders/others/ice-stalactite.svg" />
</g>
</svg>
