<?xml version="1.0" encoding="utf-8" standalone="no"?>
<!-- Generated by Therion 6.2.1 (2024-03-20) -->
<!DOCTYPE svg PUBLIC "-//W3C//DTD SVG 1.1//EN" "http://www.w3.org/Graphics/SVG/1.1/DTD/svg11.dtd">
<svg width="0.341cm" height="0.341cm" viewBox="-4.835 -4.835 9.669 9.669" xmlns="http://www.w3.org/2000/svg" xmlns:xlink="http://www.w3.org/1999/xlink">
<defs>
<g id="F_aaaaaaa_renders/others/ice-stalagmite.svg">
</g>
<g id="G_aaaaaaa_renders/others/ice-stalagmite.svg">
</g>
<g id="B_aaaaaaa_renders/others/ice-stalagmite.svg">
</g>
<g id="I_aaaaaaa_renders/others/ice-stalagmite.svg">
</g>
<g id="E_aaaaaaa_renders/others/ice-stalagmite.svg">
<path fill="#000000" stroke="none" d="M3.800 2.000C3.800 2.477 3.610 2.935 3.273 3.273C2.935 3.610 2.477 3.800 2.000 3.800C1.523 3.800 1.065 3.610 0.727 3.273C0.390 2.935 0.200 2.477 0.200 2.000C0.200 1.523 0.390 1.065 0.727 0.727C1.065 0.390 1.523 0.200 2.000 0.200C2.477 0.200 2.935 0.390 3.273 0.727C3.610 1.065 3.800 1.523 3.800 2.000Z" />
</g>
<g id="X_aaaaaaa_renders/others/ice-stalagmite.svg">
</g>
<clipPath id="clip_viewBox">
<path d="M-4.835 -4.835L4.835 -4.835L4.835 4.835L-4.835 4.835z" />
</clipPath>
</defs>
<g transform="scale(1,-1)" fill="#000000" stroke="#000000" stroke-linecap="round" stroke-linejoin="round" stroke-miterlimit="10" fill-rule="evenodd" clip-rule="evenodd" clip-path="url(#clip_viewBox)">
<use x="-2.000" y="-2.000" xlink:href="#E_aaaaaaa_renders/others/ice-stalagmite.svg" />
</g>
</svg>
