<?xml version="1.0" encoding="utf-8" standalone="no"?>
<!-- Generated by Therion 6.2.1 (2024-03-20) -->
<!DOCTYPE svg PUBLIC "-//W3C//DTD SVG 1.1//EN" "http://www.w3.org/Graphics/SVG/1.1/DTD/svg11.dtd">
<svg width="0.412cm" height="0.412cm" viewBox="-5.835 -5.835 11.669 11.669" xmlns="http://www.w3.org/2000/svg" xmlns:xlink="http://www.w3.org/1999/xlink">
<defs>
<g id="F_aaaaaaa_renders/others/ice-pillar.svg">
</g>
<g id="G_aaaaaaa_renders/others/ice-pillar.svg">
</g>
<g id="B_aaaaaaa_renders/others/ice-pillar.svg">
</g>
<g id="I_aaaaaaa_renders/others/ice-pillar.svg">
</g>
<g id="E_aaaaaaa_renders/others/ice-pillar.svg">
<path fill="#ffffff" stroke="none" d="M5.700 3.000C5.700 3.716 5.415 4.403 4.909 4.909C4.403 5.415 3.716 5.700 3.000 5.700C2.284 5.700 1.597 5.415 1.091 4.909C0.585 4.403 0.300 3.716 0.300 3.000C0.300 2.284 0.585 1.597 1.091 1.091C1.597 0.585 2.284 0.300 3.000 0.300C3.716 0.300 4.403 0.585 4.909 1.091C5.415 1.597 5.700 2.284 5.700 3.000Z" />
<path fill="none" stroke="#000000" stroke-width="0.600" d="M5.700 3.000C5.700 3.716 5.415 4.403 4.909 4.909C4.403 5.415 3.716 5.700 3.000 5.700C2.284 5.700 1.597 5.415 1.091 4.909C0.585 4.403 0.300 3.716 0.300 3.000C0.300 2.284 0.585 1.597 1.091 1.091C1.597 0.585 2.284 0.300 3.000 0.300C3.716 0.300 4.403 0.585 4.909 1.091C5.415 1.597 5.700 2.284 5.700 3.000Z" />
<path fill="#000000" stroke="none" d="M4.800 3.000C4.800 3.477 4.610 3.935 4.273 4.273C3.935 4.610 3.477 4.800 3.000 4.800C2.523 4.800 2.065 4.610 1.727 4.273C1.390 3.935 1.200 3.477 1.200 3.000C1.200 2.523 1.390 2.065 1.727 1.727C2.065 1.390 2.523 1.200 3.000 1.200C3.477 1.200 3.935 1.390 4.273 1.727C4.610 2.065 4.800 2.523 4.800 3.000Z" />
</g>
<g id="X_aaaaaaa_renders/others/ice-pillar.svg">
</g>
<clipPath id="clip_viewBox">
<path d="M-5.835 -5.835L5.835 -5.835L5.835 5.835L-5.835 5.835z" />
</clipPath>
</defs>
<g transform="scale(1,-1)" fill="#000000" stroke="#000000" stroke-linecap="round" stroke-linejoin="round" stroke-miterlimit="10" fill-rule="evenodd" clip-rule="evenodd" clip-path="url(#clip_viewBox)">
<use x="-3.000" y="-3.000" xlink:href="#E_aaaaaaa_renders/others/ice-pillar.svg" />
</g>
</svg>
