<?xml version="1.0" encoding="utf-8" standalone="no"?>
<!-- Generated by Therion 6.2.1 (2024-03-20) -->
<!DOCTYPE svg PUBLIC "-//W3C//DTD SVG 1.1//EN" "http://www.w3.org/Graphics/SVG/1.1/DTD/svg11.dtd">
<svg width="0.553cm" height="0.553cm" viewBox="-7.835 -8.835 15.669 15.669" xmlns="http://www.w3.org/2000/svg" xmlns:xlink="http://www.w3.org/1999/xlink">
<defs>
<g id="F_aaaaaaa_renders/others/paleo-material.svg">
</g>
<g id="G_aaaaaaa_renders/others/paleo-material.svg">
</g>
<g id="B_aaaaaaa_renders/others/paleo-material.svg">
</g>
<g id="I_aaaaaaa_renders/others/paleo-material.svg">
</g>
<g id="E_aaaaaaa_renders/others/paleo-material.svg">
<path fill="#000000" stroke="none" d="M0.200 1.600C-0.526 3.099 2.077 2.359 2.600 3.040C2.600 3.040 3.800 4.600 3.800 4.600C3.800 4.600 5.000 6.400 5.000 6.400C5.512 7.168 4.061 8.036 4.640 8.800C5.555 10.008 6.405 7.786 7.400 7.600C8.173 7.456 9.322 7.807 9.200 7.000C9.067 6.118 7.844 6.844 7.400 6.400C7.400 6.400 5.000 4.000 5.000 4.000C5.000 4.000 3.800 1.960 3.800 1.960C3.604 1.628 4.232 1.332 4.040 1.000C3.498 0.061 2.379 1.114 1.400 1.240C0.948 1.298 0.399 1.189 0.200 1.600Z" />
</g>
<g id="X_aaaaaaa_renders/others/paleo-material.svg">
</g>
<clipPath id="clip_viewBox">
<path d="M-7.835 -6.835L7.835 -6.835L7.835 8.835L-7.835 8.835z" />
</clipPath>
</defs>
<g transform="scale(1,-1)" fill="#000000" stroke="#000000" stroke-linecap="round" stroke-linejoin="round" stroke-miterlimit="10" fill-rule="evenodd" clip-rule="evenodd" clip-path="url(#clip_viewBox)">
<use x="-5.000" y="-4.000" xlink:href="#E_aaaaaaa_renders/others/paleo-material.svg" />
</g>
</svg>
