<?xml version="1.0" encoding="utf-8" standalone="no"?>
<!-- Generated by Therion 6.2.1 (2024-03-20) -->
<!DOCTYPE svg PUBLIC "-//W3C//DTD SVG 1.1//EN" "http://www.w3.org/Graphics/SVG/1.1/DTD/svg11.dtd">
<svg width="0.623cm" height="0.623cm" viewBox="-8.835 -8.835 17.669 17.669" xmlns="http://www.w3.org/2000/svg" xmlns:xlink="http://www.w3.org/1999/xlink">
<defs>
<g id="F_aaaaaaa_renders/others/seed-germination.svg">
</g>
<g id="G_aaaaaaa_renders/others/seed-germination.svg">
</g>
<g id="B_aaaaaaa_renders/others/seed-germination.svg">
</g>
<g id="I_aaaaaaa_renders/others/seed-germination.svg">
</g>
<g id="E_aaaaaaa_renders/others/seed-germination.svg">
<path fill="#000000" stroke="none" d="M9.986 6.127C9.929 6.915 9.084 7.479 8.465 7.169C8.944 9.225 7.507 10.577 8.155 7.394C7.366 7.507 6.831 6.380 6.887 5.789C7.366 5.451 8.042 6.042 8.239 6.408C8.268 6.183 9.253 5.479 9.986 6.127Z" />
<path fill="none" stroke="#000000" stroke-width="0.704" d="M0.352 0.831C2.493 -0.098 8.662 1.395 11.648 0.634" />
<path fill="none" stroke="#000000" stroke-width="0.535" d="M2.972 0.662C2.014 11.901 7.760 14.436 8.268 8.352" />
</g>
<g id="X_aaaaaaa_renders/others/seed-germination.svg">
</g>
<clipPath id="clip_viewBox">
<path d="M-8.835 -8.835L8.835 -8.835L8.835 8.835L-8.835 8.835z" />
</clipPath>
</defs>
<g transform="scale(1,-1)" fill="#000000" stroke="#000000" stroke-linecap="round" stroke-linejoin="round" stroke-miterlimit="10" fill-rule="evenodd" clip-rule="evenodd" clip-path="url(#clip_viewBox)">
<use x="-6.000" y="-6.000" xlink:href="#E_aaaaaaa_renders/others/seed-germination.svg" />
</g>
</svg>
