<?xml version="1.0" encoding="utf-8" standalone="no"?>
<!-- Generated by Therion 6.2.1 (2024-03-20) -->
<!DOCTYPE svg PUBLIC "-//W3C//DTD SVG 1.1//EN" "http://www.w3.org/Graphics/SVG/1.1/DTD/svg11.dtd">
<svg width="0.623cm" height="0.623cm" viewBox="-8.835 -8.835 17.669 17.669" xmlns="http://www.w3.org/2000/svg" xmlns:xlink="http://www.w3.org/1999/xlink">
<defs>
<g id="F_aaaaaaa_renders/others/tree-trunk.svg">
</g>
<g id="G_aaaaaaa_renders/others/tree-trunk.svg">
</g>
<g id="B_aaaaaaa_renders/others/tree-trunk.svg">
</g>
<g id="I_aaaaaaa_renders/others/tree-trunk.svg">
</g>
<g id="E_aaaaaaa_renders/others/tree-trunk.svg">
<path fill="none" stroke="#000000" stroke-width="0.338" d="M6.727 11.290L1.039 6.340C-1.698 3.234 2.607 -1.347 5.927 1.728L11.831 9.261" />
<path fill="#000000" stroke="none" d="M5.958 4.034C5.958 2.681 4.851 1.574 3.468 1.574C2.115 1.574 1.008 2.681 1.008 4.034C1.008 5.417 2.115 6.494 3.468 6.494C4.851 6.494 5.958 5.417 5.958 4.034Z" />
<path fill="none" stroke="#000000" stroke-width="0.154" d="M5.251 8.185L7.034 9.814" />
<path fill="none" stroke="#000000" stroke-width="0.154" d="M7.864 6.739L10.017 9.045" />
<path fill="none" stroke="#000000" stroke-width="0.154" d="M6.050 6.463L7.034 7.447" />
</g>
<g id="X_aaaaaaa_renders/others/tree-trunk.svg">
</g>
<clipPath id="clip_viewBox">
<path d="M-8.835 -8.835L8.835 -8.835L8.835 8.835L-8.835 8.835z" />
</clipPath>
</defs>
<g transform="scale(1,-1)" fill="#000000" stroke="#000000" stroke-linecap="round" stroke-linejoin="round" stroke-miterlimit="10" fill-rule="evenodd" clip-rule="evenodd" clip-path="url(#clip_viewBox)">
<use x="-6.000" y="-6.000" xlink:href="#E_aaaaaaa_renders/others/tree-trunk.svg" />
</g>
</svg>
