<?xml version="1.0" encoding="utf-8" standalone="no"?>
<!-- Generated by Therion 6.2.1 (2024-03-20) -->
<!DOCTYPE svg PUBLIC "-//W3C//DTD SVG 1.1//EN" "http://www.w3.org/Graphics/SVG/1.1/DTD/svg11.dtd">
<svg width="0.623cm" height="0.623cm" viewBox="-8.835 -8.835 17.669 17.669" xmlns="http://www.w3.org/2000/svg" xmlns:xlink="http://www.w3.org/1999/xlink">
<defs>
<g id="F_aaaaaaa_renders/others/water-drip.svg">
</g>
<g id="G_aaaaaaa_renders/others/water-drip.svg">
</g>
<g id="B_aaaaaaa_renders/others/water-drip.svg">
</g>
<g id="I_aaaaaaa_renders/others/water-drip.svg">
</g>
<g id="E_aaaaaaa_renders/others/water-drip.svg">
<path fill="#000000" stroke="none" d="M5.524 10.622C6.139 11.179 6.842 11.648 7.604 11.999C7.018 11.164 6.593 10.095 6.916 9.084C7.414 7.473 9.040 6.462 9.391 4.763C9.860 3.122 8.966 1.247 7.414 0.559C5.978 -0.144 4.132 0.266 3.107 1.482C2.375 2.317 2.096 3.503 2.287 4.602C2.594 6.901 3.795 9.069 5.524 10.622Z" />
<path fill="#ffffff" stroke="none" d="M5.553 10.080C4.206 8.718 3.122 7.019 2.682 5.129C2.506 4.250 2.477 3.269 2.902 2.434C3.488 1.467 4.528 0.749 5.656 0.603C5.817 0.588 6.359 0.559 5.949 0.691C4.879 1.174 3.927 2.082 3.664 3.269C3.312 4.734 3.737 6.257 4.323 7.605C4.762 8.615 5.348 9.553 5.978 10.461C5.832 10.344 5.700 10.212 5.553 10.080Z" />
<path fill="#000000" stroke="none" d="M3.473 0.192C3.297 0.251 3.063 0.339 2.931 0.485C2.697 0.969 2.125 1.511 1.701 1.013C1.364 0.471 1.833 -0.027 2.345 0.002C2.682 0.031 3.341 0.105 3.473 0.192Z" />
<path fill="#000000" stroke="none" d="M8.585 0.427C8.761 0.471 9.010 0.559 9.127 0.720C9.376 1.203 9.948 1.760 10.387 1.262C10.724 0.705 10.255 0.207 9.728 0.222C9.391 0.251 8.717 0.324 8.585 0.427Z" />
<path fill="#000000" stroke="none" d="M2.550 1.467C2.389 1.599 2.140 1.775 1.906 1.804C1.276 1.716 0.353 1.921 0.558 2.683C0.880 3.371 1.686 3.254 2.008 2.712C2.199 2.360 2.565 1.657 2.550 1.467Z" />
<path fill="#000000" stroke="none" d="M9.450 1.760C9.611 1.906 9.860 2.082 10.094 2.097C10.724 2.024 11.647 2.229 11.442 2.976C11.120 3.664 10.314 3.547 9.992 3.005C9.801 2.653 9.435 1.950 9.450 1.760Z" />
</g>
<g id="X_aaaaaaa_renders/others/water-drip.svg">
</g>
<clipPath id="clip_viewBox">
<path d="M-8.835 -8.835L8.835 -8.835L8.835 8.835L-8.835 8.835z" />
</clipPath>
</defs>
<g transform="scale(1,-1)" fill="#000000" stroke="#000000" stroke-linecap="round" stroke-linejoin="round" stroke-miterlimit="10" fill-rule="evenodd" clip-rule="evenodd" clip-path="url(#clip_viewBox)">
<use x="-6.000" y="-6.000" xlink:href="#E_aaaaaaa_renders/others/water-drip.svg" />
</g>
</svg>
