<?xml version="1.0" encoding="utf-8" standalone="no"?>
<!-- Generated by Therion 6.2.1 (2024-03-20) -->
<!DOCTYPE svg PUBLIC "-//W3C//DTD SVG 1.1//EN" "http://www.w3.org/Graphics/SVG/1.1/DTD/svg11.dtd">
<svg width="0.376cm" height="0.694cm" viewBox="-4.835 -9.835 10.669 19.669" xmlns="http://www.w3.org/2000/svg" xmlns:xlink="http://www.w3.org/1999/xlink">
<defs>
<g id="F_aaaaaaa_renders/others/water-flow.svg">
</g>
<g id="G_aaaaaaa_renders/others/water-flow.svg">
</g>
<g id="B_aaaaaaa_renders/others/water-flow.svg">
</g>
<g id="I_aaaaaaa_renders/others/water-flow.svg">
</g>
<g id="E_aaaaaaa_renders/others/water-flow.svg">
<path fill="none" stroke="#000000" stroke-width="0.600" d="M2.000 1.000C2.000 1.994 0.323 2.336 0.560 3.400C0.868 4.781 3.760 3.495 3.800 5.200C3.843 7.051 0.819 5.665 0.440 7.000C0.015 8.498 2.389 8.381 2.960 9.400C3.655 10.641 2.000 11.723 2.000 13.000" />
<path fill="none" stroke="#000000" stroke-width="0.600" d="M3.780 11.258C3.210 11.828 2.311 12.250 2.000 13.000C1.689 12.250 2.027 11.316 2.027 10.509Z" />
<path fill="#000000" stroke="none" d="M3.780 11.258C3.210 11.828 2.311 12.250 2.000 13.000C1.689 12.250 2.027 11.316 2.027 10.509Z" />
</g>
<g id="X_aaaaaaa_renders/others/water-flow.svg">
</g>
<clipPath id="clip_viewBox">
<path d="M-4.835 -9.835L5.835 -9.835L5.835 9.835L-4.835 9.835z" />
</clipPath>
</defs>
<g transform="scale(1,-1)" fill="#000000" stroke="#000000" stroke-linecap="round" stroke-linejoin="round" stroke-miterlimit="10" fill-rule="evenodd" clip-rule="evenodd" clip-path="url(#clip_viewBox)">
<use x="-2.000" y="-7.000" xlink:href="#E_aaaaaaa_renders/others/water-flow.svg" />
</g>
</svg>
