<?xml version="1.0" encoding="utf-8" standalone="no"?>
<!-- Generated by Therion 6.2.1 (2024-03-20) -->
<!DOCTYPE svg PUBLIC "-//W3C//DTD SVG 1.1//EN" "http://www.w3.org/Graphics/SVG/1.1/DTD/svg11.dtd">
<svg width="0.623cm" height="0.517cm" viewBox="-8.835 -5.835 17.669 14.669" xmlns="http://www.w3.org/2000/svg" xmlns:xlink="http://www.w3.org/1999/xlink">
<defs>
<g id="F_aaaaaaa_renders/passage ends/flowstone-choke.svg">
</g>
<g id="G_aaaaaaa_renders/passage ends/flowstone-choke.svg">
</g>
<g id="B_aaaaaaa_renders/passage ends/flowstone-choke.svg">
</g>
<g id="I_aaaaaaa_renders/passage ends/flowstone-choke.svg">
</g>
<g id="E_aaaaaaa_renders/passage ends/flowstone-choke.svg">
<path fill="none" stroke="#000000" stroke-width="0.600" d="M1.200 1.200C2.952 1.200 4.242 2.489 3.600 3.600C4.832 3.152 6.000 4.425 6.000 6.000" />
<path fill="none" stroke="#000000" stroke-width="0.600" d="M1.200 3.600C2.952 3.600 4.242 4.889 3.600 6.000C4.832 5.552 6.000 6.825 6.000 8.400" />
<path fill="none" stroke="#000000" stroke-width="0.600" d="M10.800 1.200C9.048 1.200 7.758 2.489 8.400 3.600C7.168 3.152 6.000 4.425 6.000 6.000" />
<path fill="none" stroke="#000000" stroke-width="0.600" d="M10.800 3.600C9.048 3.600 7.758 4.889 8.400 6.000C7.168 5.552 6.000 6.825 6.000 8.400" />
</g>
<g id="X_aaaaaaa_renders/passage ends/flowstone-choke.svg">
</g>
<clipPath id="clip_viewBox">
<path d="M-8.835 -8.835L8.835 -8.835L8.835 5.835L-8.835 5.835z" />
</clipPath>
</defs>
<g transform="scale(1,-1)" fill="#000000" stroke="#000000" stroke-linecap="round" stroke-linejoin="round" stroke-miterlimit="10" fill-rule="evenodd" clip-rule="evenodd" clip-path="url(#clip_viewBox)">
<use x="-6.000" y="-6.000" xlink:href="#E_aaaaaaa_renders/passage ends/flowstone-choke.svg" />
</g>
</svg>
