<?xml version="1.0" encoding="utf-8" standalone="no"?>
<!-- Generated by Therion 6.0.3 (2021-10-03) -->
<!DOCTYPE svg PUBLIC "-//W3C//DTD SVG 1.1//EN" "http://www.w3.org/Graphics/SVG/1.1/DTD/svg11.dtd">
<svg width="7cm" height="4cm" viewBox="-1263 -1459 142 81" xmlns="http://www.w3.org/2000/svg" xmlns:xlink="http://www.w3.org/1999/xlink">
<defs>
<g id="F_aaaaaaa_renders/out.svg">
<g>
<clipPath id="clip_1_renders/out.svg">
  <path d="M0.810 82.000C0.810 54.667 0.810 27.333 0.810 0.000C49.603 0.000 98.397 0.000 147.190 0.000C147.190 27.333 147.190 54.667 147.190 82.000C98.397 82.000 49.603 82.000 0.810 82.000" />
</clipPath>
<g clip-path="url(#clip_1_renders/out.svg)">
<g>
<clipPath id="clip_2_renders/out.svg">
  <path d="M0.810 82.000L147.190 82.000L147.190 0.000L0.810 0.000L0.810 82.000Z" />
</clipPath>
<g clip-path="url(#clip_2_renders/out.svg)">
<path fill="none" stroke="#000000" stroke-width="0.600" d="M-3.209 -2.287L-2.457 -7.028" />
<path fill="none" stroke="#000000" stroke-width="0.600" d="M1.711 12.224L1.153 7.457" />
<path fill="none" stroke="#000000" stroke-width="0.600" d="M-4.726 25.577L0.011 24.802" />
<path fill="none" stroke="#000000" stroke-width="0.600" d="M-3.788 29.829L-4.850 34.510" />
<path fill="none" stroke="#000000" stroke-width="0.600" d="M-2.762 42.127L-2.372 46.911" />
<path fill="none" stroke="#000000" stroke-width="0.600" d="M-0.680 60.032L0.912 55.504" />
<path fill="none" stroke="#000000" stroke-width="0.600" d="M-2.918 72.800L-5.232 68.595" />
<path fill="none" stroke="#000000" stroke-width="0.600" d="M-0.526 80.882L3.974 82.551" />
<path fill="none" stroke="#000000" stroke-width="0.600" d="M10.400 -3.009L13.621 0.549" />
<path fill="none" stroke="#000000" stroke-width="0.600" d="M12.527 9.299L14.541 4.942" />
<path fill="none" stroke="#000000" stroke-width="0.600" d="M12.191 26.360L15.084 22.529" />
<path fill="none" stroke="#000000" stroke-width="0.600" d="M10.115 33.794L14.912 33.937" />
<path fill="none" stroke="#000000" stroke-width="0.600" d="M10.100 49.025L6.294 46.101" />
<path fill="none" stroke="#000000" stroke-width="0.600" d="M13.544 57.393L8.846 58.378" />
<path fill="none" stroke="#000000" stroke-width="0.600" d="M12.018 65.692L10.420 70.218" />
<path fill="none" stroke="#000000" stroke-width="0.600" d="M13.703 86.842L11.064 82.832" />
<path fill="none" stroke="#000000" stroke-width="0.600" d="M25.537 -1.343L24.260 3.284" />
<path fill="none" stroke="#000000" stroke-width="0.600" d="M22.720 12.848L23.340 8.088" />
<path fill="none" stroke="#000000" stroke-width="0.600" d="M22.538 20.419L26.191 17.305" />
<path fill="none" stroke="#000000" stroke-width="0.600" d="M18.819 28.868L21.416 32.904" />
<path fill="none" stroke="#000000" stroke-width="0.600" d="M19.969 49.866L21.815 45.435" />
<path fill="none" stroke="#000000" stroke-width="0.600" d="M17.760 55.273L22.414 56.447" />
<path fill="none" stroke="#000000" stroke-width="0.600" d="M25.899 75.422L24.329 70.886" />
<path fill="none" stroke="#000000" stroke-width="0.600" d="M19.965 80.403L22.737 76.485" />
<path fill="none" stroke="#000000" stroke-width="0.600" d="M35.564 1.957L36.489 -2.753" />
<path fill="none" stroke="#000000" stroke-width="0.600" d="M37.426 11.956L32.932 13.642" />
<path fill="none" stroke="#000000" stroke-width="0.600" d="M33.865 20.785L29.407 19.006" />
<path fill="none" stroke="#000000" stroke-width="0.600" d="M33.206 36.558L37.932 35.714" />
<path fill="none" stroke="#000000" stroke-width="0.600" d="M36.425 51.495L35.091 46.885" />
<path fill="none" stroke="#000000" stroke-width="0.600" d="M36.886 55.359L38.566 59.855" />
<path fill="none" stroke="#000000" stroke-width="0.600" d="M38.652 74.017L36.604 69.676" />
<path fill="none" stroke="#000000" stroke-width="0.600" d="M31.379 83.179L34.890 79.905" />
<path fill="none" stroke="#000000" stroke-width="0.600" d="M41.461 -3.414L46.231 -2.875" />
<path fill="none" stroke="#000000" stroke-width="0.600" d="M49.066 11.574L44.935 14.017" />
<path fill="none" stroke="#000000" stroke-width="0.600" d="M52.621 20.597L48.143 22.325" />
<path fill="none" stroke="#000000" stroke-width="0.600" d="M47.171 37.384L47.078 32.585" />
<path fill="none" stroke="#000000" stroke-width="0.600" d="M46.698 47.765L42.908 50.710" />
<path fill="none" stroke="#000000" stroke-width="0.600" d="M45.381 58.407L42.475 54.587" />
<path fill="none" stroke="#000000" stroke-width="0.600" d="M47.580 71.416L49.104 66.865" />
<path fill="none" stroke="#000000" stroke-width="0.600" d="M43.407 81.296L45.890 77.189" />
<path fill="none" stroke="#000000" stroke-width="0.600" d="M59.109 -4.553L54.417 -3.540" />
<path fill="none" stroke="#000000" stroke-width="0.600" d="M55.397 14.656L56.907 10.100" />
<path fill="none" stroke="#000000" stroke-width="0.600" d="M59.641 20.324L55.052 21.731" />
<path fill="none" stroke="#000000" stroke-width="0.600" d="M55.631 34.765L58.057 38.907" />
<path fill="none" stroke="#000000" stroke-width="0.600" d="M58.854 45.813L61.162 50.022" />
<path fill="none" stroke="#000000" stroke-width="0.600" d="M57.722 59.223L53.551 61.598" />
<path fill="none" stroke="#000000" stroke-width="0.600" d="M59.716 68.587L59.232 73.363" />
<path fill="none" stroke="#000000" stroke-width="0.600" d="M58.887 81.638L59.296 76.856" />
<path fill="none" stroke="#000000" stroke-width="0.600" d="M73.126 -0.047L68.607 1.573" />
<path fill="none" stroke="#000000" stroke-width="0.600" d="M71.919 8.164L76.714 8.388" />
<path fill="none" stroke="#000000" stroke-width="0.600" d="M74.006 20.009L74.773 24.748" />
<path fill="none" stroke="#000000" stroke-width="0.600" d="M67.491 32.137L72.264 32.639" />
<path fill="none" stroke="#000000" stroke-width="0.600" d="M71.364 45.427L69.179 49.701" />
<path fill="none" stroke="#000000" stroke-width="0.600" d="M72.422 57.740L75.279 61.598" />
<path fill="none" stroke="#000000" stroke-width="0.600" d="M68.313 71.191L67.733 75.956" />
<path fill="none" stroke="#000000" stroke-width="0.600" d="M70.889 81.901L72.948 86.237" />
<path fill="none" stroke="#000000" stroke-width="0.600" d="M78.049 -5.547L82.849 -5.543" />
<path fill="none" stroke="#000000" stroke-width="0.600" d="M85.658 8.848L85.628 4.048" />
<path fill="none" stroke="#000000" stroke-width="0.600" d="M78.792 19.926L79.927 24.590" />
<path fill="none" stroke="#000000" stroke-width="0.600" d="M80.611 30.060L78.449 34.345" />
<path fill="none" stroke="#000000" stroke-width="0.600" d="M81.541 45.333L77.112 43.482" />
<path fill="none" stroke="#000000" stroke-width="0.600" d="M85.546 57.879L84.748 62.612" />
<path fill="none" stroke="#000000" stroke-width="0.600" d="M82.854 66.244L79.626 69.796" />
<path fill="none" stroke="#000000" stroke-width="0.600" d="M86.053 83.030L86.659 78.268" />
<path fill="none" stroke="#000000" stroke-width="0.600" d="M96.355 -4.781L95.129 -0.140" />
<path fill="none" stroke="#000000" stroke-width="0.600" d="M98.022 10.751L93.571 12.547" />
<path fill="none" stroke="#000000" stroke-width="0.600" d="M91.686 25.769L90.798 21.052" />
<path fill="none" stroke="#000000" stroke-width="0.600" d="M99.999 36.098L95.293 37.045" />
<path fill="none" stroke="#000000" stroke-width="0.600" d="M91.507 47.748L92.787 43.122" />
<path fill="none" stroke="#000000" stroke-width="0.600" d="M97.729 57.170L92.987 56.431" />
<path fill="none" stroke="#000000" stroke-width="0.600" d="M88.982 70.768L93.766 71.153" />
<path fill="none" stroke="#000000" stroke-width="0.600" d="M96.472 78.278L92.061 80.169" />
<path fill="none" stroke="#000000" stroke-width="0.600" d="M105.094 -6.798L103.889 -2.152" />
<path fill="none" stroke="#000000" stroke-width="0.600" d="M103.329 9.967L104.913 14.498" />
<path fill="none" stroke="#000000" stroke-width="0.600" d="M108.301 22.802L104.467 25.690" />
<path fill="none" stroke="#000000" stroke-width="0.600" d="M106.097 30.119L101.959 32.552" />
<path fill="none" stroke="#000000" stroke-width="0.600" d="M106.240 46.059L101.539 47.029" />
<path fill="none" stroke="#000000" stroke-width="0.600" d="M104.019 54.247L108.745 55.086" />
<path fill="none" stroke="#000000" stroke-width="0.600" d="M105.588 69.709L105.187 74.492" />
<path fill="none" stroke="#000000" stroke-width="0.600" d="M108.898 81.865L107.948 86.570" />
<path fill="none" stroke="#000000" stroke-width="0.600" d="M118.106 0.424L113.628 2.152" />
<path fill="none" stroke="#000000" stroke-width="0.600" d="M114.852 14.760L116.330 10.193" />
<path fill="none" stroke="#000000" stroke-width="0.600" d="M121.087 19.464L117.387 22.521" />
<path fill="none" stroke="#000000" stroke-width="0.600" d="M117.611 28.983L118.697 33.659" />
<path fill="none" stroke="#000000" stroke-width="0.600" d="M120.787 46.355L118.256 50.433" />
<path fill="none" stroke="#000000" stroke-width="0.600" d="M116.535 55.010L120.927 56.947" />
<path fill="none" stroke="#000000" stroke-width="0.600" d="M117.181 70.038L114.022 73.651" />
<path fill="none" stroke="#000000" stroke-width="0.600" d="M115.181 84.686L118.012 80.810" />
<path fill="none" stroke="#000000" stroke-width="0.600" d="M130.698 -4.137L132.458 0.329" />
<path fill="none" stroke="#000000" stroke-width="0.600" d="M128.991 8.444L133.716 7.598" />
<path fill="none" stroke="#000000" stroke-width="0.600" d="M126.749 20.731L130.298 17.501" />
<path fill="none" stroke="#000000" stroke-width="0.600" d="M127.011 31.702L127.842 36.430" />
<path fill="none" stroke="#000000" stroke-width="0.600" d="M129.940 42.115L126.230 45.160" />
<path fill="none" stroke="#000000" stroke-width="0.600" d="M135.907 61.005L132.617 57.510" />
<path fill="none" stroke="#000000" stroke-width="0.600" d="M134.925 68.984L130.130 69.201" />
<path fill="none" stroke="#000000" stroke-width="0.600" d="M131.765 86.438L127.437 84.362" />
<path fill="none" stroke="#000000" stroke-width="0.600" d="M140.642 -3.811L143.627 -0.052" />
<path fill="none" stroke="#000000" stroke-width="0.600" d="M146.668 9.875L144.138 5.796" />
<path fill="none" stroke="#000000" stroke-width="0.600" d="M139.714 16.581L140.260 21.350" />
<path fill="none" stroke="#000000" stroke-width="0.600" d="M138.212 35.813L142.604 33.877" />
<path fill="none" stroke="#000000" stroke-width="0.600" d="M143.294 43.172L139.097 45.500" />
<path fill="none" stroke="#000000" stroke-width="0.600" d="M141.183 56.343L143.169 60.713" />
<path fill="none" stroke="#000000" stroke-width="0.600" d="M141.511 74.700L138.955 70.637" />
<path fill="none" stroke="#000000" stroke-width="0.600" d="M142.991 86.007L142.901 81.208" />
</g>
</g>
</g>
</g>
</g>
<g id="G_aaaaaaa_renders/out.svg">
</g>
<g id="B_aaaaaaa_renders/out.svg">
<path fill="none" stroke="inherit" stroke-width="0.420" d="M0.810 83.000L147.190 83.000L147.190 1.000L0.810 1.000Z" />
</g>
<g id="I_aaaaaaa_renders/out.svg">
<path fill="inherit" stroke="none" d="M0.810 82.000C0.810 54.667 0.810 27.333 0.810 0.000C49.603 0.000 98.397 0.000 147.190 0.000C147.190 27.333 147.190 54.667 147.190 82.000C98.397 82.000 49.603 82.000 0.810 82.000Z" />
</g>
<g id="E_aaaaaaa_renders/out.svg">
</g>
<g id="X_aaaaaaa_renders/out.svg">
</g>
<clipPath id="clip_viewBox">
<path d="M-1293.809 1348.596L-1089.116 1348.596L-1089.116 1489.289L-1293.809 1489.289z" />
</clipPath>
</defs>
<g transform="scale(1,-1)" fill="#000000" stroke="#000000" stroke-linecap="round" stroke-linejoin="round" stroke-miterlimit="10" fill-rule="evenodd" clip-rule="evenodd" clip-path="url(#clip_viewBox)">
<g fill="#ffffff">
<use x="-1265.462" y="1377.943" xlink:href="#I_aaaaaaa_renders/out.svg" />
</g>
<use x="-1265.462" y="1377.943" xlink:href="#F_aaaaaaa_renders/out.svg" />
</g>
</svg>
