<?xml version="1.0" encoding="utf-8" standalone="no"?>
<!-- Generated by Therion 6.0.3 (2021-10-03) -->
<!DOCTYPE svg PUBLIC "-//W3C//DTD SVG 1.1//EN" "http://www.w3.org/Graphics/SVG/1.1/DTD/svg11.dtd">
<svg width="7cm" height="4cm" viewBox="-1263 -1459 142 81" xmlns="http://www.w3.org/2000/svg" xmlns:xlink="http://www.w3.org/1999/xlink">
<defs>
<g id="F_aaaaaaa_renders/out.svg">
<g>
<clipPath id="clip_1_renders/out.svg">
  <path d="M0.810 82.000C0.810 54.667 0.810 27.333 0.810 0.000C49.603 0.000 98.397 0.000 147.190 0.000C147.190 27.333 147.190 54.667 147.190 82.000C98.397 82.000 49.603 82.000 0.810 82.000" />
</clipPath>
<g clip-path="url(#clip_1_renders/out.svg)">
<g>
<clipPath id="clip_2_renders/out.svg">
  <path d="M0.810 82.000L147.190 82.000L147.190 0.000L0.810 0.000L0.810 82.000Z" />
</clipPath>
<g clip-path="url(#clip_2_renders/out.svg)">
<path fill="none" stroke="#000000" stroke-width="0.600" d="M0.701 -5.560L5.501 -5.560" />
<path fill="none" stroke="#000000" stroke-width="0.600" d="M3.101 -7.960L3.101 -3.160" />
<path fill="none" stroke="#000000" stroke-width="0.600" d="M-9.348 19.611L-4.548 19.611" />
<path fill="none" stroke="#000000" stroke-width="0.600" d="M-6.948 17.211L-6.948 22.011" />
<path fill="none" stroke="#000000" stroke-width="0.600" d="M3.807 49.470L8.607 49.470" />
<path fill="none" stroke="#000000" stroke-width="0.600" d="M6.207 47.070L6.207 51.870" />
<path fill="none" stroke="#000000" stroke-width="0.600" d="M3.320 66.654L8.120 66.654" />
<path fill="none" stroke="#000000" stroke-width="0.600" d="M5.720 64.254L5.720 69.054" />
<path fill="none" stroke="#000000" stroke-width="0.600" d="M7.631 -5.966L12.430 -5.966" />
<path fill="none" stroke="#000000" stroke-width="0.600" d="M10.030 -8.366L10.030 -3.566" />
<path fill="none" stroke="#000000" stroke-width="0.600" d="M10.308 13.016L15.108 13.016" />
<path fill="none" stroke="#000000" stroke-width="0.600" d="M12.708 10.616L12.708 15.416" />
<path fill="none" stroke="#000000" stroke-width="0.600" d="M11.201 38.739L16.001 38.739" />
<path fill="none" stroke="#000000" stroke-width="0.600" d="M13.601 36.339L13.601 41.139" />
<path fill="none" stroke="#000000" stroke-width="0.600" d="M17.240 51.497L22.040 51.497" />
<path fill="none" stroke="#000000" stroke-width="0.600" d="M19.640 49.097L19.640 53.897" />
<path fill="none" stroke="#000000" stroke-width="0.600" d="M17.061 63.749L21.861 63.749" />
<path fill="none" stroke="#000000" stroke-width="0.600" d="M19.461 61.349L19.461 66.149" />
<path fill="none" stroke="#000000" stroke-width="0.600" d="M33.921 -8.918L38.721 -8.918" />
<path fill="none" stroke="#000000" stroke-width="0.600" d="M36.321 -11.318L36.321 -6.518" />
<path fill="none" stroke="#000000" stroke-width="0.600" d="M38.724 15.385L43.524 15.385" />
<path fill="none" stroke="#000000" stroke-width="0.600" d="M41.124 12.985L41.124 17.785" />
<path fill="none" stroke="#000000" stroke-width="0.600" d="M26.683 36.601L31.483 36.601" />
<path fill="none" stroke="#000000" stroke-width="0.600" d="M29.083 34.201L29.083 39.001" />
<path fill="none" stroke="#000000" stroke-width="0.600" d="M34.079 56.975L38.879 56.975" />
<path fill="none" stroke="#000000" stroke-width="0.600" d="M36.479 54.575L36.479 59.375" />
<path fill="none" stroke="#000000" stroke-width="0.600" d="M38.312 63.760L43.112 63.760" />
<path fill="none" stroke="#000000" stroke-width="0.600" d="M40.712 61.360L40.712 66.160" />
<path fill="none" stroke="#000000" stroke-width="0.600" d="M55.707 8.274L60.507 8.274" />
<path fill="none" stroke="#000000" stroke-width="0.600" d="M58.107 5.874L58.107 10.674" />
<path fill="none" stroke="#000000" stroke-width="0.600" d="M54.101 33.708L58.901 33.708" />
<path fill="none" stroke="#000000" stroke-width="0.600" d="M56.501 31.308L56.501 36.108" />
<path fill="none" stroke="#000000" stroke-width="0.600" d="M52.036 46.339L56.836 46.339" />
<path fill="none" stroke="#000000" stroke-width="0.600" d="M54.436 43.939L54.436 48.739" />
<path fill="none" stroke="#000000" stroke-width="0.600" d="M53.796 69.486L58.596 69.486" />
<path fill="none" stroke="#000000" stroke-width="0.600" d="M56.196 67.086L56.196 71.886" />
<path fill="none" stroke="#000000" stroke-width="0.600" d="M65.353 16.886L70.153 16.886" />
<path fill="none" stroke="#000000" stroke-width="0.600" d="M67.753 14.486L67.753 19.286" />
<path fill="none" stroke="#000000" stroke-width="0.600" d="M63.979 36.455L68.779 36.455" />
<path fill="none" stroke="#000000" stroke-width="0.600" d="M66.379 34.055L66.379 38.855" />
<path fill="none" stroke="#000000" stroke-width="0.600" d="M71.820 58.147L76.620 58.147" />
<path fill="none" stroke="#000000" stroke-width="0.600" d="M74.220 55.747L74.220 60.547" />
<path fill="none" stroke="#000000" stroke-width="0.600" d="M65.179 74.525L69.979 74.525" />
<path fill="none" stroke="#000000" stroke-width="0.600" d="M67.579 72.125L67.579 76.925" />
<path fill="none" stroke="#000000" stroke-width="0.600" d="M86.886 17.014L91.686 17.014" />
<path fill="none" stroke="#000000" stroke-width="0.600" d="M89.286 14.614L89.286 19.414" />
<path fill="none" stroke="#000000" stroke-width="0.600" d="M92.457 37.368L97.257 37.368" />
<path fill="none" stroke="#000000" stroke-width="0.600" d="M94.857 34.968L94.857 39.768" />
<path fill="none" stroke="#000000" stroke-width="0.600" d="M79.610 46.681L84.410 46.681" />
<path fill="none" stroke="#000000" stroke-width="0.600" d="M82.010 44.281L82.010 49.080" />
<path fill="none" stroke="#000000" stroke-width="0.600" d="M80.576 63.253L85.376 63.253" />
<path fill="none" stroke="#000000" stroke-width="0.600" d="M82.976 60.853L82.976 65.653" />
<path fill="none" stroke="#000000" stroke-width="0.600" d="M109.290 -6.156L114.090 -6.156" />
<path fill="none" stroke="#000000" stroke-width="0.600" d="M111.690 -8.556L111.690 -3.756" />
<path fill="none" stroke="#000000" stroke-width="0.600" d="M107.986 8.813L112.786 8.813" />
<path fill="none" stroke="#000000" stroke-width="0.600" d="M110.386 6.413L110.386 11.213" />
<path fill="none" stroke="#000000" stroke-width="0.600" d="M98.510 29.363L103.310 29.363" />
<path fill="none" stroke="#000000" stroke-width="0.600" d="M100.910 26.963L100.910 31.763" />
<path fill="none" stroke="#000000" stroke-width="0.600" d="M107.483 56.992L112.283 56.992" />
<path fill="none" stroke="#000000" stroke-width="0.600" d="M109.883 54.592L109.883 59.392" />
<path fill="none" stroke="#000000" stroke-width="0.600" d="M111.243 75.429L116.043 75.429" />
<path fill="none" stroke="#000000" stroke-width="0.600" d="M113.643 73.029L113.643 77.828" />
<path fill="none" stroke="#000000" stroke-width="0.600" d="M119.250 -9.704L124.049 -9.704" />
<path fill="none" stroke="#000000" stroke-width="0.600" d="M121.649 -12.104L121.649 -7.304" />
<path fill="none" stroke="#000000" stroke-width="0.600" d="M126.792 18.636L131.592 18.636" />
<path fill="none" stroke="#000000" stroke-width="0.600" d="M129.192 16.236L129.192 21.036" />
<path fill="none" stroke="#000000" stroke-width="0.600" d="M125.881 33.109L130.681 33.109" />
<path fill="none" stroke="#000000" stroke-width="0.600" d="M128.281 30.709L128.281 35.509" />
<path fill="none" stroke="#000000" stroke-width="0.600" d="M123.209 58.065L128.009 58.065" />
<path fill="none" stroke="#000000" stroke-width="0.600" d="M125.609 55.665L125.609 60.465" />
<path fill="none" stroke="#000000" stroke-width="0.600" d="M123.353 63.123L128.153 63.123" />
<path fill="none" stroke="#000000" stroke-width="0.600" d="M125.753 60.723L125.753 65.523" />
<path fill="none" stroke="#000000" stroke-width="0.600" d="M135.850 5.361L140.650 5.361" />
<path fill="none" stroke="#000000" stroke-width="0.600" d="M138.250 2.961L138.250 7.761" />
</g>
</g>
</g>
</g>
</g>
<g id="G_aaaaaaa_renders/out.svg">
</g>
<g id="B_aaaaaaa_renders/out.svg">
<path fill="none" stroke="inherit" stroke-width="0.420" d="M0.810 83.000L147.190 83.000L147.190 1.000L0.810 1.000Z" />
</g>
<g id="I_aaaaaaa_renders/out.svg">
<path fill="inherit" stroke="none" d="M0.810 82.000C0.810 54.667 0.810 27.333 0.810 0.000C49.603 0.000 98.397 0.000 147.190 0.000C147.190 27.333 147.190 54.667 147.190 82.000C98.397 82.000 49.603 82.000 0.810 82.000Z" />
</g>
<g id="E_aaaaaaa_renders/out.svg">
</g>
<g id="X_aaaaaaa_renders/out.svg">
</g>
<clipPath id="clip_viewBox">
<path d="M-1293.809 1348.596L-1089.116 1348.596L-1089.116 1489.289L-1293.809 1489.289z" />
</clipPath>
</defs>
<g transform="scale(1,-1)" fill="#000000" stroke="#000000" stroke-linecap="round" stroke-linejoin="round" stroke-miterlimit="10" fill-rule="evenodd" clip-rule="evenodd" clip-path="url(#clip_viewBox)">
<g fill="#ffffff">
<use x="-1265.462" y="1377.943" xlink:href="#I_aaaaaaa_renders/out.svg" />
</g>
<use x="-1265.462" y="1377.943" xlink:href="#F_aaaaaaa_renders/out.svg" />
</g>
</svg>
