<?xml version="1.0" encoding="utf-8" standalone="no"?>
<!-- Generated by Therion 6.0.3 (2021-10-03) -->
<!DOCTYPE svg PUBLIC "-//W3C//DTD SVG 1.1//EN" "http://www.w3.org/Graphics/SVG/1.1/DTD/svg11.dtd">
<svg width="7cm" height="4cm" viewBox="-1263 -1459 142 81" xmlns="http://www.w3.org/2000/svg" xmlns:xlink="http://www.w3.org/1999/xlink">
<defs>
<g id="F_aaaaaaa_renders/out.svg">
<g>
<clipPath id="clip_1_renders/out.svg">
  <path d="M0.810 82.000C0.810 54.667 0.810 27.333 0.810 0.000C49.603 0.000 98.397 0.000 147.190 0.000C147.190 27.333 147.190 54.667 147.190 82.000C98.397 82.000 49.603 82.000 0.810 82.000" />
</clipPath>
<g clip-path="url(#clip_1_renders/out.svg)">
<g>
<clipPath id="clip_2_renders/out.svg">
  <path d="M0.810 82.000L147.190 82.000L147.190 0.000L0.810 0.000L0.810 82.000Z" />
</clipPath>
<g clip-path="url(#clip_2_renders/out.svg)">
<path fill="none" stroke="#000000" stroke-width="0.600" d="M-3.004 -7.914C-2.621 -7.853 -2.328 -7.553 -2.210 -7.180C-2.023 -6.591 -2.099 -5.965 -2.195 -5.356C-2.292 -4.747 -2.414 -4.127 -2.774 -3.625C-3.001 -3.307 -3.373 -3.112 -3.757 -3.173C-4.140 -3.234 -4.433 -3.534 -4.552 -3.907C-4.738 -4.496 -4.662 -5.123 -4.566 -5.732C-4.469 -6.341 -4.347 -6.960 -3.987 -7.462C-3.760 -7.781 -3.388 -7.975 -3.004 -7.914Z" />
<path fill="none" stroke="#000000" stroke-width="0.600" d="M2.027 13.404C2.412 13.359 2.776 13.568 2.990 13.895C3.329 14.412 3.426 15.036 3.498 15.648C3.570 16.260 3.619 16.890 3.409 17.471C3.276 17.839 2.971 18.126 2.585 18.171C2.199 18.216 1.836 18.007 1.621 17.680C1.283 17.163 1.186 16.540 1.114 15.927C1.042 15.315 0.992 14.685 1.203 14.105C1.336 13.737 1.641 13.449 2.027 13.404Z" />
<path fill="none" stroke="#000000" stroke-width="0.600" d="M-0.379 37.865C-0.316 38.248 -0.508 38.621 -0.825 38.850C-1.326 39.212 -1.945 39.337 -2.553 39.437C-3.162 39.536 -3.788 39.615 -4.378 39.432C-4.752 39.315 -5.053 39.023 -5.116 38.640C-5.178 38.257 -4.986 37.884 -4.669 37.655C-4.168 37.293 -3.550 37.168 -2.941 37.068C-2.332 36.969 -1.706 36.890 -1.116 37.074C-0.743 37.190 -0.441 37.482 -0.379 37.865Z" />
<path fill="none" stroke="#000000" stroke-width="0.600" d="M-5.893 51.900C-6.272 51.814 -6.545 51.496 -6.638 51.116C-6.785 50.516 -6.669 49.895 -6.532 49.294C-6.396 48.692 -6.233 48.083 -5.841 47.605C-5.593 47.302 -5.209 47.133 -4.831 47.219C-4.452 47.305 -4.179 47.623 -4.086 48.003C-3.939 48.603 -4.055 49.224 -4.192 49.825C-4.328 50.426 -4.491 51.036 -4.883 51.514C-5.131 51.817 -5.515 51.986 -5.893 51.900Z" />
<path fill="none" stroke="#000000" stroke-width="0.600" d="M-2.832 70.417C-3.219 70.449 -3.575 70.227 -3.777 69.892C-4.098 69.364 -4.172 68.737 -4.222 68.123C-4.273 67.508 -4.300 66.877 -4.070 66.304C-3.924 65.941 -3.608 65.665 -3.221 65.633C-2.834 65.602 -2.478 65.823 -2.275 66.158C-1.955 66.686 -1.880 67.313 -1.830 67.928C-1.780 68.542 -1.753 69.173 -1.983 69.746C-2.129 70.109 -2.445 70.386 -2.832 70.417Z" />
<path fill="none" stroke="#000000" stroke-width="0.600" d="M11.806 14.827C12.147 14.640 12.562 14.697 12.884 14.919C13.393 15.270 13.718 15.811 14.015 16.351C14.312 16.891 14.595 17.455 14.620 18.073C14.635 18.464 14.461 18.845 14.120 19.032C13.780 19.220 13.365 19.163 13.043 18.941C12.534 18.590 12.209 18.049 11.912 17.508C11.615 16.968 11.331 16.404 11.307 15.787C11.292 15.396 11.466 15.014 11.806 14.827Z" />
<path fill="none" stroke="#000000" stroke-width="0.600" d="M22.946 34.456C22.811 34.820 22.459 35.049 22.070 35.092C21.456 35.159 20.856 34.961 20.278 34.747C19.700 34.532 19.117 34.291 18.695 33.840C18.428 33.554 18.310 33.151 18.445 32.787C18.580 32.423 18.932 32.194 19.321 32.152C19.935 32.085 20.535 32.282 21.113 32.497C21.691 32.711 22.274 32.953 22.696 33.404C22.963 33.690 23.081 34.092 22.946 34.456Z" />
<path fill="none" stroke="#000000" stroke-width="0.600" d="M20.022 54.806C19.734 55.067 19.316 55.107 18.952 54.965C18.376 54.741 17.935 54.289 17.521 53.832C17.107 53.375 16.702 52.892 16.536 52.297C16.431 51.920 16.512 51.508 16.800 51.248C17.088 50.987 17.506 50.946 17.870 51.088C18.446 51.313 18.887 51.764 19.301 52.221C19.714 52.679 20.120 53.162 20.286 53.757C20.391 54.134 20.309 54.545 20.022 54.806Z" />
<path fill="none" stroke="#000000" stroke-width="0.600" d="M21.449 63.982C21.802 64.144 22.002 64.513 22.014 64.904C22.033 65.521 21.790 66.104 21.532 66.664C21.273 67.223 20.987 67.786 20.504 68.172C20.199 68.416 19.788 68.502 19.435 68.339C19.083 68.176 18.882 67.808 18.870 67.416C18.851 66.799 19.094 66.216 19.353 65.657C19.612 65.097 19.898 64.534 20.380 64.149C20.686 63.904 21.097 63.819 21.449 63.982Z" />
<path fill="none" stroke="#000000" stroke-width="0.600" d="M39.480 15.892C39.469 16.280 39.209 16.609 38.854 16.774C38.293 17.034 37.662 17.038 37.046 17.020C36.429 17.002 35.799 16.959 35.255 16.666C34.911 16.481 34.671 16.137 34.683 15.749C34.694 15.361 34.954 15.032 35.309 14.867C35.870 14.607 36.501 14.602 37.117 14.621C37.734 14.639 38.363 14.682 38.907 14.974C39.252 15.160 39.492 15.504 39.480 15.892Z" />
<path fill="none" stroke="#000000" stroke-width="0.600" d="M29.423 34.622C29.659 34.314 30.063 34.199 30.447 34.274C31.053 34.391 31.568 34.757 32.057 35.132C32.546 35.508 33.032 35.911 33.302 36.466C33.473 36.818 33.466 37.238 33.230 37.546C32.993 37.854 32.590 37.968 32.205 37.894C31.599 37.777 31.084 37.411 30.595 37.036C30.106 36.660 29.620 36.257 29.350 35.702C29.179 35.350 29.186 34.930 29.423 34.622Z" />
<path fill="none" stroke="#000000" stroke-width="0.600" d="M32.975 52.340C32.895 51.960 33.070 51.579 33.377 51.336C33.861 50.952 34.473 50.800 35.077 50.673C35.680 50.546 36.303 50.440 36.900 50.597C37.279 50.696 37.592 50.975 37.672 51.355C37.752 51.735 37.576 52.115 37.270 52.359C36.786 52.743 36.173 52.895 35.570 53.022C34.966 53.149 34.344 53.255 33.747 53.098C33.368 52.999 33.054 52.720 32.975 52.340Z" />
<path fill="none" stroke="#000000" stroke-width="0.600" d="M34.556 69.536C34.190 69.407 33.956 69.059 33.907 68.671C33.831 68.058 34.019 67.455 34.224 66.874C34.429 66.292 34.662 65.705 35.106 65.276C35.388 65.004 35.788 64.881 36.154 65.010C36.521 65.139 36.755 65.487 36.803 65.875C36.880 66.488 36.692 67.091 36.487 67.673C36.282 68.254 36.049 68.841 35.605 69.270C35.323 69.542 34.923 69.665 34.556 69.536Z" />
<path fill="none" stroke="#000000" stroke-width="0.600" d="M54.956 22.274C54.582 22.171 54.324 21.840 54.248 21.456C54.129 20.850 54.274 20.236 54.438 19.642C54.602 19.047 54.793 18.445 55.206 17.986C55.468 17.696 55.859 17.544 56.234 17.648C56.608 17.751 56.866 18.082 56.941 18.465C57.061 19.072 56.916 19.686 56.752 20.280C56.587 20.875 56.397 21.476 55.983 21.936C55.722 22.226 55.330 22.378 54.956 22.274Z" />
<path fill="none" stroke="#000000" stroke-width="0.600" d="M53.413 32.244C53.798 32.294 54.100 32.586 54.228 32.956C54.431 33.539 54.373 34.168 54.293 34.779C54.213 35.391 54.108 36.013 53.763 36.525C53.544 36.850 53.178 37.054 52.793 37.004C52.408 36.954 52.106 36.662 51.978 36.293C51.775 35.709 51.833 35.081 51.913 34.469C51.993 33.858 52.098 33.235 52.443 32.723C52.662 32.399 53.028 32.194 53.413 32.244Z" />
<path fill="none" stroke="#000000" stroke-width="0.600" d="M56.709 46.258C56.961 46.554 56.989 46.972 56.836 47.333C56.595 47.901 56.130 48.329 55.661 48.729C55.192 49.129 54.696 49.520 54.097 49.668C53.717 49.762 53.308 49.668 53.056 49.372C52.804 49.077 52.776 48.658 52.929 48.298C53.170 47.729 53.635 47.302 54.104 46.902C54.573 46.502 55.069 46.111 55.668 45.963C56.048 45.869 56.457 45.963 56.709 46.258Z" />
<path fill="none" stroke="#000000" stroke-width="0.600" d="M50.519 67.867C50.192 68.077 49.773 68.049 49.437 67.849C48.906 67.534 48.544 67.016 48.211 66.498C47.877 65.979 47.556 65.436 47.489 64.821C47.447 64.433 47.595 64.040 47.921 63.830C48.248 63.620 48.666 63.648 49.003 63.847C49.534 64.163 49.895 64.680 50.229 65.199C50.563 65.717 50.884 66.261 50.951 66.875C50.993 67.264 50.845 67.656 50.519 67.867Z" />
<path fill="none" stroke="#000000" stroke-width="0.600" d="M69.506 13.734C69.411 14.110 69.086 14.376 68.704 14.460C68.101 14.592 67.483 14.461 66.885 14.310C66.288 14.159 65.682 13.982 65.214 13.579C64.917 13.324 64.757 12.936 64.852 12.560C64.947 12.183 65.272 11.918 65.654 11.834C66.257 11.701 66.875 11.832 67.473 11.983C68.070 12.134 68.676 12.311 69.144 12.714C69.441 12.969 69.601 13.357 69.506 13.734Z" />
<path fill="none" stroke="#000000" stroke-width="0.600" d="M73.097 35.937C73.464 35.810 73.864 35.936 74.144 36.210C74.586 36.641 74.814 37.230 75.016 37.812C75.218 38.395 75.402 38.999 75.321 39.612C75.270 39.999 75.034 40.346 74.667 40.473C74.300 40.600 73.900 40.474 73.620 40.200C73.178 39.769 72.950 39.180 72.748 38.598C72.546 38.015 72.362 37.411 72.443 36.799C72.494 36.411 72.730 36.064 73.097 35.937Z" />
<path fill="none" stroke="#000000" stroke-width="0.600" d="M70.251 45.300C70.568 45.524 70.699 45.922 70.639 46.309C70.546 46.920 70.201 47.448 69.845 47.952C69.489 48.455 69.105 48.957 68.560 49.248C68.215 49.433 67.796 49.442 67.479 49.218C67.162 48.994 67.032 48.595 67.091 48.209C67.184 47.598 67.529 47.069 67.885 46.566C68.241 46.062 68.625 45.561 69.170 45.270C69.515 45.085 69.934 45.075 70.251 45.300Z" />
<path fill="none" stroke="#000000" stroke-width="0.600" d="M72.895 69.781C73.276 69.856 73.558 70.166 73.662 70.543C73.827 71.139 73.728 71.762 73.610 72.367C73.491 72.972 73.346 73.587 72.968 74.076C72.729 74.385 72.350 74.566 71.969 74.491C71.588 74.416 71.306 74.106 71.202 73.729C71.037 73.133 71.136 72.510 71.254 71.905C71.373 71.300 71.518 70.685 71.896 70.196C72.135 69.887 72.514 69.706 72.895 69.781Z" />
<path fill="none" stroke="#000000" stroke-width="0.600" d="M87.055 2.575C86.918 2.212 87.034 1.808 87.300 1.522C87.720 1.069 88.303 0.825 88.880 0.608C89.457 0.392 90.056 0.192 90.671 0.257C91.060 0.298 91.412 0.525 91.549 0.889C91.685 1.252 91.569 1.656 91.303 1.942C90.883 2.395 90.300 2.639 89.723 2.856C89.146 3.072 88.547 3.272 87.932 3.207C87.543 3.166 87.191 2.939 87.055 2.575Z" />
<path fill="none" stroke="#000000" stroke-width="0.600" d="M82.349 12.305C82.493 11.944 82.850 11.724 83.240 11.691C83.855 11.639 84.450 11.851 85.023 12.079C85.595 12.308 86.172 12.564 86.583 13.025C86.843 13.317 86.951 13.723 86.807 14.084C86.663 14.444 86.306 14.664 85.916 14.697C85.300 14.749 84.706 14.537 84.133 14.309C83.560 14.080 82.983 13.824 82.572 13.363C82.312 13.071 82.205 12.665 82.349 12.305Z" />
<path fill="none" stroke="#000000" stroke-width="0.600" d="M92.185 36.426C92.253 36.808 92.066 37.183 91.752 37.417C91.257 37.786 90.640 37.921 90.033 38.029C89.426 38.137 88.801 38.225 88.208 38.050C87.833 37.939 87.528 37.652 87.459 37.270C87.391 36.887 87.578 36.512 87.892 36.278C88.387 35.909 89.004 35.775 89.611 35.666C90.218 35.558 90.843 35.470 91.436 35.645C91.811 35.756 92.116 36.043 92.185 36.426Z" />
<path fill="none" stroke="#000000" stroke-width="0.600" d="M89.407 53.948C89.780 53.840 90.173 53.987 90.438 54.274C90.857 54.728 91.055 55.327 91.227 55.920C91.398 56.512 91.551 57.125 91.439 57.732C91.368 58.117 91.114 58.451 90.741 58.559C90.368 58.667 89.975 58.520 89.710 58.233C89.291 57.779 89.093 57.179 88.921 56.587C88.750 55.995 88.597 55.382 88.709 54.774C88.780 54.390 89.034 54.056 89.407 53.948Z" />
<path fill="none" stroke="#000000" stroke-width="0.600" d="M93.539 71.724C93.175 71.860 92.772 71.743 92.485 71.477C92.033 71.056 91.790 70.473 91.574 69.896C91.358 69.318 91.160 68.719 91.225 68.105C91.266 67.716 91.494 67.363 91.858 67.227C92.222 67.092 92.625 67.208 92.911 67.474C93.363 67.895 93.606 68.478 93.822 69.055C94.038 69.633 94.237 70.232 94.172 70.846C94.130 71.236 93.902 71.588 93.539 71.724Z" />
<path fill="none" stroke="#000000" stroke-width="0.600" d="M106.331 13.753C106.596 14.037 106.643 14.454 106.506 14.820C106.291 15.399 105.846 15.847 105.395 16.268C104.944 16.688 104.466 17.101 103.874 17.276C103.498 17.387 103.086 17.311 102.821 17.027C102.556 16.743 102.509 16.326 102.646 15.960C102.861 15.381 103.307 14.933 103.757 14.512C104.208 14.092 104.686 13.679 105.278 13.504C105.654 13.393 106.066 13.469 106.331 13.753Z" />
<path fill="none" stroke="#000000" stroke-width="0.600" d="M105.243 32.744C105.199 33.130 104.913 33.436 104.546 33.571C103.965 33.783 103.336 33.736 102.723 33.667C102.111 33.597 101.486 33.503 100.968 33.166C100.640 32.953 100.430 32.590 100.473 32.204C100.517 31.818 100.803 31.512 101.171 31.377C101.751 31.165 102.380 31.212 102.993 31.282C103.606 31.351 104.230 31.445 104.748 31.782C105.076 31.995 105.287 32.358 105.243 32.744Z" />
<path fill="none" stroke="#000000" stroke-width="0.600" d="M104.998 56.949C104.800 56.615 104.844 56.197 105.056 55.869C105.391 55.350 105.922 55.008 106.453 54.694C106.984 54.380 107.539 54.080 108.155 54.036C108.546 54.009 108.932 54.172 109.130 54.506C109.327 54.840 109.284 55.257 109.071 55.586C108.736 56.105 108.206 56.446 107.675 56.760C107.144 57.074 106.589 57.375 105.973 57.418C105.582 57.446 105.196 57.283 104.998 56.949Z" />
<path fill="none" stroke="#000000" stroke-width="0.600" d="M109.334 70.145C109.194 69.783 109.306 69.379 109.569 69.090C109.985 68.633 110.565 68.384 111.141 68.162C111.716 67.940 112.313 67.735 112.928 67.794C113.317 67.831 113.672 68.055 113.812 68.417C113.951 68.780 113.839 69.184 113.576 69.473C113.160 69.930 112.580 70.179 112.005 70.401C111.429 70.623 110.832 70.828 110.217 70.769C109.828 70.732 109.473 70.508 109.334 70.145Z" />
<path fill="none" stroke="#000000" stroke-width="0.600" d="M120.239 21.789C120.001 21.483 119.992 21.063 120.161 20.710C120.427 20.153 120.911 19.747 121.398 19.369C121.885 18.990 122.397 18.622 123.003 18.501C123.387 18.425 123.791 18.537 124.029 18.844C124.267 19.150 124.277 19.570 124.108 19.922C123.841 20.480 123.357 20.886 122.871 21.264C122.384 21.642 121.871 22.011 121.265 22.132C120.882 22.208 120.477 22.096 120.239 21.789Z" />
<path fill="none" stroke="#000000" stroke-width="0.600" d="M119.514 30.086C119.823 29.851 120.242 29.846 120.594 30.018C121.148 30.291 121.549 30.778 121.922 31.269C122.296 31.760 122.659 32.276 122.774 32.883C122.846 33.268 122.730 33.671 122.421 33.906C122.112 34.141 121.692 34.146 121.341 33.973C120.787 33.701 120.386 33.213 120.012 32.723C119.639 32.232 119.276 31.716 119.161 31.109C119.088 30.724 119.205 30.321 119.514 30.086Z" />
<path fill="none" stroke="#000000" stroke-width="0.600" d="M127.615 48.579C127.983 48.702 128.223 49.046 128.278 49.433C128.365 50.045 128.187 50.651 127.991 51.235C127.795 51.820 127.572 52.411 127.135 52.847C126.858 53.123 126.459 53.253 126.091 53.130C125.723 53.007 125.483 52.663 125.428 52.275C125.341 51.664 125.519 51.058 125.715 50.473C125.911 49.889 126.134 49.298 126.571 48.862C126.848 48.585 127.247 48.455 127.615 48.579Z" />
<path fill="none" stroke="#000000" stroke-width="0.600" d="M123.170 64.270C123.502 64.470 123.661 64.859 123.629 65.249C123.580 65.864 123.274 66.417 122.955 66.944C122.636 67.472 122.289 67.999 121.767 68.329C121.436 68.538 121.019 68.578 120.686 68.377C120.354 68.176 120.195 67.788 120.226 67.398C120.276 66.782 120.582 66.230 120.901 65.703C121.220 65.175 121.567 64.647 122.089 64.317C122.420 64.108 122.837 64.069 123.170 64.270Z" />
<path fill="none" stroke="#000000" stroke-width="0.600" d="M137.734 -4.222C137.653 -4.602 137.826 -4.984 138.131 -5.229C138.613 -5.615 139.224 -5.772 139.827 -5.902C140.430 -6.032 141.052 -6.142 141.650 -5.988C142.029 -5.891 142.344 -5.614 142.426 -5.235C142.508 -4.855 142.335 -4.473 142.030 -4.229C141.548 -3.842 140.936 -3.686 140.334 -3.556C139.731 -3.425 139.109 -3.316 138.511 -3.469C138.132 -3.566 137.816 -3.843 137.734 -4.222Z" />
<path fill="none" stroke="#000000" stroke-width="0.600" d="M140.022 16.893C140.390 17.015 140.631 17.358 140.687 17.746C140.776 18.357 140.600 18.963 140.406 19.549C140.212 20.134 139.991 20.725 139.555 21.163C139.279 21.440 138.880 21.571 138.512 21.449C138.143 21.327 137.902 20.984 137.846 20.597C137.758 19.985 137.934 19.379 138.128 18.794C138.322 18.208 138.543 17.617 138.979 17.179C139.255 16.902 139.653 16.771 140.022 16.893Z" />
<path fill="none" stroke="#000000" stroke-width="0.600" d="M138.564 33.407C138.451 33.036 138.591 32.640 138.874 32.370C139.322 31.944 139.918 31.737 140.507 31.556C141.097 31.375 141.707 31.213 142.316 31.315C142.702 31.380 143.040 31.629 143.154 32.000C143.267 32.371 143.127 32.767 142.844 33.036C142.397 33.462 141.800 33.670 141.211 33.851C140.621 34.032 140.011 34.194 139.402 34.092C139.016 34.027 138.678 33.778 138.564 33.407Z" />
<path fill="none" stroke="#000000" stroke-width="0.600" d="M141.401 57.852C141.066 58.048 140.649 58.003 140.321 57.789C139.804 57.452 139.464 56.919 139.153 56.387C138.841 55.855 138.543 55.299 138.502 54.683C138.476 54.292 138.641 53.906 138.976 53.710C139.311 53.514 139.728 53.559 140.055 53.773C140.573 54.110 140.912 54.642 141.224 55.174C141.536 55.707 141.834 56.263 141.875 56.879C141.901 57.270 141.736 57.656 141.401 57.852Z" />
<path fill="none" stroke="#000000" stroke-width="0.600" d="M145.561 74.661C145.221 74.847 144.805 74.790 144.483 74.567C143.976 74.216 143.651 73.674 143.355 73.133C143.059 72.593 142.776 72.028 142.753 71.411C142.738 71.020 142.913 70.639 143.253 70.452C143.594 70.265 144.009 70.322 144.331 70.545C144.839 70.897 145.163 71.439 145.460 71.979C145.756 72.520 146.038 73.084 146.062 73.702C146.077 74.093 145.902 74.474 145.561 74.661Z" />
</g>
</g>
</g>
</g>
</g>
<g id="G_aaaaaaa_renders/out.svg">
</g>
<g id="B_aaaaaaa_renders/out.svg">
<path fill="none" stroke="inherit" stroke-width="0.420" d="M0.810 83.000L147.190 83.000L147.190 1.000L0.810 1.000Z" />
</g>
<g id="I_aaaaaaa_renders/out.svg">
<path fill="inherit" stroke="none" d="M0.810 82.000C0.810 54.667 0.810 27.333 0.810 0.000C49.603 0.000 98.397 0.000 147.190 0.000C147.190 27.333 147.190 54.667 147.190 82.000C98.397 82.000 49.603 82.000 0.810 82.000Z" />
</g>
<g id="E_aaaaaaa_renders/out.svg">
</g>
<g id="X_aaaaaaa_renders/out.svg">
</g>
<clipPath id="clip_viewBox">
<path d="M-1293.809 1348.596L-1089.116 1348.596L-1089.116 1489.289L-1293.809 1489.289z" />
</clipPath>
</defs>
<g transform="scale(1,-1)" fill="#000000" stroke="#000000" stroke-linecap="round" stroke-linejoin="round" stroke-miterlimit="10" fill-rule="evenodd" clip-rule="evenodd" clip-path="url(#clip_viewBox)">
<g fill="#ffffff">
<use x="-1265.462" y="1377.943" xlink:href="#I_aaaaaaa_renders/out.svg" />
</g>
<use x="-1265.462" y="1377.943" xlink:href="#F_aaaaaaa_renders/out.svg" />
</g>
</svg>
