<?xml version="1.0" encoding="utf-8" standalone="no"?>
<!-- Generated by Therion 6.0.3 (2021-10-03) -->
<!DOCTYPE svg PUBLIC "-//W3C//DTD SVG 1.1//EN" "http://www.w3.org/Graphics/SVG/1.1/DTD/svg11.dtd">
<svg width="7cm" height="4cm" viewBox="-1263 -1459 142 81" xmlns="http://www.w3.org/2000/svg" xmlns:xlink="http://www.w3.org/1999/xlink">
<defs>
<g id="F_aaaaaaa_renders/out.svg">
<g>
<clipPath id="clip_1_renders/out.svg">
  <path d="M0.810 82.000C0.810 54.667 0.810 27.333 0.810 0.000C49.603 0.000 98.397 0.000 147.190 0.000C147.190 27.333 147.190 54.667 147.190 82.000C98.397 82.000 49.603 82.000 0.810 82.000" />
</clipPath>
<g clip-path="url(#clip_1_renders/out.svg)">
<g>
<clipPath id="clip_2_renders/out.svg">
  <path d="M0.810 82.000L147.190 82.000L147.190 0.000L0.810 0.000L0.810 82.000Z" />
</clipPath>
<g clip-path="url(#clip_2_renders/out.svg)">
<path fill="none" stroke="#000000" stroke-width="0.600" d="M3.101 -5.560L3.101 -3.160" />
<path fill="none" stroke="#000000" stroke-width="0.600" d="M3.101 -5.560L1.022 -4.360" />
<path fill="none" stroke="#000000" stroke-width="0.600" d="M3.101 -5.560L1.022 -6.760" />
<path fill="none" stroke="#000000" stroke-width="0.600" d="M3.101 -5.560L3.101 -7.960" />
<path fill="none" stroke="#000000" stroke-width="0.600" d="M3.101 -5.560L5.179 -6.760" />
<path fill="none" stroke="#000000" stroke-width="0.600" d="M3.101 -5.560L5.179 -4.360" />
<path fill="none" stroke="#000000" stroke-width="0.600" d="M2.252 -2.311L3.101 -3.160L3.949 -2.311" />
<path fill="none" stroke="#000000" stroke-width="0.600" d="M-0.137 -4.670L1.022 -4.360L0.712 -3.200" />
<path fill="none" stroke="#000000" stroke-width="0.600" d="M0.712 -7.919L1.022 -6.760L-0.137 -6.449" />
<path fill="none" stroke="#000000" stroke-width="0.600" d="M3.949 -8.808L3.101 -7.960L2.252 -8.808" />
<path fill="none" stroke="#000000" stroke-width="0.600" d="M6.338 -6.449L5.179 -6.760L5.490 -7.919" />
<path fill="none" stroke="#000000" stroke-width="0.600" d="M5.490 -3.200L5.179 -4.360L6.338 -4.670" />
<path fill="none" stroke="#000000" stroke-width="0.600" d="M-6.948 19.611L-6.948 22.011" />
<path fill="none" stroke="#000000" stroke-width="0.600" d="M-6.948 19.611L-9.027 20.811" />
<path fill="none" stroke="#000000" stroke-width="0.600" d="M-6.948 19.611L-9.027 18.411" />
<path fill="none" stroke="#000000" stroke-width="0.600" d="M-6.948 19.611L-6.948 17.211" />
<path fill="none" stroke="#000000" stroke-width="0.600" d="M-6.948 19.611L-4.870 18.411" />
<path fill="none" stroke="#000000" stroke-width="0.600" d="M-6.948 19.611L-4.870 20.811" />
<path fill="none" stroke="#000000" stroke-width="0.600" d="M-7.797 22.859L-6.948 22.011L-6.100 22.859" />
<path fill="none" stroke="#000000" stroke-width="0.600" d="M-10.186 20.500L-9.027 20.811L-9.337 21.970" />
<path fill="none" stroke="#000000" stroke-width="0.600" d="M-9.337 17.251L-9.027 18.411L-10.186 18.721" />
<path fill="none" stroke="#000000" stroke-width="0.600" d="M-6.100 16.362L-6.948 17.211L-7.797 16.362" />
<path fill="none" stroke="#000000" stroke-width="0.600" d="M-3.711 18.721L-4.870 18.411L-4.559 17.251" />
<path fill="none" stroke="#000000" stroke-width="0.600" d="M-4.559 21.970L-4.870 20.811L-3.711 20.500" />
<path fill="none" stroke="#000000" stroke-width="0.600" d="M10.030 -5.966L10.030 -3.566" />
<path fill="none" stroke="#000000" stroke-width="0.600" d="M10.030 -5.966L7.952 -4.766" />
<path fill="none" stroke="#000000" stroke-width="0.600" d="M10.030 -5.966L7.952 -7.166" />
<path fill="none" stroke="#000000" stroke-width="0.600" d="M10.030 -5.966L10.030 -8.366" />
<path fill="none" stroke="#000000" stroke-width="0.600" d="M10.030 -5.966L12.109 -7.166" />
<path fill="none" stroke="#000000" stroke-width="0.600" d="M10.030 -5.966L12.109 -4.766" />
<path fill="none" stroke="#000000" stroke-width="0.600" d="M9.182 -2.717L10.030 -3.566L10.879 -2.717" />
<path fill="none" stroke="#000000" stroke-width="0.600" d="M6.793 -5.076L7.952 -4.766L7.641 -3.607" />
<path fill="none" stroke="#000000" stroke-width="0.600" d="M7.641 -8.325L7.952 -7.166L6.793 -6.855" />
<path fill="none" stroke="#000000" stroke-width="0.600" d="M10.879 -9.214L10.030 -8.366L9.182 -9.214" />
<path fill="none" stroke="#000000" stroke-width="0.600" d="M13.268 -6.855L12.109 -7.166L12.420 -8.325" />
<path fill="none" stroke="#000000" stroke-width="0.600" d="M12.420 -3.607L12.109 -4.766L13.268 -5.076" />
<path fill="none" stroke="#000000" stroke-width="0.600" d="M12.708 13.016L12.708 15.416" />
<path fill="none" stroke="#000000" stroke-width="0.600" d="M12.708 13.016L10.630 14.216" />
<path fill="none" stroke="#000000" stroke-width="0.600" d="M12.708 13.016L10.630 11.816" />
<path fill="none" stroke="#000000" stroke-width="0.600" d="M12.708 13.016L12.708 10.616" />
<path fill="none" stroke="#000000" stroke-width="0.600" d="M12.708 13.016L14.787 11.816" />
<path fill="none" stroke="#000000" stroke-width="0.600" d="M12.708 13.016L14.787 14.216" />
<path fill="none" stroke="#000000" stroke-width="0.600" d="M11.860 16.264L12.708 15.416L13.557 16.264" />
<path fill="none" stroke="#000000" stroke-width="0.600" d="M9.471 13.905L10.630 14.216L10.319 15.375" />
<path fill="none" stroke="#000000" stroke-width="0.600" d="M10.319 10.657L10.630 11.816L9.471 12.127" />
<path fill="none" stroke="#000000" stroke-width="0.600" d="M13.557 9.767L12.708 10.616L11.860 9.767" />
<path fill="none" stroke="#000000" stroke-width="0.600" d="M15.946 12.127L14.787 11.816L15.097 10.657" />
<path fill="none" stroke="#000000" stroke-width="0.600" d="M15.097 15.375L14.787 14.216L15.946 13.905" />
<path fill="none" stroke="#000000" stroke-width="0.600" d="M13.601 38.739L13.601 41.139" />
<path fill="none" stroke="#000000" stroke-width="0.600" d="M13.601 38.739L11.522 39.939" />
<path fill="none" stroke="#000000" stroke-width="0.600" d="M13.601 38.739L11.522 37.539" />
<path fill="none" stroke="#000000" stroke-width="0.600" d="M13.601 38.739L13.601 36.339" />
<path fill="none" stroke="#000000" stroke-width="0.600" d="M13.601 38.739L15.679 37.539" />
<path fill="none" stroke="#000000" stroke-width="0.600" d="M13.601 38.739L15.679 39.939" />
<path fill="none" stroke="#000000" stroke-width="0.600" d="M12.752 41.988L13.601 41.139L14.449 41.988" />
<path fill="none" stroke="#000000" stroke-width="0.600" d="M10.363 39.629L11.522 39.939L11.212 41.099" />
<path fill="none" stroke="#000000" stroke-width="0.600" d="M11.212 36.380L11.522 37.539L10.363 37.850" />
<path fill="none" stroke="#000000" stroke-width="0.600" d="M14.449 35.491L13.601 36.339L12.752 35.491" />
<path fill="none" stroke="#000000" stroke-width="0.600" d="M16.838 37.850L15.679 37.539L15.990 36.380" />
<path fill="none" stroke="#000000" stroke-width="0.600" d="M15.990 41.099L15.679 39.939L16.838 39.629" />
<path fill="none" stroke="#000000" stroke-width="0.600" d="M19.640 51.497L19.640 53.897" />
<path fill="none" stroke="#000000" stroke-width="0.600" d="M19.640 51.497L17.561 52.697" />
<path fill="none" stroke="#000000" stroke-width="0.600" d="M19.640 51.497L17.561 50.297" />
<path fill="none" stroke="#000000" stroke-width="0.600" d="M19.640 51.497L19.640 49.097" />
<path fill="none" stroke="#000000" stroke-width="0.600" d="M19.640 51.497L21.718 50.297" />
<path fill="none" stroke="#000000" stroke-width="0.600" d="M19.640 51.497L21.718 52.697" />
<path fill="none" stroke="#000000" stroke-width="0.600" d="M18.791 54.746L19.640 53.897L20.488 54.746" />
<path fill="none" stroke="#000000" stroke-width="0.600" d="M16.402 52.386L17.561 52.697L17.251 53.856" />
<path fill="none" stroke="#000000" stroke-width="0.600" d="M17.251 49.138L17.561 50.297L16.402 50.608" />
<path fill="none" stroke="#000000" stroke-width="0.600" d="M20.488 48.249L19.640 49.097L18.791 48.249" />
<path fill="none" stroke="#000000" stroke-width="0.600" d="M22.877 50.608L21.718 50.297L22.029 49.138" />
<path fill="none" stroke="#000000" stroke-width="0.600" d="M22.029 53.856L21.718 52.697L22.877 52.386" />
<path fill="none" stroke="#000000" stroke-width="0.600" d="M19.461 63.749L19.461 66.149" />
<path fill="none" stroke="#000000" stroke-width="0.600" d="M19.461 63.749L17.383 64.949" />
<path fill="none" stroke="#000000" stroke-width="0.600" d="M19.461 63.749L17.383 62.549" />
<path fill="none" stroke="#000000" stroke-width="0.600" d="M19.461 63.749L19.461 61.349" />
<path fill="none" stroke="#000000" stroke-width="0.600" d="M19.461 63.749L21.539 62.549" />
<path fill="none" stroke="#000000" stroke-width="0.600" d="M19.461 63.749L21.539 64.949" />
<path fill="none" stroke="#000000" stroke-width="0.600" d="M18.612 66.998L19.461 66.149L20.310 66.998" />
<path fill="none" stroke="#000000" stroke-width="0.600" d="M16.223 64.639L17.383 64.949L17.072 66.109" />
<path fill="none" stroke="#000000" stroke-width="0.600" d="M17.072 61.390L17.383 62.549L16.223 62.860" />
<path fill="none" stroke="#000000" stroke-width="0.600" d="M20.310 60.501L19.461 61.349L18.612 60.501" />
<path fill="none" stroke="#000000" stroke-width="0.600" d="M22.699 62.860L21.539 62.549L21.850 61.390" />
<path fill="none" stroke="#000000" stroke-width="0.600" d="M21.850 66.109L21.539 64.949L22.699 64.639" />
<path fill="none" stroke="#000000" stroke-width="0.600" d="M36.321 -8.918L36.321 -6.518" />
<path fill="none" stroke="#000000" stroke-width="0.600" d="M36.321 -8.918L34.242 -7.718" />
<path fill="none" stroke="#000000" stroke-width="0.600" d="M36.321 -8.918L34.242 -10.118" />
<path fill="none" stroke="#000000" stroke-width="0.600" d="M36.321 -8.918L36.321 -11.318" />
<path fill="none" stroke="#000000" stroke-width="0.600" d="M36.321 -8.918L38.399 -10.118" />
<path fill="none" stroke="#000000" stroke-width="0.600" d="M36.321 -8.918L38.399 -7.718" />
<path fill="none" stroke="#000000" stroke-width="0.600" d="M35.472 -5.670L36.321 -6.518L37.169 -5.670" />
<path fill="none" stroke="#000000" stroke-width="0.600" d="M33.083 -8.029L34.242 -7.718L33.932 -6.559" />
<path fill="none" stroke="#000000" stroke-width="0.600" d="M33.932 -11.277L34.242 -10.118L33.083 -9.807" />
<path fill="none" stroke="#000000" stroke-width="0.600" d="M37.169 -12.167L36.321 -11.318L35.472 -12.167" />
<path fill="none" stroke="#000000" stroke-width="0.600" d="M39.558 -9.807L38.399 -10.118L38.710 -11.277" />
<path fill="none" stroke="#000000" stroke-width="0.600" d="M38.710 -6.559L38.399 -7.718L39.558 -8.029" />
<path fill="none" stroke="#000000" stroke-width="0.600" d="M41.124 15.385L41.124 17.785" />
<path fill="none" stroke="#000000" stroke-width="0.600" d="M41.124 15.385L39.045 16.585" />
<path fill="none" stroke="#000000" stroke-width="0.600" d="M41.124 15.385L39.045 14.185" />
<path fill="none" stroke="#000000" stroke-width="0.600" d="M41.124 15.385L41.124 12.985" />
<path fill="none" stroke="#000000" stroke-width="0.600" d="M41.124 15.385L43.202 14.185" />
<path fill="none" stroke="#000000" stroke-width="0.600" d="M41.124 15.385L43.202 16.585" />
<path fill="none" stroke="#000000" stroke-width="0.600" d="M40.275 18.634L41.124 17.785L41.972 18.634" />
<path fill="none" stroke="#000000" stroke-width="0.600" d="M37.886 16.275L39.045 16.585L38.735 17.745" />
<path fill="none" stroke="#000000" stroke-width="0.600" d="M38.735 13.026L39.045 14.185L37.886 14.496" />
<path fill="none" stroke="#000000" stroke-width="0.600" d="M41.972 12.137L41.124 12.985L40.275 12.137" />
<path fill="none" stroke="#000000" stroke-width="0.600" d="M44.362 14.496L43.202 14.185L43.513 13.026" />
<path fill="none" stroke="#000000" stroke-width="0.600" d="M43.513 17.745L43.202 16.585L44.362 16.275" />
<path fill="none" stroke="#000000" stroke-width="0.600" d="M29.083 36.601L29.083 39.001" />
<path fill="none" stroke="#000000" stroke-width="0.600" d="M29.083 36.601L27.005 37.801" />
<path fill="none" stroke="#000000" stroke-width="0.600" d="M29.083 36.601L27.005 35.401" />
<path fill="none" stroke="#000000" stroke-width="0.600" d="M29.083 36.601L29.083 34.201" />
<path fill="none" stroke="#000000" stroke-width="0.600" d="M29.083 36.601L31.162 35.401" />
<path fill="none" stroke="#000000" stroke-width="0.600" d="M29.083 36.601L31.162 37.801" />
<path fill="none" stroke="#000000" stroke-width="0.600" d="M28.235 39.850L29.083 39.001L29.932 39.850" />
<path fill="none" stroke="#000000" stroke-width="0.600" d="M25.846 37.491L27.005 37.801L26.694 38.961" />
<path fill="none" stroke="#000000" stroke-width="0.600" d="M26.694 34.242L27.005 35.401L25.846 35.712" />
<path fill="none" stroke="#000000" stroke-width="0.600" d="M29.932 33.353L29.083 34.201L28.235 33.353" />
<path fill="none" stroke="#000000" stroke-width="0.600" d="M32.321 35.712L31.162 35.401L31.472 34.242" />
<path fill="none" stroke="#000000" stroke-width="0.600" d="M31.472 38.961L31.162 37.801L32.321 37.491" />
<path fill="none" stroke="#000000" stroke-width="0.600" d="M36.479 56.975L36.479 59.375" />
<path fill="none" stroke="#000000" stroke-width="0.600" d="M36.479 56.975L34.400 58.175" />
<path fill="none" stroke="#000000" stroke-width="0.600" d="M36.479 56.975L34.400 55.775" />
<path fill="none" stroke="#000000" stroke-width="0.600" d="M36.479 56.975L36.479 54.575" />
<path fill="none" stroke="#000000" stroke-width="0.600" d="M36.479 56.975L38.557 55.775" />
<path fill="none" stroke="#000000" stroke-width="0.600" d="M36.479 56.975L38.557 58.175" />
<path fill="none" stroke="#000000" stroke-width="0.600" d="M35.630 60.223L36.479 59.375L37.327 60.223" />
<path fill="none" stroke="#000000" stroke-width="0.600" d="M33.241 57.864L34.400 58.175L34.090 59.334" />
<path fill="none" stroke="#000000" stroke-width="0.600" d="M34.090 54.616L34.400 55.775L33.241 56.085" />
<path fill="none" stroke="#000000" stroke-width="0.600" d="M37.327 53.726L36.479 54.575L35.630 53.726" />
<path fill="none" stroke="#000000" stroke-width="0.600" d="M39.716 56.085L38.557 55.775L38.868 54.616" />
<path fill="none" stroke="#000000" stroke-width="0.600" d="M38.868 59.334L38.557 58.175L39.716 57.864" />
<path fill="none" stroke="#000000" stroke-width="0.600" d="M40.712 63.760L40.712 66.160" />
<path fill="none" stroke="#000000" stroke-width="0.600" d="M40.712 63.760L38.634 64.960" />
<path fill="none" stroke="#000000" stroke-width="0.600" d="M40.712 63.760L38.634 62.560" />
<path fill="none" stroke="#000000" stroke-width="0.600" d="M40.712 63.760L40.712 61.360" />
<path fill="none" stroke="#000000" stroke-width="0.600" d="M40.712 63.760L42.791 62.560" />
<path fill="none" stroke="#000000" stroke-width="0.600" d="M40.712 63.760L42.791 64.960" />
<path fill="none" stroke="#000000" stroke-width="0.600" d="M39.864 67.009L40.712 66.160L41.561 67.009" />
<path fill="none" stroke="#000000" stroke-width="0.600" d="M37.475 64.650L38.634 64.960L38.323 66.119" />
<path fill="none" stroke="#000000" stroke-width="0.600" d="M38.323 61.401L38.634 62.560L37.475 62.871" />
<path fill="none" stroke="#000000" stroke-width="0.600" d="M41.561 60.512L40.712 61.360L39.864 60.512" />
<path fill="none" stroke="#000000" stroke-width="0.600" d="M43.950 62.871L42.791 62.560L43.101 61.401" />
<path fill="none" stroke="#000000" stroke-width="0.600" d="M43.101 66.119L42.791 64.960L43.950 64.650" />
<path fill="none" stroke="#000000" stroke-width="0.600" d="M58.107 8.274L58.107 10.674" />
<path fill="none" stroke="#000000" stroke-width="0.600" d="M58.107 8.274L56.028 9.474" />
<path fill="none" stroke="#000000" stroke-width="0.600" d="M58.107 8.274L56.028 7.074" />
<path fill="none" stroke="#000000" stroke-width="0.600" d="M58.107 8.274L58.107 5.874" />
<path fill="none" stroke="#000000" stroke-width="0.600" d="M58.107 8.274L60.185 7.074" />
<path fill="none" stroke="#000000" stroke-width="0.600" d="M58.107 8.274L60.185 9.474" />
<path fill="none" stroke="#000000" stroke-width="0.600" d="M57.258 11.523L58.107 10.674L58.955 11.523" />
<path fill="none" stroke="#000000" stroke-width="0.600" d="M54.869 9.163L56.028 9.474L55.718 10.633" />
<path fill="none" stroke="#000000" stroke-width="0.600" d="M55.718 5.915L56.028 7.074L54.869 7.385" />
<path fill="none" stroke="#000000" stroke-width="0.600" d="M58.955 5.026L58.107 5.874L57.258 5.026" />
<path fill="none" stroke="#000000" stroke-width="0.600" d="M61.344 7.385L60.185 7.074L60.496 5.915" />
<path fill="none" stroke="#000000" stroke-width="0.600" d="M60.496 10.633L60.185 9.474L61.344 9.163" />
<path fill="none" stroke="#000000" stroke-width="0.600" d="M56.501 33.708L56.501 36.108" />
<path fill="none" stroke="#000000" stroke-width="0.600" d="M56.501 33.708L54.423 34.908" />
<path fill="none" stroke="#000000" stroke-width="0.600" d="M56.501 33.708L54.423 32.508" />
<path fill="none" stroke="#000000" stroke-width="0.600" d="M56.501 33.708L56.501 31.308" />
<path fill="none" stroke="#000000" stroke-width="0.600" d="M56.501 33.708L58.580 32.508" />
<path fill="none" stroke="#000000" stroke-width="0.600" d="M56.501 33.708L58.580 34.908" />
<path fill="none" stroke="#000000" stroke-width="0.600" d="M55.653 36.957L56.501 36.108L57.350 36.957" />
<path fill="none" stroke="#000000" stroke-width="0.600" d="M53.263 34.598L54.423 34.908L54.112 36.067" />
<path fill="none" stroke="#000000" stroke-width="0.600" d="M54.112 31.349L54.423 32.508L53.263 32.819" />
<path fill="none" stroke="#000000" stroke-width="0.600" d="M57.350 30.460L56.501 31.308L55.653 30.460" />
<path fill="none" stroke="#000000" stroke-width="0.600" d="M59.739 32.819L58.580 32.508L58.890 31.349" />
<path fill="none" stroke="#000000" stroke-width="0.600" d="M58.890 36.067L58.580 34.908L59.739 34.598" />
<path fill="none" stroke="#000000" stroke-width="0.600" d="M54.436 46.339L54.436 48.739" />
<path fill="none" stroke="#000000" stroke-width="0.600" d="M54.436 46.339L52.358 47.539" />
<path fill="none" stroke="#000000" stroke-width="0.600" d="M54.436 46.339L52.358 45.139" />
<path fill="none" stroke="#000000" stroke-width="0.600" d="M54.436 46.339L54.436 43.939" />
<path fill="none" stroke="#000000" stroke-width="0.600" d="M54.436 46.339L56.514 45.139" />
<path fill="none" stroke="#000000" stroke-width="0.600" d="M54.436 46.339L56.514 47.539" />
<path fill="none" stroke="#000000" stroke-width="0.600" d="M53.587 49.587L54.436 48.739L55.285 49.587" />
<path fill="none" stroke="#000000" stroke-width="0.600" d="M51.198 47.228L52.358 47.539L52.047 48.698" />
<path fill="none" stroke="#000000" stroke-width="0.600" d="M52.047 43.979L52.358 45.139L51.198 45.449" />
<path fill="none" stroke="#000000" stroke-width="0.600" d="M55.285 43.090L54.436 43.939L53.587 43.090" />
<path fill="none" stroke="#000000" stroke-width="0.600" d="M57.674 45.449L56.514 45.139L56.825 43.979" />
<path fill="none" stroke="#000000" stroke-width="0.600" d="M56.825 48.698L56.514 47.539L57.674 47.228" />
<path fill="none" stroke="#000000" stroke-width="0.600" d="M56.196 69.486L56.196 71.886" />
<path fill="none" stroke="#000000" stroke-width="0.600" d="M56.196 69.486L54.118 70.686" />
<path fill="none" stroke="#000000" stroke-width="0.600" d="M56.196 69.486L54.118 68.286" />
<path fill="none" stroke="#000000" stroke-width="0.600" d="M56.196 69.486L56.196 67.086" />
<path fill="none" stroke="#000000" stroke-width="0.600" d="M56.196 69.486L58.275 68.286" />
<path fill="none" stroke="#000000" stroke-width="0.600" d="M56.196 69.486L58.275 70.686" />
<path fill="none" stroke="#000000" stroke-width="0.600" d="M55.348 72.735L56.196 71.886L57.045 72.735" />
<path fill="none" stroke="#000000" stroke-width="0.600" d="M52.959 70.376L54.118 70.686L53.807 71.846" />
<path fill="none" stroke="#000000" stroke-width="0.600" d="M53.807 67.127L54.118 68.286L52.959 68.597" />
<path fill="none" stroke="#000000" stroke-width="0.600" d="M57.045 66.238L56.196 67.086L55.348 66.238" />
<path fill="none" stroke="#000000" stroke-width="0.600" d="M59.434 68.597L58.275 68.286L58.585 67.127" />
<path fill="none" stroke="#000000" stroke-width="0.600" d="M58.585 71.846L58.275 70.686L59.434 70.376" />
<path fill="none" stroke="#000000" stroke-width="0.600" d="M67.753 16.886L67.753 19.286" />
<path fill="none" stroke="#000000" stroke-width="0.600" d="M67.753 16.886L65.674 18.086" />
<path fill="none" stroke="#000000" stroke-width="0.600" d="M67.753 16.886L65.674 15.686" />
<path fill="none" stroke="#000000" stroke-width="0.600" d="M67.753 16.886L67.753 14.486" />
<path fill="none" stroke="#000000" stroke-width="0.600" d="M67.753 16.886L69.831 15.686" />
<path fill="none" stroke="#000000" stroke-width="0.600" d="M67.753 16.886L69.831 18.086" />
<path fill="none" stroke="#000000" stroke-width="0.600" d="M66.904 20.135L67.753 19.286L68.601 20.135" />
<path fill="none" stroke="#000000" stroke-width="0.600" d="M64.515 17.776L65.674 18.086L65.364 19.246" />
<path fill="none" stroke="#000000" stroke-width="0.600" d="M65.364 14.527L65.674 15.686L64.515 15.997" />
<path fill="none" stroke="#000000" stroke-width="0.600" d="M68.601 13.638L67.753 14.486L66.904 13.638" />
<path fill="none" stroke="#000000" stroke-width="0.600" d="M70.990 15.997L69.831 15.686L70.142 14.527" />
<path fill="none" stroke="#000000" stroke-width="0.600" d="M70.142 19.246L69.831 18.086L70.990 17.776" />
<path fill="none" stroke="#000000" stroke-width="0.600" d="M66.379 36.455L66.379 38.855" />
<path fill="none" stroke="#000000" stroke-width="0.600" d="M66.379 36.455L64.300 37.655" />
<path fill="none" stroke="#000000" stroke-width="0.600" d="M66.379 36.455L64.300 35.255" />
<path fill="none" stroke="#000000" stroke-width="0.600" d="M66.379 36.455L66.379 34.055" />
<path fill="none" stroke="#000000" stroke-width="0.600" d="M66.379 36.455L68.457 35.255" />
<path fill="none" stroke="#000000" stroke-width="0.600" d="M66.379 36.455L68.457 37.655" />
<path fill="none" stroke="#000000" stroke-width="0.600" d="M65.530 39.703L66.379 38.855L67.227 39.703" />
<path fill="none" stroke="#000000" stroke-width="0.600" d="M63.141 37.344L64.300 37.655L63.990 38.814" />
<path fill="none" stroke="#000000" stroke-width="0.600" d="M63.990 34.096L64.300 35.255L63.141 35.565" />
<path fill="none" stroke="#000000" stroke-width="0.600" d="M67.227 33.206L66.379 34.055L65.530 33.206" />
<path fill="none" stroke="#000000" stroke-width="0.600" d="M69.616 35.565L68.457 35.255L68.768 34.096" />
<path fill="none" stroke="#000000" stroke-width="0.600" d="M68.768 38.814L68.457 37.655L69.616 37.344" />
<path fill="none" stroke="#000000" stroke-width="0.600" d="M74.220 58.147L74.220 60.547" />
<path fill="none" stroke="#000000" stroke-width="0.600" d="M74.220 58.147L72.141 59.347" />
<path fill="none" stroke="#000000" stroke-width="0.600" d="M74.220 58.147L72.141 56.947" />
<path fill="none" stroke="#000000" stroke-width="0.600" d="M74.220 58.147L74.220 55.747" />
<path fill="none" stroke="#000000" stroke-width="0.600" d="M74.220 58.147L76.298 56.947" />
<path fill="none" stroke="#000000" stroke-width="0.600" d="M74.220 58.147L76.298 59.347" />
<path fill="none" stroke="#000000" stroke-width="0.600" d="M73.371 61.396L74.220 60.547L75.068 61.396" />
<path fill="none" stroke="#000000" stroke-width="0.600" d="M70.982 59.036L72.141 59.347L71.831 60.506" />
<path fill="none" stroke="#000000" stroke-width="0.600" d="M71.831 55.788L72.141 56.947L70.982 57.258" />
<path fill="none" stroke="#000000" stroke-width="0.600" d="M75.068 54.899L74.220 55.747L73.371 54.899" />
<path fill="none" stroke="#000000" stroke-width="0.600" d="M77.457 57.258L76.298 56.947L76.609 55.788" />
<path fill="none" stroke="#000000" stroke-width="0.600" d="M76.609 60.506L76.298 59.347L77.457 59.036" />
<path fill="none" stroke="#000000" stroke-width="0.600" d="M67.579 74.525L67.579 76.925" />
<path fill="none" stroke="#000000" stroke-width="0.600" d="M67.579 74.525L65.500 75.725" />
<path fill="none" stroke="#000000" stroke-width="0.600" d="M67.579 74.525L65.500 73.325" />
<path fill="none" stroke="#000000" stroke-width="0.600" d="M67.579 74.525L67.579 72.125" />
<path fill="none" stroke="#000000" stroke-width="0.600" d="M67.579 74.525L69.657 73.325" />
<path fill="none" stroke="#000000" stroke-width="0.600" d="M67.579 74.525L69.657 75.725" />
<path fill="none" stroke="#000000" stroke-width="0.600" d="M66.730 77.774L67.579 76.925L68.427 77.774" />
<path fill="none" stroke="#000000" stroke-width="0.600" d="M64.341 75.415L65.500 75.725L65.190 76.884" />
<path fill="none" stroke="#000000" stroke-width="0.600" d="M65.190 72.166L65.500 73.325L64.341 73.636" />
<path fill="none" stroke="#000000" stroke-width="0.600" d="M68.427 71.277L67.579 72.125L66.730 71.277" />
<path fill="none" stroke="#000000" stroke-width="0.600" d="M70.817 73.636L69.657 73.325L69.968 72.166" />
<path fill="none" stroke="#000000" stroke-width="0.600" d="M69.968 76.884L69.657 75.725L70.817 75.415" />
<path fill="none" stroke="#000000" stroke-width="0.600" d="M89.286 17.014L89.286 19.414" />
<path fill="none" stroke="#000000" stroke-width="0.600" d="M89.286 17.014L87.208 18.214" />
<path fill="none" stroke="#000000" stroke-width="0.600" d="M89.286 17.014L87.208 15.814" />
<path fill="none" stroke="#000000" stroke-width="0.600" d="M89.286 17.014L89.286 14.614" />
<path fill="none" stroke="#000000" stroke-width="0.600" d="M89.286 17.014L91.365 15.814" />
<path fill="none" stroke="#000000" stroke-width="0.600" d="M89.286 17.014L91.365 18.214" />
<path fill="none" stroke="#000000" stroke-width="0.600" d="M88.438 20.263L89.286 19.414L90.135 20.263" />
<path fill="none" stroke="#000000" stroke-width="0.600" d="M86.049 17.904L87.208 18.214L86.897 19.373" />
<path fill="none" stroke="#000000" stroke-width="0.600" d="M86.897 14.655L87.208 15.814L86.049 16.125" />
<path fill="none" stroke="#000000" stroke-width="0.600" d="M90.135 13.766L89.286 14.614L88.438 13.766" />
<path fill="none" stroke="#000000" stroke-width="0.600" d="M92.524 16.125L91.365 15.814L91.675 14.655" />
<path fill="none" stroke="#000000" stroke-width="0.600" d="M91.675 19.373L91.365 18.214L92.524 17.904" />
<path fill="none" stroke="#000000" stroke-width="0.600" d="M94.857 37.368L94.857 39.768" />
<path fill="none" stroke="#000000" stroke-width="0.600" d="M94.857 37.368L92.779 38.568" />
<path fill="none" stroke="#000000" stroke-width="0.600" d="M94.857 37.368L92.779 36.168" />
<path fill="none" stroke="#000000" stroke-width="0.600" d="M94.857 37.368L94.857 34.968" />
<path fill="none" stroke="#000000" stroke-width="0.600" d="M94.857 37.368L96.936 36.168" />
<path fill="none" stroke="#000000" stroke-width="0.600" d="M94.857 37.368L96.936 38.568" />
<path fill="none" stroke="#000000" stroke-width="0.600" d="M94.009 40.617L94.857 39.768L95.706 40.617" />
<path fill="none" stroke="#000000" stroke-width="0.600" d="M91.620 38.257L92.779 38.568L92.468 39.727" />
<path fill="none" stroke="#000000" stroke-width="0.600" d="M92.468 35.009L92.779 36.168L91.620 36.479" />
<path fill="none" stroke="#000000" stroke-width="0.600" d="M95.706 34.119L94.857 34.968L94.009 34.119" />
<path fill="none" stroke="#000000" stroke-width="0.600" d="M98.095 36.479L96.936 36.168L97.246 35.009" />
<path fill="none" stroke="#000000" stroke-width="0.600" d="M97.246 39.727L96.936 38.568L98.095 38.257" />
<path fill="none" stroke="#000000" stroke-width="0.600" d="M82.010 46.681L82.010 49.080" />
<path fill="none" stroke="#000000" stroke-width="0.600" d="M82.010 46.681L79.932 47.880" />
<path fill="none" stroke="#000000" stroke-width="0.600" d="M82.010 46.681L79.932 45.481" />
<path fill="none" stroke="#000000" stroke-width="0.600" d="M82.010 46.681L82.010 44.281" />
<path fill="none" stroke="#000000" stroke-width="0.600" d="M82.010 46.681L84.088 45.481" />
<path fill="none" stroke="#000000" stroke-width="0.600" d="M82.010 46.681L84.088 47.880" />
<path fill="none" stroke="#000000" stroke-width="0.600" d="M81.161 49.929L82.010 49.080L82.859 49.929" />
<path fill="none" stroke="#000000" stroke-width="0.600" d="M78.772 47.570L79.932 47.880L79.621 49.040" />
<path fill="none" stroke="#000000" stroke-width="0.600" d="M79.621 44.321L79.932 45.481L78.772 45.791" />
<path fill="none" stroke="#000000" stroke-width="0.600" d="M82.859 43.432L82.010 44.281L81.161 43.432" />
<path fill="none" stroke="#000000" stroke-width="0.600" d="M85.248 45.791L84.088 45.481L84.399 44.321" />
<path fill="none" stroke="#000000" stroke-width="0.600" d="M84.399 49.040L84.088 47.880L85.248 47.570" />
<path fill="none" stroke="#000000" stroke-width="0.600" d="M82.976 63.253L82.976 65.653" />
<path fill="none" stroke="#000000" stroke-width="0.600" d="M82.976 63.253L80.898 64.453" />
<path fill="none" stroke="#000000" stroke-width="0.600" d="M82.976 63.253L80.898 62.053" />
<path fill="none" stroke="#000000" stroke-width="0.600" d="M82.976 63.253L82.976 60.853" />
<path fill="none" stroke="#000000" stroke-width="0.600" d="M82.976 63.253L85.055 62.053" />
<path fill="none" stroke="#000000" stroke-width="0.600" d="M82.976 63.253L85.055 64.453" />
<path fill="none" stroke="#000000" stroke-width="0.600" d="M82.127 66.502L82.976 65.653L83.825 66.502" />
<path fill="none" stroke="#000000" stroke-width="0.600" d="M79.738 64.143L80.898 64.453L80.587 65.613" />
<path fill="none" stroke="#000000" stroke-width="0.600" d="M80.587 60.894L80.898 62.053L79.738 62.364" />
<path fill="none" stroke="#000000" stroke-width="0.600" d="M83.825 60.005L82.976 60.853L82.127 60.005" />
<path fill="none" stroke="#000000" stroke-width="0.600" d="M86.214 62.364L85.055 62.053L85.365 60.894" />
<path fill="none" stroke="#000000" stroke-width="0.600" d="M85.365 65.613L85.055 64.453L86.214 64.143" />
<path fill="none" stroke="#000000" stroke-width="0.600" d="M111.690 -6.156L111.690 -3.756" />
<path fill="none" stroke="#000000" stroke-width="0.600" d="M111.690 -6.156L109.612 -4.956" />
<path fill="none" stroke="#000000" stroke-width="0.600" d="M111.690 -6.156L109.612 -7.356" />
<path fill="none" stroke="#000000" stroke-width="0.600" d="M111.690 -6.156L111.690 -8.556" />
<path fill="none" stroke="#000000" stroke-width="0.600" d="M111.690 -6.156L113.769 -7.356" />
<path fill="none" stroke="#000000" stroke-width="0.600" d="M111.690 -6.156L113.769 -4.956" />
<path fill="none" stroke="#000000" stroke-width="0.600" d="M110.842 -2.907L111.690 -3.756L112.539 -2.907" />
<path fill="none" stroke="#000000" stroke-width="0.600" d="M108.453 -5.267L109.612 -4.956L109.301 -3.797" />
<path fill="none" stroke="#000000" stroke-width="0.600" d="M109.301 -8.515L109.612 -7.356L108.453 -7.045" />
<path fill="none" stroke="#000000" stroke-width="0.600" d="M112.539 -9.404L111.690 -8.556L110.842 -9.404" />
<path fill="none" stroke="#000000" stroke-width="0.600" d="M114.928 -7.045L113.769 -7.356L114.079 -8.515" />
<path fill="none" stroke="#000000" stroke-width="0.600" d="M114.079 -3.797L113.769 -4.956L114.928 -5.267" />
<path fill="none" stroke="#000000" stroke-width="0.600" d="M110.386 8.813L110.386 11.213" />
<path fill="none" stroke="#000000" stroke-width="0.600" d="M110.386 8.813L108.307 10.013" />
<path fill="none" stroke="#000000" stroke-width="0.600" d="M110.386 8.813L108.307 7.613" />
<path fill="none" stroke="#000000" stroke-width="0.600" d="M110.386 8.813L110.386 6.413" />
<path fill="none" stroke="#000000" stroke-width="0.600" d="M110.386 8.813L112.464 7.613" />
<path fill="none" stroke="#000000" stroke-width="0.600" d="M110.386 8.813L112.464 10.013" />
<path fill="none" stroke="#000000" stroke-width="0.600" d="M109.537 12.062L110.386 11.213L111.234 12.062" />
<path fill="none" stroke="#000000" stroke-width="0.600" d="M107.148 9.703L108.307 10.013L107.997 11.173" />
<path fill="none" stroke="#000000" stroke-width="0.600" d="M107.997 6.454L108.307 7.613L107.148 7.924" />
<path fill="none" stroke="#000000" stroke-width="0.600" d="M111.234 5.565L110.386 6.413L109.537 5.565" />
<path fill="none" stroke="#000000" stroke-width="0.600" d="M113.624 7.924L112.464 7.613L112.775 6.454" />
<path fill="none" stroke="#000000" stroke-width="0.600" d="M112.775 11.173L112.464 10.013L113.624 9.703" />
<path fill="none" stroke="#000000" stroke-width="0.600" d="M100.910 29.363L100.910 31.763" />
<path fill="none" stroke="#000000" stroke-width="0.600" d="M100.910 29.363L98.831 30.563" />
<path fill="none" stroke="#000000" stroke-width="0.600" d="M100.910 29.363L98.831 28.163" />
<path fill="none" stroke="#000000" stroke-width="0.600" d="M100.910 29.363L100.910 26.963" />
<path fill="none" stroke="#000000" stroke-width="0.600" d="M100.910 29.363L102.988 28.163" />
<path fill="none" stroke="#000000" stroke-width="0.600" d="M100.910 29.363L102.988 30.563" />
<path fill="none" stroke="#000000" stroke-width="0.600" d="M100.061 32.612L100.910 31.763L101.758 32.612" />
<path fill="none" stroke="#000000" stroke-width="0.600" d="M97.672 30.253L98.831 30.563L98.521 31.722" />
<path fill="none" stroke="#000000" stroke-width="0.600" d="M98.521 27.004L98.831 28.163L97.672 28.474" />
<path fill="none" stroke="#000000" stroke-width="0.600" d="M101.758 26.115L100.910 26.963L100.061 26.115" />
<path fill="none" stroke="#000000" stroke-width="0.600" d="M104.147 28.474L102.988 28.163L103.299 27.004" />
<path fill="none" stroke="#000000" stroke-width="0.600" d="M103.299 31.722L102.988 30.563L104.147 30.253" />
<path fill="none" stroke="#000000" stroke-width="0.600" d="M109.883 56.992L109.883 59.392" />
<path fill="none" stroke="#000000" stroke-width="0.600" d="M109.883 56.992L107.804 58.192" />
<path fill="none" stroke="#000000" stroke-width="0.600" d="M109.883 56.992L107.804 55.792" />
<path fill="none" stroke="#000000" stroke-width="0.600" d="M109.883 56.992L109.883 54.592" />
<path fill="none" stroke="#000000" stroke-width="0.600" d="M109.883 56.992L111.961 55.792" />
<path fill="none" stroke="#000000" stroke-width="0.600" d="M109.883 56.992L111.961 58.192" />
<path fill="none" stroke="#000000" stroke-width="0.600" d="M109.034 60.241L109.883 59.392L110.731 60.241" />
<path fill="none" stroke="#000000" stroke-width="0.600" d="M106.645 57.881L107.804 58.192L107.494 59.351" />
<path fill="none" stroke="#000000" stroke-width="0.600" d="M107.494 54.633L107.804 55.792L106.645 56.103" />
<path fill="none" stroke="#000000" stroke-width="0.600" d="M110.731 53.743L109.883 54.592L109.034 53.743" />
<path fill="none" stroke="#000000" stroke-width="0.600" d="M113.120 56.103L111.961 55.792L112.272 54.633" />
<path fill="none" stroke="#000000" stroke-width="0.600" d="M112.272 59.351L111.961 58.192L113.120 57.881" />
<path fill="none" stroke="#000000" stroke-width="0.600" d="M113.643 75.429L113.643 77.828" />
<path fill="none" stroke="#000000" stroke-width="0.600" d="M113.643 75.429L111.565 76.629" />
<path fill="none" stroke="#000000" stroke-width="0.600" d="M113.643 75.429L111.565 74.229" />
<path fill="none" stroke="#000000" stroke-width="0.600" d="M113.643 75.429L113.643 73.029" />
<path fill="none" stroke="#000000" stroke-width="0.600" d="M113.643 75.429L115.722 74.229" />
<path fill="none" stroke="#000000" stroke-width="0.600" d="M113.643 75.429L115.722 76.629" />
<path fill="none" stroke="#000000" stroke-width="0.600" d="M112.795 78.677L113.643 77.828L114.492 78.677" />
<path fill="none" stroke="#000000" stroke-width="0.600" d="M110.406 76.318L111.565 76.629L111.254 77.788" />
<path fill="none" stroke="#000000" stroke-width="0.600" d="M111.254 73.069L111.565 74.229L110.406 74.539" />
<path fill="none" stroke="#000000" stroke-width="0.600" d="M114.492 72.180L113.643 73.029L112.795 72.180" />
<path fill="none" stroke="#000000" stroke-width="0.600" d="M116.881 74.539L115.722 74.229L116.032 73.069" />
<path fill="none" stroke="#000000" stroke-width="0.600" d="M116.032 77.788L115.722 76.629L116.881 76.318" />
<path fill="none" stroke="#000000" stroke-width="0.600" d="M121.649 -9.704L121.649 -7.304" />
<path fill="none" stroke="#000000" stroke-width="0.600" d="M121.649 -9.704L119.571 -8.504" />
<path fill="none" stroke="#000000" stroke-width="0.600" d="M121.649 -9.704L119.571 -10.904" />
<path fill="none" stroke="#000000" stroke-width="0.600" d="M121.649 -9.704L121.649 -12.104" />
<path fill="none" stroke="#000000" stroke-width="0.600" d="M121.649 -9.704L123.728 -10.904" />
<path fill="none" stroke="#000000" stroke-width="0.600" d="M121.649 -9.704L123.728 -8.504" />
<path fill="none" stroke="#000000" stroke-width="0.600" d="M120.801 -6.456L121.649 -7.304L122.498 -6.456" />
<path fill="none" stroke="#000000" stroke-width="0.600" d="M118.412 -8.815L119.571 -8.504L119.260 -7.345" />
<path fill="none" stroke="#000000" stroke-width="0.600" d="M119.260 -12.064L119.571 -10.904L118.412 -10.594" />
<path fill="none" stroke="#000000" stroke-width="0.600" d="M122.498 -12.953L121.649 -12.104L120.801 -12.953" />
<path fill="none" stroke="#000000" stroke-width="0.600" d="M124.887 -10.594L123.728 -10.904L124.039 -12.064" />
<path fill="none" stroke="#000000" stroke-width="0.600" d="M124.039 -7.345L123.728 -8.504L124.887 -8.815" />
<path fill="none" stroke="#000000" stroke-width="0.600" d="M129.192 18.636L129.192 21.036" />
<path fill="none" stroke="#000000" stroke-width="0.600" d="M129.192 18.636L127.113 19.836" />
<path fill="none" stroke="#000000" stroke-width="0.600" d="M129.192 18.636L127.113 17.436" />
<path fill="none" stroke="#000000" stroke-width="0.600" d="M129.192 18.636L129.192 16.236" />
<path fill="none" stroke="#000000" stroke-width="0.600" d="M129.192 18.636L131.270 17.436" />
<path fill="none" stroke="#000000" stroke-width="0.600" d="M129.192 18.636L131.270 19.836" />
<path fill="none" stroke="#000000" stroke-width="0.600" d="M128.343 21.884L129.192 21.036L130.040 21.884" />
<path fill="none" stroke="#000000" stroke-width="0.600" d="M125.954 19.525L127.113 19.836L126.803 20.995" />
<path fill="none" stroke="#000000" stroke-width="0.600" d="M126.803 16.277L127.113 17.436L125.954 17.746" />
<path fill="none" stroke="#000000" stroke-width="0.600" d="M130.040 15.387L129.192 16.236L128.343 15.387" />
<path fill="none" stroke="#000000" stroke-width="0.600" d="M132.429 17.746L131.270 17.436L131.581 16.277" />
<path fill="none" stroke="#000000" stroke-width="0.600" d="M131.581 20.995L131.270 19.836L132.429 19.525" />
<path fill="none" stroke="#000000" stroke-width="0.600" d="M128.281 33.109L128.281 35.509" />
<path fill="none" stroke="#000000" stroke-width="0.600" d="M128.281 33.109L126.203 34.309" />
<path fill="none" stroke="#000000" stroke-width="0.600" d="M128.281 33.109L126.203 31.909" />
<path fill="none" stroke="#000000" stroke-width="0.600" d="M128.281 33.109L128.281 30.709" />
<path fill="none" stroke="#000000" stroke-width="0.600" d="M128.281 33.109L130.359 31.909" />
<path fill="none" stroke="#000000" stroke-width="0.600" d="M128.281 33.109L130.359 34.309" />
<path fill="none" stroke="#000000" stroke-width="0.600" d="M127.432 36.357L128.281 35.509L129.130 36.357" />
<path fill="none" stroke="#000000" stroke-width="0.600" d="M125.043 33.998L126.203 34.309L125.892 35.468" />
<path fill="none" stroke="#000000" stroke-width="0.600" d="M125.892 30.750L126.203 31.909L125.043 32.219" />
<path fill="none" stroke="#000000" stroke-width="0.600" d="M129.130 29.860L128.281 30.709L127.432 29.860" />
<path fill="none" stroke="#000000" stroke-width="0.600" d="M131.519 32.219L130.359 31.909L130.670 30.750" />
<path fill="none" stroke="#000000" stroke-width="0.600" d="M130.670 35.468L130.359 34.309L131.519 33.998" />
<path fill="none" stroke="#000000" stroke-width="0.600" d="M125.609 58.065L125.609 60.465" />
<path fill="none" stroke="#000000" stroke-width="0.600" d="M125.609 58.065L123.530 59.265" />
<path fill="none" stroke="#000000" stroke-width="0.600" d="M125.609 58.065L123.530 56.865" />
<path fill="none" stroke="#000000" stroke-width="0.600" d="M125.609 58.065L125.609 55.665" />
<path fill="none" stroke="#000000" stroke-width="0.600" d="M125.609 58.065L127.687 56.865" />
<path fill="none" stroke="#000000" stroke-width="0.600" d="M125.609 58.065L127.687 59.265" />
<path fill="none" stroke="#000000" stroke-width="0.600" d="M124.760 61.313L125.609 60.465L126.457 61.313" />
<path fill="none" stroke="#000000" stroke-width="0.600" d="M122.371 58.954L123.530 59.265L123.220 60.424" />
<path fill="none" stroke="#000000" stroke-width="0.600" d="M123.220 55.705L123.530 56.865L122.371 57.175" />
<path fill="none" stroke="#000000" stroke-width="0.600" d="M126.457 54.816L125.609 55.665L124.760 54.816" />
<path fill="none" stroke="#000000" stroke-width="0.600" d="M128.846 57.175L127.687 56.865L127.998 55.705" />
<path fill="none" stroke="#000000" stroke-width="0.600" d="M127.998 60.424L127.687 59.265L128.846 58.954" />
<path fill="none" stroke="#000000" stroke-width="0.600" d="M125.753 63.123L125.753 65.523" />
<path fill="none" stroke="#000000" stroke-width="0.600" d="M125.753 63.123L123.674 64.323" />
<path fill="none" stroke="#000000" stroke-width="0.600" d="M125.753 63.123L123.674 61.923" />
<path fill="none" stroke="#000000" stroke-width="0.600" d="M125.753 63.123L125.753 60.723" />
<path fill="none" stroke="#000000" stroke-width="0.600" d="M125.753 63.123L127.831 61.923" />
<path fill="none" stroke="#000000" stroke-width="0.600" d="M125.753 63.123L127.831 64.323" />
<path fill="none" stroke="#000000" stroke-width="0.600" d="M124.904 66.371L125.753 65.523L126.601 66.371" />
<path fill="none" stroke="#000000" stroke-width="0.600" d="M122.515 64.012L123.674 64.323L123.364 65.482" />
<path fill="none" stroke="#000000" stroke-width="0.600" d="M123.364 60.763L123.674 61.923L122.515 62.233" />
<path fill="none" stroke="#000000" stroke-width="0.600" d="M126.601 59.874L125.753 60.723L124.904 59.874" />
<path fill="none" stroke="#000000" stroke-width="0.600" d="M128.990 62.233L127.831 61.923L128.142 60.763" />
<path fill="none" stroke="#000000" stroke-width="0.600" d="M128.142 65.482L127.831 64.323L128.990 64.012" />
</g>
</g>
</g>
</g>
</g>
<g id="G_aaaaaaa_renders/out.svg">
</g>
<g id="B_aaaaaaa_renders/out.svg">
<path fill="none" stroke="inherit" stroke-width="0.420" d="M0.810 83.000L147.190 83.000L147.190 1.000L0.810 1.000Z" />
</g>
<g id="I_aaaaaaa_renders/out.svg">
<path fill="inherit" stroke="none" d="M0.810 82.000C0.810 54.667 0.810 27.333 0.810 0.000C49.603 0.000 98.397 0.000 147.190 0.000C147.190 27.333 147.190 54.667 147.190 82.000C98.397 82.000 49.603 82.000 0.810 82.000Z" />
</g>
<g id="E_aaaaaaa_renders/out.svg">
</g>
<g id="X_aaaaaaa_renders/out.svg">
</g>
<clipPath id="clip_viewBox">
<path d="M-1293.809 1348.596L-1089.116 1348.596L-1089.116 1489.289L-1293.809 1489.289z" />
</clipPath>
</defs>
<g transform="scale(1,-1)" fill="#000000" stroke="#000000" stroke-linecap="round" stroke-linejoin="round" stroke-miterlimit="10" fill-rule="evenodd" clip-rule="evenodd" clip-path="url(#clip_viewBox)">
<g fill="#ffffff">
<use x="-1265.462" y="1377.943" xlink:href="#I_aaaaaaa_renders/out.svg" />
</g>
<use x="-1265.462" y="1377.943" xlink:href="#F_aaaaaaa_renders/out.svg" />
</g>
</svg>
