<?xml version="1.0" encoding="utf-8" standalone="no"?>
<!-- Generated by Therion 6.0.3 (2021-10-03) -->
<!DOCTYPE svg PUBLIC "-//W3C//DTD SVG 1.1//EN" "http://www.w3.org/Graphics/SVG/1.1/DTD/svg11.dtd">
<svg width="7cm" height="4cm" viewBox="-1263 -1459 142 81" xmlns="http://www.w3.org/2000/svg" xmlns:xlink="http://www.w3.org/1999/xlink">
<defs>
<g id="F_aaaaaaa_renders/out.svg">
<g>
<clipPath id="clip_1_renders/out.svg">
  <path d="M0.810 74.000C0.810 46.667 0.810 19.333 0.810 -8.000C49.603 -8.000 98.397 -8.000 147.190 -8.000C147.190 19.333 147.190 46.667 147.190 74.000C98.397 74.000 49.603 74.000 0.810 74.000" />
</clipPath>
<g clip-path="url(#clip_1_renders/out.svg)">
<g>
<clipPath id="clip_2_renders/out.svg">
  <path d="M0.810 74.000L147.190 74.000L147.190 -8.000L0.810 -8.000L0.810 74.000Z" />
</clipPath>
<g clip-path="url(#clip_2_renders/out.svg)">
<path fill="#ffffff" stroke="none" d="M-7.986 38.119L-19.787 36.526L-13.390 22.371L-3.048 27.473Z" />
<path fill="none" stroke="#000000" stroke-width="0.600" d="M-7.986 38.119L-19.787 36.526L-13.390 22.371L-3.048 27.473Z" />
<path fill="#ffffff" stroke="none" d="M34.000 8.087L40.063 21.112L25.559 26.207L21.424 14.406Z" />
<path fill="none" stroke="#000000" stroke-width="0.600" d="M34.000 8.087L40.063 21.112L25.559 26.207L21.424 14.406Z" />
<path fill="#ffffff" stroke="none" d="M29.748 32.852L22.502 40.299L13.437 33.780L20.111 26.476Z" />
<path fill="none" stroke="#000000" stroke-width="0.600" d="M29.748 32.852L22.502 40.299L13.437 33.780L20.111 26.476Z" />
<path fill="#ffffff" stroke="none" d="M26.585 55.669L18.222 61.573L12.726 49.197L24.197 46.355Z" />
<path fill="none" stroke="#000000" stroke-width="0.600" d="M26.585 55.669L18.222 61.573L12.726 49.197L24.197 46.355Z" />
<path fill="#ffffff" stroke="none" d="M42.593 0.916L51.320 1.523L52.648 13.964L45.154 13.499Z" />
<path fill="none" stroke="#000000" stroke-width="0.600" d="M42.593 0.916L51.320 1.523L52.648 13.964L45.154 13.499Z" />
<path fill="#ffffff" stroke="none" d="M46.715 25.327L48.108 34.276L32.577 36.672L32.955 22.439Z" />
<path fill="none" stroke="#000000" stroke-width="0.600" d="M46.715 25.327L48.108 34.276L32.577 36.672L32.955 22.439Z" />
<path fill="#ffffff" stroke="none" d="M38.170 54.575L44.638 58.627L43.287 71.645L34.264 65.577Z" />
<path fill="none" stroke="#000000" stroke-width="0.600" d="M38.170 54.575L44.638 58.627L43.287 71.645L34.264 65.577Z" />
<path fill="#ffffff" stroke="none" d="M71.347 14.402L61.471 15.050L62.335 0.625L73.192 4.628Z" />
<path fill="none" stroke="#000000" stroke-width="0.600" d="M71.347 14.402L61.471 15.050L62.335 0.625L73.192 4.628Z" />
<path fill="#ffffff" stroke="none" d="M53.862 34.575L66.732 31.364L71.133 40.816L63.647 46.903Z" />
<path fill="none" stroke="#000000" stroke-width="0.600" d="M53.862 34.575L66.732 31.364L71.133 40.816L63.647 46.903Z" />
<path fill="#ffffff" stroke="none" d="M95.700 19.559L81.115 12.626L90.390 1.261L98.291 5.189Z" />
<path fill="none" stroke="#000000" stroke-width="0.600" d="M95.700 19.559L81.115 12.626L90.390 1.261L98.291 5.189Z" />
<path fill="#ffffff" stroke="none" d="M99.122 28.703L95.678 42.469L83.515 29.662L93.156 24.874Z" />
<path fill="none" stroke="#000000" stroke-width="0.600" d="M99.122 28.703L95.678 42.469L83.515 29.662L93.156 24.874Z" />
<path fill="#ffffff" stroke="none" d="M107.718 17.463L102.342 5.599L113.841 5.520L116.908 13.361Z" />
<path fill="none" stroke="#000000" stroke-width="0.600" d="M107.718 17.463L102.342 5.599L113.841 5.520L116.908 13.361Z" />
<path fill="#ffffff" stroke="none" d="M126.874 43.508L119.233 54.097L107.800 48.386L114.539 34.493Z" />
<path fill="none" stroke="#000000" stroke-width="0.600" d="M126.874 43.508L119.233 54.097L107.800 48.386L114.539 34.493Z" />
<path fill="#ffffff" stroke="none" d="M107.329 71.334L104.284 60.030L119.737 60.166L116.948 71.792Z" />
<path fill="none" stroke="#000000" stroke-width="0.600" d="M107.329 71.334L104.284 60.030L119.737 60.166L116.948 71.792Z" />
<path fill="#ffffff" stroke="none" d="M145.153 14.557L140.995 28.303L130.641 22.105L136.413 12.039Z" />
<path fill="none" stroke="#000000" stroke-width="0.600" d="M145.153 14.557L140.995 28.303L130.641 22.105L136.413 12.039Z" />
</g>
</g>
</g>
</g>
</g>
<g id="G_aaaaaaa_renders/out.svg">
</g>
<g id="B_aaaaaaa_renders/out.svg">
<path fill="none" stroke="inherit" stroke-width="0.420" d="M0.810 83.000L147.190 83.000L147.190 1.000L0.810 1.000Z" />
</g>
<g id="I_aaaaaaa_renders/out.svg">
<path fill="inherit" stroke="none" d="M0.810 82.000C0.810 54.667 0.810 27.333 0.810 0.000C49.603 0.000 98.397 0.000 147.190 0.000C147.190 27.333 147.190 54.667 147.190 82.000C98.397 82.000 49.603 82.000 0.810 82.000Z" />
</g>
<g id="E_aaaaaaa_renders/out.svg">
</g>
<g id="X_aaaaaaa_renders/out.svg">
</g>
<clipPath id="clip_viewBox">
<path d="M-1293.809 1348.596L-1089.116 1348.596L-1089.116 1489.289L-1293.809 1489.289z" />
</clipPath>
</defs>
<g transform="scale(1,-1)" fill="#000000" stroke="#000000" stroke-linecap="round" stroke-linejoin="round" stroke-miterlimit="10" fill-rule="evenodd" clip-rule="evenodd" clip-path="url(#clip_viewBox)">
<g fill="#ffffff">
<use x="-1265.462" y="1377.943" xlink:href="#I_aaaaaaa_renders/out.svg" />
</g>
<use x="-1265.462" y="1385.943" xlink:href="#F_aaaaaaa_renders/out.svg" />
</g>
</svg>
