<?xml version="1.0" encoding="utf-8" standalone="no"?>
<!-- Generated by Therion 6.0.3 (2021-10-03) -->
<!DOCTYPE svg PUBLIC "-//W3C//DTD SVG 1.1//EN" "http://www.w3.org/Graphics/SVG/1.1/DTD/svg11.dtd">
<svg width="7cm" height="4cm" viewBox="-1263 -1459 142 81" xmlns="http://www.w3.org/2000/svg" xmlns:xlink="http://www.w3.org/1999/xlink">
<defs>
<g id="F_aaaaaaa_renders/out.svg">
<g>
<clipPath id="clip_1_renders/out.svg">
  <path d="M0.810 82.000C0.810 54.667 0.810 27.333 0.810 0.000C49.603 0.000 98.397 0.000 147.190 0.000C147.190 27.333 147.190 54.667 147.190 82.000C98.397 82.000 49.603 82.000 0.810 82.000" />
</clipPath>
<g clip-path="url(#clip_1_renders/out.svg)">
<g>
<clipPath id="clip_2_renders/out.svg">
  <path d="M0.810 82.000L147.190 82.000L147.190 0.000L0.810 0.000L0.810 82.000Z" />
</clipPath>
<g clip-path="url(#clip_2_renders/out.svg)">
<path fill="none" stroke="#000000" stroke-width="0.600" d="M-7.179 2.557C-7.694 4.925 -4.108 4.722 -4.020 2.610C-4.045 0.568 -1.747 0.536 -1.610 2.586" />
<path fill="none" stroke="#000000" stroke-width="0.600" d="M1.461 22.100C1.452 23.805 4.393 23.771 4.640 22.094C4.022 20.259 7.401 20.381 7.618 21.806" />
<path fill="none" stroke="#000000" stroke-width="0.600" d="M9.946 -2.614C10.264 -0.754 13.344 -0.886 13.534 -3.237C13.504 -5.035 16.324 -4.678 16.385 -2.687" />
<path fill="none" stroke="#000000" stroke-width="0.600" d="M20.438 17.956C20.697 20.217 23.845 20.596 23.777 18.682C23.764 16.483 26.859 16.394 26.740 18.062" />
<path fill="none" stroke="#000000" stroke-width="0.600" d="M12.751 30.663C13.313 33.000 15.976 33.099 15.831 30.523C16.044 28.602 18.844 29.070 18.776 31.094" />
<path fill="none" stroke="#000000" stroke-width="0.600" d="M14.312 45.768C14.201 48.351 17.156 48.169 17.633 45.970C17.067 44.303 20.233 44.109 20.528 46.246" />
<path fill="none" stroke="#000000" stroke-width="0.600" d="M17.155 64.524C17.506 66.123 20.589 66.326 19.979 64.915C20.241 62.131 23.096 62.338 23.059 64.458" />
<path fill="none" stroke="#000000" stroke-width="0.600" d="M27.655 -9.290C27.133 -7.785 30.714 -7.732 30.440 -9.246C29.917 -11.738 32.923 -11.276 33.632 -9.870" />
<path fill="none" stroke="#000000" stroke-width="0.600" d="M39.521 12.932C39.128 14.873 42.543 14.686 42.316 12.894C42.753 11.322 45.387 10.898 45.273 13.289" />
<path fill="none" stroke="#000000" stroke-width="0.600" d="M30.419 34.487C30.535 36.335 33.696 36.567 33.763 33.987C33.743 32.358 36.902 32.670 36.821 34.088" />
<path fill="none" stroke="#000000" stroke-width="0.600" d="M30.268 50.944C29.818 52.695 33.314 53.026 33.147 50.769C33.040 48.819 35.932 48.834 35.909 51.325" />
<path fill="none" stroke="#000000" stroke-width="0.600" d="M35.554 74.736C34.996 76.508 38.279 76.479 38.365 74.426C38.257 72.434 41.116 72.646 41.538 74.629" />
<path fill="none" stroke="#000000" stroke-width="0.600" d="M54.950 -9.096C55.362 -6.529 57.639 -6.494 57.909 -8.721C57.885 -10.998 60.924 -11.067 60.867 -8.690" />
<path fill="none" stroke="#000000" stroke-width="0.600" d="M55.768 10.821C55.668 12.690 58.982 13.326 58.531 11.129C58.529 9.131 61.787 9.423 61.837 10.826" />
<path fill="none" stroke="#000000" stroke-width="0.600" d="M46.869 41.145C46.814 43.374 50.102 43.064 49.927 41.471C50.573 39.507 53.184 39.558 53.089 41.424" />
<path fill="none" stroke="#000000" stroke-width="0.600" d="M45.920 46.966C46.213 49.170 49.493 48.800 48.991 46.727C48.868 45.388 51.938 45.135 52.141 46.861" />
<path fill="none" stroke="#000000" stroke-width="0.600" d="M43.821 66.412C44.020 68.067 47.188 68.551 46.907 66.532C47.254 64.753 50.015 64.739 49.581 66.695" />
<path fill="none" stroke="#000000" stroke-width="0.600" d="M68.598 1.791C68.199 4.197 71.320 3.948 71.358 2.247C71.787 0.413 74.520 -0.098 74.728 1.813" />
<path fill="none" stroke="#000000" stroke-width="0.600" d="M74.139 15.454C74.246 17.782 77.517 17.375 77.313 15.901C76.960 13.526 80.650 13.170 79.932 15.664" />
<path fill="none" stroke="#000000" stroke-width="0.600" d="M65.712 30.027C65.409 32.027 68.690 31.941 68.442 30.650C69.068 28.407 72.113 28.096 71.762 30.213" />
<path fill="none" stroke="#000000" stroke-width="0.600" d="M71.085 50.969C70.910 52.748 73.992 52.941 74.085 51.070C74.054 48.766 77.383 48.763 77.446 51.143" />
<path fill="none" stroke="#000000" stroke-width="0.600" d="M75.316 63.254C74.927 64.933 77.962 64.535 78.034 63.015C78.314 60.668 81.474 61.255 81.348 63.069" />
<path fill="none" stroke="#000000" stroke-width="0.600" d="M88.215 -7.195C88.293 -5.870 90.981 -5.413 91.300 -7.645C90.677 -9.554 94.356 -9.824 94.232 -7.571" />
<path fill="none" stroke="#000000" stroke-width="0.600" d="M90.091 21.527C89.768 23.437 92.757 23.886 93.049 21.303C92.749 19.457 96.191 19.782 96.478 21.564" />
<path fill="none" stroke="#000000" stroke-width="0.600" d="M90.736 27.054C90.691 28.823 93.707 28.611 93.768 26.919C93.647 24.648 96.659 24.386 96.787 26.647" />
<path fill="none" stroke="#000000" stroke-width="0.600" d="M79.521 59.686C79.659 61.444 82.565 61.755 82.850 59.512C82.931 57.810 85.973 57.305 85.537 59.495" />
<path fill="none" stroke="#000000" stroke-width="0.600" d="M89.373 66.573C89.040 68.070 92.314 68.349 91.820 66.082C92.333 64.444 94.985 63.992 94.924 66.506" />
<path fill="none" stroke="#000000" stroke-width="0.600" d="M96.785 -5.662C96.541 -3.633 99.303 -3.857 99.460 -5.368C99.633 -7.930 102.393 -7.697 102.635 -6.023" />
<path fill="none" stroke="#000000" stroke-width="0.600" d="M101.621 14.282C101.079 16.723 104.590 16.502 104.434 14.594C104.428 12.021 107.196 12.278 107.216 14.346" />
<path fill="none" stroke="#000000" stroke-width="0.600" d="M98.168 31.776C98.176 34.359 101.522 33.946 101.588 32.479C101.515 30.377 104.795 30.063 104.213 32.449" />
<path fill="none" stroke="#000000" stroke-width="0.600" d="M102.639 45.721C102.790 47.225 105.280 47.486 105.309 45.215C105.749 43.551 108.460 43.807 108.540 45.515" />
<path fill="none" stroke="#000000" stroke-width="0.600" d="M96.823 75.919C96.236 77.590 99.480 77.454 99.266 75.568C99.243 73.780 102.440 73.414 102.663 75.526" />
<path fill="none" stroke="#000000" stroke-width="0.600" d="M117.268 -3.780C116.786 -1.474 120.282 -1.826 120.047 -3.384C120.008 -5.405 123.029 -5.634 123.259 -3.257" />
<path fill="none" stroke="#000000" stroke-width="0.600" d="M126.763 19.085C127.008 20.882 129.486 20.871 129.985 18.834C129.848 17.362 132.550 17.120 132.645 19.168" />
<path fill="none" stroke="#000000" stroke-width="0.600" d="M125.228 33.669C125.469 35.515 128.557 36.202 128.286 34.054C128.600 31.702 131.581 31.424 131.792 34.181" />
<path fill="none" stroke="#000000" stroke-width="0.600" d="M127.201 58.836C127.803 61.369 130.169 61.349 130.215 58.882C130.285 56.897 133.300 57.131 133.720 59.168" />
<path fill="none" stroke="#000000" stroke-width="0.600" d="M122.995 67.581C123.485 69.303 126.139 69.132 126.352 67.487C126.186 65.261 129.600 65.486 128.931 67.644" />
<path fill="none" stroke="#000000" stroke-width="0.600" d="M147.478 1.717C147.783 3.634 150.550 4.036 150.186 1.958C150.369 -0.057 153.876 -0.341 153.411 1.491" />
<path fill="none" stroke="#000000" stroke-width="0.600" d="M141.117 16.419C141.205 18.062 144.062 18.403 144.444 15.795C144.274 14.287 147.527 14.464 147.008 15.746" />
<path fill="none" stroke="#000000" stroke-width="0.600" d="M135.483 71.052C135.395 73.436 137.967 73.689 138.122 71.476C138.122 69.644 141.333 69.234 141.005 71.319" />
</g>
</g>
</g>
</g>
</g>
<g id="G_aaaaaaa_renders/out.svg">
</g>
<g id="B_aaaaaaa_renders/out.svg">
<path fill="none" stroke="inherit" stroke-width="0.420" d="M0.810 83.000L147.190 83.000L147.190 1.000L0.810 1.000Z" />
</g>
<g id="I_aaaaaaa_renders/out.svg">
<path fill="inherit" stroke="none" d="M0.810 82.000C0.810 54.667 0.810 27.333 0.810 0.000C49.603 0.000 98.397 0.000 147.190 0.000C147.190 27.333 147.190 54.667 147.190 82.000C98.397 82.000 49.603 82.000 0.810 82.000Z" />
</g>
<g id="E_aaaaaaa_renders/out.svg">
</g>
<g id="X_aaaaaaa_renders/out.svg">
</g>
<clipPath id="clip_viewBox">
<path d="M-1293.809 1348.596L-1089.116 1348.596L-1089.116 1489.289L-1293.809 1489.289z" />
</clipPath>
</defs>
<g transform="scale(1,-1)" fill="#000000" stroke="#000000" stroke-linecap="round" stroke-linejoin="round" stroke-miterlimit="10" fill-rule="evenodd" clip-rule="evenodd" clip-path="url(#clip_viewBox)">
<g fill="#ffffff">
<use x="-1265.462" y="1377.943" xlink:href="#I_aaaaaaa_renders/out.svg" />
</g>
<use x="-1265.462" y="1377.943" xlink:href="#F_aaaaaaa_renders/out.svg" />
</g>
</svg>
