<?xml version="1.0" encoding="utf-8" standalone="no"?>
<!-- Generated by Therion 6.0.3 (2021-10-03) -->
<!DOCTYPE svg PUBLIC "-//W3C//DTD SVG 1.1//EN" "http://www.w3.org/Graphics/SVG/1.1/DTD/svg11.dtd">
<svg width="7cm" height="4cm" viewBox="-1263 -1459 142 81" xmlns="http://www.w3.org/2000/svg" xmlns:xlink="http://www.w3.org/1999/xlink">
<defs>
<pattern id="patt_pattern_mudcrack_SBE_renders/out.svg" patternUnits="userSpaceOnUse" width="17.999" height="17.933" patternTransform="matrix(1.000 0.000 0.000 1.000 0.000 0.000)">
<g transform="translate(8.999 8.967)" fill="black" stroke="black">
<path fill="none" stroke="inherit" stroke-width="0.526" stroke-linecap="butt" stroke-linejoin="miter" d="M-8.737 5.354L-5.255 2.660L-2.233 3.646L1.182 0.361L2.693 2.529L7.160 -1.412L5.584 -7.193L7.160 -6.799L8.737 -4.106" />
<path fill="none" stroke="inherit" stroke-width="0.263" stroke-linecap="butt" stroke-linejoin="miter" d="M-4.007 -8.704L-4.795 -7.390L0.197 -6.011L-3.153 -4.894L-2.562 -1.806L-0.920 -0.296L-0.131 2.857L-1.511 6.076L5.781 7.718L4.927 8.770" />
<path fill="none" stroke="inherit" stroke-width="0.394" stroke-linecap="butt" stroke-linejoin="miter" d="M-8.737 5.354L-4.007 8.770" />
<path fill="none" stroke="inherit" stroke-width="0.526" stroke-linecap="butt" stroke-linejoin="miter" d="M-8.671 -4.106L-6.569 -1.806L-4.007 -4.106L-2.562 -1.806" />
<path fill="none" stroke="inherit" stroke-width="0.526" stroke-linecap="butt" stroke-linejoin="miter" d="M4.927 -8.704L3.876 -6.076L4.927 -4.106L2.693 2.529L7.357 6.996L5.781 7.718" />
<path fill="none" stroke="inherit" stroke-width="0.526" stroke-linecap="butt" stroke-linejoin="miter" d="M8.671 5.354L7.357 6.996L4.927 0.493" />
</g>
</pattern>
<g id="F_aaaaaaa_renders/out.svg">
<g>
<clipPath id="clip_1_renders/out.svg">
  <path d="M0.810 82.000C0.810 54.667 0.810 27.333 0.810 0.000C49.603 0.000 98.397 0.000 147.190 0.000C147.190 27.333 147.190 54.667 147.190 82.000C98.397 82.000 49.603 82.000 0.810 82.000" />
</clipPath>
<g clip-path="url(#clip_1_renders/out.svg)">
<path fill="#ffffff" stroke="none" d="M0.810 82.000L147.190 82.000L147.190 0.000L0.810 0.000L0.810 82.000Z" />
<path fill="url(#patt_pattern_mudcrack_SBE_renders/out.svg)" stroke="none" d="M0.810 82.000L147.190 82.000L147.190 0.000L0.810 0.000L0.810 82.000Z" />
</g>
</g>
</g>
<g id="G_aaaaaaa_renders/out.svg">
</g>
<g id="B_aaaaaaa_renders/out.svg">
<path fill="none" stroke="inherit" stroke-width="0.420" d="M0.810 83.000L147.190 83.000L147.190 1.000L0.810 1.000Z" />
</g>
<g id="I_aaaaaaa_renders/out.svg">
<path fill="inherit" stroke="none" d="M0.810 82.000C0.810 54.667 0.810 27.333 0.810 0.000C49.603 0.000 98.397 0.000 147.190 0.000C147.190 27.333 147.190 54.667 147.190 82.000C98.397 82.000 49.603 82.000 0.810 82.000Z" />
</g>
<g id="E_aaaaaaa_renders/out.svg">
</g>
<g id="X_aaaaaaa_renders/out.svg">
</g>
<clipPath id="clip_viewBox">
<path d="M-1293.809 1348.596L-1089.116 1348.596L-1089.116 1489.289L-1293.809 1489.289z" />
</clipPath>
</defs>
<g transform="scale(1,-1)" fill="#000000" stroke="#000000" stroke-linecap="round" stroke-linejoin="round" stroke-miterlimit="10" fill-rule="evenodd" clip-rule="evenodd" clip-path="url(#clip_viewBox)">
<g fill="#ffffff">
<use x="-1265.462" y="1377.943" xlink:href="#I_aaaaaaa_renders/out.svg" />
</g>
<use x="-1265.462" y="1377.943" xlink:href="#F_aaaaaaa_renders/out.svg" />
</g>
</svg>
