<?xml version="1.0" encoding="utf-8" standalone="no"?>
<!-- Generated by Therion 6.0.3 (2021-10-03) -->
<!DOCTYPE svg PUBLIC "-//W3C//DTD SVG 1.1//EN" "http://www.w3.org/Graphics/SVG/1.1/DTD/svg11.dtd">
<svg width="7cm" height="4cm" viewBox="-1263 -1459 142 81" xmlns="http://www.w3.org/2000/svg" xmlns:xlink="http://www.w3.org/1999/xlink">
<defs>
<g id="F_aaaaaaa_renders/out.svg">
<g>
<clipPath id="clip_1_renders/out.svg">
  <path d="M0.810 82.000C0.810 54.667 0.810 27.333 0.810 0.000C49.603 0.000 98.397 0.000 147.190 0.000C147.190 27.333 147.190 54.667 147.190 82.000C98.397 82.000 49.603 82.000 0.810 82.000" />
</clipPath>
<g clip-path="url(#clip_1_renders/out.svg)">
<g>
<clipPath id="clip_2_renders/out.svg">
  <path d="M0.810 82.000L147.190 82.000L147.190 0.000L0.810 0.000L0.810 82.000Z" />
</clipPath>
<g clip-path="url(#clip_2_renders/out.svg)">
<path fill="none" stroke="#000000" stroke-width="0.600" d="M1.120 -3.917h0.001" />
<path fill="none" stroke="#000000" stroke-width="0.600" d="M-4.291 11.944h0.001" />
<path fill="none" stroke="#000000" stroke-width="0.600" d="M1.869 21.814h0.001" />
<path fill="none" stroke="#000000" stroke-width="0.600" d="M2.793 32.638h0.001" />
<path fill="none" stroke="#000000" stroke-width="0.600" d="M2.531 44.198h0.001" />
<path fill="none" stroke="#000000" stroke-width="0.600" d="M-4.840 55.865h0.001" />
<path fill="none" stroke="#000000" stroke-width="0.600" d="M-3.399 68.393h0.001" />
<path fill="none" stroke="#000000" stroke-width="0.600" d="M-2.918 84.552h0.001" />
<path fill="none" stroke="#000000" stroke-width="0.600" d="M12.334 -2.271h0.001" />
<path fill="none" stroke="#000000" stroke-width="0.600" d="M12.237 6.634h0.001" />
<path fill="none" stroke="#000000" stroke-width="0.600" d="M11.623 18.275h0.001" />
<path fill="none" stroke="#000000" stroke-width="0.600" d="M14.210 33.669h0.001" />
<path fill="none" stroke="#000000" stroke-width="0.600" d="M7.726 47.401h0.001" />
<path fill="none" stroke="#000000" stroke-width="0.600" d="M11.709 60.679h0.001" />
<path fill="none" stroke="#000000" stroke-width="0.600" d="M13.988 66.640h0.001" />
<path fill="none" stroke="#000000" stroke-width="0.600" d="M13.775 85.298h0.001" />
<path fill="none" stroke="#000000" stroke-width="0.600" d="M25.662 -6.160h0.001" />
<path fill="none" stroke="#000000" stroke-width="0.600" d="M24.797 9.843h0.001" />
<path fill="none" stroke="#000000" stroke-width="0.600" d="M23.686 18.952h0.001" />
<path fill="none" stroke="#000000" stroke-width="0.600" d="M24.633 33.723h0.001" />
<path fill="none" stroke="#000000" stroke-width="0.600" d="M23.259 45.866h0.001" />
<path fill="none" stroke="#000000" stroke-width="0.600" d="M21.164 58.477h0.001" />
<path fill="none" stroke="#000000" stroke-width="0.600" d="M20.424 71.322h0.001" />
<path fill="none" stroke="#000000" stroke-width="0.600" d="M24.646 85.310h0.001" />
<path fill="none" stroke="#000000" stroke-width="0.600" d="M33.070 0.437h0.001" />
<path fill="none" stroke="#000000" stroke-width="0.600" d="M38.276 12.273h0.001" />
<path fill="none" stroke="#000000" stroke-width="0.600" d="M35.066 22.546h0.001" />
<path fill="none" stroke="#000000" stroke-width="0.600" d="M38.066 35.813h0.001" />
<path fill="none" stroke="#000000" stroke-width="0.600" d="M31.149 43.136h0.001" />
<path fill="none" stroke="#000000" stroke-width="0.600" d="M31.669 54.367h0.001" />
<path fill="none" stroke="#000000" stroke-width="0.600" d="M37.438 67.762h0.001" />
<path fill="none" stroke="#000000" stroke-width="0.600" d="M36.735 78.130h0.001" />
<path fill="none" stroke="#000000" stroke-width="0.600" d="M43.633 -4.497h0.001" />
<path fill="none" stroke="#000000" stroke-width="0.600" d="M48.464 12.688h0.001" />
<path fill="none" stroke="#000000" stroke-width="0.600" d="M50.489 24.923h0.001" />
<path fill="none" stroke="#000000" stroke-width="0.600" d="M45.108 29.852h0.001" />
<path fill="none" stroke="#000000" stroke-width="0.600" d="M49.169 47.419h0.001" />
<path fill="none" stroke="#000000" stroke-width="0.600" d="M48.679 57.520h0.001" />
<path fill="none" stroke="#000000" stroke-width="0.600" d="M47.240 73.266h0.001" />
<path fill="none" stroke="#000000" stroke-width="0.600" d="M47.318 78.297h0.001" />
<path fill="none" stroke="#000000" stroke-width="0.600" d="M56.355 1.964h0.001" />
<path fill="none" stroke="#000000" stroke-width="0.600" d="M59.695 12.492h0.001" />
<path fill="none" stroke="#000000" stroke-width="0.600" d="M60.533 23.106h0.001" />
<path fill="none" stroke="#000000" stroke-width="0.600" d="M62.532 31.422h0.001" />
<path fill="none" stroke="#000000" stroke-width="0.600" d="M62.212 45.541h0.001" />
<path fill="none" stroke="#000000" stroke-width="0.600" d="M60.321 61.288h0.001" />
<path fill="none" stroke="#000000" stroke-width="0.600" d="M60.964 73.196h0.001" />
<path fill="none" stroke="#000000" stroke-width="0.600" d="M56.855 81.466h0.001" />
<path fill="none" stroke="#000000" stroke-width="0.600" d="M66.761 -5.458h0.001" />
<path fill="none" stroke="#000000" stroke-width="0.600" d="M69.475 9.286h0.001" />
<path fill="none" stroke="#000000" stroke-width="0.600" d="M71.032 25.261h0.001" />
<path fill="none" stroke="#000000" stroke-width="0.600" d="M70.318 38.167h0.001" />
<path fill="none" stroke="#000000" stroke-width="0.600" d="M70.181 48.074h0.001" />
<path fill="none" stroke="#000000" stroke-width="0.600" d="M71.177 59.148h0.001" />
<path fill="none" stroke="#000000" stroke-width="0.600" d="M69.927 67.659h0.001" />
<path fill="none" stroke="#000000" stroke-width="0.600" d="M74.587 83.230h0.001" />
<path fill="none" stroke="#000000" stroke-width="0.600" d="M79.448 -3.754h0.001" />
<path fill="none" stroke="#000000" stroke-width="0.600" d="M85.342 11.788h0.001" />
<path fill="none" stroke="#000000" stroke-width="0.600" d="M81.808 24.827h0.001" />
<path fill="none" stroke="#000000" stroke-width="0.600" d="M80.288 30.783h0.001" />
<path fill="none" stroke="#000000" stroke-width="0.600" d="M82.526 43.612h0.001" />
<path fill="none" stroke="#000000" stroke-width="0.600" d="M80.422 60.528h0.001" />
<path fill="none" stroke="#000000" stroke-width="0.600" d="M79.710 72.775h0.001" />
<path fill="none" stroke="#000000" stroke-width="0.600" d="M82.412 80.293h0.001" />
<path fill="none" stroke="#000000" stroke-width="0.600" d="M93.675 -4.808h0.001" />
<path fill="none" stroke="#000000" stroke-width="0.600" d="M92.516 13.308h0.001" />
<path fill="none" stroke="#000000" stroke-width="0.600" d="M92.039 23.398h0.001" />
<path fill="none" stroke="#000000" stroke-width="0.600" d="M97.047 33.308h0.001" />
<path fill="none" stroke="#000000" stroke-width="0.600" d="M91.108 48.812h0.001" />
<path fill="none" stroke="#000000" stroke-width="0.600" d="M92.845 58.775h0.001" />
<path fill="none" stroke="#000000" stroke-width="0.600" d="M95.947 72.214h0.001" />
<path fill="none" stroke="#000000" stroke-width="0.600" d="M95.138 78.788h0.001" />
<path fill="none" stroke="#000000" stroke-width="0.600" d="M106.350 -1.934h0.001" />
<path fill="none" stroke="#000000" stroke-width="0.600" d="M110.034 5.863h0.001" />
<path fill="none" stroke="#000000" stroke-width="0.600" d="M110.901 19.989h0.001" />
<path fill="none" stroke="#000000" stroke-width="0.600" d="M104.495 38.176h0.001" />
<path fill="none" stroke="#000000" stroke-width="0.600" d="M107.251 41.940h0.001" />
<path fill="none" stroke="#000000" stroke-width="0.600" d="M105.722 56.119h0.001" />
<path fill="none" stroke="#000000" stroke-width="0.600" d="M105.342 69.372h0.001" />
<path fill="none" stroke="#000000" stroke-width="0.600" d="M108.635 79.048h0.001" />
<path fill="none" stroke="#000000" stroke-width="0.600" d="M122.357 -0.053h0.001" />
<path fill="none" stroke="#000000" stroke-width="0.600" d="M116.872 6.749h0.001" />
<path fill="none" stroke="#000000" stroke-width="0.600" d="M122.979 19.307h0.001" />
<path fill="none" stroke="#000000" stroke-width="0.600" d="M120.103 36.414h0.001" />
<path fill="none" stroke="#000000" stroke-width="0.600" d="M114.611 43.245h0.001" />
<path fill="none" stroke="#000000" stroke-width="0.600" d="M114.674 60.091h0.001" />
<path fill="none" stroke="#000000" stroke-width="0.600" d="M122.115 65.856h0.001" />
<path fill="none" stroke="#000000" stroke-width="0.600" d="M116.391 77.975h0.001" />
<path fill="none" stroke="#000000" stroke-width="0.600" d="M131.111 -3.475h0.001" />
<path fill="none" stroke="#000000" stroke-width="0.600" d="M126.984 7.903h0.001" />
<path fill="none" stroke="#000000" stroke-width="0.600" d="M131.339 17.936h0.001" />
<path fill="none" stroke="#000000" stroke-width="0.600" d="M128.952 32.123h0.001" />
<path fill="none" stroke="#000000" stroke-width="0.600" d="M133.537 48.620h0.001" />
<path fill="none" stroke="#000000" stroke-width="0.600" d="M129.696 56.168h0.001" />
<path fill="none" stroke="#000000" stroke-width="0.600" d="M128.500 72.269h0.001" />
<path fill="none" stroke="#000000" stroke-width="0.600" d="M134.947 80.424h0.001" />
<path fill="none" stroke="#000000" stroke-width="0.600" d="M141.055 -0.913h0.001" />
<path fill="none" stroke="#000000" stroke-width="0.600" d="M142.273 9.487h0.001" />
<path fill="none" stroke="#000000" stroke-width="0.600" d="M143.961 23.924h0.001" />
<path fill="none" stroke="#000000" stroke-width="0.600" d="M144.661 29.837h0.001" />
<path fill="none" stroke="#000000" stroke-width="0.600" d="M144.456 45.734h0.001" />
<path fill="none" stroke="#000000" stroke-width="0.600" d="M146.118 61.000h0.001" />
<path fill="none" stroke="#000000" stroke-width="0.600" d="M145.271 66.893h0.001" />
<path fill="none" stroke="#000000" stroke-width="0.600" d="M142.151 82.207h0.001" />
</g>
</g>
</g>
</g>
</g>
<g id="G_aaaaaaa_renders/out.svg">
</g>
<g id="B_aaaaaaa_renders/out.svg">
<path fill="none" stroke="inherit" stroke-width="0.420" d="M0.810 83.000L147.190 83.000L147.190 1.000L0.810 1.000Z" />
</g>
<g id="I_aaaaaaa_renders/out.svg">
<path fill="inherit" stroke="none" d="M0.810 82.000C0.810 54.667 0.810 27.333 0.810 0.000C49.603 0.000 98.397 0.000 147.190 0.000C147.190 27.333 147.190 54.667 147.190 82.000C98.397 82.000 49.603 82.000 0.810 82.000Z" />
</g>
<g id="E_aaaaaaa_renders/out.svg">
</g>
<g id="X_aaaaaaa_renders/out.svg">
</g>
<clipPath id="clip_viewBox">
<path d="M-1293.809 1348.596L-1089.116 1348.596L-1089.116 1489.289L-1293.809 1489.289z" />
</clipPath>
</defs>
<g transform="scale(1,-1)" fill="#000000" stroke="#000000" stroke-linecap="round" stroke-linejoin="round" stroke-miterlimit="10" fill-rule="evenodd" clip-rule="evenodd" clip-path="url(#clip_viewBox)">
<g fill="#ffffff">
<use x="-1265.462" y="1377.943" xlink:href="#I_aaaaaaa_renders/out.svg" />
</g>
<use x="-1265.462" y="1377.943" xlink:href="#F_aaaaaaa_renders/out.svg" />
</g>
</svg>
