<?xml version="1.0" encoding="utf-8" standalone="no"?>
<!-- Generated by Therion 6.0.3 (2021-10-03) -->
<!DOCTYPE svg PUBLIC "-//W3C//DTD SVG 1.1//EN" "http://www.w3.org/Graphics/SVG/1.1/DTD/svg11.dtd">
<svg width="7cm" height="4cm" viewBox="-1263 -1459 142 81" xmlns="http://www.w3.org/2000/svg" xmlns:xlink="http://www.w3.org/1999/xlink">
<defs>
<g id="F_aaaaaaa_renders/out.svg">
<g>
<clipPath id="clip_1_renders/out.svg">
  <path d="M0.810 83.000C0.810 55.667 0.810 28.333 0.810 1.000C49.603 1.000 98.397 1.000 147.190 1.000C147.190 28.333 147.190 55.667 147.190 83.000C98.397 83.000 49.603 83.000 0.810 83.000" />
</clipPath>
<g clip-path="url(#clip_1_renders/out.svg)">
<path fill="#ffe5aa" stroke="none" d="M0.810 83.000L147.190 83.000L147.190 1.000L0.810 1.000L0.810 83.000Z" />
<path fill="none" stroke="#ff9800" stroke-width="1.200" d="M0.810 83.000L147.190 83.000L147.190 1.000L0.810 1.000L0.810 83.000Z" />
</g>
</g>
</g>
<g id="G_aaaaaaa_renders/out.svg">
</g>
<g id="B_aaaaaaa_renders/out.svg">
<path fill="none" stroke="inherit" stroke-width="0.420" d="M0.810 83.000L147.190 83.000L147.190 1.000L0.810 1.000Z" />
</g>
<g id="I_aaaaaaa_renders/out.svg">
<path fill="inherit" stroke="none" d="M0.810 82.000C0.810 54.667 0.810 27.333 0.810 0.000C49.603 0.000 98.397 0.000 147.190 0.000C147.190 27.333 147.190 54.667 147.190 82.000C98.397 82.000 49.603 82.000 0.810 82.000Z" />
</g>
<g id="E_aaaaaaa_renders/out.svg">
</g>
<g id="X_aaaaaaa_renders/out.svg">
</g>
<clipPath id="clip_viewBox">
<path d="M-1293.809 1348.596L-1089.116 1348.596L-1089.116 1489.289L-1293.809 1489.289z" />
</clipPath>
</defs>
<g transform="scale(1,-1)" fill="#000000" stroke="#000000" stroke-linecap="round" stroke-linejoin="round" stroke-miterlimit="10" fill-rule="evenodd" clip-rule="evenodd" clip-path="url(#clip_viewBox)">
<g fill="#ffffff">
<use x="-1265.462" y="1377.943" xlink:href="#I_aaaaaaa_renders/out.svg" />
</g>
<use x="-1265.462" y="1376.943" xlink:href="#F_aaaaaaa_renders/out.svg" />
</g>
</svg>
