<?xml version="1.0" encoding="utf-8" standalone="no"?>
<!-- Generated by Therion 6.2.1 (2024-03-20) -->
<!DOCTYPE svg PUBLIC "-//W3C//DTD SVG 1.1//EN" "http://www.w3.org/Graphics/SVG/1.1/DTD/svg11.dtd">
<svg width="0.412cm" height="0.412cm" viewBox="-5.835 -5.835 11.669 11.669" xmlns="http://www.w3.org/2000/svg" xmlns:xlink="http://www.w3.org/1999/xlink">
<defs>
<g id="F_aaaaaaa_renders/subtype/natural.svg">
</g>
<g id="G_aaaaaaa_renders/subtype/natural.svg">
</g>
<g id="B_aaaaaaa_renders/subtype/natural.svg">
</g>
<g id="I_aaaaaaa_renders/subtype/natural.svg">
</g>
<g id="E_aaaaaaa_renders/subtype/natural.svg">
<path fill="#ffffff" stroke="none" d="M4.800 3.000C4.800 3.477 4.610 3.935 4.273 4.273C3.935 4.610 3.477 4.800 3.000 4.800C2.523 4.800 2.065 4.610 1.727 4.273C1.390 3.935 1.200 3.477 1.200 3.000C1.200 2.523 1.390 2.065 1.727 1.727C2.065 1.390 2.523 1.200 3.000 1.200C3.477 1.200 3.935 1.390 4.273 1.727C4.610 2.065 4.800 2.523 4.800 3.000Z" />
<path fill="none" stroke="#000000" stroke-width="0.420" d="M4.800 3.000C4.800 3.477 4.610 3.935 4.273 4.273C3.935 4.610 3.477 4.800 3.000 4.800C2.523 4.800 2.065 4.610 1.727 4.273C1.390 3.935 1.200 3.477 1.200 3.000C1.200 2.523 1.390 2.065 1.727 1.727C2.065 1.390 2.523 1.200 3.000 1.200C3.477 1.200 3.935 1.390 4.273 1.727C4.610 2.065 4.800 2.523 4.800 3.000Z" />
<path fill="none" stroke="#000000" stroke-width="0.420" d="M3.000 3.000h0.001" />
</g>
<g id="X_aaaaaaa_renders/subtype/natural.svg">
</g>
<clipPath id="clip_viewBox">
<path d="M-5.835 -5.835L5.835 -5.835L5.835 5.835L-5.835 5.835z" />
</clipPath>
</defs>
<g transform="scale(1,-1)" fill="#000000" stroke="#000000" stroke-linecap="round" stroke-linejoin="round" stroke-miterlimit="10" fill-rule="evenodd" clip-rule="evenodd" clip-path="url(#clip_viewBox)">
<use x="-3.000" y="-3.000" xlink:href="#E_aaaaaaa_renders/subtype/natural.svg" />
</g>
</svg>
