<?xml version="1.0" encoding="utf-8" standalone="no"?>
<!-- Generated by Therion 6.2.1 (2024-03-20) -->
<!DOCTYPE svg PUBLIC "-//W3C//DTD SVG 1.1//EN" "http://www.w3.org/Graphics/SVG/1.1/DTD/svg11.dtd">
<svg width="0.341cm" height="0.341cm" viewBox="-4.835 -4.835 9.669 9.669" xmlns="http://www.w3.org/2000/svg" xmlns:xlink="http://www.w3.org/1999/xlink">
<defs>
<g id="F_aaaaaaa_renders/subtype/painted.svg">
</g>
<g id="G_aaaaaaa_renders/subtype/painted.svg">
</g>
<g id="B_aaaaaaa_renders/subtype/painted.svg">
</g>
<g id="I_aaaaaaa_renders/subtype/painted.svg">
</g>
<g id="E_aaaaaaa_renders/subtype/painted.svg">
<path fill="#ffffff" stroke="none" d="M3.500 2.000C3.500 2.398 3.342 2.779 3.061 3.061C2.779 3.342 2.398 3.500 2.000 3.500C1.602 3.500 1.221 3.342 0.939 3.061C0.658 2.779 0.500 2.398 0.500 2.000C0.500 1.602 0.658 1.221 0.939 0.939C1.221 0.658 1.602 0.500 2.000 0.500C2.398 0.500 2.779 0.658 3.061 0.939C3.342 1.221 3.500 1.602 3.500 2.000Z" />
<path fill="none" stroke="#000000" stroke-width="0.600" d="M3.500 2.000C3.500 2.398 3.342 2.779 3.061 3.061C2.779 3.342 2.398 3.500 2.000 3.500C1.602 3.500 1.221 3.342 0.939 3.061C0.658 2.779 0.500 2.398 0.500 2.000C0.500 1.602 0.658 1.221 0.939 0.939C1.221 0.658 1.602 0.500 2.000 0.500C2.398 0.500 2.779 0.658 3.061 0.939C3.342 1.221 3.500 1.602 3.500 2.000Z" />
</g>
<g id="X_aaaaaaa_renders/subtype/painted.svg">
</g>
<clipPath id="clip_viewBox">
<path d="M-4.835 -4.835L4.835 -4.835L4.835 4.835L-4.835 4.835z" />
</clipPath>
</defs>
<g transform="scale(1,-1)" fill="#000000" stroke="#000000" stroke-linecap="round" stroke-linejoin="round" stroke-miterlimit="10" fill-rule="evenodd" clip-rule="evenodd" clip-path="url(#clip_viewBox)">
<use x="-2.000" y="-2.000" xlink:href="#E_aaaaaaa_renders/subtype/painted.svg" />
</g>
</svg>
