<?xml version="1.0" encoding="utf-8" standalone="no"?>
<!-- Generated by Therion 6.2.1 (2024-03-20) -->
<!DOCTYPE svg PUBLIC "-//W3C//DTD SVG 1.1//EN" "http://www.w3.org/Graphics/SVG/1.1/DTD/svg11.dtd">
<svg width="0.412cm" height="0.412cm" viewBox="-5.835 -5.835 11.669 11.669" xmlns="http://www.w3.org/2000/svg" xmlns:xlink="http://www.w3.org/1999/xlink">
<defs>
<g id="F_aaaaaaa_renders/subtype/temporary.svg">
</g>
<g id="G_aaaaaaa_renders/subtype/temporary.svg">
</g>
<g id="B_aaaaaaa_renders/subtype/temporary.svg">
</g>
<g id="I_aaaaaaa_renders/subtype/temporary.svg">
</g>
<g id="E_aaaaaaa_renders/subtype/temporary.svg">
<path fill="none" stroke="#000000" stroke-width="0.420" d="M0.600 3.000L5.400 3.000" />
<path fill="none" stroke="#000000" stroke-width="0.420" d="M3.000 0.600L3.000 5.400" />
<path fill="#ffffff" stroke="none" d="M3.960 3.000C3.960 3.255 3.859 3.499 3.679 3.679C3.499 3.859 3.255 3.960 3.000 3.960C2.745 3.960 2.501 3.859 2.321 3.679C2.141 3.499 2.040 3.255 2.040 3.000C2.040 2.745 2.141 2.501 2.321 2.321C2.501 2.141 2.745 2.040 3.000 2.040C3.255 2.040 3.499 2.141 3.679 2.321C3.859 2.501 3.960 2.745 3.960 3.000Z" />
<path fill="none" stroke="#000000" stroke-width="0.600" d="M3.000 3.000h0.001" />
</g>
<g id="X_aaaaaaa_renders/subtype/temporary.svg">
</g>
<clipPath id="clip_viewBox">
<path d="M-5.835 -5.835L5.835 -5.835L5.835 5.835L-5.835 5.835z" />
</clipPath>
</defs>
<g transform="scale(1,-1)" fill="#000000" stroke="#000000" stroke-linecap="round" stroke-linejoin="round" stroke-miterlimit="10" fill-rule="evenodd" clip-rule="evenodd" clip-path="url(#clip_viewBox)">
<use x="-3.000" y="-3.000" xlink:href="#E_aaaaaaa_renders/subtype/temporary.svg" />
</g>
</svg>
